<?xml version="1.0" encoding="utf-8" standalone="no"?>
<!DOCTYPE svg PUBLIC "-//W3C//DTD SVG 1.1//EN"
  "http://www.w3.org/Graphics/SVG/1.1/DTD/svg11.dtd">
<svg xmlns:xlink="http://www.w3.org/1999/xlink" width="193.167441pt" height="197.037719pt" viewBox="0 0 193.167441 197.037719" xmlns="http://www.w3.org/2000/svg" version="1.1">
 <metadata>
  <rdf:RDF xmlns:dc="http://purl.org/dc/elements/1.1/" xmlns:cc="http://creativecommons.org/ns#" xmlns:rdf="http://www.w3.org/1999/02/22-rdf-syntax-ns#">
   <cc:Work>
    <dc:type rdf:resource="http://purl.org/dc/dcmitype/StillImage"/>
    <dc:date>2022-05-19T15:23:07.232159</dc:date>
    <dc:format>image/svg+xml</dc:format>
    <dc:creator>
     <cc:Agent>
      <dc:title>Matplotlib v3.5.1, https://matplotlib.org/</dc:title>
     </cc:Agent>
    </dc:creator>
   </cc:Work>
  </rdf:RDF>
 </metadata>
 <defs>
  <style type="text/css">*{stroke-linejoin: round; stroke-linecap: butt}</style>
 </defs>
 <g id="figure_1">
  <g id="patch_1">
   <path d="M -0 197.037719 
L 193.167441 197.037719 
L 193.167441 -0 
L -0 -0 
L -0 197.037719 
z
" style="fill: none"/>
  </g>
  <g id="axes_1">
   <g id="patch_2">
    <path d="M 12.065 40.586087 
L 46.030217 40.586087 
L 46.030217 7.2 
L 12.065 7.2 
z
" style="fill: #ffffff"/>
   </g>
   <g id="matplotlib.axis_1">
    <g id="xtick_1">
     <g id="line2d_1">
      <defs>
       <path id="m946ec8310e" d="M 0 0 
L 0 2 
" style="stroke: #000000; stroke-width: 0.5"/>
      </defs>
      <g>
       <use xlink:href="#m946ec8310e" x="12.065" y="45.586087" style="stroke: #000000; stroke-width: 0.5"/>
      </g>
     </g>
     <g id="text_1">
      <text style="font: 7px 'Arial'; text-anchor: middle" x="12.065" y="56.096556" transform="rotate(-0, 12.065, 56.096556)">0.4</text>
     </g>
    </g>
    <g id="xtick_2">
     <g id="line2d_2">
      <g>
       <use xlink:href="#m946ec8310e" x="46.030217" y="45.586087" style="stroke: #000000; stroke-width: 0.5"/>
      </g>
     </g>
     <g id="text_2">
      <text style="font: 7px 'Arial'; text-anchor: middle" x="46.030217" y="56.096556" transform="rotate(-0, 46.030217, 56.096556)">3</text>
     </g>
    </g>
    <g id="text_3">
     <!-- $C$ -->
     <g transform="translate(26.127609 67.214056)">
      <text>
       <tspan style="font: 8px 'Arial'" x="0" y="-0.171875">C</tspan>
      </text>
     </g>
    </g>
   </g>
   <g id="matplotlib.axis_2">
    <g id="ytick_1"/>
    <g id="ytick_2"/>
   </g>
   <g id="line2d_3">
    <path d="M 12.065 37.688947 
L 12.758168 37.688947 
L 13.451335 37.688947 
L 14.144503 37.688947 
L 14.837671 37.688944 
L 15.530839 37.688881 
L 16.224006 37.688199 
L 16.917174 37.684269 
L 17.610342 37.672332 
L 18.303509 37.651243 
L 18.996677 37.617111 
L 19.689845 37.551342 
L 20.383012 37.457331 
L 21.07618 37.370756 
L 21.769348 37.297508 
L 22.462516 37.200039 
L 23.155683 37.094194 
L 23.848851 37.062251 
L 24.542019 37.098153 
L 25.235186 37.151566 
L 25.928354 37.183642 
L 26.621522 37.141677 
L 27.314689 37.068283 
L 28.007857 36.99917 
L 28.701025 36.874845 
L 29.394193 36.68977 
L 30.08736 36.525863 
L 30.780528 36.387594 
L 31.473696 36.150066 
L 32.166863 35.774837 
L 32.860031 35.397713 
L 33.553199 34.976891 
L 34.246366 34.277421 
L 34.939534 33.38809 
L 35.632702 32.533767 
L 36.32587 31.66432 
L 37.019037 30.577215 
L 37.712205 29.129317 
L 38.405373 27.418263 
L 39.09854 25.67957 
L 39.791708 24.03682 
L 40.484876 22.501352 
L 41.178043 20.880755 
L 41.871211 18.910677 
L 42.564379 16.660516 
L 43.257547 14.237321 
L 43.950714 11.650178 
L 44.643882 10.09714 
L 45.33705 12.594172 
L 46.030217 20.540667 
" clip-path="url(#p983274d7bc)" style="fill: none; stroke: #d62728; stroke-width: 1.1; stroke-linecap: square"/>
   </g>
   <g id="line2d_4">
    <path d="M 12.065 37.688947 
L 12.758168 37.688947 
L 13.451335 37.688947 
L 14.144503 37.688947 
L 14.837671 37.688947 
L 15.530839 37.688947 
L 16.224006 37.688947 
L 16.917174 37.688947 
L 17.610342 37.688947 
L 18.303509 37.688946 
L 18.996677 37.688928 
L 19.689845 37.688632 
L 20.383012 37.685805 
L 21.07618 37.669726 
L 21.769348 37.614551 
L 22.462516 37.496037 
L 23.155683 37.319874 
L 23.848851 37.096736 
L 24.542019 36.817231 
L 25.235186 36.517844 
L 25.928354 36.286326 
L 26.621522 36.154864 
L 27.314689 36.113734 
L 28.007857 36.169149 
L 28.701025 36.274486 
L 29.394193 36.305513 
L 30.08736 36.182942 
L 30.780528 35.920131 
L 31.473696 35.527921 
L 32.166863 35.015633 
L 32.860031 34.50077 
L 33.553199 34.086595 
L 34.246366 33.667516 
L 34.939534 33.063831 
L 35.632702 32.186368 
L 36.32587 31.115815 
L 37.019037 30.067078 
L 37.712205 29.028912 
L 38.405373 27.726968 
L 39.09854 26.071539 
L 39.791708 24.349072 
L 40.484876 22.833091 
L 41.178043 21.368955 
L 41.871211 19.690894 
L 42.564379 17.658328 
L 43.257547 15.225415 
L 43.950714 12.753281 
L 44.643882 11.625674 
L 45.33705 14.375579 
L 46.030217 21.776217 
" clip-path="url(#p983274d7bc)" style="fill: none; stroke: #ff7f0e; stroke-width: 1.1; stroke-linecap: square"/>
   </g>
   <g id="line2d_5">
    <path d="M 43.741484 39.068538 
L 43.741484 8.717549 
" clip-path="url(#p983274d7bc)" style="fill: none; stroke: #1f77b4; stroke-width: 1.1; stroke-linecap: square"/>
   </g>
   <g id="line2d_6">
    <path d="M 45.304349 39.068538 
L 45.304349 8.717549 
" clip-path="url(#p983274d7bc)" style="fill: none; stroke: #ff7f0e; stroke-width: 1.1; stroke-linecap: square"/>
   </g>
   <g id="line2d_7">
    <path d="M 34.125783 39.068538 
L 34.125783 8.717549 
" clip-path="url(#p983274d7bc)" style="fill: none; stroke: #2ca02c; stroke-width: 1.1; stroke-linecap: square"/>
   </g>
   <g id="line2d_8">
    <path d="M 40.560798 39.068538 
L 40.560798 8.717549 
" clip-path="url(#p983274d7bc)" style="fill: none; stroke: #d62728; stroke-width: 1.1; stroke-linecap: square"/>
   </g>
   <g id="patch_3">
    <path d="M 12.065 45.586087 
L 46.030217 45.586087 
" style="fill: none; stroke: #000000; stroke-width: 0.7; stroke-linejoin: miter; stroke-linecap: square"/>
   </g>
  </g>
  <g id="axes_2">
   <g id="patch_4">
    <path d="M 52.823261 40.586087 
L 86.788478 40.586087 
L 86.788478 7.2 
L 52.823261 7.2 
z
" style="fill: #ffffff"/>
   </g>
   <g id="matplotlib.axis_3">
    <g id="xtick_3"/>
    <g id="xtick_4"/>
   </g>
   <g id="matplotlib.axis_4">
    <g id="ytick_3"/>
    <g id="ytick_4"/>
   </g>
   <g id="PathCollection_1">
    <path d="M 73.966471 7.2 
L 73.298919 7.881349 
L 71.647531 10.606744 
L 71.290128 11.288092 
L 69.960585 14.013487 
L 69.045338 16.057533 
L 68.766118 16.897642 
L 68.414535 17.420231 
L 66.560241 22.189672 
L 66.210061 22.87102 
L 65.715745 24.233718 
L 65.30028 25.286527 
L 64.39378 26.959113 
L 63.46224 29.684508 
L 62.527609 31.151986 
L 62.215993 31.728554 
L 62.151516 32.409902 
L 62.527609 32.796574 
L 63.220776 32.738616 
L 64.740159 31.728554 
L 65.30028 31.492371 
L 68.318574 29.684508 
L 68.975758 29.003159 
L 70.845621 25.822513 
L 72.422358 24.233718 
L 73.527713 22.87102 
L 73.74045 22.189672 
L 74.31146 21.437622 
L 75.863478 20.145626 
L 77.08413 18.689622 
L 82.829992 11.969441 
L 85.402143 9.604355 
L 85.723497 9.244046 
L 86.643621 7.2 
L 86.643621 7.2 
" clip-path="url(#p94748fd859)" style="fill: none; stroke: #d62728; stroke-width: 1.1"/>
   </g>
   <g id="PathCollection_2">
    <path d="M 75.480761 7.2 
L 75.004627 7.622403 
L 74.745384 7.881349 
L 74.31146 8.434869 
L 74.200206 8.562697 
L 73.758854 9.244046 
L 73.618292 9.541958 
L 73.386139 9.925395 
L 73.063339 10.606744 
L 72.925124 10.95329 
L 72.737198 11.288092 
L 72.416758 11.969441 
L 72.231957 12.442035 
L 72.110157 12.65079 
L 71.737388 13.332138 
L 71.538789 13.82212 
L 71.418895 14.013487 
L 71.08436 14.694836 
L 70.845621 15.36115 
L 70.837322 15.376185 
L 70.533953 16.057533 
L 70.307117 16.738882 
L 70.197548 17.420231 
L 70.186802 18.101579 
L 70.152453 18.431109 
L 70.108429 18.782928 
L 70.012839 19.464277 
L 70.023457 20.145626 
L 70.152453 20.510059 
L 70.845621 20.57627 
L 71.514534 20.145626 
L 71.538789 20.133556 
L 72.231957 19.622333 
L 72.385133 19.464277 
L 72.925124 19.003962 
L 73.148922 18.782928 
L 73.618292 18.337833 
L 73.883352 18.101579 
L 74.31146 17.720005 
L 74.69832 17.420231 
L 75.004627 17.196214 
L 75.567878 16.738882 
L 75.697795 16.646248 
L 76.290672 16.057533 
L 76.390963 15.966083 
L 76.958071 15.376185 
L 77.08413 15.239409 
L 77.683731 14.694836 
L 77.777298 14.60287 
L 78.470466 14.045668 
L 78.501616 14.013487 
L 79.163634 13.367101 
L 79.190358 13.332138 
L 79.756737 12.65079 
L 79.856801 12.539815 
L 80.336728 11.969441 
L 80.549969 11.737492 
L 80.960161 11.288092 
L 81.243137 10.997319 
L 81.609069 10.606744 
L 81.936304 10.254042 
L 82.247597 9.925395 
L 82.629472 9.43763 
L 82.813115 9.244046 
L 83.258116 8.562697 
L 83.32264 8.412501 
L 83.653868 7.881349 
L 83.775611 7.2 
" clip-path="url(#p94748fd859)" style="fill: none; stroke: #d62728; stroke-width: 1.1"/>
   </g>
   <g id="PathCollection_3">
    <path d="M 76.854002 7.2 
L 76.390963 7.510626 
L 75.956862 7.881349 
L 75.697795 8.154606 
L 75.327027 8.562697 
L 75.004627 9.040639 
L 74.857086 9.244046 
L 74.462479 9.925395 
L 74.31146 10.222085 
L 74.091608 10.606744 
L 73.760403 11.288092 
L 73.618292 11.56083 
L 73.390236 11.969441 
L 73.0452 12.65079 
L 72.925124 12.885484 
L 72.68406 13.332138 
L 72.418164 14.013487 
L 72.231957 14.629292 
L 72.210494 14.694836 
L 72.170643 15.376185 
L 72.231957 15.653108 
L 72.742366 16.057533 
L 72.925124 16.149483 
L 73.207044 16.057533 
L 73.618292 15.972677 
L 74.31146 15.684253 
L 74.790887 15.376185 
L 75.004627 15.271015 
L 75.665213 14.694836 
L 75.697795 14.672173 
L 76.368381 14.013487 
L 76.390963 13.993849 
L 77.058391 13.332138 
L 77.08413 13.307614 
L 77.770705 12.65079 
L 77.777298 12.644509 
L 78.470466 11.975912 
L 78.476789 11.969441 
L 79.138037 11.288092 
L 79.163634 11.262867 
L 79.818791 10.606744 
L 79.856801 10.570357 
L 80.549969 9.934999 
L 80.560548 9.925395 
L 81.243137 9.34059 
L 81.343627 9.244046 
L 81.936304 8.611352 
L 81.975008 8.562697 
L 82.291063 7.881349 
L 82.111722 7.2 
" clip-path="url(#p94748fd859)" style="fill: none; stroke: #d62728; stroke-width: 1.1"/>
   </g>
   <g id="PathCollection_4">
    <path d="M 77.234878 7.2 
L 77.08413 7.423865 
L 76.637531 7.881349 
L 76.390963 8.239257 
L 76.087432 8.562697 
L 75.697795 9.141837 
L 75.597823 9.244046 
L 75.059577 9.925395 
L 75.004627 10.058423 
L 74.519395 10.606744 
L 74.31146 11.156276 
L 74.187397 11.288092 
L 73.683229 11.969441 
L 73.618292 12.165711 
L 73.174681 12.65079 
L 72.944584 13.332138 
L 72.925124 13.387803 
L 72.3506 14.013487 
L 72.231957 14.578332 
L 72.119679 14.694836 
L 71.640125 15.376185 
L 71.538789 15.834974 
L 71.3414 16.057533 
L 70.94694 16.738882 
L 70.847427 17.420231 
L 70.845621 17.425431 
L 70.253341 18.101579 
L 70.152453 18.416562 
L 69.811438 18.782928 
L 69.52738 19.464277 
L 69.459286 19.643197 
L 69.083709 20.145626 
L 68.784098 20.826974 
L 68.766118 20.853993 
L 68.222075 21.508323 
L 68.07295 21.874092 
L 67.800332 22.189672 
L 67.490679 22.87102 
L 67.379783 23.021623 
L 66.892869 23.552369 
L 66.686615 23.911596 
L 66.343671 24.233718 
L 66.042654 24.915067 
L 65.993447 24.968273 
L 65.433948 25.596415 
L 65.30028 25.805933 
L 64.837725 26.277764 
L 64.607112 26.924757 
L 64.572402 26.959113 
L 64.050082 27.640461 
L 63.913944 28.0203 
L 63.640633 28.32181 
L 63.354379 29.003159 
L 63.220776 29.426586 
L 63.012819 29.684508 
L 62.80461 30.365856 
L 63.220776 31.005909 
L 63.873328 30.365856 
L 63.913944 30.349346 
L 64.586983 29.684508 
L 64.607112 29.66916 
L 65.30028 29.055903 
L 65.385765 29.003159 
L 65.993447 28.554609 
L 66.18585 28.32181 
L 66.686615 27.883855 
L 66.869245 27.640461 
L 67.374417 26.959113 
L 67.379783 26.951855 
L 67.959988 26.277764 
L 68.07295 26.084657 
L 68.543995 25.596415 
L 68.766118 25.277506 
L 69.132545 24.915067 
L 69.459286 24.585551 
L 69.774458 24.233718 
L 70.152453 23.750434 
L 70.33559 23.552369 
L 70.796167 22.87102 
L 70.845621 22.813655 
L 71.415432 22.189672 
L 71.538789 22.006765 
L 72.017436 21.508323 
L 72.231957 21.113767 
L 72.515858 20.826974 
L 72.881683 20.145626 
L 72.925124 20.077798 
L 73.479773 19.464277 
L 73.618292 19.155707 
L 73.978881 18.782928 
L 74.271915 18.101579 
L 74.31146 18.029511 
L 74.859245 17.420231 
L 75.004627 17.124219 
L 75.37426 16.738882 
L 75.697795 16.147791 
L 75.791009 16.057533 
L 76.335361 15.376185 
L 76.390963 15.287582 
L 76.967142 14.694836 
L 77.08413 14.486009 
L 77.590854 14.013487 
L 77.777298 13.517478 
L 77.931231 13.332138 
L 78.451441 12.65079 
L 78.470466 12.616594 
L 79.102874 11.969441 
L 79.163634 11.872156 
L 79.702028 11.288092 
L 79.856801 11.12027 
L 80.346703 10.606744 
L 80.549969 10.3911 
L 81.011172 9.925395 
L 81.243137 9.597118 
L 81.596701 9.244046 
L 81.936304 8.590057 
L 81.963796 8.562697 
L 82.554969 7.881349 
L 82.629472 7.722337 
L 83.103325 7.2 
" clip-path="url(#p94748fd859)" style="fill: none; stroke: #ff7f0e; stroke-width: 1.1"/>
   </g>
   <g id="PathCollection_5">
    <path d="M 77.999539 7.2 
L 77.777298 7.425413 
L 77.339027 7.881349 
L 77.08413 8.189868 
L 76.721069 8.562697 
L 76.390963 9.069949 
L 76.222526 9.244046 
L 75.760189 9.925395 
L 75.697795 10.031386 
L 75.207452 10.606744 
L 75.004627 10.979128 
L 74.731212 11.288092 
L 74.364915 11.969441 
L 74.31146 12.059325 
L 73.84536 12.65079 
L 73.618292 13.056958 
L 73.379766 13.332138 
L 73.064868 14.013487 
L 72.925124 14.336531 
L 72.675233 14.694836 
L 72.3572 15.376185 
L 72.231957 15.757033 
L 72.034857 16.057533 
L 71.698365 16.738882 
L 71.538789 17.115452 
L 71.305589 17.420231 
L 71.072754 18.101579 
L 70.860701 18.782928 
L 70.845621 18.823635 
L 70.524725 19.464277 
L 70.267671 20.145626 
L 70.152453 20.334959 
L 69.78964 20.826974 
L 69.706317 21.508323 
L 70.152453 21.832846 
L 70.509352 21.508323 
L 70.845621 21.286831 
L 71.292703 20.826974 
L 71.538789 20.595397 
L 71.910204 20.145626 
L 72.231957 19.75314 
L 72.437467 19.464277 
L 72.925124 18.790041 
L 72.930108 18.782928 
L 73.400749 18.101579 
L 73.618292 17.812327 
L 73.893572 17.420231 
L 74.31146 16.942963 
L 74.477988 16.738882 
L 74.987188 16.057533 
L 75.004627 16.03954 
L 75.509311 15.376185 
L 75.697795 15.18183 
L 76.113848 14.694836 
L 76.390963 14.378631 
L 76.716583 14.013487 
L 77.08413 13.532121 
L 77.265691 13.332138 
L 77.73749 12.65079 
L 77.777298 12.606272 
L 78.31769 11.969441 
L 78.470466 11.795127 
L 78.942227 11.288092 
L 79.163634 11.01853 
L 79.575415 10.606744 
L 79.856801 10.236354 
L 80.167756 9.925395 
L 80.549969 9.406104 
L 80.700764 9.244046 
L 81.219971 8.562697 
L 81.243137 8.518603 
L 81.771314 7.881349 
L 81.936304 7.375533 
L 82.050066 7.2 
" clip-path="url(#p94748fd859)" style="fill: none; stroke: #ff7f0e; stroke-width: 1.1"/>
    <path d="M 69.459286 22.243395 
L 69.526868 22.189672 
L 69.459286 22.069324 
L 69.429795 22.189672 
L 69.459286 22.243395 
z
" clip-path="url(#p94748fd859)" style="fill: none; stroke: #ff7f0e; stroke-width: 1.1"/>
   </g>
   <g id="PathCollection_6">
    <path d="M 78.607108 7.2 
L 78.470466 7.300332 
L 77.887552 7.881349 
L 77.777298 7.999347 
L 77.253448 8.562697 
L 77.08413 8.777479 
L 76.682052 9.244046 
L 76.390963 9.658579 
L 76.166508 9.925395 
L 75.749845 10.606744 
L 75.697795 10.687353 
L 75.257854 11.288092 
L 75.004627 11.741444 
L 74.835623 11.969441 
L 74.40915 12.65079 
L 74.31146 12.82461 
L 73.968471 13.332138 
L 73.668229 14.013487 
L 73.618292 14.089119 
L 73.238717 14.694836 
L 72.936507 15.376185 
L 72.925124 15.392866 
L 72.616731 16.057533 
L 72.334014 16.738882 
L 72.925124 17.361642 
L 73.27642 16.738882 
L 73.618292 16.405211 
L 73.881891 16.057533 
L 74.31146 15.54291 
L 74.475397 15.376185 
L 75.004627 14.762343 
L 75.070051 14.694836 
L 75.697795 14.065781 
L 75.743557 14.013487 
L 76.390963 13.368173 
L 76.420269 13.332138 
L 77.071833 12.65079 
L 77.08413 12.638555 
L 77.694595 11.969441 
L 77.777298 11.878214 
L 78.304084 11.288092 
L 78.470466 11.114822 
L 78.912212 10.606744 
L 79.163634 10.342669 
L 79.527169 9.925395 
L 79.856801 9.569713 
L 80.149794 9.244046 
L 80.549969 8.721474 
L 80.692474 8.562697 
L 81.07143 7.881349 
L 81.243137 7.461321 
L 81.379132 7.2 
" clip-path="url(#p94748fd859)" style="fill: none; stroke: #ff7f0e; stroke-width: 1.1"/>
    <path d="M 72.231957 18.115892 
L 72.242623 18.101579 
L 72.231957 17.964954 
L 72.218638 18.101579 
L 72.231957 18.115892 
z
" clip-path="url(#p94748fd859)" style="fill: none; stroke: #ff7f0e; stroke-width: 1.1"/>
   </g>
   <g id="line2d_9">
    <path d="M 79.032873 9.449708 
" clip-path="url(#p94748fd859)" style="fill: none; stroke: #1f77b4; stroke-linecap: square"/>
    <defs>
     <path id="m9b0c1b15e2" d="M 0 1.75 
C 0.464105 1.75 0.909265 1.565609 1.237437 1.237437 
C 1.565609 0.909265 1.75 0.464105 1.75 0 
C 1.75 -0.464105 1.565609 -0.909265 1.237437 -1.237437 
C 0.909265 -1.565609 0.464105 -1.75 0 -1.75 
C -0.464105 -1.75 -0.909265 -1.565609 -1.237437 -1.237437 
C -1.565609 -0.909265 -1.75 -0.464105 -1.75 0 
C -1.75 0.464105 -1.565609 0.909265 -1.237437 1.237437 
C -0.909265 1.565609 -0.464105 1.75 0 1.75 
z
" style="stroke: #000000"/>
    </defs>
    <g clip-path="url(#p94748fd859)">
     <use xlink:href="#m9b0c1b15e2" x="79.032873" y="9.449708" style="fill: #1f77b4; stroke: #000000"/>
    </g>
   </g>
   <g id="line2d_10">
    <path d="M 79.983116 7.913492 
" clip-path="url(#p94748fd859)" style="fill: none; stroke: #ff7f0e; stroke-linecap: square"/>
    <defs>
     <path id="m525d69cb93" d="M 0 1.75 
C 0.464105 1.75 0.909265 1.565609 1.237437 1.237437 
C 1.565609 0.909265 1.75 0.464105 1.75 0 
C 1.75 -0.464105 1.565609 -0.909265 1.237437 -1.237437 
C 0.909265 -1.565609 0.464105 -1.75 0 -1.75 
C -0.464105 -1.75 -0.909265 -1.565609 -1.237437 -1.237437 
C -1.565609 -0.909265 -1.75 -0.464105 -1.75 0 
C -1.75 0.464105 -1.565609 0.909265 -1.237437 1.237437 
C -0.909265 1.565609 -0.464105 1.75 0 1.75 
z
" style="stroke: #000000"/>
    </defs>
    <g clip-path="url(#p94748fd859)">
     <use xlink:href="#m525d69cb93" x="79.983116" y="7.913492" style="fill: #ff7f0e; stroke: #000000"/>
    </g>
   </g>
   <g id="line2d_11">
    <path d="M 83.294227 18.901455 
" clip-path="url(#p94748fd859)" style="fill: none; stroke: #2ca02c; stroke-linecap: square"/>
    <defs>
     <path id="m414e5b365c" d="M 0 1.75 
C 0.464105 1.75 0.909265 1.565609 1.237437 1.237437 
C 1.565609 0.909265 1.75 0.464105 1.75 0 
C 1.75 -0.464105 1.565609 -0.909265 1.237437 -1.237437 
C 0.909265 -1.565609 0.464105 -1.75 0 -1.75 
C -0.464105 -1.75 -0.909265 -1.565609 -1.237437 -1.237437 
C -1.565609 -0.909265 -1.75 -0.464105 -1.75 0 
C -1.75 0.464105 -1.565609 0.909265 -1.237437 1.237437 
C -0.909265 1.565609 -0.464105 1.75 0 1.75 
z
" style="stroke: #000000"/>
    </defs>
    <g clip-path="url(#p94748fd859)">
     <use xlink:href="#m414e5b365c" x="83.294227" y="18.901455" style="fill: #2ca02c; stroke: #000000"/>
    </g>
   </g>
   <g id="line2d_12">
    <path d="M 73.719623 12.576162 
" clip-path="url(#p94748fd859)" style="fill: none; stroke: #d62728; stroke-linecap: square"/>
    <defs>
     <path id="md968734da2" d="M 0 1.75 
C 0.464105 1.75 0.909265 1.565609 1.237437 1.237437 
C 1.565609 0.909265 1.75 0.464105 1.75 0 
C 1.75 -0.464105 1.565609 -0.909265 1.237437 -1.237437 
C 0.909265 -1.565609 0.464105 -1.75 0 -1.75 
C -0.464105 -1.75 -0.909265 -1.565609 -1.237437 -1.237437 
C -1.565609 -0.909265 -1.75 -0.464105 -1.75 0 
C -1.75 0.464105 -1.565609 0.909265 -1.237437 1.237437 
C -0.909265 1.565609 -0.464105 1.75 0 1.75 
z
" style="stroke: #000000"/>
    </defs>
    <g clip-path="url(#p94748fd859)">
     <use xlink:href="#md968734da2" x="73.719623" y="12.576162" style="fill: #d62728; stroke: #000000"/>
    </g>
   </g>
  </g>
  <g id="axes_3">
   <g id="patch_5">
    <path d="M 93.581522 40.586087 
L 127.546739 40.586087 
L 127.546739 7.2 
L 93.581522 7.2 
z
" style="fill: #ffffff"/>
   </g>
   <g id="matplotlib.axis_5">
    <g id="xtick_5"/>
    <g id="xtick_6"/>
   </g>
   <g id="matplotlib.axis_6">
    <g id="ytick_5"/>
    <g id="ytick_6"/>
   </g>
   <g id="PathCollection_7">
    <path d="M 96.63012 7.2 
L 96.361474 7.881349 
L 96.354193 7.89227 
L 96.00976 8.562697 
L 95.883829 9.244046 
L 95.821592 9.925395 
L 95.765684 10.606744 
L 95.695852 11.288092 
L 95.661025 11.79612 
L 95.640589 11.969441 
L 95.625097 12.65079 
L 95.626742 13.332138 
L 95.661025 13.594074 
L 96.354193 13.727 
L 96.534645 14.013487 
L 96.705076 14.694836 
L 96.983054 15.376185 
L 97.04736 15.478321 
L 97.071856 16.057533 
L 97.090225 16.738882 
L 97.099042 17.420231 
L 97.085478 18.101579 
L 97.064055 18.782928 
L 97.079906 19.464277 
L 97.118239 20.145626 
L 97.131238 20.826974 
L 97.115277 21.508323 
L 97.06349 22.189672 
L 97.04736 22.322847 
L 96.734828 22.87102 
L 96.655577 23.552369 
L 96.658541 24.233718 
L 96.64446 24.915067 
L 96.595142 25.596415 
L 96.551517 26.277764 
L 96.50476 26.959113 
L 96.425725 27.640461 
L 96.354193 27.988889 
L 96.152825 28.32181 
L 95.952467 29.003159 
L 95.889214 29.684508 
L 95.854081 30.365856 
L 95.768644 31.047205 
L 95.661025 31.54498 
L 95.610839 31.728554 
L 95.661025 32.223763 
L 95.725202 32.409902 
L 96.354193 32.823776 
L 96.613837 32.409902 
L 97.04736 31.772547 
L 97.069605 31.728554 
L 97.31787 31.047205 
L 97.467347 30.365856 
L 97.566642 29.684508 
L 97.637111 29.003159 
L 97.705899 28.32181 
L 97.740528 28.057592 
L 97.914398 27.640461 
L 98.112651 26.959113 
L 98.241518 26.277764 
L 98.320289 25.596415 
L 98.381246 24.915067 
L 98.433696 24.410698 
L 98.520234 24.233718 
L 98.781847 23.552369 
L 98.94464 22.87102 
L 99.036425 22.189672 
L 99.084544 21.508323 
L 99.116578 20.826974 
L 99.126863 20.676064 
L 99.41622 20.145626 
L 99.645112 19.464277 
L 99.740178 18.782928 
L 99.781784 18.101579 
L 99.809121 17.420231 
L 99.820031 17.211932 
L 100.119757 16.738882 
L 100.33491 16.057533 
L 100.42238 15.376185 
L 100.467594 14.694836 
L 100.500305 14.013487 
L 100.513199 13.765612 
L 100.784175 13.332138 
L 101.004474 12.65079 
L 101.116571 11.969441 
L 101.206366 11.345106 
L 101.251163 11.288092 
L 101.68217 10.606744 
L 101.809093 9.925395 
L 101.870635 9.244046 
L 101.899534 8.856323 
L 102.074921 8.562697 
L 102.280265 7.881349 
L 102.323406 7.2 
" clip-path="url(#pbade731bc2)" style="fill: none; stroke: #d62728; stroke-width: 1.1"/>
   </g>
   <g id="PathCollection_8">
    <path d="M 98.131454 7.2 
L 97.915304 7.881349 
L 97.792535 8.562697 
L 97.740528 9.043003 
L 97.684137 9.244046 
L 97.675441 9.925395 
L 97.740528 10.305551 
L 97.758352 10.606744 
L 97.789607 11.288092 
L 97.793815 11.969441 
L 97.783665 12.65079 
L 97.781663 13.332138 
L 97.79568 14.013487 
L 97.813133 14.694836 
L 97.821349 15.376185 
L 97.825458 16.057533 
L 97.837788 16.738882 
L 97.859886 17.420231 
L 97.885584 18.101579 
L 97.91337 18.782928 
L 97.943371 19.464277 
L 97.978315 20.145626 
L 98.054648 20.826974 
L 98.392534 21.508323 
L 98.433696 21.544859 
L 98.448047 21.508323 
L 98.66178 20.826974 
L 98.789568 20.145626 
L 98.897663 19.464277 
L 99.057455 18.782928 
L 99.126863 18.606141 
L 99.35339 18.101579 
L 99.516285 17.420231 
L 99.611996 16.738882 
L 99.693437 16.057533 
L 99.776058 15.376185 
L 99.820031 15.041745 
L 99.96897 14.694836 
L 100.182999 14.013487 
L 100.317376 13.332138 
L 100.402262 12.65079 
L 100.461093 11.969441 
L 100.513199 11.383039 
L 100.559312 11.288092 
L 100.884751 10.606744 
L 101.097371 9.925395 
L 101.206366 9.432642 
L 101.289088 9.244046 
L 101.485727 8.562697 
L 101.552547 7.881349 
L 101.4922 7.2 
" clip-path="url(#pbade731bc2)" style="fill: none; stroke: #d62728; stroke-width: 1.1"/>
   </g>
   <g id="PathCollection_9">
    <path d="M 98.739164 7.2 
L 98.515739 7.881349 
L 98.433696 8.392084 
L 98.38145 8.562697 
L 98.288476 9.244046 
L 98.259635 9.925395 
L 98.256037 10.606744 
L 98.276823 11.288092 
L 98.311052 11.969441 
L 98.325091 12.65079 
L 98.314826 13.332138 
L 98.31413 14.013487 
L 98.329085 14.694836 
L 98.333331 15.376185 
L 98.329181 16.057533 
L 98.35653 16.738882 
L 98.429272 17.420231 
L 98.433696 17.457825 
L 98.44685 17.420231 
L 98.981701 16.738882 
L 99.126863 16.673396 
L 99.280053 16.057533 
L 99.436718 15.376185 
L 99.571387 14.694836 
L 99.688586 14.013487 
L 99.820031 13.408981 
L 99.848926 13.332138 
L 100.068918 12.65079 
L 100.195995 11.969441 
L 100.287196 11.288092 
L 100.381275 10.606744 
L 100.490913 9.925395 
L 100.513199 9.794143 
L 100.732933 9.244046 
L 100.886372 8.562697 
L 100.917655 7.881349 
L 100.764942 7.2 
" clip-path="url(#pbade731bc2)" style="fill: none; stroke: #d62728; stroke-width: 1.1"/>
   </g>
   <g id="PathCollection_10">
    <path d="M 97.309144 7.2 
L 97.203587 7.881349 
L 97.14822 8.562697 
L 97.100275 9.244046 
L 97.068105 9.925395 
L 97.058082 10.606744 
L 97.056268 11.288092 
L 97.063084 11.969441 
L 97.073798 12.65079 
L 97.063209 13.332138 
L 97.04736 13.621675 
L 96.354193 13.453769 
L 96.116411 14.013487 
L 96.265495 14.694836 
L 96.354193 14.864373 
L 96.535208 15.376185 
L 96.623838 16.057533 
L 96.686189 16.738882 
L 96.915504 17.420231 
L 97.04736 17.646861 
L 97.058676 18.101579 
L 97.068433 18.782928 
L 97.063966 19.464277 
L 97.04736 20.093225 
L 97.032567 20.145626 
L 96.882385 20.826974 
L 96.849757 21.508323 
L 96.883888 22.189672 
L 96.84044 22.87102 
L 96.650652 23.552369 
L 96.484516 24.233718 
L 96.416937 24.915067 
L 96.396581 25.596415 
L 96.387506 26.277764 
L 96.374396 26.959113 
L 96.354945 27.640461 
L 96.354193 27.677056 
L 96.220103 28.32181 
L 96.199803 29.003159 
L 96.171487 29.684508 
L 96.219973 30.365856 
L 96.354193 30.745619 
L 97.04736 30.571472 
L 97.156991 30.365856 
L 97.448091 29.684508 
L 97.602612 29.003159 
L 97.686559 28.32181 
L 97.740528 27.810434 
L 97.843698 27.640461 
L 98.174508 26.959113 
L 98.30132 26.277764 
L 98.357666 25.596415 
L 98.390089 24.915067 
L 98.423162 24.233718 
L 98.433696 24.131222 
L 98.764707 23.552369 
L 98.954184 22.87102 
L 99.031062 22.189672 
L 99.068992 21.508323 
L 99.09576 20.826974 
L 99.126863 20.164802 
L 99.141072 20.145626 
L 99.570735 19.464277 
L 99.700625 18.782928 
L 99.750264 18.101579 
L 99.77616 17.420231 
L 99.796268 16.738882 
L 99.816551 16.057533 
L 99.820031 15.979446 
L 100.180302 15.376185 
L 100.364742 14.694836 
L 100.450337 14.013487 
L 100.496735 13.332138 
L 100.513199 13.029118 
L 100.729823 12.65079 
L 100.983388 11.969441 
L 101.108678 11.288092 
L 101.18818 10.606744 
L 101.206366 10.490628 
L 101.612039 9.925395 
L 101.802409 9.244046 
L 101.875564 8.562697 
L 101.899534 8.111584 
L 101.989774 7.881349 
L 102.065217 7.2 
" clip-path="url(#pbade731bc2)" style="fill: none; stroke: #ff7f0e; stroke-width: 1.1"/>
   </g>
   <g id="PathCollection_11">
    <path d="M 98.354021 7.2 
L 98.022882 7.881349 
L 97.901151 8.562697 
L 97.858544 9.244046 
L 97.838116 9.925395 
L 97.815777 10.606744 
L 97.800486 11.288092 
L 97.800841 11.969441 
L 97.804448 12.65079 
L 97.801179 13.332138 
L 97.795136 14.013487 
L 97.796536 14.694836 
L 97.803905 15.376185 
L 97.802765 16.057533 
L 97.790734 16.738882 
L 97.779944 17.420231 
L 97.77248 18.101579 
L 97.754779 18.782928 
L 97.740528 19.172455 
L 97.720236 19.464277 
L 97.702572 20.145626 
L 97.704772 20.826974 
L 97.709043 21.508323 
L 97.704829 22.189672 
L 97.679317 22.87102 
L 97.63835 23.552369 
L 97.61932 24.233718 
L 97.701024 24.915067 
L 97.740528 25.001826 
L 97.761915 24.915067 
L 97.837339 24.233718 
L 97.843388 23.552369 
L 97.825708 22.87102 
L 97.840683 22.189672 
L 98.433696 21.733164 
L 98.518374 21.508323 
L 98.708382 20.826974 
L 98.819374 20.145626 
L 98.900713 19.464277 
L 98.993795 18.782928 
L 99.120156 18.101579 
L 99.126863 18.071997 
L 99.345037 17.420231 
L 99.487919 16.738882 
L 99.591376 16.057533 
L 99.671193 15.376185 
L 99.737984 14.694836 
L 99.804993 14.013487 
L 99.820031 13.900877 
L 100.08777 13.332138 
L 100.268856 12.65079 
L 100.37308 11.969441 
L 100.451167 11.288092 
L 100.513199 10.735465 
L 100.57643 10.606744 
L 100.868281 9.925395 
L 101.05331 9.244046 
L 101.182809 8.562697 
L 101.206366 8.358734 
L 101.329072 7.881349 
L 101.319649 7.2 
" clip-path="url(#pbade731bc2)" style="fill: none; stroke: #ff7f0e; stroke-width: 1.1"/>
    <path d="M 97.04736 27.668884 
L 97.056716 27.640461 
L 97.15396 26.959113 
L 97.074176 26.277764 
L 97.04736 26.225376 
L 97.033092 26.277764 
L 96.960512 26.959113 
L 97.038193 27.640461 
L 97.04736 27.668884 
z
" clip-path="url(#pbade731bc2)" style="fill: none; stroke: #ff7f0e; stroke-width: 1.1"/>
   </g>
   <g id="PathCollection_12">
    <path d="M 98.74777 7.2 
L 98.560371 7.881349 
L 98.45594 8.562697 
L 98.433696 8.828315 
L 98.351698 9.244046 
L 98.314771 9.925395 
L 98.294396 10.606744 
L 98.251467 11.288092 
L 98.214643 11.969441 
L 98.197136 12.65079 
L 98.187211 13.332138 
L 98.189341 14.013487 
L 98.212812 14.694836 
L 98.240115 15.376185 
L 98.24773 16.057533 
L 98.253933 16.738882 
L 98.299222 17.420231 
L 98.397519 18.101579 
L 98.433696 18.3294 
L 98.471254 18.101579 
L 98.607763 17.420231 
L 98.746075 16.738882 
L 99.025364 16.057533 
L 99.126863 15.96376 
L 99.295595 15.376185 
L 99.44042 14.694836 
L 99.547184 14.013487 
L 99.642906 13.332138 
L 99.761392 12.65079 
L 99.820031 12.402215 
L 99.970641 11.969441 
L 100.140521 11.288092 
L 100.262849 10.606744 
L 100.365672 9.925395 
L 100.466502 9.244046 
L 100.513199 8.879516 
L 100.603555 8.562697 
L 100.66433 7.881349 
L 100.519824 7.2 
" clip-path="url(#pbade731bc2)" style="fill: none; stroke: #ff7f0e; stroke-width: 1.1"/>
   </g>
   <g id="line2d_13">
    <path d="M 99.991559 9.449708 
" clip-path="url(#pbade731bc2)" style="fill: none; stroke: #1f77b4; stroke-linecap: square"/>
    <g clip-path="url(#pbade731bc2)">
     <use xlink:href="#m9b0c1b15e2" x="99.991559" y="9.449708" style="fill: #1f77b4; stroke: #000000"/>
    </g>
   </g>
   <g id="line2d_14">
    <path d="M 99.920497 7.913492 
" clip-path="url(#pbade731bc2)" style="fill: none; stroke: #ff7f0e; stroke-linecap: square"/>
    <g clip-path="url(#pbade731bc2)">
     <use xlink:href="#m525d69cb93" x="99.920497" y="7.913492" style="fill: #ff7f0e; stroke: #000000"/>
    </g>
   </g>
   <g id="line2d_15">
    <path d="M 97.692429 18.901455 
" clip-path="url(#pbade731bc2)" style="fill: none; stroke: #2ca02c; stroke-linecap: square"/>
    <g clip-path="url(#pbade731bc2)">
     <use xlink:href="#m414e5b365c" x="97.692429" y="18.901455" style="fill: #2ca02c; stroke: #000000"/>
    </g>
   </g>
   <g id="line2d_16">
    <path d="M 99.403403 12.576162 
" clip-path="url(#pbade731bc2)" style="fill: none; stroke: #d62728; stroke-linecap: square"/>
    <g clip-path="url(#pbade731bc2)">
     <use xlink:href="#md968734da2" x="99.403403" y="12.576162" style="fill: #d62728; stroke: #000000"/>
    </g>
   </g>
  </g>
  <g id="axes_4">
   <g id="patch_6">
    <path d="M 134.339783 40.586087 
L 168.305 40.586087 
L 168.305 7.2 
L 134.339783 7.2 
z
" style="fill: #ffffff"/>
   </g>
   <g id="matplotlib.axis_7">
    <g id="xtick_7"/>
    <g id="xtick_8"/>
   </g>
   <g id="matplotlib.axis_8">
    <g id="ytick_7"/>
    <g id="ytick_8"/>
   </g>
   <g id="PathCollection_13">
    <path d="M 149.752403 7.2 
L 149.679945 7.881349 
L 149.653786 8.562697 
L 149.645904 9.244046 
L 149.647468 9.925395 
L 149.656693 10.606744 
L 149.675954 11.288092 
L 149.704471 11.969441 
L 149.71375 12.65079 
L 149.688512 13.332138 
L 149.667217 14.013487 
L 149.663459 14.694836 
L 149.680097 15.376185 
L 149.735625 16.057533 
L 149.906294 16.738882 
L 150.28264 17.297127 
L 150.288054 17.420231 
L 150.29856 18.101579 
L 150.301657 18.782928 
L 150.303579 19.464277 
L 150.30646 20.145626 
L 150.311187 20.826974 
L 150.317208 21.508323 
L 150.322011 22.189672 
L 150.324738 22.87102 
L 150.328634 23.552369 
L 150.335729 24.233718 
L 150.341919 24.915067 
L 150.343004 25.596415 
L 150.344654 26.277764 
L 150.349672 26.959113 
L 150.344786 27.640461 
L 150.327391 28.32181 
L 150.316823 29.003159 
L 150.316473 29.684508 
L 150.325181 30.365856 
L 150.34376 31.047205 
L 150.373941 31.728554 
L 150.42931 32.409902 
L 150.569791 33.091251 
L 150.975807 33.736495 
L 151.381818 33.091251 
L 151.522268 32.409902 
L 151.577501 31.728554 
L 151.607281 31.047205 
L 151.625071 30.365856 
L 151.632567 29.684508 
L 151.630566 29.003159 
L 151.618306 28.32181 
L 151.601058 27.640461 
L 151.598882 26.959113 
L 151.605965 26.277764 
L 151.608372 25.596415 
L 151.609655 24.915067 
L 151.615881 24.233718 
L 151.62298 23.552369 
L 151.626876 22.87102 
L 151.629602 22.189672 
L 151.6344 21.508323 
L 151.640405 20.826974 
L 151.645101 20.145626 
L 151.647883 19.464277 
L 151.649279 18.782928 
L 151.649609 18.101579 
L 151.648752 17.420231 
L 151.647621 16.738882 
L 151.648964 16.057533 
L 151.65243 15.376185 
L 151.654895 14.694836 
L 151.655697 14.013487 
L 151.656085 13.332138 
L 151.657539 12.65079 
L 151.659615 11.969441 
L 151.661119 11.288092 
L 151.661839 10.606744 
L 151.662043 9.925395 
L 151.661908 9.244046 
L 151.661283 8.562697 
L 151.659581 7.881349 
L 151.655271 7.2 
" clip-path="url(#p408f45f50c)" style="fill: none; stroke: #d62728; stroke-width: 1.1"/>
   </g>
   <g id="PathCollection_14">
    <path d="M 150.368609 7.2 
L 150.307152 7.881349 
L 150.28264 8.392625 
L 150.232614 8.562697 
L 150.153787 9.244046 
L 150.169432 9.925395 
L 150.261682 10.606744 
L 150.28264 10.69924 
L 150.29979 11.288092 
L 150.323115 11.969441 
L 150.338344 12.65079 
L 150.327115 13.332138 
L 150.3 14.013487 
L 150.293617 14.694836 
L 150.330229 15.376185 
L 150.404531 16.057533 
L 150.461522 16.738882 
L 150.474067 17.420231 
L 150.473746 18.101579 
L 150.479098 18.782928 
L 150.493453 19.464277 
L 150.521345 20.145626 
L 150.568324 20.826974 
L 150.628386 21.508323 
L 150.676366 22.189672 
L 150.703632 22.87102 
L 150.742593 23.552369 
L 150.813579 24.233718 
L 150.875831 24.915067 
L 150.888635 25.596415 
L 150.912638 26.277764 
L 150.975807 26.891214 
L 151.038878 26.277764 
L 151.062947 25.596415 
L 151.075777 24.915067 
L 151.138034 24.233718 
L 151.209022 23.552369 
L 151.247983 22.87102 
L 151.275248 22.189672 
L 151.323225 21.508323 
L 151.383277 20.826974 
L 151.430233 20.145626 
L 151.458052 19.464277 
L 151.472016 18.782928 
L 151.475314 18.101579 
L 151.466744 17.420231 
L 151.455429 16.738882 
L 151.468867 16.057533 
L 151.503526 15.376185 
L 151.528171 14.694836 
L 151.536192 14.013487 
L 151.540069 13.332138 
L 151.554609 12.65079 
L 151.575377 11.969441 
L 151.590418 11.288092 
L 151.597616 10.606744 
L 151.599658 9.925395 
L 151.598303 9.244046 
L 151.592058 8.562697 
L 151.575032 7.881349 
L 151.531935 7.2 
" clip-path="url(#p408f45f50c)" style="fill: none; stroke: #d62728; stroke-width: 1.1"/>
    <path d="M 150.975807 31.277359 
L 151.052036 31.047205 
L 151.229933 30.365856 
L 151.304897 29.684508 
L 151.284882 29.003159 
L 151.162286 28.32181 
L 150.989805 27.640461 
L 150.975807 27.197329 
L 150.961681 27.640461 
L 150.787611 28.32181 
L 150.664738 29.003159 
L 150.645428 29.684508 
L 150.721149 30.365856 
L 150.89951 31.047205 
L 150.975807 31.277359 
z
" clip-path="url(#p408f45f50c)" style="fill: none; stroke: #d62728; stroke-width: 1.1"/>
   </g>
   <g id="PathCollection_15">
    <path d="M 150.667859 7.2 
L 150.516807 7.881349 
L 150.450575 8.562697 
L 150.425772 9.244046 
L 150.424725 9.925395 
L 150.43982 10.606744 
L 150.472602 11.288092 
L 150.526897 11.969441 
L 150.590258 12.65079 
L 150.623504 13.332138 
L 150.620265 14.013487 
L 150.641415 14.694836 
L 150.735031 15.376185 
L 150.868237 16.057533 
L 150.919481 16.738882 
L 150.88743 17.420231 
L 150.863049 18.101579 
L 150.873413 18.782928 
L 150.915395 19.464277 
L 150.975807 19.973772 
L 151.036206 19.464277 
L 151.078099 18.782928 
L 151.087992 18.101579 
L 151.062282 17.420231 
L 151.028337 16.738882 
L 151.06865 16.057533 
L 151.172626 15.376185 
L 151.246562 14.694836 
L 151.270626 14.013487 
L 151.282256 13.332138 
L 151.325877 12.65079 
L 151.388182 11.969441 
L 151.433303 11.288092 
L 151.454896 10.606744 
L 151.461025 9.925395 
L 151.456959 9.244046 
L 151.438225 8.562697 
L 151.387147 7.881349 
L 151.257855 7.2 
" clip-path="url(#p408f45f50c)" style="fill: none; stroke: #d62728; stroke-width: 1.1"/>
   </g>
   <g id="PathCollection_16">
    <path d="M 150.08708 7.2 
L 149.915467 7.881349 
L 149.838523 8.562697 
L 149.804412 9.244046 
L 149.792892 9.925395 
L 149.802455 10.606744 
L 149.850315 11.288092 
L 149.986718 11.969441 
L 150.28264 12.5667 
L 150.283437 12.65079 
L 150.287917 13.332138 
L 150.290999 14.013487 
L 150.29355 14.694836 
L 150.296146 15.376185 
L 150.298871 16.057533 
L 150.301216 16.738882 
L 150.302297 17.420231 
L 150.302193 18.101579 
L 150.302204 18.782928 
L 150.303469 19.464277 
L 150.306543 20.145626 
L 150.311604 20.826974 
L 150.318349 21.508323 
L 150.325198 22.189672 
L 150.325136 22.87102 
L 150.291682 23.552369 
L 150.28264 23.632974 
L 150.02317 24.233718 
L 149.932722 24.915067 
L 149.962908 25.596415 
L 150.146919 26.277764 
L 150.28264 26.540022 
L 150.319459 26.959113 
L 150.363906 27.640461 
L 150.416751 28.32181 
L 150.510945 29.003159 
L 150.695288 29.684508 
L 150.975807 30.284776 
L 151.288851 29.684508 
L 151.538948 29.003159 
L 151.668975 28.512157 
L 151.774245 28.32181 
L 151.993041 27.640461 
L 152.043354 26.959113 
L 151.983375 26.277764 
L 151.74305 25.596415 
L 151.668975 25.465285 
L 151.592553 24.915067 
L 151.552888 24.233718 
L 151.574183 23.552369 
L 151.60284 22.87102 
L 151.621196 22.189672 
L 151.632359 21.508323 
L 151.639878 20.826974 
L 151.645041 20.145626 
L 151.648125 19.464277 
L 151.649388 18.782928 
L 151.649383 18.101579 
L 151.649222 17.420231 
L 151.650163 16.738882 
L 151.652278 16.057533 
L 151.654756 15.376185 
L 151.657118 14.694836 
L 151.659134 14.013487 
L 151.6606 13.332138 
L 151.661448 12.65079 
L 151.661762 11.969441 
L 151.661741 11.288092 
L 151.66168 10.606744 
L 151.661811 9.925395 
L 151.662043 9.244046 
L 151.661973 8.562697 
L 151.661046 7.881349 
L 151.658299 7.2 
" clip-path="url(#p408f45f50c)" style="fill: none; stroke: #ff7f0e; stroke-width: 1.1"/>
   </g>
   <g id="PathCollection_17">
    <path d="M 150.376542 7.2 
L 150.346627 7.881349 
L 150.334637 8.562697 
L 150.331167 9.244046 
L 150.33159 9.925395 
L 150.333597 10.606744 
L 150.337269 11.288092 
L 150.343283 11.969441 
L 150.351845 12.65079 
L 150.363633 13.332138 
L 150.379765 14.013487 
L 150.400416 14.694836 
L 150.424249 15.376185 
L 150.449252 16.057533 
L 150.47058 16.738882 
L 150.480096 17.420231 
L 150.478533 18.101579 
L 150.478498 18.782928 
L 150.491126 19.464277 
L 150.521962 20.145626 
L 150.573537 20.826974 
L 150.648377 21.508323 
L 150.759035 22.189672 
L 150.946808 22.87102 
L 150.975807 22.956506 
L 151.003753 22.87102 
L 151.19084 22.189672 
L 151.302786 21.508323 
L 151.377998 20.826974 
L 151.429632 20.145626 
L 151.460474 19.464277 
L 151.4731 18.782928 
L 151.473054 18.101579 
L 151.471448 17.420231 
L 151.480858 16.738882 
L 151.502001 16.057533 
L 151.526788 15.376185 
L 151.5504 14.694836 
L 151.570559 14.013487 
L 151.585225 13.332138 
L 151.593704 12.65079 
L 151.596848 11.969441 
L 151.596637 11.288092 
L 151.596019 10.606744 
L 151.597338 9.925395 
L 151.599658 9.244046 
L 151.598951 8.562697 
L 151.589685 7.881349 
L 151.562216 7.2 
" clip-path="url(#p408f45f50c)" style="fill: none; stroke: #ff7f0e; stroke-width: 1.1"/>
   </g>
   <g id="PathCollection_18">
    <path d="M 150.594741 7.2 
L 150.50916 7.881349 
L 150.478738 8.562697 
L 150.474421 9.244046 
L 150.480095 9.925395 
L 150.484685 10.606744 
L 150.486072 11.288092 
L 150.490205 11.969441 
L 150.503864 12.65079 
L 150.53189 13.332138 
L 150.577025 14.013487 
L 150.637897 14.694836 
L 150.708922 15.376185 
L 150.783431 16.057533 
L 150.846946 16.738882 
L 150.875206 17.420231 
L 150.870399 18.101579 
L 150.870262 18.782928 
L 150.908142 19.464277 
L 150.975807 19.980412 
L 151.043471 19.464277 
L 151.081349 18.782928 
L 151.08121 18.101579 
L 151.076395 17.420231 
L 151.104624 16.738882 
L 151.168051 16.057533 
L 151.242413 15.376185 
L 151.313249 14.694836 
L 151.373727 14.013487 
L 151.417726 13.332138 
L 151.443163 12.65079 
L 151.452593 11.969441 
L 151.451962 11.288092 
L 151.450107 10.606744 
L 151.454062 9.925395 
L 151.461025 9.244046 
L 151.458902 8.562697 
L 151.431105 7.881349 
L 151.348698 7.2 
" clip-path="url(#p408f45f50c)" style="fill: none; stroke: #ff7f0e; stroke-width: 1.1"/>
   </g>
   <g id="line2d_17">
    <path d="M 150.575158 9.449708 
" clip-path="url(#p408f45f50c)" style="fill: none; stroke: #1f77b4; stroke-linecap: square"/>
    <g clip-path="url(#p408f45f50c)">
     <use xlink:href="#m9b0c1b15e2" x="150.575158" y="9.449708" style="fill: #1f77b4; stroke: #000000"/>
    </g>
   </g>
   <g id="line2d_18">
    <path d="M 150.622346 7.913492 
" clip-path="url(#p408f45f50c)" style="fill: none; stroke: #ff7f0e; stroke-linecap: square"/>
    <g clip-path="url(#p408f45f50c)">
     <use xlink:href="#m525d69cb93" x="150.622346" y="7.913492" style="fill: #ff7f0e; stroke: #000000"/>
    </g>
   </g>
   <g id="line2d_19">
    <path d="M 153.860793 18.901455 
" clip-path="url(#p408f45f50c)" style="fill: none; stroke: #2ca02c; stroke-linecap: square"/>
    <g clip-path="url(#p408f45f50c)">
     <use xlink:href="#m414e5b365c" x="153.860793" y="18.901455" style="fill: #2ca02c; stroke: #000000"/>
    </g>
   </g>
   <g id="line2d_20">
    <path d="M 150.941428 12.576162 
" clip-path="url(#p408f45f50c)" style="fill: none; stroke: #d62728; stroke-linecap: square"/>
    <g clip-path="url(#p408f45f50c)">
     <use xlink:href="#md968734da2" x="150.941428" y="12.576162" style="fill: #d62728; stroke: #000000"/>
    </g>
   </g>
   <g id="text_4">
    <text style="font: 12px 'Arial'; text-anchor: start" x="172.550652" y="23.893043" transform="rotate(-0, 172.550652, 23.893043)">...</text>
   </g>
  </g>
  <g id="axes_5"/>
  <g id="axes_6">
   <g id="patch_7">
    <path d="M 52.823261 80.649391 
L 86.788478 80.649391 
L 86.788478 47.263304 
L 52.823261 47.263304 
z
" style="fill: #ffffff"/>
   </g>
   <g id="matplotlib.axis_9">
    <g id="xtick_9">
     <g id="line2d_21">
      <g>
       <use xlink:href="#m946ec8310e" x="52.823261" y="85.649391" style="stroke: #000000; stroke-width: 0.5"/>
      </g>
     </g>
     <g id="text_5">
      <text style="font: 7px 'Arial'; text-anchor: middle" x="52.823261" y="96.15986" transform="rotate(-0, 52.823261, 96.15986)">0.5</text>
     </g>
    </g>
    <g id="xtick_10">
     <g id="line2d_22">
      <g>
       <use xlink:href="#m946ec8310e" x="86.788478" y="85.649391" style="stroke: #000000; stroke-width: 0.5"/>
      </g>
     </g>
     <g id="text_6">
      <text style="font: 7px 'Arial'; text-anchor: middle" x="86.788478" y="96.15986" transform="rotate(-0, 86.788478, 96.15986)">80</text>
     </g>
    </g>
    <g id="text_7">
     <!-- $g_{Na}$ -->
     <g transform="translate(63.72587 106.38736)">
      <text>
       <tspan style="font: 8px 'Arial'" x="0" y="-0.75">g</tspan>
       <tspan style="font: 5.6px 'Arial'" x="4.588606 8.632747" y="1.6395">Na</tspan>
      </text>
     </g>
    </g>
   </g>
   <g id="matplotlib.axis_10">
    <g id="ytick_9"/>
    <g id="ytick_10"/>
   </g>
   <g id="line2d_23">
    <path d="M 52.823261 77.752252 
L 53.516429 77.752252 
L 54.209596 77.752252 
L 54.902764 77.752252 
L 55.595932 77.752252 
L 56.289099 77.752252 
L 56.982267 77.752252 
L 57.675435 77.752252 
L 58.368602 77.752252 
L 59.06177 77.752251 
L 59.754938 77.752218 
L 60.448106 77.751129 
L 61.141273 77.737855 
L 61.834441 77.676291 
L 62.527609 77.55997 
L 63.220776 77.441701 
L 63.913944 77.326643 
L 64.607112 77.228858 
L 65.30028 77.135993 
L 65.993447 77.03627 
L 66.686615 76.89738 
L 67.379783 76.685565 
L 68.07295 76.411779 
L 68.766118 76.029967 
L 69.459286 75.322594 
L 70.152453 74.106407 
L 70.845621 72.515325 
L 71.538789 70.74425 
L 72.231957 68.525989 
L 72.925124 66.021075 
L 73.618292 63.617431 
L 74.31146 60.999825 
L 75.004627 58.389409 
L 75.697795 56.090669 
L 76.390963 54.099671 
L 77.08413 52.933081 
L 77.777298 53.31031 
L 78.470466 55.352444 
L 79.163634 58.610524 
L 79.856801 62.401817 
L 80.549969 66.045857 
L 81.243137 69.174241 
L 81.936304 71.628289 
L 82.629472 73.788883 
L 83.32264 75.575687 
L 84.015807 76.526126 
L 84.708975 76.907526 
L 85.402143 77.170731 
L 86.095311 77.456854 
L 86.788478 77.653153 
" clip-path="url(#p3455db64e4)" style="fill: none; stroke: #d62728; stroke-width: 1.1; stroke-linecap: square"/>
   </g>
   <g id="line2d_24">
    <path d="M 52.823261 77.752252 
L 53.516429 77.752252 
L 54.209596 77.752252 
L 54.902764 77.752252 
L 55.595932 77.752252 
L 56.289099 77.752252 
L 56.982267 77.752252 
L 57.675435 77.752252 
L 58.368602 77.752252 
L 59.06177 77.752252 
L 59.754938 77.752251 
L 60.448106 77.752245 
L 61.141273 77.751928 
L 61.834441 77.746218 
L 62.527609 77.700696 
L 63.220776 77.521283 
L 63.913944 77.147669 
L 64.607112 76.683732 
L 65.30028 76.276964 
L 65.993447 76.012045 
L 66.686615 75.846139 
L 67.379783 75.849648 
L 68.07295 75.909122 
L 68.766118 75.811125 
L 69.459286 75.455606 
L 70.152453 74.57328 
L 70.845621 73.175618 
L 71.538789 71.351476 
L 72.231957 68.950615 
L 72.925124 66.301064 
L 73.618292 63.991023 
L 74.31146 62.553613 
L 75.004627 60.907241 
L 75.697795 57.967713 
L 76.390963 55.093192 
L 77.08413 53.104227 
L 77.777298 51.226044 
L 78.470466 50.160444 
L 79.163634 52.132874 
L 79.856801 57.867878 
L 80.549969 65.144804 
L 81.243137 71.323433 
L 81.936304 75.229314 
L 82.629472 77.008812 
L 83.32264 77.598783 
L 84.015807 77.733562 
L 84.708975 77.751147 
L 85.402143 77.752224 
L 86.095311 77.752251 
L 86.788478 77.752252 
" clip-path="url(#p3455db64e4)" style="fill: none; stroke: #ff7f0e; stroke-width: 1.1; stroke-linecap: square"/>
   </g>
   <g id="line2d_25">
    <path d="M 79.032873 79.131842 
L 79.032873 48.780854 
" clip-path="url(#p3455db64e4)" style="fill: none; stroke: #1f77b4; stroke-width: 1.1; stroke-linecap: square"/>
   </g>
   <g id="line2d_26">
    <path d="M 79.983116 79.131842 
L 79.983116 48.780854 
" clip-path="url(#p3455db64e4)" style="fill: none; stroke: #ff7f0e; stroke-width: 1.1; stroke-linecap: square"/>
   </g>
   <g id="line2d_27">
    <path d="M 83.294227 79.131842 
L 83.294227 48.780854 
" clip-path="url(#p3455db64e4)" style="fill: none; stroke: #2ca02c; stroke-width: 1.1; stroke-linecap: square"/>
   </g>
   <g id="line2d_28">
    <path d="M 73.719623 79.131842 
L 73.719623 48.780854 
" clip-path="url(#p3455db64e4)" style="fill: none; stroke: #d62728; stroke-width: 1.1; stroke-linecap: square"/>
   </g>
   <g id="patch_8">
    <path d="M 52.823261 85.649391 
L 86.788478 85.649391 
" style="fill: none; stroke: #000000; stroke-width: 0.7; stroke-linejoin: miter; stroke-linecap: square"/>
   </g>
  </g>
  <g id="axes_7">
   <g id="patch_9">
    <path d="M 93.581522 80.649391 
L 127.546739 80.649391 
L 127.546739 47.263304 
L 93.581522 47.263304 
z
" style="fill: #ffffff"/>
   </g>
   <g id="matplotlib.axis_11">
    <g id="xtick_11"/>
    <g id="xtick_12"/>
   </g>
   <g id="matplotlib.axis_12">
    <g id="ytick_11"/>
    <g id="ytick_12"/>
   </g>
   <g id="PathCollection_19">
    <path d="M 96.354193 70.514161 
L 97.04736 70.704698 
L 97.154986 70.429161 
L 97.374446 69.747812 
L 97.579885 69.066463 
L 97.740528 68.565898 
L 97.841317 68.385114 
L 98.16202 67.703766 
L 98.331267 67.022417 
L 98.433696 66.699545 
L 98.660454 66.341068 
L 98.95604 65.65972 
L 99.126863 65.03795 
L 99.173426 64.978371 
L 99.568426 64.297022 
L 99.716466 63.615673 
L 99.795902 62.934325 
L 99.820031 62.730396 
L 100.15043 62.252976 
L 100.396094 61.571627 
L 100.49234 60.890279 
L 100.513199 60.748929 
L 100.891971 60.20893 
L 101.070346 59.527581 
L 101.154568 58.846232 
L 101.206366 58.53141 
L 101.472412 58.164884 
L 101.685752 57.483535 
L 101.760518 56.802186 
L 101.805491 56.120838 
L 101.851016 55.439489 
L 101.899534 54.955377 
L 102.009677 54.75814 
L 102.171443 54.076791 
L 102.151842 53.395443 
L 102.062789 52.714094 
L 101.899534 52.122957 
L 101.893979 52.032745 
L 101.836118 51.351397 
L 101.760549 50.670048 
L 101.661196 49.988699 
L 101.572551 49.30735 
L 101.206366 48.665184 
L 101.187838 48.626002 
L 100.758765 47.944653 
L 100.513199 47.637109 
L 100.282856 47.944653 
L 99.893329 48.626002 
L 99.820031 48.753741 
L 99.126863 48.859572 
L 98.967476 49.30735 
L 98.628297 49.988699 
L 98.433734 50.670048 
L 98.433696 50.670203 
L 97.8754 51.351397 
L 97.740528 51.884636 
L 97.670515 52.032745 
L 97.698202 52.714094 
L 97.42672 53.395443 
L 97.257617 54.076791 
L 97.167095 54.75814 
L 97.066246 55.439489 
L 97.04736 55.54243 
L 96.921424 55.439489 
L 96.757943 54.75814 
L 96.551365 54.076791 
L 96.354193 53.791813 
L 96.121845 54.076791 
L 95.968144 54.75814 
L 96.090414 55.439489 
L 96.354193 55.998334 
L 96.457791 56.120838 
L 96.493095 56.802186 
L 96.397066 57.483535 
L 96.354193 57.602968 
L 95.883335 58.164884 
L 95.753957 58.846232 
L 95.789721 59.527581 
L 95.803047 60.20893 
L 95.661025 60.885528 
L 95.658753 60.890279 
L 95.505349 61.571627 
L 95.592663 62.252976 
L 95.661025 62.495973 
L 96.1155 62.252976 
L 96.354193 61.918397 
L 96.387464 62.252976 
L 96.431384 62.934325 
L 96.437344 63.615673 
L 96.464201 64.297022 
L 96.475748 64.978371 
L 96.440945 65.65972 
L 96.383151 66.341068 
L 96.354193 66.627829 
L 96.232496 67.022417 
L 96.038224 67.703766 
L 95.924499 68.385114 
L 95.85301 69.066463 
L 95.661025 69.668326 
L 95.63292 69.747812 
L 95.661025 70.102406 
L 95.973359 70.429161 
L 96.354193 70.514161 
z
" clip-path="url(#p611b75dddb)" style="fill: none; stroke: #d62728; stroke-width: 1.1"/>
   </g>
   <g id="PathCollection_20">
    <path d="M 98.433696 64.48153 
L 98.546108 64.297022 
L 98.905371 63.615673 
L 99.126863 63.094597 
L 99.213439 62.934325 
L 99.519934 62.252976 
L 99.703901 61.571627 
L 99.820031 61.016159 
L 99.894435 60.890279 
L 100.205396 60.20893 
L 100.368425 59.527581 
L 100.462756 58.846232 
L 100.513199 58.291176 
L 100.555473 58.164884 
L 100.80808 57.483535 
L 100.975628 56.802186 
L 101.055314 56.120838 
L 101.089486 55.439489 
L 101.118234 54.75814 
L 101.140467 54.076791 
L 101.129593 53.395443 
L 101.067745 52.714094 
L 100.875446 52.032745 
L 100.513199 51.54688 
L 100.362239 51.351397 
L 99.820031 50.769753 
L 99.323339 51.351397 
L 99.126863 51.588351 
L 98.869639 52.032745 
L 98.595641 52.714094 
L 98.444285 53.395443 
L 98.433696 53.445747 
L 98.178476 54.076791 
L 97.986003 54.75814 
L 97.883345 55.439489 
L 97.807599 56.120838 
L 97.747649 56.802186 
L 97.740528 56.936474 
L 97.627302 57.483535 
L 97.555897 58.164884 
L 97.538281 58.846232 
L 97.582513 59.527581 
L 97.699489 60.20893 
L 97.740528 60.501328 
L 97.754974 60.890279 
L 97.747542 61.571627 
L 97.740528 61.982709 
L 97.722986 62.252976 
L 97.740528 62.645799 
L 97.746087 62.934325 
L 97.789954 63.615673 
L 97.983412 64.297022 
L 98.433696 64.48153 
z
" clip-path="url(#p611b75dddb)" style="fill: none; stroke: #d62728; stroke-width: 1.1"/>
   </g>
   <g id="PathCollection_21">
    <path d="M 98.433696 62.812808 
L 98.715688 62.252976 
L 99.126863 61.794797 
L 99.233936 61.571627 
L 99.493305 60.890279 
L 99.66322 60.20893 
L 99.814055 59.527581 
L 99.820031 59.502525 
L 100.040941 58.846232 
L 100.19201 58.164884 
L 100.303215 57.483535 
L 100.393546 56.802186 
L 100.438372 56.120838 
L 100.441488 55.439489 
L 100.436858 54.75814 
L 100.427312 54.076791 
L 100.343078 53.395443 
L 99.950576 52.714094 
L 99.820031 52.55533 
L 99.671317 52.714094 
L 99.126863 53.285157 
L 99.075355 53.395443 
L 98.798125 54.076791 
L 98.591635 54.75814 
L 98.440147 55.439489 
L 98.433696 55.481338 
L 98.275579 56.120838 
L 98.197431 56.802186 
L 98.162246 57.483535 
L 98.122226 58.164884 
L 98.09112 58.846232 
L 98.090428 59.527581 
L 98.123445 60.20893 
L 98.166165 60.890279 
L 98.197882 61.571627 
L 98.264025 62.252976 
L 98.433696 62.812808 
z
" clip-path="url(#p611b75dddb)" style="fill: none; stroke: #d62728; stroke-width: 1.1"/>
   </g>
   <g id="PathCollection_22">
    <path d="M 96.354193 70.736228 
L 97.011161 70.429161 
L 97.04736 70.423505 
L 97.508815 69.747812 
L 97.6718 69.066463 
L 97.740528 68.555992 
L 97.864251 68.385114 
L 98.20423 67.703766 
L 98.336352 67.022417 
L 98.380621 66.341068 
L 98.404103 65.65972 
L 98.433696 65.382507 
L 98.729838 64.978371 
L 99.009587 64.297022 
L 99.083694 63.615673 
L 99.126863 63.057949 
L 99.238097 62.934325 
L 99.684705 62.252976 
L 99.7727 61.571627 
L 99.810871 60.890279 
L 99.820031 60.757242 
L 100.234761 60.20893 
L 100.408073 59.527581 
L 100.481118 58.846232 
L 100.513199 58.434069 
L 100.713967 58.164884 
L 101.005676 57.483535 
L 101.131844 56.802186 
L 101.206366 56.146267 
L 101.226635 56.120838 
L 101.669253 55.439489 
L 101.808273 54.75814 
L 101.86617 54.076791 
L 101.899534 53.569985 
L 101.997899 53.395443 
L 102.077836 52.714094 
L 101.899534 52.278737 
L 101.848565 52.032745 
L 101.553617 51.351397 
L 101.206366 50.931774 
L 100.513199 50.787149 
L 99.820031 50.761759 
L 99.126863 50.996536 
L 98.893665 51.351397 
L 98.516966 52.032745 
L 98.433696 52.263893 
L 97.902293 52.714094 
L 97.740528 52.93178 
L 97.449987 53.395443 
L 97.311641 54.076791 
L 97.183652 54.75814 
L 97.10459 55.439489 
L 97.063217 56.120838 
L 97.04736 56.512421 
L 96.960854 56.802186 
L 97.04736 57.024996 
L 97.067806 57.483535 
L 97.078843 58.164884 
L 97.04736 58.682063 
L 96.752495 58.164884 
L 96.354193 57.506103 
L 96.077597 58.164884 
L 96.150906 58.846232 
L 96.354193 59.013638 
L 96.590647 59.527581 
L 96.503114 60.20893 
L 96.437301 60.890279 
L 96.630217 61.571627 
L 97.042988 62.252976 
L 96.978391 62.934325 
L 96.821463 63.615673 
L 96.814097 64.297022 
L 96.679689 64.978371 
L 96.477342 65.65972 
L 96.392485 66.341068 
L 96.384825 67.022417 
L 96.376514 67.703766 
L 96.357779 68.385114 
L 96.354193 68.582813 
L 96.25535 69.066463 
L 96.152554 69.747812 
L 96.198661 70.429161 
L 96.354193 70.736228 
z
" clip-path="url(#p611b75dddb)" style="fill: none; stroke: #ff7f0e; stroke-width: 1.1"/>
   </g>
   <g id="PathCollection_23">
    <path d="M 97.04736 68.516033 
L 97.101358 68.385114 
L 97.093839 67.703766 
L 97.04736 67.582633 
L 97.011599 67.703766 
L 96.994836 68.385114 
L 97.04736 68.516033 
z
" clip-path="url(#p611b75dddb)" style="fill: none; stroke: #ff7f0e; stroke-width: 1.1"/>
    <path d="M 97.740528 66.331783 
L 97.883489 65.65972 
L 97.928931 64.978371 
L 97.953379 64.297022 
L 98.433696 63.950511 
L 98.633118 63.615673 
L 98.870796 62.934325 
L 99.023082 62.252976 
L 99.126863 61.859939 
L 99.310987 61.571627 
L 99.582334 60.890279 
L 99.700319 60.20893 
L 99.773363 59.527581 
L 99.820031 59.196243 
L 100.018287 58.846232 
L 100.273686 58.164884 
L 100.392719 57.483535 
L 100.475525 56.802186 
L 100.513199 56.541218 
L 100.73107 56.120838 
L 100.948098 55.439489 
L 101.100796 54.75814 
L 101.206366 54.169568 
L 101.240818 54.076791 
L 101.206366 53.579101 
L 101.19692 53.395443 
L 100.918065 52.714094 
L 100.513199 52.248525 
L 99.820031 52.073072 
L 99.126863 52.444816 
L 98.917683 52.714094 
L 98.556666 53.395443 
L 98.433696 53.796038 
L 98.244635 54.076791 
L 98.006231 54.75814 
L 97.895883 55.439489 
L 97.835583 56.120838 
L 97.813743 56.802186 
L 97.799083 57.483535 
L 97.790118 58.164884 
L 97.783089 58.846232 
L 97.769317 59.527581 
L 97.756255 60.20893 
L 97.740528 60.839853 
L 97.73432 60.890279 
L 97.684849 61.571627 
L 97.635124 62.252976 
L 97.588077 62.934325 
L 97.616295 63.615673 
L 97.618906 64.297022 
L 97.549508 64.978371 
L 97.548814 65.65972 
L 97.740528 66.331783 
z
" clip-path="url(#p611b75dddb)" style="fill: none; stroke: #ff7f0e; stroke-width: 1.1"/>
   </g>
   <g id="PathCollection_24">
    <path d="M 98.433696 62.669081 
L 98.598858 62.252976 
L 98.791532 61.571627 
L 99.062633 60.890279 
L 99.126863 60.812417 
L 99.381649 60.20893 
L 99.517612 59.527581 
L 99.626185 58.846232 
L 99.772135 58.164884 
L 99.820031 57.996684 
L 100.027536 57.483535 
L 100.180333 56.802186 
L 100.293205 56.120838 
L 100.397103 55.439489 
L 100.470291 54.75814 
L 100.463108 54.076791 
L 100.17206 53.395443 
L 99.820031 53.100564 
L 99.193287 53.395443 
L 99.126863 53.418729 
L 98.745633 54.076791 
L 98.554088 54.75814 
L 98.454919 55.439489 
L 98.433696 55.711084 
L 98.360168 56.120838 
L 98.305928 56.802186 
L 98.233863 57.483535 
L 98.177732 58.164884 
L 98.148324 58.846232 
L 98.117974 59.527581 
L 98.095642 60.20893 
L 98.08473 60.890279 
L 98.103583 61.571627 
L 98.22748 62.252976 
L 98.433696 62.669081 
z
" clip-path="url(#p611b75dddb)" style="fill: none; stroke: #ff7f0e; stroke-width: 1.1"/>
   </g>
   <g id="line2d_29">
    <path d="M 99.991559 54.886671 
" clip-path="url(#p611b75dddb)" style="fill: none; stroke: #1f77b4; stroke-linecap: square"/>
    <g clip-path="url(#p611b75dddb)">
     <use xlink:href="#m9b0c1b15e2" x="99.991559" y="54.886671" style="fill: #1f77b4; stroke: #000000"/>
    </g>
   </g>
   <g id="line2d_30">
    <path d="M 99.920497 53.95263 
" clip-path="url(#p611b75dddb)" style="fill: none; stroke: #ff7f0e; stroke-linecap: square"/>
    <g clip-path="url(#p611b75dddb)">
     <use xlink:href="#m525d69cb93" x="99.920497" y="53.95263" style="fill: #ff7f0e; stroke: #000000"/>
    </g>
   </g>
   <g id="line2d_31">
    <path d="M 97.692429 50.697976 
" clip-path="url(#p611b75dddb)" style="fill: none; stroke: #2ca02c; stroke-linecap: square"/>
    <g clip-path="url(#p611b75dddb)">
     <use xlink:href="#m414e5b365c" x="97.692429" y="50.697976" style="fill: #2ca02c; stroke: #000000"/>
    </g>
   </g>
   <g id="line2d_32">
    <path d="M 99.403403 60.109326 
" clip-path="url(#p611b75dddb)" style="fill: none; stroke: #d62728; stroke-linecap: square"/>
    <g clip-path="url(#p611b75dddb)">
     <use xlink:href="#md968734da2" x="99.403403" y="60.109326" style="fill: #d62728; stroke: #000000"/>
    </g>
   </g>
  </g>
  <g id="axes_8">
   <g id="patch_10">
    <path d="M 134.339783 80.649391 
L 168.305 80.649391 
L 168.305 47.263304 
L 134.339783 47.263304 
z
" style="fill: #ffffff"/>
   </g>
   <g id="matplotlib.axis_13">
    <g id="xtick_13"/>
    <g id="xtick_14"/>
   </g>
   <g id="matplotlib.axis_14">
    <g id="ytick_13"/>
    <g id="ytick_14"/>
   </g>
   <g id="PathCollection_25">
    <path d="M 150.436223 47.263304 
L 150.351628 47.944653 
L 150.325339 48.626002 
L 150.313598 49.30735 
L 150.305364 49.988699 
L 150.299266 50.670048 
L 150.295198 51.351397 
L 150.293226 52.032745 
L 150.292318 52.714094 
L 150.289532 53.395443 
L 150.284235 54.076791 
L 150.28264 54.259526 
L 150.030095 54.75814 
L 149.870793 55.439489 
L 149.732701 56.120838 
L 149.663749 56.802186 
L 149.647298 57.483535 
L 149.656125 58.164884 
L 149.669361 58.846232 
L 149.666394 59.527581 
L 149.660627 60.20893 
L 149.661443 60.890279 
L 149.680116 61.571627 
L 149.729986 62.252976 
L 149.753878 62.934325 
L 149.71271 63.615673 
L 149.702772 64.297022 
L 149.763146 64.978371 
L 150.066692 65.65972 
L 150.28264 65.924823 
L 150.31196 66.341068 
L 150.34107 67.022417 
L 150.377174 67.703766 
L 150.400427 68.385114 
L 150.39406 69.066463 
L 150.378207 69.747812 
L 150.382444 70.429161 
L 150.440809 71.110509 
L 150.708151 71.791858 
L 150.975807 72.123257 
L 151.243081 71.791858 
L 151.508754 71.110509 
L 151.563396 70.429161 
L 151.561026 69.747812 
L 151.541541 69.066463 
L 151.541545 68.385114 
L 151.571771 67.703766 
L 151.60852 67.022417 
L 151.628407 66.341068 
L 151.633416 65.65972 
L 151.626892 64.978371 
L 151.610879 64.297022 
L 151.605204 63.615673 
L 151.62282 62.934325 
L 151.636219 62.252976 
L 151.641254 61.571627 
L 151.645909 60.890279 
L 151.652054 60.20893 
L 151.655849 59.527581 
L 151.657353 58.846232 
L 151.658294 58.164884 
L 151.659582 57.483535 
L 151.660864 56.802186 
L 151.661619 56.120838 
L 151.661945 55.439489 
L 151.662043 54.75814 
L 151.661447 54.076791 
L 151.659988 53.395443 
L 151.658895 52.714094 
L 151.658342 52.032745 
L 151.656412 51.351397 
L 151.652348 50.670048 
L 151.646251 49.988699 
L 151.638017 49.30735 
L 151.626276 48.626002 
L 151.599987 47.944653 
L 151.515392 47.263304 
" clip-path="url(#pfc5de95c4b)" style="fill: none; stroke: #d62728; stroke-width: 1.1"/>
   </g>
   <g id="PathCollection_26">
    <path d="M 150.975807 67.252827 
L 151.064428 67.022417 
L 151.26329 66.341068 
L 151.313381 65.65972 
L 151.248144 64.978371 
L 151.088011 64.297022 
L 151.031264 63.615673 
L 151.207421 62.934325 
L 151.341409 62.252976 
L 151.391765 61.571627 
L 151.438315 60.890279 
L 151.499759 60.20893 
L 151.537718 59.527581 
L 151.55275 58.846232 
L 151.562168 58.164884 
L 151.575041 57.483535 
L 151.587864 56.802186 
L 151.595418 56.120838 
L 151.598674 55.439489 
L 151.599658 54.75814 
L 151.593696 54.076791 
L 151.579105 53.395443 
L 151.568171 52.714094 
L 151.562647 52.032745 
L 151.543345 51.351397 
L 151.502704 50.670048 
L 151.441732 49.988699 
L 151.359393 49.30735 
L 151.241982 48.626002 
L 150.979092 47.944653 
L 150.975807 47.938791 
L 150.972523 47.944653 
L 150.709633 48.626002 
L 150.592222 49.30735 
L 150.509883 49.988699 
L 150.448911 50.670048 
L 150.408267 51.351397 
L 150.388928 52.032745 
L 150.383095 52.714094 
L 150.370662 53.395443 
L 150.352572 54.076791 
L 150.341986 54.75814 
L 150.336977 55.439489 
L 150.322653 56.120838 
L 150.288721 56.802186 
L 150.28264 56.973579 
L 150.167734 57.483535 
L 150.255998 58.164884 
L 150.28264 58.322941 
L 150.300639 58.846232 
L 150.298286 59.527581 
L 150.288375 60.20893 
L 150.295159 60.890279 
L 150.376597 61.571627 
L 150.499068 62.252976 
L 150.653791 62.934325 
L 150.860881 63.615673 
L 150.745521 64.297022 
L 150.616377 64.978371 
L 150.611055 65.65972 
L 150.68337 66.341068 
L 150.886903 67.022417 
L 150.975807 67.252827 
z
" clip-path="url(#pfc5de95c4b)" style="fill: none; stroke: #d62728; stroke-width: 1.1"/>
   </g>
   <g id="PathCollection_27">
    <path d="M 150.975807 60.897222 
L 150.976994 60.890279 
L 151.161327 60.20893 
L 151.275203 59.527581 
L 151.320298 58.846232 
L 151.348554 58.164884 
L 151.387172 57.483535 
L 151.425642 56.802186 
L 151.448303 56.120838 
L 151.458072 55.439489 
L 151.461025 54.75814 
L 151.443139 54.076791 
L 151.399366 53.395443 
L 151.366562 52.714094 
L 151.349991 52.032745 
L 151.292083 51.351397 
L 151.17016 50.670048 
L 150.987247 49.988699 
L 150.975807 49.946424 
L 150.964368 49.988699 
L 150.781455 50.670048 
L 150.65953 51.351397 
L 150.601599 52.032745 
L 150.584822 52.714094 
L 150.550952 53.395443 
L 150.504432 54.076791 
L 150.482835 54.75814 
L 150.481182 55.439489 
L 150.477732 56.120838 
L 150.47083 56.802186 
L 150.484659 57.483535 
L 150.531933 58.164884 
L 150.572666 58.846232 
L 150.614813 59.527581 
L 150.732403 60.20893 
L 150.974062 60.890279 
L 150.975807 60.897222 
z
" clip-path="url(#pfc5de95c4b)" style="fill: none; stroke: #d62728; stroke-width: 1.1"/>
   </g>
   <g id="PathCollection_28">
    <path d="M 150.975807 70.617769 
L 151.110538 70.429161 
L 151.459093 69.747812 
L 151.613639 69.066463 
L 151.668975 68.814598 
L 151.943333 68.385114 
L 152.074385 67.703766 
L 151.997047 67.022417 
L 151.668975 66.4598 
L 151.648696 66.341068 
L 151.607616 65.65972 
L 151.611202 64.978371 
L 151.622511 64.297022 
L 151.636227 63.615673 
L 151.646023 62.934325 
L 151.651866 62.252976 
L 151.655026 61.571627 
L 151.656461 60.890279 
L 151.657714 60.20893 
L 151.659374 59.527581 
L 151.660604 58.846232 
L 151.661284 58.164884 
L 151.661783 57.483535 
L 151.662019 56.802186 
L 151.662043 56.120838 
L 151.66203 55.439489 
L 151.661415 54.75814 
L 151.659239 54.076791 
L 151.653889 53.395443 
L 151.640576 52.714094 
L 151.603551 52.032745 
L 151.490993 51.351397 
L 151.093384 50.670048 
L 150.975807 50.520351 
L 150.858167 50.670048 
L 150.459926 51.351397 
L 150.346226 52.032745 
L 150.30704 52.714094 
L 150.290033 53.395443 
L 150.28264 53.828045 
L 150.131592 54.076791 
L 149.893395 54.75814 
L 149.810086 55.439489 
L 149.779838 56.120838 
L 149.785557 56.802186 
L 149.867528 57.483535 
L 150.198651 58.164884 
L 150.28264 58.284625 
L 150.288076 58.846232 
L 150.291107 59.527581 
L 150.293129 60.20893 
L 150.294701 60.890279 
L 150.296416 61.571627 
L 150.299679 62.252976 
L 150.305473 62.934325 
L 150.314048 63.615673 
L 150.316671 64.297022 
L 150.28264 64.953714 
L 150.264456 64.978371 
L 149.932084 65.65972 
L 149.910415 66.341068 
L 150.142655 67.022417 
L 150.28264 67.225202 
L 150.346961 67.703766 
L 150.375501 68.385114 
L 150.408828 69.066463 
L 150.511935 69.747812 
L 150.842498 70.429161 
L 150.975807 70.617769 
z
" clip-path="url(#pfc5de95c4b)" style="fill: none; stroke: #ff7f0e; stroke-width: 1.1"/>
   </g>
   <g id="PathCollection_29">
    <path d="M 150.975807 65.478242 
L 151.078764 64.978371 
L 151.203672 64.297022 
L 151.341478 63.615673 
L 151.439452 62.934325 
L 151.497886 62.252976 
L 151.529487 61.571627 
L 151.543837 60.890279 
L 151.556366 60.20893 
L 151.572969 59.527581 
L 151.585267 58.846232 
L 151.592059 58.164884 
L 151.59705 57.483535 
L 151.599416 56.802186 
L 151.599658 56.120838 
L 151.599521 55.439489 
L 151.593369 54.75814 
L 151.57161 54.076791 
L 151.518115 53.395443 
L 151.384983 52.714094 
L 151.014731 52.032745 
L 150.975807 51.972247 
L 150.93677 52.032745 
L 150.564171 52.714094 
L 150.427347 53.395443 
L 150.369109 54.076791 
L 150.342491 54.75814 
L 150.33182 55.439489 
L 150.328382 56.120838 
L 150.329263 56.802186 
L 150.338068 57.483535 
L 150.351676 58.164884 
L 150.363736 58.846232 
L 150.377656 59.527581 
L 150.394592 60.20893 
L 150.4074 60.890279 
L 150.421987 61.571627 
L 150.453675 62.252976 
L 150.51208 62.934325 
L 150.609395 63.615673 
L 150.743562 64.297022 
L 150.863207 64.978371 
L 150.975807 65.478242 
z
" clip-path="url(#pfc5de95c4b)" style="fill: none; stroke: #ff7f0e; stroke-width: 1.1"/>
   </g>
   <g id="PathCollection_30">
    <path d="M 150.975807 62.949436 
L 150.980407 62.934325 
L 151.155708 62.252976 
L 151.250509 61.571627 
L 151.293562 60.890279 
L 151.331147 60.20893 
L 151.380955 59.527581 
L 151.417851 58.846232 
L 151.438226 58.164884 
L 151.453199 57.483535 
L 151.460297 56.802186 
L 151.461025 56.120838 
L 151.460613 55.439489 
L 151.442156 54.75814 
L 151.376879 54.076791 
L 151.216396 53.395443 
L 150.975807 52.890982 
L 150.732489 53.395443 
L 150.567401 54.076791 
L 150.497561 54.75814 
L 150.475243 55.439489 
L 150.472255 56.120838 
L 150.473499 56.802186 
L 150.485739 57.483535 
L 150.507476 58.164884 
L 150.53187 58.846232 
L 150.569988 59.527581 
L 150.620066 60.20893 
L 150.657842 60.890279 
L 150.701036 61.571627 
L 150.795888 62.252976 
L 150.971208 62.934325 
L 150.975807 62.949436 
z
" clip-path="url(#pfc5de95c4b)" style="fill: none; stroke: #ff7f0e; stroke-width: 1.1"/>
   </g>
   <g id="line2d_33">
    <path d="M 150.575158 54.886671 
" clip-path="url(#pfc5de95c4b)" style="fill: none; stroke: #1f77b4; stroke-linecap: square"/>
    <g clip-path="url(#pfc5de95c4b)">
     <use xlink:href="#m9b0c1b15e2" x="150.575158" y="54.886671" style="fill: #1f77b4; stroke: #000000"/>
    </g>
   </g>
   <g id="line2d_34">
    <path d="M 150.622346 53.95263 
" clip-path="url(#pfc5de95c4b)" style="fill: none; stroke: #ff7f0e; stroke-linecap: square"/>
    <g clip-path="url(#pfc5de95c4b)">
     <use xlink:href="#m525d69cb93" x="150.622346" y="53.95263" style="fill: #ff7f0e; stroke: #000000"/>
    </g>
   </g>
   <g id="line2d_35">
    <path d="M 153.860793 50.697976 
" clip-path="url(#pfc5de95c4b)" style="fill: none; stroke: #2ca02c; stroke-linecap: square"/>
    <g clip-path="url(#pfc5de95c4b)">
     <use xlink:href="#m414e5b365c" x="153.860793" y="50.697976" style="fill: #2ca02c; stroke: #000000"/>
    </g>
   </g>
   <g id="line2d_36">
    <path d="M 150.941428 60.109326 
" clip-path="url(#pfc5de95c4b)" style="fill: none; stroke: #d62728; stroke-linecap: square"/>
    <g clip-path="url(#pfc5de95c4b)">
     <use xlink:href="#md968734da2" x="150.941428" y="60.109326" style="fill: #d62728; stroke: #000000"/>
    </g>
   </g>
   <g id="text_8">
    <text style="font: 12px 'Arial'; text-anchor: start" x="172.550652" y="63.956348" transform="rotate(-0, 172.550652, 63.956348)">...</text>
   </g>
  </g>
  <g id="axes_9"/>
  <g id="axes_10"/>
  <g id="axes_11">
   <g id="patch_11">
    <path d="M 93.581522 120.712696 
L 127.546739 120.712696 
L 127.546739 87.326609 
L 93.581522 87.326609 
z
" style="fill: #ffffff"/>
   </g>
   <g id="matplotlib.axis_15">
    <g id="xtick_15">
     <g id="line2d_37">
      <g>
       <use xlink:href="#m946ec8310e" x="93.581522" y="125.712696" style="stroke: #000000; stroke-width: 0.5"/>
      </g>
     </g>
     <g id="text_9">
      <text style="font: 7px 'Arial'; text-anchor: middle" x="93.581522" y="136.223164" transform="rotate(-0, 93.581522, 136.223164)">0.0001</text>
     </g>
    </g>
    <g id="xtick_16">
     <g id="line2d_38">
      <g>
       <use xlink:href="#m946ec8310e" x="127.546739" y="125.712696" style="stroke: #000000; stroke-width: 0.5"/>
      </g>
     </g>
     <g id="text_10">
      <text style="font: 7px 'Arial'; text-anchor: middle" x="127.546739" y="136.223164" transform="rotate(-0, 127.546739, 136.223164)">0.8</text>
     </g>
    </g>
    <g id="text_11">
     <!-- $g_{leak}$ -->
     <g transform="translate(102.92413 146.450664)">
      <text>
       <tspan style="font: 8px 'Arial'" x="0" y="-0.75">g</tspan>
       <tspan style="font: 5.6px 'Arial'" x="4.588606 5.832747 8.9472 12.061653" y="1.6395">leak</tspan>
      </text>
     </g>
    </g>
   </g>
   <g id="matplotlib.axis_16">
    <g id="ytick_15"/>
    <g id="ytick_16"/>
   </g>
   <g id="line2d_39">
    <path d="M 93.581522 117.815556 
L 94.274689 117.815556 
L 94.967857 117.813299 
L 95.661025 117.451555 
L 96.354193 116.856339 
L 97.04736 116.212015 
L 97.740528 113.581342 
L 98.433696 103.225838 
L 99.126863 91.921003 
L 99.820031 99.270524 
L 100.513199 111.931858 
L 101.206366 115.896971 
L 101.899534 117.61578 
L 102.592702 117.815533 
L 103.28587 117.815556 
L 103.979037 117.815556 
L 104.672205 117.815556 
L 105.365373 117.815556 
L 106.05854 117.815556 
L 106.751708 117.815556 
L 107.444876 117.815556 
L 108.138043 117.815556 
L 108.831211 117.815556 
L 109.524379 117.815556 
L 110.217547 117.815556 
L 110.910714 117.815556 
L 111.603882 117.815556 
L 112.29705 117.815556 
L 112.990217 117.815556 
L 113.683385 117.815556 
L 114.376553 117.815556 
L 115.06972 117.815556 
L 115.762888 117.815556 
L 116.456056 117.815556 
L 117.149224 117.815556 
L 117.842391 117.815556 
L 118.535559 117.815556 
L 119.228727 117.815556 
L 119.921894 117.815556 
L 120.615062 117.815556 
L 121.30823 117.815556 
L 122.001398 117.815556 
L 122.694565 117.815556 
L 123.387733 117.815556 
L 124.080901 117.815556 
L 124.774068 117.815556 
L 125.467236 117.815556 
L 126.160404 117.815556 
L 126.853571 117.815556 
L 127.546739 117.815556 
" clip-path="url(#pc976be1979)" style="fill: none; stroke: #d62728; stroke-width: 1.1; stroke-linecap: square"/>
   </g>
   <g id="line2d_40">
    <path d="M 93.581522 117.815556 
L 94.274689 117.815556 
L 94.967857 117.815546 
L 95.661025 117.67214 
L 96.354193 117.276074 
L 97.04736 115.658096 
L 97.740528 112.305657 
L 98.433696 100.472731 
L 99.126863 90.223748 
L 99.820031 103.072841 
L 100.513199 113.061256 
L 101.206366 116.454328 
L 101.899534 117.680781 
L 102.592702 117.81555 
L 103.28587 117.815556 
L 103.979037 117.815556 
L 104.672205 117.815556 
L 105.365373 117.815556 
L 106.05854 117.815556 
L 106.751708 117.815556 
L 107.444876 117.815556 
L 108.138043 117.815556 
L 108.831211 117.815556 
L 109.524379 117.815556 
L 110.217547 117.815556 
L 110.910714 117.815556 
L 111.603882 117.815556 
L 112.29705 117.815556 
L 112.990217 117.815556 
L 113.683385 117.815556 
L 114.376553 117.815556 
L 115.06972 117.815556 
L 115.762888 117.815556 
L 116.456056 117.815556 
L 117.149224 117.815556 
L 117.842391 117.815556 
L 118.535559 117.815556 
L 119.228727 117.815556 
L 119.921894 117.815556 
L 120.615062 117.815556 
L 121.30823 117.815556 
L 122.001398 117.815556 
L 122.694565 117.815556 
L 123.387733 117.815556 
L 124.080901 117.815556 
L 124.774068 117.815556 
L 125.467236 117.815556 
L 126.160404 117.815556 
L 126.853571 117.815556 
L 127.546739 117.815556 
" clip-path="url(#pc976be1979)" style="fill: none; stroke: #ff7f0e; stroke-width: 1.1; stroke-linecap: square"/>
   </g>
   <g id="line2d_41">
    <path d="M 99.991559 119.195146 
L 99.991559 88.844158 
" clip-path="url(#pc976be1979)" style="fill: none; stroke: #1f77b4; stroke-width: 1.1; stroke-linecap: square"/>
   </g>
   <g id="line2d_42">
    <path d="M 99.920497 119.195146 
L 99.920497 88.844158 
" clip-path="url(#pc976be1979)" style="fill: none; stroke: #ff7f0e; stroke-width: 1.1; stroke-linecap: square"/>
   </g>
   <g id="line2d_43">
    <path d="M 97.692429 119.195146 
L 97.692429 88.844158 
" clip-path="url(#pc976be1979)" style="fill: none; stroke: #2ca02c; stroke-width: 1.1; stroke-linecap: square"/>
   </g>
   <g id="line2d_44">
    <path d="M 99.403403 119.195146 
L 99.403403 88.844158 
" clip-path="url(#pc976be1979)" style="fill: none; stroke: #d62728; stroke-width: 1.1; stroke-linecap: square"/>
   </g>
   <g id="patch_12">
    <path d="M 93.581522 125.712696 
L 127.546739 125.712696 
" style="fill: none; stroke: #000000; stroke-width: 0.7; stroke-linejoin: miter; stroke-linecap: square"/>
   </g>
  </g>
  <g id="axes_12">
   <g id="patch_13">
    <path d="M 134.339783 120.712696 
L 168.305 120.712696 
L 168.305 87.326609 
L 134.339783 87.326609 
z
" style="fill: #ffffff"/>
   </g>
   <g id="matplotlib.axis_17">
    <g id="xtick_17"/>
    <g id="xtick_18"/>
   </g>
   <g id="matplotlib.axis_18">
    <g id="ytick_17"/>
    <g id="ytick_18"/>
   </g>
   <g id="PathCollection_31">
    <path d="M 150.975807 119.343572 
L 151.596046 118.66865 
L 151.641377 117.987301 
L 151.641204 117.305952 
L 151.648802 116.624603 
L 151.660432 115.943255 
L 151.662043 115.261906 
L 151.653992 114.580557 
L 151.613551 113.899209 
L 150.975807 113.227698 
L 150.956892 113.21786 
L 150.28264 112.632608 
L 149.688365 113.21786 
L 149.778317 113.899209 
L 149.685753 114.580557 
L 149.647657 115.261906 
L 150.28264 115.912005 
L 150.287148 115.943255 
L 150.302788 116.624603 
L 150.306162 117.305952 
L 150.308225 117.987301 
L 150.355565 118.66865 
L 150.975807 119.343572 
z
" clip-path="url(#pea840f51ac)" style="fill: none; stroke: #d62728; stroke-width: 1.1"/>
   </g>
   <g id="PathCollection_32">
    <path d="M 150.975807 118.647034 
L 151.392995 117.987301 
L 151.39126 117.305952 
L 151.46724 116.624603 
L 151.583543 115.943255 
L 151.599658 115.261906 
L 151.519143 114.580557 
L 151.114732 113.899209 
L 150.975807 113.752928 
L 150.779172 113.899209 
L 150.332335 114.580557 
L 150.28264 114.985359 
L 150.171318 115.261906 
L 150.28264 115.375878 
L 150.36449 115.943255 
L 150.484356 116.624603 
L 150.557702 117.305952 
L 150.557359 117.987301 
L 150.975807 118.647034 
z
" clip-path="url(#pea840f51ac)" style="fill: none; stroke: #d62728; stroke-width: 1.1"/>
   </g>
   <g id="PathCollection_33">
    <path d="M 150.975807 116.940633 
L 151.06377 116.624603 
L 151.412677 115.943255 
L 151.461025 115.261906 
L 151.219479 114.580557 
L 150.975807 114.2523 
L 150.687227 114.580557 
L 150.424967 115.261906 
L 150.536363 115.943255 
L 150.887842 116.624603 
L 150.975807 116.940633 
z
" clip-path="url(#pea840f51ac)" style="fill: none; stroke: #d62728; stroke-width: 1.1"/>
   </g>
   <g id="PathCollection_34">
    <path d="M 150.975807 118.53543 
L 151.575187 117.987301 
L 151.629977 117.305952 
L 151.651742 116.624603 
L 151.662043 115.943255 
L 151.661549 115.261906 
L 151.642501 114.580557 
L 151.269251 113.899209 
L 150.975807 113.591399 
L 150.28264 113.738925 
L 150.155078 113.899209 
L 150.28264 114.036826 
L 150.306329 114.580557 
L 150.28264 115.051097 
L 150.084869 115.261906 
L 150.134574 115.943255 
L 150.28264 116.133019 
L 150.294856 116.624603 
L 150.346374 117.305952 
L 150.611187 117.987301 
L 150.975807 118.53543 
z
" clip-path="url(#pea840f51ac)" style="fill: none; stroke: #ff7f0e; stroke-width: 1.1"/>
   </g>
   <g id="PathCollection_35">
    <path d="M 150.975807 117.364628 
L 151.025727 117.305952 
L 151.496639 116.624603 
L 151.599658 115.943255 
L 151.594711 115.261906 
L 151.404231 114.580557 
L 150.975807 114.129569 
L 150.545594 114.580557 
L 150.347485 115.261906 
L 150.343921 115.943255 
L 150.45111 116.624603 
L 150.927776 117.305952 
L 150.975807 117.364628 
z
" clip-path="url(#pea840f51ac)" style="fill: none; stroke: #ff7f0e; stroke-width: 1.1"/>
   </g>
   <g id="PathCollection_36">
    <path d="M 150.975807 116.860866 
L 151.151966 116.624603 
L 151.461025 115.943255 
L 151.446182 115.261906 
L 150.975807 114.619288 
L 150.498274 115.261906 
L 150.48434 115.943255 
L 150.798341 116.624603 
L 150.975807 116.860866 
z
" clip-path="url(#pea840f51ac)" style="fill: none; stroke: #ff7f0e; stroke-width: 1.1"/>
   </g>
   <g id="line2d_45">
    <path d="M 150.575158 114.411954 
" clip-path="url(#pea840f51ac)" style="fill: none; stroke: #1f77b4; stroke-linecap: square"/>
    <g clip-path="url(#pea840f51ac)">
     <use xlink:href="#m9b0c1b15e2" x="150.575158" y="114.411954" style="fill: #1f77b4; stroke: #000000"/>
    </g>
   </g>
   <g id="line2d_46">
    <path d="M 150.622346 114.481804 
" clip-path="url(#pea840f51ac)" style="fill: none; stroke: #ff7f0e; stroke-linecap: square"/>
    <g clip-path="url(#pea840f51ac)">
     <use xlink:href="#m525d69cb93" x="150.622346" y="114.481804" style="fill: #ff7f0e; stroke: #000000"/>
    </g>
   </g>
   <g id="line2d_47">
    <path d="M 153.860793 116.671882 
" clip-path="url(#pea840f51ac)" style="fill: none; stroke: #2ca02c; stroke-linecap: square"/>
    <g clip-path="url(#pea840f51ac)">
     <use xlink:href="#m414e5b365c" x="153.860793" y="116.671882" style="fill: #2ca02c; stroke: #000000"/>
    </g>
   </g>
   <g id="line2d_48">
    <path d="M 150.941428 114.990081 
" clip-path="url(#pea840f51ac)" style="fill: none; stroke: #d62728; stroke-linecap: square"/>
    <g clip-path="url(#pea840f51ac)">
     <use xlink:href="#md968734da2" x="150.941428" y="114.990081" style="fill: #d62728; stroke: #000000"/>
    </g>
   </g>
   <g id="text_12">
    <text style="font: 12px 'Arial'; text-anchor: start" x="172.550652" y="104.019652" transform="rotate(-0, 172.550652, 104.019652)">...</text>
   </g>
  </g>
  <g id="axes_13"/>
  <g id="axes_14"/>
  <g id="axes_15"/>
  <g id="axes_16">
   <g id="patch_14">
    <path d="M 134.339783 160.776 
L 168.305 160.776 
L 168.305 127.389913 
L 134.339783 127.389913 
z
" style="fill: #ffffff"/>
   </g>
   <g id="matplotlib.axis_19">
    <g id="xtick_19">
     <g id="line2d_49">
      <g>
       <use xlink:href="#m946ec8310e" x="134.339783" y="165.776" style="stroke: #000000; stroke-width: 0.5"/>
      </g>
     </g>
     <g id="text_13">
      <text style="font: 7px 'Arial'; text-anchor: middle" x="134.339783" y="176.286469" transform="rotate(-0, 134.339783, 176.286469)">-90</text>
     </g>
    </g>
    <g id="xtick_20">
     <g id="line2d_50">
      <g>
       <use xlink:href="#m946ec8310e" x="168.305" y="165.776" style="stroke: #000000; stroke-width: 0.5"/>
      </g>
     </g>
     <g id="text_14">
      <text style="font: 7px 'Arial'; text-anchor: middle" x="168.305" y="176.286469" transform="rotate(-0, 168.305, 176.286469)">-40</text>
     </g>
    </g>
    <g id="text_15">
     <!-- $V_{T}$ -->
     <g transform="translate(146.642391 187.437719)">
      <text>
       <tspan style="font: 8px 'Arial'" x="0" y="-0.265625">V</tspan>
       <tspan style="font: 5.6px 'Arial'" x="5.475325" y="2.123875">T</tspan>
      </text>
     </g>
    </g>
   </g>
   <g id="matplotlib.axis_20">
    <g id="ytick_19"/>
    <g id="ytick_20"/>
   </g>
   <g id="line2d_51">
    <path d="M 134.339783 157.87886 
L 135.03295 157.87886 
L 135.726118 157.87886 
L 136.419286 157.87886 
L 137.112453 157.87886 
L 137.805621 157.87886 
L 138.498789 157.87886 
L 139.191957 157.87886 
L 139.885124 157.87886 
L 140.578292 157.87886 
L 141.27146 157.87886 
L 141.964627 157.87886 
L 142.657795 157.87886 
L 143.350963 157.87886 
L 144.04413 157.87886 
L 144.737298 157.87886 
L 145.430466 157.87886 
L 146.123634 157.87886 
L 146.816801 157.87886 
L 147.509969 157.87886 
L 148.203137 157.87886 
L 148.896304 157.87886 
L 149.589472 157.87886 
L 150.28264 156.776584 
L 150.975807 144.453275 
L 151.668975 157.87886 
L 152.362143 157.87886 
L 153.055311 157.87886 
L 153.748478 157.87886 
L 154.441646 157.87886 
L 155.134814 157.87886 
L 155.827981 157.87886 
L 156.521149 157.87886 
L 157.214317 157.87886 
L 157.907484 157.87886 
L 158.600652 157.87886 
L 159.29382 157.87886 
L 159.986988 157.87886 
L 160.680155 157.87886 
L 161.373323 157.87886 
L 162.066491 157.87886 
L 162.759658 157.87886 
L 163.452826 157.87886 
L 164.145994 157.87886 
L 164.839161 157.87886 
L 165.532329 157.87886 
L 166.225497 157.87886 
L 166.918665 157.87886 
L 167.611832 157.87886 
L 168.305 157.87886 
" clip-path="url(#p35cc523546)" style="fill: none; stroke: #d62728; stroke-width: 1.1; stroke-linecap: square"/>
   </g>
   <g id="line2d_52">
    <path d="M 134.339783 157.87886 
L 135.03295 157.87886 
L 135.726118 157.87886 
L 136.419286 157.87886 
L 137.112453 157.87886 
L 137.805621 157.87886 
L 138.498789 157.87886 
L 139.191957 157.87886 
L 139.885124 157.87886 
L 140.578292 157.87886 
L 141.27146 157.87886 
L 141.964627 157.87886 
L 142.657795 157.87886 
L 143.350963 157.87886 
L 144.04413 157.87886 
L 144.737298 157.87886 
L 145.430466 157.87886 
L 146.123634 157.87886 
L 146.816801 157.87886 
L 147.509969 157.87886 
L 148.203137 157.87886 
L 148.896304 157.87886 
L 149.589472 157.87886 
L 150.28264 157.273239 
L 150.975807 130.287053 
L 151.668975 157.654488 
L 152.362143 157.87886 
L 153.055311 157.87886 
L 153.748478 157.87886 
L 154.441646 157.87886 
L 155.134814 157.87886 
L 155.827981 157.87886 
L 156.521149 157.87886 
L 157.214317 157.87886 
L 157.907484 157.87886 
L 158.600652 157.87886 
L 159.29382 157.87886 
L 159.986988 157.87886 
L 160.680155 157.87886 
L 161.373323 157.87886 
L 162.066491 157.87886 
L 162.759658 157.87886 
L 163.452826 157.87886 
L 164.145994 157.87886 
L 164.839161 157.87886 
L 165.532329 157.87886 
L 166.225497 157.87886 
L 166.918665 157.87886 
L 167.611832 157.87886 
L 168.305 157.87886 
" clip-path="url(#p35cc523546)" style="fill: none; stroke: #ff7f0e; stroke-width: 1.1; stroke-linecap: square"/>
   </g>
   <g id="line2d_53">
    <path d="M 150.575158 159.258451 
L 150.575158 128.907462 
" clip-path="url(#p35cc523546)" style="fill: none; stroke: #1f77b4; stroke-width: 1.1; stroke-linecap: square"/>
   </g>
   <g id="line2d_54">
    <path d="M 150.622346 159.258451 
L 150.622346 128.907462 
" clip-path="url(#p35cc523546)" style="fill: none; stroke: #ff7f0e; stroke-width: 1.1; stroke-linecap: square"/>
   </g>
   <g id="line2d_55">
    <path d="M 153.860793 159.258451 
L 153.860793 128.907462 
" clip-path="url(#p35cc523546)" style="fill: none; stroke: #2ca02c; stroke-width: 1.1; stroke-linecap: square"/>
   </g>
   <g id="line2d_56">
    <path d="M 150.941428 159.258451 
L 150.941428 128.907462 
" clip-path="url(#p35cc523546)" style="fill: none; stroke: #d62728; stroke-width: 1.1; stroke-linecap: square"/>
   </g>
   <g id="patch_15">
    <path d="M 134.339783 165.776 
L 168.305 165.776 
" style="fill: none; stroke: #000000; stroke-width: 0.7; stroke-linejoin: miter; stroke-linecap: square"/>
   </g>
   <g id="text_16">
    <text style="font: 12px 'Arial'; text-anchor: start" x="172.550652" y="144.082957" transform="rotate(-0, 172.550652, 144.082957)">...</text>
   </g>
   <g id="text_17">
    <text style="font: 12px 'Arial'" transform="translate(172.821884 176.65999)rotate(-315)">...</text>
   </g>
  </g>
 </g>
 <defs>
  <clipPath id="p983274d7bc">
   <rect x="12.065" y="7.2" width="33.965217" height="33.386087"/>
  </clipPath>
  <clipPath id="p94748fd859">
   <rect x="52.823261" y="7.2" width="33.965217" height="33.386087"/>
  </clipPath>
  <clipPath id="pbade731bc2">
   <rect x="93.581522" y="7.2" width="33.965217" height="33.386087"/>
  </clipPath>
  <clipPath id="p408f45f50c">
   <rect x="134.339783" y="7.2" width="33.965217" height="33.386087"/>
  </clipPath>
  <clipPath id="p3455db64e4">
   <rect x="52.823261" y="47.263304" width="33.965217" height="33.386087"/>
  </clipPath>
  <clipPath id="p611b75dddb">
   <rect x="93.581522" y="47.263304" width="33.965217" height="33.386087"/>
  </clipPath>
  <clipPath id="pfc5de95c4b">
   <rect x="134.339783" y="47.263304" width="33.965217" height="33.386087"/>
  </clipPath>
  <clipPath id="pc976be1979">
   <rect x="93.581522" y="87.326609" width="33.965217" height="33.386087"/>
  </clipPath>
  <clipPath id="pea840f51ac">
   <rect x="134.339783" y="87.326609" width="33.965217" height="33.386087"/>
  </clipPath>
  <clipPath id="p35cc523546">
   <rect x="134.339783" y="127.389913" width="33.965217" height="33.386087"/>
  </clipPath>
 </defs>
</svg>
