<?xml version="1.0" encoding="utf-8" standalone="no"?>
<!DOCTYPE svg PUBLIC "-//W3C//DTD SVG 1.1//EN"
  "http://www.w3.org/Graphics/SVG/1.1/DTD/svg11.dtd">
<svg xmlns:xlink="http://www.w3.org/1999/xlink" width="555.92pt" height="78.35976pt" viewBox="0 0 555.92 78.35976" xmlns="http://www.w3.org/2000/svg" version="1.1">
 <metadata>
  <rdf:RDF xmlns:dc="http://purl.org/dc/elements/1.1/" xmlns:cc="http://creativecommons.org/ns#" xmlns:rdf="http://www.w3.org/1999/02/22-rdf-syntax-ns#">
   <cc:Work>
    <dc:type rdf:resource="http://purl.org/dc/dcmitype/StillImage"/>
    <dc:date>2022-09-21T16:41:06.425689</dc:date>
    <dc:format>image/svg+xml</dc:format>
    <dc:creator>
     <cc:Agent>
      <dc:title>Matplotlib v3.5.1, https://matplotlib.org/</dc:title>
     </cc:Agent>
    </dc:creator>
   </cc:Work>
  </rdf:RDF>
 </metadata>
 <defs>
  <style type="text/css">*{stroke-linejoin: round; stroke-linecap: butt}</style>
 </defs>
 <g id="figure_1">
  <g id="patch_1">
   <path d="M 0 78.35976 
L 555.92 78.35976 
L 555.92 0 
L 0 0 
L 0 78.35976 
z
" style="fill: none"/>
  </g>
  <g id="subfigure_1">
   <g id="patch_2">
    <path d="M 15.2 73.15976 
L 152 73.15976 
L 152 8.35976 
L 15.2 8.35976 
z
" style="fill: #ffffff"/>
   </g>
   <g id="axes_1">
    <g id="patch_3">
     <path d="M 32.3 66.03176 
L 85.31 66.03176 
L 85.31 16.13576 
L 32.3 16.13576 
z
" style="fill: #ffffff"/>
    </g>
    <g id="matplotlib.axis_1"/>
    <g id="line2d_1">
     <path d="M 34.709545 56.365637 
L 35.244491 59.030037 
L 35.784256 60.669712 
L 36.340889 61.690583 
L 36.933667 62.331258 
L 37.615603 62.74179 
L 38.49754 63.001504 
L 39.859002 63.146331 
L 40.740939 63.104749 
L 41.275885 56.843762 
L 41.897579 50.31689 
L 41.924085 40.725575 
L 41.945772 18.40376 
L 42.027701 48.444903 
L 42.124088 56.514516 
L 42.169871 56.27743 
L 42.791565 50.71492 
L 42.822891 43.503809 
L 42.849397 18.842898 
L 42.926506 48.16041 
L 43.025303 56.532197 
L 43.068677 56.330131 
L 43.769889 50.608992 
L 43.801215 41.482456 
L 43.825312 18.78033 
L 43.904831 48.637843 
L 44.001217 56.596708 
L 44.047001 56.40345 
L 44.620501 53.353128 
L 44.801226 51.893582 
L 44.856649 48.966982 
L 44.885565 21.678087 
L 44.895203 18.722103 
L 44.960264 44.136392 
L 45.073519 56.657757 
L 45.107254 56.546003 
L 45.822925 53.172055 
L 45.979553 51.897761 
L 46.034975 49.045196 
L 46.061482 24.329371 
L 46.07353 18.685523 
L 46.14823 47.010839 
L 46.254255 56.713758 
L 46.29281 56.578218 
L 46.851852 54.084381 
L 47.237399 52.427731 
L 47.319327 50.694404 
L 47.350653 42.450781 
L 47.37475 18.655681 
L 47.454269 48.363013 
L 47.555475 56.764379 
L 47.598849 56.614876 
L 48.107288 54.458564 
L 48.683198 52.339163 
L 48.760308 50.507306 
L 48.789224 41.739493 
L 48.81332 18.651236 
L 48.892839 48.527676 
L 48.996455 56.809975 
L 49.035009 56.68203 
L 49.553088 54.622325 
L 50.278397 52.268179 
L 50.350687 50.435267 
L 50.379603 40.424296 
L 50.40129 18.64291 
L 50.483219 48.800867 
L 50.584425 56.850739 
L 50.625389 56.727646 
L 51.136238 54.794559 
L 52.044682 52.106431 
L 52.109743 49.897167 
L 52.13625 34.349781 
L 52.155527 18.652592 
L 52.237455 49.155568 
L 52.338661 56.887045 
L 52.379626 56.765661 
L 52.880836 54.942403 
L 53.449517 53.815229 
L 53.849522 52.891268 
L 53.982054 51.910784 
L 54.037476 49.430232 
L 54.061573 31.693458 
L 54.07844 18.642355 
L 54.160369 48.934275 
L 54.263985 56.918994 
L 54.302539 56.808858 
L 54.813388 55.023554 
L 55.350744 54.030892 
L 55.921835 52.955064 
L 56.064005 52.091583 
L 56.129066 49.88458 
L 56.155572 34.11651 
L 56.17485 18.668821 
L 56.256778 49.213757 
L 56.360394 56.946943 
L 56.398949 56.837473 
L 56.904978 55.113557 
L 57.423057 54.193377 
L 58.182101 52.931351 
L 58.321862 52.090381 
L 58.386923 49.916045 
L 58.413429 34.667943 
L 58.432707 18.664882 
L 58.514635 49.153776 
L 58.618251 56.971458 
L 58.656806 56.867472 
L 59.170064 55.160814 
L 59.680914 54.28756 
L 60.596587 52.882442 
L 60.731528 52.009373 
L 60.79177 49.781202 
L 60.815866 36.707937 
L 60.835144 18.661746 
L 60.919482 49.463901 
L 61.023097 56.992722 
L 61.061652 56.886815 
L 61.567682 55.222099 
L 62.071302 54.372695 
L 63.141194 52.804206 
L 63.264087 51.903322 
L 63.319509 49.486505 
L 63.343606 32.459967 
L 63.360473 18.666137 
L 63.444812 49.466667 
L 63.548427 57.01134 
L 63.586982 56.907993 
L 64.097831 55.247331 
L 64.599042 54.417731 
L 65.774959 52.748634 
L 65.893032 51.770757 
L 65.943635 49.027369 
L 65.970142 23.783266 
L 65.98219 18.66615 
L 66.05689 47.150106 
L 66.170144 57.027512 
L 66.203879 56.943082 
L 66.758102 55.190811 
L 67.266542 54.394674 
L 68.454507 52.79687 
L 68.5774 51.905451 
L 68.632823 49.527504 
L 68.656919 33.034836 
L 68.673787 18.67796 
L 68.758125 49.409885 
L 68.861741 57.041789 
L 68.900295 56.94288 
L 69.423193 55.268275 
L 69.921994 54.463514 
L 71.220804 52.699966 
L 71.331648 51.715101 
L 71.382251 48.453331 
L 71.418396 18.676128 
L 71.493096 47.287832 
L 71.60635 57.054258 
L 71.640086 56.970259 
L 72.199128 55.214623 
L 72.705158 54.431882 
L 73.9871 52.749518 
L 74.105174 51.801382 
L 74.158187 48.921114 
L 74.196741 18.680602 
L 74.271441 47.331231 
L 74.384695 57.065386 
L 74.41843 56.981571 
L 74.979883 55.220504 
L 75.483503 54.443179 
L 76.791951 52.735218 
L 76.878699 52.177213 
L 76.955809 52.504638 
L 77.110027 54.293623 
L 77.560635 58.887748 
L 77.994375 61.213117 
L 78.432934 62.457584 
L 78.89077 63.132516 
L 79.404029 63.502686 
L 80.073916 63.699325 
L 81.187182 63.763667 
L 82.900455 63.711324 
L 82.900455 63.711324 
" clip-path="url(#pe2c5f34299)" style="fill: none; stroke: #1f77b4; stroke-width: 1.5; stroke-linecap: square"/>
    </g>
    <g id="text_1">
     <text style="font: 8px 'Arial'; text-anchor: start" x="-8" y="66.69518" transform="rotate(-0, -8, 66.69518)">50 mV</text>
    </g>
    <g id="patch_4">
     <path d="M 27.224168 67.04351 
L 33.248332 67.04351 
L 33.248332 67.04351 
L 27.224168 67.04351 
L 27.224168 67.04351 
z
" style="fill: none; stroke: #000000; stroke-linejoin: miter"/>
    </g>
    <g id="patch_5">
     <path d="M 27.224168 67.04351 
L 27.224168 67.04351 
L 27.224168 52.894351 
L 27.224168 52.894351 
L 27.224168 67.04351 
z
" style="fill: none; stroke: #000000; stroke-linejoin: miter"/>
    </g>
    <g id="text_2">
     <text style="font: 8px 'Arial'; text-anchor: start" x="17.12" y="74.76976" transform="rotate(-0, 17.12, 74.76976)">100 ms</text>
    </g>
   </g>
   <g id="axes_2">
    <g id="line2d_2">
     <path d="M 87.719545 56.201957 
L 91.723395 54.716818 
L 98.525115 52.403421 
L 99.296941 51.824524 
L 99.731093 51.250243 
L 100.068767 50.409124 
L 100.309963 49.119124 
L 100.50292 46.517991 
L 100.647637 41.051805 
L 101.08179 18.896631 
L 101.130029 18.842898 
L 101.226507 19.320969 
L 101.419464 21.936612 
L 101.853616 31.958216 
L 102.528964 46.185883 
L 103.059595 52.322222 
L 103.445508 54.878683 
L 103.783182 55.91742 
L 104.120856 56.364862 
L 104.506769 56.524774 
L 105.0374 56.477084 
L 106.195139 56.07949 
L 109.282445 55.02516 
L 113.431011 53.88873 
L 117.097187 52.824666 
L 118.254926 52.278051 
L 118.930274 51.731622 
L 119.364427 51.090957 
L 119.653862 50.271601 
L 119.895057 48.782063 
L 120.088014 45.50176 
L 120.232731 38.291375 
L 120.570405 19.199935 
L 120.666884 18.78033 
L 120.715123 18.917299 
L 120.85984 20.274477 
L 121.149275 25.797981 
L 122.162297 47.405644 
L 122.692928 53.080588 
L 123.078841 55.267403 
L 123.416515 56.121127 
L 123.754189 56.479364 
L 124.140102 56.594955 
L 124.718972 56.518714 
L 126.310864 55.983735 
L 129.205213 55.104089 
L 133.450258 54.073028 
L 135.910455 53.51574 
L 135.910455 53.51574 
" clip-path="url(#p2c3f30b4fe)" style="fill: none; stroke: #1f77b4; stroke-width: 1.5; stroke-linecap: square"/>
    </g>
    <g id="patch_6">
     <path d="M 92.861981 67.04351 
L 104.921769 67.04351 
L 104.921769 67.04351 
L 92.861981 67.04351 
L 92.861981 67.04351 
z
" style="fill: none; stroke: #000000; stroke-linejoin: miter"/>
    </g>
    <g id="text_3">
     <text style="font: 8px 'Arial'; text-anchor: start" x="88" y="74.76976" transform="rotate(-0, 88, 74.76976)">10 ms</text>
    </g>
   </g>
   <g id="text_4">
    <!-- $U_o(t)$ -->
    <g transform="translate(75.08 13.04)">
     <text>
      <tspan style="font: 8px 'Arial'" x="0 9.429434 12.093497 14.316153" y="-0.171875">U(t)</tspan>
      <tspan style="font: 5.6px 'Arial'" x="5.916731" y="2.217625">o</tspan>
     </text>
    </g>
   </g>
  </g>
  <g id="subfigure_2">
   <g id="patch_7">
    <path d="M 152 73.15976 
L 288.8 73.15976 
L 288.8 8.35976 
L 152 8.35976 
z
" style="fill: #ffffff"/>
   </g>
   <g id="axes_3">
    <g id="patch_8">
     <path d="M 169.1 66.03176 
L 222.11 66.03176 
L 222.11 16.13576 
L 169.1 16.13576 
z
" style="fill: #ffffff"/>
    </g>
    <g id="matplotlib.axis_2"/>
    <g id="matplotlib.axis_3"/>
    <g id="line2d_3">
     <path d="M 171.509545 56.307966 
L 172.058949 58.937924 
L 172.613172 60.575276 
L 173.181854 61.603098 
L 173.789089 62.259343 
L 174.485483 62.685352 
L 175.377059 62.958689 
L 176.719243 63.115252 
L 177.540939 63.077771 
L 178.090343 56.628575 
L 178.673482 50.410521 
L 178.702398 40.440691 
L 178.724085 18.40376 
L 178.806014 48.191397 
L 178.902401 56.536695 
L 178.948184 56.318149 
L 179.562649 50.838081 
L 179.596384 44.560706 
L 179.622891 18.859879 
L 179.70241 48.109744 
L 179.801206 56.554279 
L 179.84699 56.347556 
L 180.536154 50.795061 
L 180.569889 43.727713 
L 180.596396 18.783842 
L 180.675915 48.360995 
L 180.774711 56.619913 
L 180.818085 56.444558 
L 181.603636 50.695408 
L 181.634962 43.938961 
L 181.661468 18.728665 
L 181.740987 48.270451 
L 181.842193 56.681846 
L 181.885567 56.51267 
L 182.483164 53.553476 
L 182.716902 52.12461 
L 182.784372 49.972518 
L 182.810879 37.521181 
L 182.832566 18.706845 
L 182.914494 49.001542 
L 183.013291 56.738036 
L 183.056665 56.582355 
L 183.627755 53.962522 
L 183.986796 52.314 
L 184.066315 50.460738 
L 184.095231 42.303812 
L 184.119327 18.665563 
L 184.198846 48.091289 
L 184.302462 56.788751 
L 184.343426 56.654303 
L 184.916927 54.205659 
L 185.39645 52.374708 
L 185.480789 50.671978 
L 185.512114 43.277342 
L 185.536211 18.673941 
L 185.61814 48.443 
L 185.721755 56.834154 
L 185.762719 56.704346 
L 186.321762 54.445794 
L 186.962733 52.293367 
L 187.042252 50.514118 
L 187.071168 43.007003 
L 187.095265 18.656437 
L 187.177193 48.522391 
L 187.283219 56.874225 
L 187.321773 56.753073 
L 187.875997 54.62172 
L 188.683235 52.155729 
L 188.753115 50.300779 
L 188.782031 39.351517 
L 188.803718 18.647234 
L 188.885647 48.708271 
L 188.991672 56.909687 
L 189.030226 56.793324 
L 189.57963 54.764618 
L 190.261566 53.341464 
L 190.497713 52.516845 
L 190.5941 51.231525 
L 190.632654 46.946624 
L 190.66398 18.652056 
L 190.741089 47.535779 
L 190.851934 56.940844 
L 190.885669 56.851029 
L 191.490495 54.750581 
L 192.114599 53.59937 
L 192.451952 52.781236 
L 192.579664 51.781833 
L 192.632677 49.230999 
L 192.659183 26.267007 
L 192.673641 18.661869 
L 192.75316 48.252015 
L 192.861595 56.967978 
L 192.89774 56.871391 
L 193.47365 54.896684 
L 194.027874 53.90895 
L 194.56041 52.911557 
L 194.707399 52.065926 
L 194.77487 49.974905 
L 194.801376 37.111574 
L 194.820654 18.67469 
L 194.904992 49.103248 
L 195.011017 56.99151 
L 195.047162 56.894669 
L 195.615843 54.976351 
L 196.150789 54.049465 
L 196.830315 52.902046 
L 196.977305 52.074679 
L 197.044775 50.076249 
L 197.071282 38.843069 
L 197.092969 18.669548 
L 197.174897 48.843051 
L 197.280923 57.012057 
L 197.317068 56.922641 
L 197.905026 54.986329 
L 198.437562 54.102137 
L 199.201426 52.898881 
L 199.348416 52.094187 
L 199.415887 50.244031 
L 199.442393 41.511066 
L 199.46649 18.682001 
L 199.546009 48.345447 
L 199.654444 57.029939 
L 199.690589 56.941152 
L 200.278547 55.023109 
L 200.803854 54.164398 
L 201.661695 52.872261 
L 201.806275 52.047387 
L 201.871336 50.114205 
L 201.897843 39.485284 
L 201.91953 18.672186 
L 202.001458 48.751319 
L 202.109893 57.045521 
L 202.146038 56.952029 
L 202.719539 55.078441 
L 203.237617 54.227637 
L 204.189435 52.825783 
L 204.326786 51.976705 
L 204.389437 49.79721 
L 204.415944 34.082103 
L 204.435221 18.689939 
L 204.517149 48.982773 
L 204.623175 57.059231 
L 204.65932 56.972927 
L 205.254507 55.056186 
L 205.774995 54.225121 
L 206.743681 52.838806 
L 206.883441 52.00565 
L 206.946093 50.032867 
L 206.972599 38.133751 
L 206.994286 18.691707 
L 207.076215 48.991066 
L 207.18224 57.071337 
L 207.218385 56.985931 
L 207.818392 55.061485 
L 208.33888 54.237547 
L 209.336481 52.828722 
L 209.473832 52.003949 
L 209.536484 50.024587 
L 209.56299 37.99512 
L 209.584677 18.69591 
L 209.666606 49.018664 
L 209.772631 57.082129 
L 209.808776 56.997062 
L 210.411192 55.067839 
L 210.929271 54.250329 
L 211.950969 52.818767 
L 212.08832 51.970699 
L 212.150971 49.761695 
L 212.177477 33.492227 
L 212.194345 18.702696 
L 212.278683 49.079605 
L 212.384709 57.091823 
L 212.420854 57.006365 
L 213.02327 55.076164 
L 213.541348 54.259092 
L 213.678699 54.097182 
L 213.688338 54.228197 
L 214.141355 58.844477 
L 214.577505 61.187012 
L 215.018474 62.442206 
L 215.47631 63.121509 
L 215.989569 63.496417 
L 216.657046 63.69681 
L 217.751035 63.763729 
L 219.700455 63.698963 
L 219.700455 63.698963 
" clip-path="url(#pf7ea8900a6)" style="fill: none; stroke: #ff7f0e; stroke-width: 1.5; stroke-linecap: square"/>
    </g>
   </g>
   <g id="axes_4">
    <g id="patch_9">
     <path d="M 222.11 66.03176 
L 275.12 66.03176 
L 275.12 16.13576 
L 222.11 16.13576 
z
" style="fill: #ffffff"/>
    </g>
    <g id="matplotlib.axis_4"/>
    <g id="matplotlib.axis_5"/>
    <g id="line2d_4">
     <path d="M 224.519545 56.066981 
L 227.992764 54.750144 
L 234.890962 52.299713 
L 235.61455 51.734238 
L 236.048702 51.140737 
L 236.386376 50.259258 
L 236.627572 48.8749 
L 236.820528 45.986336 
L 236.965246 39.825707 
L 237.351159 19.085082 
L 237.399398 18.859879 
L 237.447637 18.872613 
L 237.592355 19.940952 
L 237.88179 25.094684 
L 238.99129 48.109744 
L 239.521921 53.447246 
L 239.907834 55.403097 
L 240.245508 56.156259 
L 240.631421 56.488789 
L 241.065573 56.551222 
L 241.789161 56.380684 
L 248.976794 54.051816 
L 253.414795 52.729208 
L 254.572535 52.148539 
L 255.199644 51.604027 
L 255.585557 51.012827 
L 255.874992 50.187961 
L 256.116188 48.689668 
L 256.309144 45.398934 
L 256.453862 38.223528 
L 256.791536 19.234797 
L 256.888014 18.783842 
L 256.936253 18.903347 
L 257.080971 20.199045 
L 257.370405 25.582445 
L 258.431667 47.752086 
L 258.962297 53.266577 
L 259.34821 55.350445 
L 259.685885 56.163706 
L 260.071798 56.533157 
L 260.50595 56.619638 
L 261.181298 56.48939 
L 269.719627 54.021994 
L 272.710455 53.304909 
L 272.710455 53.304909 
" clip-path="url(#p9db822a0e5)" style="fill: none; stroke: #ff7f0e; stroke-width: 1.5; stroke-linecap: square"/>
    </g>
   </g>
   <g id="text_5">
    <!-- $U_{full}(t)$ -->
    <g transform="translate(209.88 13.04)">
     <text>
      <tspan style="font: 8px 'Arial'" x="0 13.473575 16.137638 18.360294" y="-0.171875">U(t)</tspan>
      <tspan style="font: 5.6px 'Arial'" x="5.916731 7.472591 10.587044 11.831184" y="2.217625">full</tspan>
     </text>
    </g>
   </g>
  </g>
  <g id="subfigure_3">
   <g id="patch_10">
    <path d="M 288.8 73.15976 
L 425.6 73.15976 
L 425.6 8.35976 
L 288.8 8.35976 
z
" style="fill: #ffffff"/>
   </g>
   <g id="axes_5">
    <g id="patch_11">
     <path d="M 305.9 66.03176 
L 358.91 66.03176 
L 358.91 16.13576 
L 305.9 16.13576 
z
" style="fill: #ffffff"/>
    </g>
    <g id="matplotlib.axis_6"/>
    <g id="matplotlib.axis_7"/>
    <g id="line2d_5">
     <path d="M 308.309545 56.411014 
L 308.880636 58.918264 
L 309.456546 60.511027 
L 310.051734 61.537871 
L 310.687886 62.206232 
L 311.415605 62.648053 
L 312.336097 62.936685 
L 313.690329 63.108071 
L 314.340939 63.072554 
L 314.91203 56.486903 
L 315.618062 49.230341 
L 315.642159 37.202449 
L 315.659027 18.40376 
L 315.745775 47.898665 
L 315.818065 55.607431 
L 315.883125 54.885555 
L 316.179514 52.206313 
L 316.328914 50.395699 
L 316.367468 46.076751 
L 316.396384 18.799849 
L 316.473494 46.850867 
L 316.550603 55.57645 
L 316.615664 54.897274 
L 316.895185 52.61412 
L 317.119284 50.816577 
L 317.167477 47.923719 
L 317.201213 18.736918 
L 317.280732 46.992037 
L 317.360251 55.663529 
L 317.422902 55.030664 
L 317.690375 53.066168 
L 318.051825 51.000141 
L 318.107247 48.299657 
L 318.131344 25.003667 
L 318.143392 18.646937 
L 318.222911 46.991293 
L 318.30243 55.760052 
L 318.365081 55.176781 
L 318.622916 53.459203 
L 319.186777 50.96427 
L 319.23979 48.26679 
L 319.263887 24.050414 
L 319.275935 18.601737 
L 319.355454 46.977637 
L 319.434973 55.851368 
L 319.497624 55.314675 
L 319.74823 53.79276 
L 320.208476 52.680096 
L 320.502455 51.738357 
L 320.603661 50.547658 
L 320.644625 46.291465 
L 320.671132 18.559298 
L 320.75306 46.984146 
L 320.834989 55.934932 
L 320.895231 55.439407 
L 321.138607 54.079539 
L 321.543431 53.251628 
L 322.232595 51.909204 
L 322.357898 50.946801 
L 322.408501 48.508563 
L 322.432598 25.867582 
L 322.444646 18.538288 
L 322.528984 47.814303 
L 322.608503 56.010485 
L 322.668745 55.544624 
L 322.909711 54.309123 
L 323.302487 53.601922 
L 324.078399 52.716788 
L 324.473585 52.097338 
L 324.632623 51.399872 
L 324.707322 49.893968 
L 324.736238 43.368775 
L 324.757925 18.547139 
L 324.842263 47.635278 
L 324.921782 56.080236 
L 324.984434 55.632525 
L 325.220581 54.506511 
L 325.610947 53.862422 
L 326.225412 53.274226 
L 327.500125 52.165478 
L 327.68085 51.587405 
L 327.772417 50.401019 
L 327.808562 46.329412 
L 327.835069 18.557962 
L 327.916997 46.997372 
L 328.001335 56.148233 
L 328.059167 55.750658 
L 328.295315 54.668983 
L 328.68809 54.04918 
L 329.276049 53.527015 
L 330.196541 53.041371 
L 331.259204 52.436194 
L 331.555593 52.003787 
L 331.704992 51.346072 
L 331.777282 49.803041 
L 331.806198 41.868992 
L 331.827885 18.572241 
L 331.912223 48.098787 
L 331.991742 56.213906 
L 332.051984 55.825442 
L 332.290541 54.784365 
L 332.692955 54.158048 
L 333.271275 53.656904 
L 334.109839 53.247928 
L 336.003836 52.396607 
L 336.285767 51.978057 
L 336.430347 51.322614 
L 336.500227 49.805907 
L 336.529143 41.935997 
L 336.55083 18.573214 
L 336.635169 48.111723 
L 336.717097 56.274792 
L 336.774929 55.904995 
L 337.015896 54.874423 
L 337.427949 54.220553 
L 337.99663 53.719897 
L 338.801458 53.327281 
L 341.131605 52.32841 
L 341.38221 51.89095 
L 341.512332 51.151813 
L 341.572574 49.2932 
L 341.596671 38.996964 
L 341.615948 18.569624 
L 341.700286 48.090081 
L 341.782215 56.327726 
L 341.840047 55.973538 
L 342.085833 54.937417 
L 342.507524 54.252401 
L 343.071386 53.745205 
L 343.859347 53.354215 
L 346.329255 52.294166 
L 346.562992 51.851069 
L 346.685885 51.084615 
L 346.743717 48.988439 
L 346.767814 33.407814 
L 346.782272 18.578752 
L 346.871429 48.89605 
L 346.950948 56.372527 
L 347.00878 56.02503 
L 347.256976 54.988986 
L 347.683487 54.277885 
L 348.242529 53.761814 
L 349.016032 53.368455 
L 350.478699 52.882452 
L 350.481109 52.916332 
L 350.965452 58.144679 
L 351.41365 60.73176 
L 351.866667 62.153781 
L 352.334142 62.94133 
L 352.847401 63.386353 
L 353.485962 63.637504 
L 354.449829 63.753608 
L 356.500455 63.730171 
L 356.500455 63.730171 
" clip-path="url(#pe0874fb5a7)" style="fill: none; stroke: #2ca02c; stroke-width: 1.5; stroke-linecap: square"/>
    </g>
   </g>
   <g id="axes_6">
    <g id="patch_12">
     <path d="M 358.91 66.03176 
L 411.92 66.03176 
L 411.92 16.13576 
L 358.91 16.13576 
z
" style="fill: #ffffff"/>
    </g>
    <g id="matplotlib.axis_8"/>
    <g id="matplotlib.axis_9"/>
    <g id="line2d_6">
     <path d="M 361.319545 54.282267 
L 361.657219 55.30246 
L 361.946654 55.578399 
L 362.284328 55.578772 
L 362.814959 55.297579 
L 365.419873 53.663498 
L 367.204722 52.930539 
L 371.353288 51.327125 
L 372.028636 50.779121 
L 372.462789 50.129582 
L 372.752224 49.267371 
L 372.94518 48.064404 
L 373.089898 46.076751 
L 373.234615 40.781738 
L 373.620528 18.846758 
L 373.668767 18.799849 
L 373.765246 19.231865 
L 373.958202 21.491978 
L 374.344115 29.486213 
L 375.115942 45.5301 
L 375.743051 52.767075 
L 376.080725 54.684376 
L 376.418399 55.40783 
L 376.707834 55.572166 
L 377.093747 55.499086 
L 377.817334 55.061544 
L 379.505704 54.036818 
L 381.049357 53.390389 
L 383.364836 52.692067 
L 386.838055 51.639201 
L 387.802838 51.110258 
L 388.333468 50.592544 
L 388.671143 50.000567 
L 388.960577 48.976303 
L 389.153534 47.381255 
L 389.298251 44.356589 
L 389.442969 35.668067 
L 389.684165 19.458691 
L 389.780643 18.736918 
L 389.828882 18.787614 
L 389.9736 19.794064 
L 390.263034 24.388111 
L 391.565491 49.387048 
L 392.047883 53.909544 
L 392.385557 55.187417 
L 392.674992 55.580536 
L 393.012666 55.659633 
L 393.495057 55.476849 
L 396.582363 53.874126 
L 398.46369 53.322455 
L 401.936908 52.580325 
L 405.120692 51.822818 
L 406.326671 51.325616 
L 407.002019 50.823464 
L 407.436171 50.215338 
L 407.725606 49.408801 
L 407.918563 48.299657 
L 408.111519 45.456695 
L 408.256237 38.630494 
L 408.545672 19.10369 
L 408.64215 18.646937 
L 408.690389 18.762976 
L 408.835106 19.86934 
L 409.124541 24.5044 
L 409.510455 33.306796 
L 409.510455 33.306796 
" clip-path="url(#p5cf85546df)" style="fill: none; stroke: #2ca02c; stroke-width: 1.5; stroke-linecap: square"/>
    </g>
   </g>
   <g id="text_6">
    <!-- $U_{\backslash APT}(t)$ -->
    <g transform="translate(344.04 13.04)">
     <text>
      <tspan style="font: 8px 'Arial'" x="0 18.761856 21.425919 23.648575" y="-0.171875">U(t)</tspan>
      <tspan style="font: 5.6px 'Arial'" x="5.916731 7.472591 11.207747 14.942903" y="2.217625">\APT</tspan>
     </text>
    </g>
   </g>
  </g>
  <g id="subfigure_4">
   <g id="patch_13">
    <path d="M 425.6 73.15976 
L 562.4 73.15976 
L 562.4 8.35976 
L 425.6 8.35976 
z
" style="fill: #ffffff"/>
   </g>
   <g id="axes_7">
    <g id="patch_14">
     <path d="M 442.7 66.03176 
L 495.71 66.03176 
L 495.71 16.13576 
L 442.7 16.13576 
z
" style="fill: #ffffff"/>
    </g>
    <g id="matplotlib.axis_10"/>
    <g id="matplotlib.axis_11"/>
    <g id="line2d_7">
     <path d="M 445.109545 56.422375 
L 445.646901 59.168531 
L 446.186666 60.851473 
L 446.740889 61.897187 
L 447.331257 62.555966 
L 448.005964 62.977756 
L 448.871034 63.245671 
L 450.189121 63.397716 
L 451.140939 63.361369 
L 451.678295 57.034173 
L 452.345772 49.941043 
L 452.372279 38.083392 
L 452.393966 18.40376 
L 452.475894 48.723934 
L 452.567462 56.667821 
L 452.618065 56.405746 
L 453.124094 53.324057 
L 453.307229 51.703095 
L 453.360242 48.649403 
L 453.401206 18.890383 
L 453.475906 47.673962 
L 453.574702 56.704358 
L 453.620486 56.495162 
L 454.09278 54.01851 
L 454.442182 52.170477 
L 454.514472 50.120294 
L 454.543388 38.95056 
L 454.565075 18.789321 
L 454.647003 48.923788 
L 454.74339 56.798571 
L 454.789174 56.604021 
L 455.237371 54.494576 
L 455.806053 52.143992 
L 455.878343 50.034965 
L 455.907259 37.101653 
L 455.928946 18.720626 
L 456.010874 49.200302 
L 456.107261 56.878159 
L 456.153044 56.700283 
L 456.594013 54.794175 
L 457.386793 51.993852 
L 457.451854 49.633347 
L 457.478361 34.206179 
L 457.497638 18.686737 
L 457.579567 49.037876 
L 457.678363 56.942159 
L 457.721737 56.784895 
L 458.169935 54.970294 
L 458.77958 53.559158 
L 459.07356 52.626411 
L 459.181995 51.40608 
L 459.227778 47.170509 
L 459.261514 18.685491 
L 459.336213 47.265051 
L 459.442238 56.994163 
L 459.480793 56.870485 
L 459.962726 55.024268 
L 460.531407 53.827843 
L 460.953099 52.819958 
L 461.085631 51.812293 
L 461.143463 49.041297 
L 461.169969 26.74001 
L 461.184427 18.678593 
L 461.263946 48.366533 
L 461.365152 57.036937 
L 461.408526 56.900485 
L 461.871182 55.154459 
L 462.408537 54.046749 
L 462.982038 52.850708 
L 463.119389 51.902195 
L 463.17963 49.548487 
L 463.206137 32.794414 
L 463.225414 18.700382 
L 463.307343 49.275586 
L 463.406139 57.073554 
L 463.449513 56.936677 
L 463.914578 55.204442 
L 464.444705 54.131247 
L 465.097724 52.843221 
L 465.235075 51.898952 
L 465.295317 49.5357 
L 465.321823 32.602721 
L 465.341101 18.706737 
L 465.423029 49.31772 
L 465.521826 57.105309 
L 465.5652 56.971665 
L 466.039904 55.219426 
L 466.567621 54.165614 
L 467.256785 52.847736 
L 467.394136 51.928931 
L 467.456787 49.511494 
L 467.483294 32.253611 
L 467.500161 18.703086 
L 467.58209 48.776612 
L 467.683296 57.133589 
L 467.72426 57.013118 
L 468.223061 55.192076 
L 468.755597 54.15099 
L 469.439942 52.861964 
L 469.579703 51.9553 
L 469.642354 49.737382 
L 469.668861 35.616838 
L 469.688138 18.690211 
L 469.770067 48.894677 
L 469.871273 57.159193 
L 469.912237 57.03877 
L 470.415857 55.200036 
L 470.945984 54.164062 
L 471.644787 52.852053 
L 471.784547 51.920814 
L 471.844789 49.723483 
L 471.871295 35.401329 
L 471.890573 18.687741 
L 471.972501 48.938998 
L 472.073707 57.182502 
L 472.114672 57.063144 
L 472.62793 55.192094 
L 473.160467 54.156344 
L 473.852041 52.863564 
L 473.991801 51.964226 
L 474.054453 49.808908 
L 474.080959 36.717761 
L 474.102646 18.706544 
L 474.182165 48.739072 
L 474.285781 57.203999 
L 474.324335 57.089745 
L 474.852052 55.171651 
L 475.386998 54.139111 
L 476.064114 52.874215 
L 476.206284 51.97143 
L 476.268936 49.863332 
L 476.295442 37.555431 
L 476.317129 18.689845 
L 476.399058 49.220773 
L 476.500264 57.223772 
L 476.541228 57.102116 
L 477.061716 55.196769 
L 477.594252 54.157307 
L 478.285826 52.859796 
L 478.425587 51.948934 
L 478.488238 49.685685 
L 478.514744 34.818314 
L 478.534022 18.683984 
L 478.61595 49.056362 
L 478.717156 57.241886 
L 478.758121 57.124602 
L 479.290657 55.178507 
L 479.825603 54.14028 
L 480.502719 52.86782 
L 480.644889 51.945477 
L 480.70754 49.656119 
L 480.734047 34.368019 
L 480.753324 18.684203 
L 480.835253 49.13245 
L 480.936459 57.258814 
L 480.977423 57.141206 
L 481.514778 55.174893 
L 482.049724 54.136132 
L 482.722021 52.870293 
L 482.864191 51.953449 
L 482.926843 49.720359 
L 482.953349 35.346779 
L 482.972626 18.68721 
L 483.054555 48.990554 
L 483.158171 57.274516 
L 483.196725 57.160392 
L 483.743719 55.16049 
L 484.281075 54.121357 
L 484.941323 52.874618 
L 485.083494 51.9682 
L 485.146145 49.835123 
L 485.172651 37.116646 
L 485.194338 18.697493 
L 485.276267 49.325394 
L 485.377473 57.289062 
L 485.418437 57.169731 
L 485.960612 55.176773 
L 486.495558 54.133663 
L 487.163035 52.871603 
L 487.278699 52.242476 
L 487.341351 52.623602 
L 487.582317 55.503957 
L 488.025696 59.345107 
L 488.469074 61.423614 
L 488.919682 62.559557 
L 489.391976 63.186121 
L 489.929332 63.535973 
L 490.637774 63.717909 
L 491.8161 63.76012 
L 493.300455 63.698598 
L 493.300455 63.698598 
" clip-path="url(#p82dffe4ee1)" style="fill: none; stroke: #d62728; stroke-width: 1.5; stroke-linecap: square"/>
    </g>
   </g>
   <g id="axes_8">
    <g id="patch_15">
     <path d="M 495.71 66.03176 
L 548.72 66.03176 
L 548.72 16.13576 
L 495.71 16.13576 
z
" style="fill: #ffffff"/>
    </g>
    <g id="matplotlib.axis_12"/>
    <g id="matplotlib.axis_13"/>
    <g id="line2d_8">
     <path d="M 498.119545 56.646406 
L 498.939611 56.386924 
L 502.654025 55.043536 
L 506.513157 53.978964 
L 510.854681 52.752368 
L 512.060659 52.190012 
L 512.736007 51.653325 
L 513.17016 51.042061 
L 513.459595 50.297539 
L 513.70079 49.055196 
L 513.893747 46.693711 
L 514.038464 42.105652 
L 514.520856 18.909955 
L 514.569095 18.890383 
L 514.665573 19.421801 
L 514.85853 22.134475 
L 515.340921 33.498652 
L 515.96803 46.327002 
L 516.498661 52.584083 
L 516.884574 55.155006 
L 517.222248 56.152312 
L 517.559922 56.564275 
L 517.945835 56.700699 
L 518.524705 56.629175 
L 520.068358 56.100058 
L 522.673272 55.309097 
L 526.435925 54.425159 
L 534.395385 52.628623 
L 535.504885 52.112194 
L 536.131994 51.599508 
L 536.566147 50.951691 
L 536.855581 50.120294 
L 537.096777 48.628629 
L 537.289734 45.478369 
L 537.434451 38.95056 
L 537.772125 19.512295 
L 537.868604 18.789321 
L 537.916843 18.820595 
L 538.06156 19.951322 
L 538.350995 25.253032 
L 539.412256 47.687894 
L 539.991126 53.829877 
L 540.377039 55.751653 
L 540.714713 56.453165 
L 541.100627 56.747628 
L 541.583018 56.789242 
L 542.451323 56.573653 
L 545.972781 55.562599 
L 546.310455 55.483375 
L 546.310455 55.483375 
" clip-path="url(#pc2f88bd06f)" style="fill: none; stroke: #d62728; stroke-width: 1.5; stroke-linecap: square"/>
    </g>
   </g>
   <g id="text_7">
    <!-- $U_{\backslash APA}(t)$ -->
    <g transform="translate(480.68 13.04)">
     <text>
      <tspan style="font: 8px 'Arial'" x="0 19.076309 21.740372 23.963028" y="-0.171875">U(t)</tspan>
      <tspan style="font: 5.6px 'Arial'" x="5.916731 7.472591 11.207747 14.942903" y="2.217625">\APA</tspan>
     </text>
    </g>
   </g>
  </g>
 </g>
 <defs>
  <clipPath id="pe2c5f34299">
   <rect x="32.3" y="16.13576" width="53.01" height="49.896"/>
  </clipPath>
  <clipPath id="p2c3f30b4fe">
   <rect x="85.31" y="16.13576" width="53.01" height="49.896"/>
  </clipPath>
  <clipPath id="pf7ea8900a6">
   <rect x="169.1" y="16.13576" width="53.01" height="49.896"/>
  </clipPath>
  <clipPath id="p9db822a0e5">
   <rect x="222.11" y="16.13576" width="53.01" height="49.896"/>
  </clipPath>
  <clipPath id="pe0874fb5a7">
   <rect x="305.9" y="16.13576" width="53.01" height="49.896"/>
  </clipPath>
  <clipPath id="p5cf85546df">
   <rect x="358.91" y="16.13576" width="53.01" height="49.896"/>
  </clipPath>
  <clipPath id="p82dffe4ee1">
   <rect x="442.7" y="16.13576" width="53.01" height="49.896"/>
  </clipPath>
  <clipPath id="pc2f88bd06f">
   <rect x="495.71" y="16.13576" width="53.01" height="49.896"/>
  </clipPath>
 </defs>
</svg>
