<?xml version="1.0" encoding="utf-8" standalone="no"?>
<!DOCTYPE svg PUBLIC "-//W3C//DTD SVG 1.1//EN"
  "http://www.w3.org/Graphics/SVG/1.1/DTD/svg11.dtd">
<svg xmlns:xlink="http://www.w3.org/1999/xlink" width="186.858047pt" height="175.085719pt" viewBox="0 0 186.858047 175.085719" xmlns="http://www.w3.org/2000/svg" version="1.1">
 <metadata>
  <rdf:RDF xmlns:dc="http://purl.org/dc/elements/1.1/" xmlns:cc="http://creativecommons.org/ns#" xmlns:rdf="http://www.w3.org/1999/02/22-rdf-syntax-ns#">
   <cc:Work>
    <dc:type rdf:resource="http://purl.org/dc/dcmitype/StillImage"/>
    <dc:date>2022-05-18T17:56:03.147775</dc:date>
    <dc:format>image/svg+xml</dc:format>
    <dc:creator>
     <cc:Agent>
      <dc:title>Matplotlib v3.5.1, https://matplotlib.org/</dc:title>
     </cc:Agent>
    </dc:creator>
   </cc:Work>
  </rdf:RDF>
 </metadata>
 <defs>
  <style type="text/css">*{stroke-linejoin: round; stroke-linecap: butt}</style>
 </defs>
 <g id="figure_1">
  <g id="patch_1">
   <path d="M 0 175.085719 
L 186.858047 175.085719 
L 186.858047 0 
L 0 0 
L 0 175.085719 
z
" style="fill: none"/>
  </g>
  <g id="axes_1">
   <g id="patch_2">
    <path d="M 10.311719 54.427765 
L 59.547013 54.427765 
L 59.547013 19.296 
L 10.311719 19.296 
z
" style="fill: #ffffff"/>
   </g>
   <g id="matplotlib.axis_1">
    <g id="xtick_1">
     <g id="line2d_1">
      <defs>
       <path id="m9be547e0aa" d="M 0 0 
L 0 2 
" style="stroke: #000000; stroke-width: 0.5"/>
      </defs>
      <g>
       <use xlink:href="#m9be547e0aa" x="10.311719" y="59.427765" style="stroke: #000000; stroke-width: 0.5"/>
      </g>
     </g>
     <g id="text_1">
      <text style="font: 7px 'Arial'; text-anchor: middle" x="10.311719" y="69.938233" transform="rotate(-0, 10.311719, 69.938233)">-5</text>
     </g>
    </g>
    <g id="xtick_2">
     <g id="line2d_2">
      <g>
       <use xlink:href="#m9be547e0aa" x="59.547013" y="59.427765" style="stroke: #000000; stroke-width: 0.5"/>
      </g>
     </g>
     <g id="text_2">
      <text style="font: 7px 'Arial'; text-anchor: middle" x="59.547013" y="69.938233" transform="rotate(-0, 59.547013, 69.938233)">5</text>
     </g>
    </g>
    <g id="text_3">
     <!-- $\theta_{0}$ -->
     <g transform="translate(30.849366 81.169483)">
      <text>
       <tspan style="font: 8px 'Arial'" x="0" y="-0.171875">θ</tspan>
       <tspan style="font: 5.6px 'Arial'" x="4.588606" y="2.217625">0</tspan>
      </text>
     </g>
    </g>
   </g>
   <g id="matplotlib.axis_2">
    <g id="ytick_1"/>
    <g id="ytick_2"/>
   </g>
   <g id="line2d_3">
    <path d="M 10.311719 51.37914 
L 11.316521 47.168609 
L 12.321323 43.197425 
L 13.326125 39.709226 
L 14.330926 36.822695 
L 15.335728 34.513819 
L 16.34053 32.641717 
L 17.345332 31.00826 
L 18.350134 29.431971 
L 19.354936 27.812874 
L 20.359738 26.167294 
L 21.36454 24.62066 
L 22.369342 23.360605 
L 23.374144 22.567116 
L 24.378946 22.344624 
L 25.383748 22.679273 
L 26.388549 23.434689 
L 27.393351 24.386397 
L 28.398153 25.283309 
L 29.402955 25.91723 
L 30.407757 26.179232 
L 31.412559 26.0856 
L 32.417361 25.765383 
L 33.422163 25.414016 
L 34.426965 25.228849 
L 35.431767 25.348491 
L 36.436569 25.816142 
L 37.441371 26.577987 
L 38.446173 27.514258 
L 39.450974 28.487707 
L 40.455776 29.387618 
L 41.460578 30.151139 
L 42.46538 30.756647 
L 43.470182 31.199262 
L 44.474984 31.467022 
L 45.479786 31.532422 
L 46.484588 31.361787 
L 47.48939 30.934095 
L 48.494192 30.258864 
L 49.498994 29.388654 
L 50.503796 28.427819 
L 51.508598 27.538949 
L 52.513399 26.942724 
L 53.518201 26.902148 
L 54.523003 27.684282 
L 55.527805 29.501954 
L 56.532607 32.44969 
L 57.537409 36.455815 
L 58.542211 41.271819 
L 59.547013 46.509424 
" clip-path="url(#p31953fd7e9)" style="fill: none; stroke: #1f77b4; stroke-width: 1.5; stroke-linecap: square"/>
   </g>
   <g id="line2d_4">
    <path d="M 10.311719 47.598291 
L 11.316521 43.137536 
L 12.321323 38.812631 
L 13.326125 34.840605 
L 14.330926 31.387053 
L 15.335728 28.551837 
L 16.34053 26.37048 
L 17.345332 24.827324 
L 18.350134 23.873614 
L 19.354936 23.443732 
L 20.359738 23.46531 
L 21.36454 23.862421 
L 22.369342 24.554148 
L 23.374144 25.452234 
L 24.378946 26.461169 
L 25.383748 27.482322 
L 26.388549 28.421799 
L 27.393351 29.200374 
L 28.398153 29.763382 
L 29.402955 30.088506 
L 30.407757 30.189376 
L 31.412559 30.112972 
L 32.417361 29.929542 
L 33.422163 29.715762 
L 34.426965 29.534856 
L 35.431767 29.420012 
L 36.436569 29.367697 
L 37.441371 29.344393 
L 38.446173 29.30469 
L 39.450974 29.213227 
L 40.455776 29.060719 
L 41.460578 28.866799 
L 42.46538 28.668675 
L 43.470182 28.501511 
L 44.474984 28.38054 
L 45.479786 28.29412 
L 46.484588 28.211865 
L 47.48939 28.105148 
L 48.494192 27.971851 
L 49.498994 27.855534 
L 50.503796 27.851443 
L 51.508598 28.096714 
L 52.513399 28.747317 
L 53.518201 29.947869 
L 54.523003 31.801495 
L 55.527805 34.345938 
L 56.532607 37.540154 
L 57.537409 41.263735 
L 58.542211 45.329714 
L 59.547013 49.509328 
" clip-path="url(#p31953fd7e9)" style="fill: none; stroke: #ff7f0e; stroke-width: 1.5; stroke-linecap: square"/>
   </g>
   <g id="line2d_5">
    <path d="M 10.311719 47.614413 
L 11.316521 43.410551 
L 12.321323 39.39352 
L 13.326125 35.766073 
L 14.330926 32.679262 
L 15.335728 30.217952 
L 16.34053 28.39961 
L 17.345332 27.184155 
L 18.350134 26.490843 
L 19.354936 26.217927 
L 20.359738 26.261427 
L 21.36454 26.530119 
L 22.369342 26.954478 
L 23.374144 27.488228 
L 24.378946 28.102726 
L 25.383748 28.776504 
L 26.388549 29.484184 
L 27.393351 30.189501 
L 28.398153 30.845673 
L 29.402955 31.403094 
L 30.407757 31.820838 
L 31.412559 32.076427 
L 32.417361 32.168982 
L 33.422163 32.114065 
L 34.426965 31.932639 
L 35.431767 31.639557 
L 36.436569 31.237225 
L 37.441371 30.717522 
L 38.446173 30.071013 
L 39.450974 29.299091 
L 40.455776 28.423502 
L 41.460578 27.489191 
L 42.46538 26.559593 
L 43.470182 25.706682 
L 44.474984 24.9998 
L 45.479786 24.496956 
L 46.484588 24.240422 
L 47.48939 24.256365 
L 48.494192 24.557027 
L 49.498994 25.144109 
L 50.503796 26.01302 
L 51.508598 27.158319 
L 52.513399 28.580278 
L 53.518201 30.290861 
L 54.523003 32.315756 
L 55.527805 34.688827 
L 56.532607 37.437588 
L 57.537409 40.56252 
L 58.542211 44.017279 
L 59.547013 47.698524 
" clip-path="url(#p31953fd7e9)" style="fill: none; stroke: #2ca02c; stroke-width: 1.5; stroke-linecap: square"/>
   </g>
   <g id="line2d_6">
    <path d="M 16.812279 52.830866 
L 16.812279 20.892898 
" clip-path="url(#p31953fd7e9)" style="fill: none; stroke: #000000; stroke-linecap: square"/>
   </g>
   <g id="patch_3">
    <path d="M 10.311719 59.427765 
L 59.547013 59.427765 
" style="fill: none; stroke: #000000; stroke-width: 0.7; stroke-linejoin: miter; stroke-linecap: square"/>
   </g>
  </g>
  <g id="axes_2">
   <g id="patch_4">
    <path d="M 69.394072 54.427765 
L 118.629366 54.427765 
L 118.629366 19.296 
L 69.394072 19.296 
z
" style="fill: #ffffff"/>
   </g>
   <g id="matplotlib.axis_3">
    <g id="xtick_3"/>
    <g id="xtick_4"/>
   </g>
   <g id="matplotlib.axis_4">
    <g id="ytick_3"/>
    <g id="ytick_4"/>
   </g>
   <g id="PathCollection_1">
    <path d="M 88.447244 54.427765 
L 88.452561 53.71079 
L 88.455722 52.993815 
L 88.457349 52.27684 
L 88.457985 51.559866 
L 88.45825 50.842891 
L 88.458939 50.125916 
L 88.461035 49.408941 
L 88.465588 48.691966 
L 88.473562 47.974992 
L 88.485308 47.290458 
L 88.500081 47.258017 
L 88.847061 46.541042 
L 89.090001 45.824067 
L 89.253103 45.107092 
L 89.36104 44.390118 
L 89.432394 43.673143 
L 89.479681 42.956168 
L 89.49011 42.751131 
L 89.643321 42.239193 
L 89.790262 41.522218 
L 89.881445 40.805244 
L 89.932953 40.088269 
L 89.953249 39.371294 
L 89.945534 38.654319 
L 89.908613 37.937345 
L 89.836573 37.22037 
L 89.717194 36.503395 
L 89.528446 35.78642 
L 89.49011 35.670026 
L 89.464877 35.069445 
L 89.4271 34.352471 
L 89.380043 33.635496 
L 89.323745 32.918521 
L 89.259514 32.201546 
L 89.189567 31.484571 
L 89.115696 30.767597 
L 89.037634 30.050622 
L 88.952377 29.333647 
L 88.855265 28.616672 
L 88.743272 27.899697 
L 88.621628 27.182723 
L 88.513324 26.465748 
L 88.485308 26.0757 
L 88.484521 25.748773 
L 88.485308 25.273003 
L 88.497406 25.031798 
L 88.611266 24.314824 
L 88.753352 23.597849 
L 88.882691 22.880874 
L 88.982984 22.163899 
L 89.05357 21.446924 
L 89.098825 20.72995 
L 89.123039 20.012975 
L 89.128759 19.296 
" clip-path="url(#p92f2bc99d0)" style="fill: none; stroke: #1f77b4; stroke-width: 1.5"/>
    <path d="M 78.15894 19.296 
L 77.938974 20.012975 
L 77.802076 20.72995 
L 77.713702 21.446924 
L 77.654035 22.163899 
L 77.610836 22.880874 
L 77.575479 23.597849 
L 77.540356 24.314824 
L 77.496621 25.031798 
L 77.432487 25.736121 
L 77.425709 25.748773 
L 77.073898 26.465748 
L 76.865241 27.182723 
L 76.73781 27.899697 
L 76.658011 28.616672 
L 76.607198 29.333647 
L 76.57481 30.050622 
L 76.554805 30.767597 
L 76.543784 31.484571 
L 76.540011 32.201546 
L 76.542945 32.918521 
L 76.553095 33.635496 
L 76.572156 34.352471 
L 76.60348 35.069445 
L 76.653039 35.78642 
L 76.731292 36.503395 
L 76.856621 37.22037 
L 77.061363 37.937345 
L 77.39985 38.654319 
L 77.432487 38.718834 
L 77.583765 39.371294 
L 77.641808 40.088269 
L 77.635246 40.805244 
L 77.591585 41.522218 
L 77.527308 42.239193 
L 77.450263 42.956168 
L 77.432487 43.084905 
L 77.123822 43.673143 
L 76.874798 44.390118 
L 76.724612 45.107092 
L 76.631992 45.824067 
L 76.573504 46.541042 
L 76.535946 47.258017 
L 76.511793 47.974992 
L 76.496732 48.691966 
L 76.488343 49.408941 
L 76.485412 50.125916 
L 76.487609 50.842891 
L 76.495396 51.559866 
L 76.510157 52.27684 
L 76.534575 52.993815 
L 76.573408 53.71079 
L 76.634998 54.427765 
" clip-path="url(#p92f2bc99d0)" style="fill: none; stroke: #1f77b4; stroke-width: 1.5"/>
   </g>
   <g id="PathCollection_2">
    <path d="M 89.356414 54.427765 
L 89.397105 53.71079 
L 89.425524 52.993815 
L 89.445807 52.27684 
L 89.460568 51.559866 
L 89.471494 50.842891 
L 89.479704 50.125916 
L 89.485973 49.408941 
L 89.49011 48.811973 
L 89.510348 48.691966 
L 89.611604 47.974992 
L 89.691098 47.258017 
L 89.757539 46.541042 
L 89.817297 45.824067 
L 89.874397 45.107092 
L 89.930437 44.390118 
L 89.98492 43.673143 
L 90.036156 42.956168 
L 90.082347 42.239193 
L 90.122371 41.522218 
L 90.156055 40.805244 
L 90.184083 40.088269 
L 90.207743 39.371294 
L 90.228643 38.654319 
L 90.248376 37.937345 
L 90.268125 37.22037 
L 90.28832 36.503395 
L 90.308543 35.78642 
L 90.327796 35.069445 
L 90.344961 34.352471 
L 90.359167 33.635496 
L 90.369915 32.918521 
L 90.376991 32.201546 
L 90.380315 31.484571 
L 90.379801 30.767597 
L 90.375271 30.050622 
L 90.366414 29.333647 
L 90.352805 28.616672 
L 90.333976 27.899697 
L 90.309547 27.182723 
L 90.279377 26.465748 
L 90.243632 25.748773 
L 90.202607 25.031798 
L 90.156246 24.314824 
L 90.103454 23.597849 
L 90.04143 22.880874 
L 89.965117 22.163899 
L 89.866568 21.446924 
L 89.733809 20.72995 
L 89.548682 20.012975 
L 89.49011 19.822662 
L 89.469788 19.296 
" clip-path="url(#p92f2bc99d0)" style="fill: none; stroke: #ff7f0e; stroke-width: 1.5"/>
    <path d="M 78.452582 19.296 
L 78.444761 20.012975 
L 78.439241 20.72995 
L 78.437289 21.067552 
L 78.379656 21.446924 
L 78.299104 22.163899 
L 78.241021 22.880874 
L 78.194324 23.597849 
L 78.147784 24.314824 
L 78.09093 25.031798 
L 78.017643 25.748773 
L 77.930081 26.465748 
L 77.837962 27.182723 
L 77.752465 27.899697 
L 77.680574 28.616672 
L 77.624012 29.333647 
L 77.581222 30.050622 
L 77.549502 30.767597 
L 77.526227 31.484571 
L 77.50928 32.201546 
L 77.497108 32.918521 
L 77.48864 33.635496 
L 77.483177 34.352471 
L 77.480315 35.069445 
L 77.479884 35.78642 
L 77.481915 36.503395 
L 77.48663 37.22037 
L 77.494439 37.937345 
L 77.505949 38.654319 
L 77.52197 39.371294 
L 77.543511 40.088269 
L 77.571762 40.805244 
L 77.608062 41.522218 
L 77.653867 42.239193 
L 77.7107 42.956168 
L 77.779982 43.673143 
L 77.8625 44.390118 
L 77.957085 45.107092 
L 78.058279 45.824067 
L 78.153904 46.541042 
L 78.225891 47.258017 
L 78.25789 47.974992 
L 78.246024 48.691966 
L 78.201611 49.408941 
L 78.142845 50.125916 
L 78.085199 50.842891 
L 78.037927 51.559866 
L 78.005319 52.27684 
L 77.989135 52.993815 
L 77.990516 53.71079 
L 78.01122 54.427765 
" clip-path="url(#p92f2bc99d0)" style="fill: none; stroke: #ff7f0e; stroke-width: 1.5"/>
   </g>
   <g id="PathCollection_3">
    <path d="M 88.475675 54.427765 
L 88.485308 54.050318 
L 88.621549 53.71079 
L 88.856397 52.993815 
L 89.018955 52.27684 
L 89.13429 51.559866 
L 89.21815 50.842891 
L 89.280582 50.125916 
L 89.328087 49.408941 
L 89.364923 48.691966 
L 89.39392 47.974992 
L 89.416989 47.258017 
L 89.435452 46.541042 
L 89.450244 45.824067 
L 89.462037 45.107092 
L 89.47132 44.390118 
L 89.478438 43.673143 
L 89.48363 42.956168 
L 89.487054 42.239193 
L 89.488832 41.522218 
L 89.489119 40.805244 
L 89.488216 40.088269 
L 89.486712 39.371294 
L 89.485593 38.654319 
L 89.486174 37.937345 
L 89.489753 37.22037 
L 89.49011 37.186771 
L 89.597643 36.503395 
L 89.738505 35.78642 
L 89.877656 35.069445 
L 89.996588 34.352471 
L 90.089732 33.635496 
L 90.159002 32.918521 
L 90.208744 32.201546 
L 90.243184 31.484571 
L 90.265581 30.767597 
L 90.278115 30.050622 
L 90.281973 29.333647 
L 90.277438 28.616672 
L 90.263876 27.899697 
L 90.239584 27.182723 
L 90.201431 26.465748 
L 90.144183 25.748773 
L 90.059319 25.031798 
L 89.932932 24.314824 
L 89.742018 23.597849 
L 89.49011 22.958469 
L 89.480725 22.880874 
L 89.386006 22.163899 
L 89.259613 21.446924 
L 89.099266 20.72995 
L 88.906253 20.012975 
L 88.684332 19.296 
" clip-path="url(#p92f2bc99d0)" style="fill: none; stroke: #2ca02c; stroke-width: 1.5"/>
    <path d="M 78.3005 19.296 
L 78.165729 20.012975 
L 78.074954 20.72995 
L 78.016266 21.446924 
L 77.982433 22.163899 
L 77.969376 22.880874 
L 77.975336 23.597849 
L 78.000437 24.314824 
L 78.046509 25.031798 
L 78.116998 25.748773 
L 78.216649 26.465748 
L 78.350169 27.182723 
L 78.437289 27.584932 
L 78.441081 27.899697 
L 78.449138 28.616672 
L 78.45566 29.333647 
L 78.458609 30.050622 
L 78.455073 30.767597 
L 78.440853 31.484571 
L 78.437289 31.573084 
L 78.184272 32.201546 
L 77.938066 32.918521 
L 77.762614 33.635496 
L 77.644323 34.352471 
L 77.565667 35.069445 
L 77.513034 35.78642 
L 77.477276 36.503395 
L 77.45255 37.22037 
L 77.435178 37.937345 
L 77.432487 38.073194 
L 77.288633 38.654319 
L 77.161469 39.371294 
L 77.074669 40.088269 
L 77.01744 40.805244 
L 76.983064 41.522218 
L 76.967558 42.239193 
L 76.968908 42.956168 
L 76.986622 43.673143 
L 77.021489 44.390118 
L 77.075398 45.107092 
L 77.151016 45.824067 
L 77.250974 46.541042 
L 77.375967 47.258017 
L 77.432487 47.561712 
L 77.437568 47.974992 
L 77.445512 48.691966 
L 77.451562 49.408941 
L 77.45465 50.125916 
L 77.454589 50.842891 
L 77.452123 51.559866 
L 77.448436 52.27684 
L 77.444638 52.993815 
L 77.441551 53.71079 
L 77.439743 54.427765 
" clip-path="url(#p92f2bc99d0)" style="fill: none; stroke: #2ca02c; stroke-width: 1.5"/>
   </g>
   <g id="line2d_7">
    <path d="M 84.530125 49.789301 
" clip-path="url(#p92f2bc99d0)" style="fill: none; stroke: #000000; stroke-width: 1.5; stroke-linecap: square"/>
    <defs>
     <path id="mf5f5f128fd" d="M -2.5 2.5 
L 2.5 -2.5 
M -2.5 -2.5 
L 2.5 2.5 
" style="stroke: #000000; stroke-width: 2"/>
    </defs>
    <g clip-path="url(#p92f2bc99d0)">
     <use xlink:href="#mf5f5f128fd" x="84.530125" y="49.789301" style="stroke: #000000; stroke-width: 2"/>
    </g>
   </g>
  </g>
  <g id="axes_3">
   <g id="patch_5">
    <path d="M 128.476425 54.427765 
L 177.711719 54.427765 
L 177.711719 19.296 
L 128.476425 19.296 
z
" style="fill: #ffffff"/>
   </g>
   <g id="matplotlib.axis_5">
    <g id="xtick_5"/>
    <g id="xtick_6"/>
   </g>
   <g id="matplotlib.axis_6">
    <g id="ytick_5"/>
    <g id="ytick_6"/>
   </g>
   <g id="PathCollection_4">
    <path d="M 168.110837 54.427765 
L 168.229298 53.71079 
L 168.305473 52.993815 
L 168.353678 52.27684 
L 168.382413 51.559866 
L 168.396913 50.842891 
L 168.400809 50.125916 
L 168.397529 49.408941 
L 168.39174 48.691966 
L 168.390381 47.974992 
L 168.401458 47.258017 
L 168.429248 46.541042 
L 168.469969 45.824067 
L 168.514447 45.107092 
L 168.554877 44.390118 
L 168.587881 43.673143 
L 168.613353 42.956168 
L 168.632488 42.239193 
L 168.64664 41.522218 
L 168.656903 40.805244 
L 168.664037 40.088269 
L 168.668501 39.374469 
L 168.668809 39.371294 
L 168.70281 38.654319 
L 168.69824 37.937345 
L 168.668501 37.459318 
L 168.667553 37.22037 
L 168.661944 36.503395 
L 168.652898 35.78642 
L 168.639544 35.069445 
L 168.620829 34.352471 
L 168.596012 33.635496 
L 168.566195 32.918521 
L 168.537193 32.201546 
L 168.520849 31.484571 
L 168.527456 30.767597 
L 168.553855 30.050622 
L 168.586865 29.333647 
L 168.616235 28.616672 
L 168.638455 27.899697 
L 168.65376 27.182723 
L 168.663415 26.465748 
L 168.668501 25.761731 
L 168.669743 25.748773 
L 168.691421 25.031798 
L 168.668501 24.429519 
L 168.668204 24.314824 
L 168.66299 23.597849 
L 168.653948 22.880874 
L 168.640039 22.163899 
L 168.619384 21.446924 
L 168.588765 20.72995 
L 168.542677 20.012975 
L 168.471592 19.296 
" clip-path="url(#p2b7fc77d37)" style="fill: none; stroke: #1f77b4; stroke-width: 1.5"/>
    <path d="M 153.694159 19.296 
L 153.670905 20.012975 
L 153.655266 20.72995 
L 153.644584 21.446924 
L 153.63705 22.163899 
L 153.631284 22.880874 
L 153.626092 23.597849 
L 153.620386 24.314824 
L 153.613272 25.031798 
L 153.604257 25.748773 
L 153.596473 26.258639 
L 153.555222 26.465748 
L 153.413154 27.182723 
L 153.292763 27.899697 
L 153.194914 28.616672 
L 153.118134 29.333647 
L 153.059938 30.050622 
L 153.017708 30.767597 
L 152.989144 31.484571 
L 152.972453 32.201546 
L 152.966431 32.918521 
L 152.970532 33.635496 
L 152.985012 34.352471 
L 153.01118 35.069445 
L 153.051615 35.78642 
L 153.109452 36.503395 
L 153.182581 37.22037 
L 153.24207 37.937345 
L 153.210168 38.654319 
L 153.059245 39.371294 
L 152.896266 40.088269 
L 152.786741 40.805244 
L 152.720119 41.522218 
L 152.675383 42.239193 
L 152.639025 42.956168 
L 152.602783 43.673143 
L 152.591671 43.840816 
L 152.567297 43.673143 
L 152.534815 42.956168 
L 152.533271 42.239193 
L 152.538611 41.522218 
L 152.543532 40.805244 
L 152.545438 40.088269 
L 152.54312 39.371294 
L 152.535543 38.654319 
L 152.521236 37.937345 
L 152.49776 37.22037 
L 152.460976 36.503395 
L 152.403749 35.78642 
L 152.313497 35.069445 
L 152.167298 34.352471 
L 151.921636 33.635496 
L 151.586869 33.030081 
L 151.400022 32.918521 
L 150.582067 32.439226 
L 150.27482 32.918521 
L 149.962391 33.635496 
L 149.779994 34.352471 
L 149.670042 35.069445 
L 149.602045 35.78642 
L 149.577265 36.161426 
L 149.478445 36.503395 
L 149.329679 37.22037 
L 149.238769 37.937345 
L 149.189988 38.654319 
L 149.175415 39.371294 
L 149.192747 40.088269 
L 149.244698 40.805244 
L 149.33971 41.522218 
L 149.494295 42.239193 
L 149.577265 42.521792 
L 149.604976 42.956168 
L 149.670771 43.673143 
L 149.775597 44.390118 
L 149.947388 45.107092 
L 150.238457 45.824067 
L 150.582067 46.374475 
L 151.586869 46.283381 
L 151.647503 46.541042 
L 151.685475 47.258017 
L 151.675764 47.974992 
L 151.656257 48.691966 
L 151.638071 49.408941 
L 151.624634 50.125916 
L 151.616793 50.842891 
L 151.6147 51.559866 
L 151.61863 52.27684 
L 151.62942 52.993815 
L 151.648863 53.71079 
L 151.68028 54.427765 
" clip-path="url(#p2b7fc77d37)" style="fill: none; stroke: #1f77b4; stroke-width: 1.5"/>
   </g>
   <g id="PathCollection_5">
    <path d="M 169.618742 54.427765 
L 169.629036 53.71079 
L 169.633661 52.993815 
L 169.633494 52.27684 
L 169.629122 51.559866 
L 169.621082 50.842891 
L 169.610113 50.125916 
L 169.597362 49.408941 
L 169.584405 48.691966 
L 169.572917 47.974992 
L 169.564087 47.258017 
L 169.558165 46.541042 
L 169.55454 45.824067 
L 169.552292 45.107092 
L 169.550861 44.390118 
L 169.550556 43.673143 
L 169.552809 42.956168 
L 169.559954 42.239193 
L 169.574242 41.522218 
L 169.596331 40.805244 
L 169.624467 40.088269 
L 169.655386 39.371294 
L 169.673303 38.985486 
L 169.790497 38.654319 
L 170.022176 37.937345 
L 170.195497 37.22037 
L 170.322396 36.503395 
L 170.414561 35.78642 
L 170.481406 35.069445 
L 170.529892 34.352471 
L 170.564954 33.635496 
L 170.590002 32.918521 
L 170.60734 32.201546 
L 170.618455 31.484571 
L 170.624209 30.767597 
L 170.624942 30.050622 
L 170.620496 29.333647 
L 170.610163 28.616672 
L 170.592527 27.899697 
L 170.565171 27.182723 
L 170.524138 26.465748 
L 170.463003 25.748773 
L 170.371234 25.031798 
L 170.231269 24.314824 
L 170.013171 23.597849 
L 169.673303 22.89315 
L 169.670321 22.880874 
L 169.470341 22.163899 
L 169.12739 21.446924 
L 168.668501 20.842014 
L 168.607133 20.72995 
L 168.31035 20.012975 
L 168.049779 19.296 
" clip-path="url(#p2b7fc77d37)" style="fill: none; stroke: #ff7f0e; stroke-width: 1.5"/>
    <path d="M 153.942532 19.296 
L 153.820981 20.012975 
L 153.731445 20.72995 
L 153.662123 21.446924 
L 153.60582 22.163899 
L 153.596473 22.280309 
L 153.327276 22.880874 
L 153.097485 23.597849 
L 152.941186 24.314824 
L 152.832681 25.031798 
L 152.755429 25.748773 
L 152.698616 26.465748 
L 152.655033 27.182723 
L 152.619756 27.899697 
L 152.591671 28.552081 
L 152.568466 28.616672 
L 152.322251 29.333647 
L 152.137782 30.050622 
L 151.998902 30.767597 
L 151.894041 31.484571 
L 151.814641 32.201546 
L 151.754228 32.918521 
L 151.707823 33.635496 
L 151.67155 34.352471 
L 151.642341 35.069445 
L 151.617733 35.78642 
L 151.595747 36.503395 
L 151.586869 36.793525 
L 151.492888 37.22037 
L 151.350369 37.937345 
L 151.229601 38.654319 
L 151.128384 39.371294 
L 151.045484 40.088269 
L 150.979688 40.805244 
L 150.929521 41.522218 
L 150.893393 42.239193 
L 150.869882 42.956168 
L 150.858011 43.673143 
L 150.857458 44.390118 
L 150.868758 45.107092 
L 150.893562 45.824067 
L 150.935045 46.541042 
L 150.99859 47.258017 
L 151.092963 47.974992 
L 151.232312 48.691966 
L 151.439643 49.408941 
L 151.586869 49.798501 
L 151.617343 50.125916 
L 151.700747 50.842891 
L 151.820958 51.559866 
L 151.995977 52.27684 
L 152.25301 52.993815 
L 152.591671 53.654948 
L 152.597389 53.71079 
L 152.661728 54.427765 
" clip-path="url(#p2b7fc77d37)" style="fill: none; stroke: #ff7f0e; stroke-width: 1.5"/>
   </g>
   <g id="PathCollection_6">
    <path d="M 169.656459 54.427765 
L 169.670808 53.71079 
L 169.673303 53.536326 
L 169.748138 52.993815 
L 169.811762 52.27684 
L 169.844727 51.559866 
L 169.851013 50.842891 
L 169.832236 50.125916 
L 169.788181 49.408941 
L 169.717256 48.691966 
L 169.673303 48.360246 
L 169.668805 47.974992 
L 169.658742 47.258017 
L 169.647043 46.541042 
L 169.634364 45.824067 
L 169.62172 45.107092 
L 169.610265 44.390118 
L 169.600861 43.673143 
L 169.593659 42.956168 
L 169.588007 42.239193 
L 169.582677 41.522218 
L 169.576192 40.805244 
L 169.567013 40.088269 
L 169.553541 39.371294 
L 169.53399 38.654319 
L 169.506205 37.937345 
L 169.46753 37.22037 
L 169.414872 36.503395 
L 169.345332 35.78642 
L 169.258031 35.069445 
L 169.15769 34.352471 
L 169.058732 33.635496 
L 168.984376 32.918521 
L 168.955026 32.201546 
L 168.973589 31.484571 
L 169.024936 30.767597 
L 169.088818 30.050622 
L 169.150358 29.333647 
L 169.201968 28.616672 
L 169.240979 27.899697 
L 169.267041 27.182723 
L 169.280487 26.465748 
L 169.281473 25.748773 
L 169.269541 25.031798 
L 169.243314 24.314824 
L 169.20018 23.597849 
L 169.135841 22.880874 
L 169.043597 22.163899 
L 168.913217 21.446924 
L 168.72912 20.72995 
L 168.668501 20.531777 
L 168.649052 20.012975 
L 168.61475 19.296 
" clip-path="url(#p2b7fc77d37)" style="fill: none; stroke: #2ca02c; stroke-width: 1.5"/>
    <path d="M 151.606893 19.296 
L 151.586869 19.656488 
L 151.475129 20.012975 
L 151.293252 20.72995 
L 151.16124 21.446924 
L 151.063831 22.163899 
L 150.991103 22.880874 
L 150.93655 23.597849 
L 150.895901 24.314824 
L 150.866385 25.031798 
L 150.846281 25.748773 
L 150.834648 26.465748 
L 150.831191 27.182723 
L 150.836233 27.899697 
L 150.850788 28.616672 
L 150.876739 29.333647 
L 150.917146 30.050622 
L 150.97672 30.767597 
L 151.062437 31.484571 
L 151.184103 32.201546 
L 151.353956 32.918521 
L 151.582599 33.635496 
L 151.586869 33.649133 
L 151.640886 34.352471 
L 151.684211 35.069445 
L 151.700976 35.78642 
L 151.690096 36.503395 
L 151.663301 37.22037 
L 151.63299 37.937345 
L 151.60598 38.654319 
L 151.586869 39.27799 
L 151.566012 39.371294 
L 151.427334 40.088269 
L 151.329997 40.805244 
L 151.26675 41.522218 
L 151.231996 42.239193 
L 151.222493 42.956168 
L 151.237415 43.673143 
L 151.278447 44.390118 
L 151.350173 45.107092 
L 151.46097 45.824067 
L 151.586869 46.395593 
L 151.59105 46.541042 
L 151.616996 47.258017 
L 151.653822 47.974992 
L 151.706619 48.691966 
L 151.783485 49.408941 
L 151.897475 50.125916 
L 152.069929 50.842891 
L 152.336132 51.559866 
L 152.591671 52.061677 
L 152.618718 52.27684 
L 152.708597 52.993815 
L 152.815095 53.71079 
L 152.942032 54.427765 
" clip-path="url(#p2b7fc77d37)" style="fill: none; stroke: #2ca02c; stroke-width: 1.5"/>
   </g>
   <g id="line2d_8">
    <path d="M 159.695476 49.789301 
" clip-path="url(#p2b7fc77d37)" style="fill: none; stroke: #000000; stroke-width: 1.5; stroke-linecap: square"/>
    <g clip-path="url(#p2b7fc77d37)">
     <use xlink:href="#mf5f5f128fd" x="159.695476" y="49.789301" style="stroke: #000000; stroke-width: 2"/>
    </g>
   </g>
  </g>
  <g id="axes_4"/>
  <g id="axes_5">
   <g id="patch_6">
    <path d="M 69.394072 96.585882 
L 118.629366 96.585882 
L 118.629366 61.454118 
L 69.394072 61.454118 
z
" style="fill: #ffffff"/>
   </g>
   <g id="matplotlib.axis_7">
    <g id="xtick_7">
     <g id="line2d_9">
      <g>
       <use xlink:href="#m9be547e0aa" x="69.394072" y="101.585882" style="stroke: #000000; stroke-width: 0.5"/>
      </g>
     </g>
     <g id="text_4">
      <text style="font: 7px 'Arial'; text-anchor: middle" x="69.394072" y="112.096351" transform="rotate(-0, 69.394072, 112.096351)">-5</text>
     </g>
    </g>
    <g id="xtick_8">
     <g id="line2d_10">
      <g>
       <use xlink:href="#m9be547e0aa" x="118.629366" y="101.585882" style="stroke: #000000; stroke-width: 0.5"/>
      </g>
     </g>
     <g id="text_5">
      <text style="font: 7px 'Arial'; text-anchor: middle" x="118.629366" y="112.096351" transform="rotate(-0, 118.629366, 112.096351)">5</text>
     </g>
    </g>
    <g id="text_6">
     <!-- $\theta_{1}$ -->
     <g transform="translate(89.931719 123.327601)">
      <text>
       <tspan style="font: 8px 'Arial'" x="0" y="-0.171875">θ</tspan>
       <tspan style="font: 5.6px 'Arial'" x="4.588606" y="2.217625">1</tspan>
      </text>
     </g>
    </g>
   </g>
   <g id="matplotlib.axis_8">
    <g id="ytick_7"/>
    <g id="ytick_8"/>
   </g>
   <g id="line2d_11">
    <path d="M 69.394072 93.537258 
L 70.398874 93.537258 
L 71.403676 93.537258 
L 72.408477 93.537258 
L 73.413279 93.537258 
L 74.418081 93.537258 
L 75.422883 93.537258 
L 76.427685 93.536575 
L 77.432487 93.38658 
L 78.437289 93.365101 
L 79.442091 92.289203 
L 80.446893 89.462024 
L 81.451695 83.334705 
L 82.456497 69.495643 
L 83.461299 64.502742 
L 84.466101 73.574614 
L 85.470902 83.304748 
L 86.475704 89.187783 
L 87.480506 92.304223 
L 88.485308 93.397236 
L 89.49011 93.531315 
L 90.494912 93.537258 
L 91.499714 93.537258 
L 92.504516 93.537258 
L 93.509318 93.537258 
L 94.51412 93.537258 
L 95.518922 93.537258 
L 96.523724 93.537258 
L 97.528525 93.537258 
L 98.533327 93.537258 
L 99.538129 93.537258 
L 100.542931 93.537258 
L 101.547733 93.537258 
L 102.552535 93.537258 
L 103.557337 93.537258 
L 104.562139 93.537258 
L 105.566941 93.537258 
L 106.571743 93.537258 
L 107.576545 93.537258 
L 108.581347 93.537258 
L 109.586149 93.537258 
L 110.59095 93.537258 
L 111.595752 93.537258 
L 112.600554 93.537258 
L 113.605356 93.537258 
L 114.610158 93.537258 
L 115.61496 93.537258 
L 116.619762 93.537258 
L 117.624564 93.537258 
L 118.629366 93.537258 
" clip-path="url(#p06b8f21b03)" style="fill: none; stroke: #1f77b4; stroke-width: 1.5; stroke-linecap: square"/>
   </g>
   <g id="line2d_12">
    <path d="M 69.394072 93.537258 
L 70.398874 93.537258 
L 71.403676 93.537258 
L 72.408477 93.537258 
L 73.413279 93.537258 
L 74.418081 93.537258 
L 75.422883 93.537258 
L 76.427685 93.537258 
L 77.432487 93.536877 
L 78.437289 93.448104 
L 79.442091 92.503537 
L 80.446893 89.175805 
L 81.451695 79.988749 
L 82.456497 72.049194 
L 83.461299 70.365217 
L 84.466101 74.793247 
L 85.470902 80.375671 
L 86.475704 87.242582 
L 87.480506 91.773206 
L 88.485308 92.825857 
L 89.49011 93.485688 
L 90.494912 93.537146 
L 91.499714 93.537258 
L 92.504516 93.537258 
L 93.509318 93.537258 
L 94.51412 93.537258 
L 95.518922 93.537258 
L 96.523724 93.537258 
L 97.528525 93.537258 
L 98.533327 93.537258 
L 99.538129 93.537258 
L 100.542931 93.537258 
L 101.547733 93.537258 
L 102.552535 93.537258 
L 103.557337 93.537258 
L 104.562139 93.537258 
L 105.566941 93.537258 
L 106.571743 93.537258 
L 107.576545 93.537258 
L 108.581347 93.537258 
L 109.586149 93.537258 
L 110.59095 93.537258 
L 111.595752 93.537258 
L 112.600554 93.537258 
L 113.605356 93.537258 
L 114.610158 93.537258 
L 115.61496 93.537258 
L 116.619762 93.537258 
L 117.624564 93.537258 
L 118.629366 93.537258 
" clip-path="url(#p06b8f21b03)" style="fill: none; stroke: #ff7f0e; stroke-width: 1.5; stroke-linecap: square"/>
   </g>
   <g id="line2d_13">
    <path d="M 69.394072 93.537258 
L 70.398874 93.537258 
L 71.403676 93.537258 
L 72.408477 93.537258 
L 73.413279 93.537258 
L 74.418081 93.537258 
L 75.422883 93.537258 
L 76.427685 93.537257 
L 77.432487 93.531587 
L 78.437289 93.169531 
L 79.442091 92.534207 
L 80.446893 89.568054 
L 81.451695 82.871424 
L 82.456497 73.284106 
L 83.461299 68.986455 
L 84.466101 72.862608 
L 85.470902 78.407527 
L 86.475704 87.807346 
L 87.480506 91.806776 
L 88.485308 93.168737 
L 89.49011 93.517416 
L 90.494912 93.537241 
L 91.499714 93.537258 
L 92.504516 93.537258 
L 93.509318 93.537258 
L 94.51412 93.537258 
L 95.518922 93.537258 
L 96.523724 93.537258 
L 97.528525 93.537258 
L 98.533327 93.537258 
L 99.538129 93.537258 
L 100.542931 93.537258 
L 101.547733 93.537258 
L 102.552535 93.537258 
L 103.557337 93.537258 
L 104.562139 93.537258 
L 105.566941 93.537258 
L 106.571743 93.537258 
L 107.576545 93.537258 
L 108.581347 93.537258 
L 109.586149 93.537258 
L 110.59095 93.537258 
L 111.595752 93.537258 
L 112.600554 93.537258 
L 113.605356 93.537258 
L 114.610158 93.537258 
L 115.61496 93.537258 
L 116.619762 93.537258 
L 117.624564 93.537258 
L 118.629366 93.537258 
" clip-path="url(#p06b8f21b03)" style="fill: none; stroke: #2ca02c; stroke-width: 1.5; stroke-linecap: square"/>
   </g>
   <g id="line2d_14">
    <path d="M 84.530125 94.988984 
L 84.530125 63.051016 
" clip-path="url(#p06b8f21b03)" style="fill: none; stroke: #000000; stroke-linecap: square"/>
   </g>
   <g id="patch_7">
    <path d="M 69.394072 101.585882 
L 118.629366 101.585882 
" style="fill: none; stroke: #000000; stroke-width: 0.7; stroke-linejoin: miter; stroke-linecap: square"/>
   </g>
  </g>
  <g id="axes_6">
   <g id="patch_8">
    <path d="M 128.476425 96.585882 
L 177.711719 96.585882 
L 177.711719 61.454118 
L 128.476425 61.454118 
z
" style="fill: #ffffff"/>
   </g>
   <g id="matplotlib.axis_9">
    <g id="xtick_9"/>
    <g id="xtick_10"/>
   </g>
   <g id="matplotlib.axis_10">
    <g id="ytick_9"/>
    <g id="ytick_10"/>
   </g>
   <g id="PathCollection_7">
    <path d="M 164.649294 91.483369 
L 165.654096 91.518 
L 166.658898 91.036479 
L 166.873056 90.850084 
L 167.6637 90.622272 
L 168.565341 90.133109 
L 168.613955 89.416134 
L 168.619012 88.69916 
L 168.45042 87.982185 
L 167.6637 87.381416 
L 167.616686 87.26521 
L 166.658898 86.593291 
L 166.549057 86.548235 
L 165.654096 85.909129 
L 165.551192 85.831261 
L 164.649294 85.148259 
L 164.584749 85.114286 
L 163.644492 84.413433 
L 163.625235 84.397311 
L 162.63969 83.772331 
L 161.634888 83.750202 
L 160.630086 83.682493 
L 160.624668 83.680336 
L 159.625284 82.995504 
L 158.620482 82.969308 
L 157.61568 82.965896 
L 157.542657 82.963361 
L 156.610878 82.51647 
L 155.606076 82.464063 
L 154.601275 82.49446 
L 153.791442 82.963361 
L 153.596473 83.044903 
L 152.591671 83.060099 
L 152.410386 82.963361 
L 151.586869 82.384075 
L 150.582067 82.262576 
L 149.907035 82.246387 
L 149.577265 82.201504 
L 149.513401 82.246387 
L 149.577265 82.297273 
L 149.706592 82.963361 
L 150.582067 83.577578 
L 151.586472 83.680336 
L 151.586869 83.680616 
L 152.591671 84.335425 
L 152.657807 84.397311 
L 153.596473 85.035287 
L 153.925007 85.114286 
L 154.601275 85.804811 
L 154.605514 85.831261 
L 154.721268 86.548235 
L 155.606076 87.218861 
L 155.639384 87.26521 
L 156.610878 87.927439 
L 156.94952 87.982185 
L 157.61568 88.449005 
L 158.620482 88.614161 
L 158.783506 88.69916 
L 159.625284 89.292899 
L 160.630086 89.388111 
L 160.945513 89.416134 
L 161.634888 89.869527 
L 162.343328 90.133109 
L 162.63969 90.344068 
L 163.644492 90.796956 
L 163.730652 90.850084 
L 164.649294 91.483369 
z
" clip-path="url(#p111af8a1c5)" style="fill: none; stroke: #1f77b4; stroke-width: 1.5"/>
   </g>
   <g id="PathCollection_8">
    <path d="M 162.63969 90.577563 
L 163.644492 90.731776 
L 164.649294 90.497011 
L 165.414658 90.133109 
L 165.654096 90.126845 
L 165.804455 90.133109 
L 166.658898 90.588874 
L 167.6637 90.787952 
L 168.668501 90.788129 
L 169.673303 90.159412 
L 169.704129 90.133109 
L 169.934852 89.416134 
L 170.48271 88.69916 
L 170.505867 87.982185 
L 169.673303 87.347824 
L 169.613064 87.26521 
L 168.668501 86.575707 
L 168.633331 86.548235 
L 167.6637 85.896363 
L 166.900436 85.831261 
L 166.658898 85.655034 
L 166.430944 85.114286 
L 165.654096 84.56497 
L 165.242773 84.397311 
L 164.649294 83.984413 
L 163.644492 83.741011 
L 162.63969 83.691114 
L 162.54652 83.680336 
L 161.634888 83.073637 
L 161.498911 82.963361 
L 160.630086 82.353909 
L 160.229892 82.246387 
L 159.625284 81.829017 
L 158.620482 81.618331 
L 157.61568 81.704718 
L 156.610878 81.698323 
L 155.606076 81.747661 
L 154.67083 82.246387 
L 154.601275 82.332394 
L 153.596473 82.469747 
L 152.591671 82.313309 
L 151.586869 82.411329 
L 150.837689 82.963361 
L 151.586869 83.62241 
L 151.600848 83.680336 
L 152.058211 84.397311 
L 152.591671 84.779991 
L 152.913401 85.114286 
L 153.596473 85.655896 
L 153.710049 85.831261 
L 154.062318 86.548235 
L 154.601275 86.948958 
L 154.795074 87.26521 
L 155.606076 87.840284 
L 155.917149 87.982185 
L 156.610878 88.464064 
L 157.61568 88.656243 
L 157.964939 88.69916 
L 158.620482 89.141413 
L 159.625284 89.394555 
L 159.917115 89.416134 
L 160.630086 89.896393 
L 161.634888 90.108787 
L 161.977378 90.133109 
L 162.63969 90.577563 
z
" clip-path="url(#p111af8a1c5)" style="fill: none; stroke: #ff7f0e; stroke-width: 1.5"/>
   </g>
   <g id="PathCollection_9">
    <path d="M 166.658898 91.146537 
L 167.6637 91.168535 
L 168.173188 90.850084 
L 168.571361 90.133109 
L 168.668501 90.101629 
L 169.576475 89.416134 
L 169.305938 88.69916 
L 169.628409 87.982185 
L 168.668501 87.278673 
L 168.659644 87.26521 
L 167.6637 86.573359 
L 167.588169 86.548235 
L 166.658898 85.896138 
L 166.384043 85.831261 
L 165.654096 85.309031 
L 165.399632 85.114286 
L 164.649294 84.585736 
L 163.644492 84.40189 
L 163.618194 84.397311 
L 162.63969 83.691207 
L 162.629094 83.680336 
L 161.634888 83.019784 
L 160.880972 82.963361 
L 160.630086 82.795546 
L 159.625284 82.404017 
L 158.620482 82.337487 
L 157.61568 82.263875 
L 157.454426 82.246387 
L 156.610878 81.744208 
L 155.606076 81.863908 
L 155.042911 82.246387 
L 154.601275 82.360955 
L 153.596473 82.28918 
L 152.591671 82.272745 
L 151.586869 82.525525 
L 151.109482 82.963361 
L 151.000448 83.680336 
L 151.586869 84.106495 
L 151.764766 84.397311 
L 152.591671 84.990387 
L 152.747367 85.114286 
L 153.596473 85.76437 
L 153.64891 85.831261 
L 153.72811 86.548235 
L 154.601275 87.16472 
L 154.769687 87.26521 
L 155.606076 87.841635 
L 156.610878 87.964328 
L 156.685984 87.982185 
L 157.61568 88.622398 
L 158.18668 88.69916 
L 158.620482 89.004204 
L 159.625284 89.3742 
L 160.630086 89.40523 
L 160.966 89.416134 
L 161.634888 89.820763 
L 162.63969 90.021526 
L 163.644492 90.108356 
L 163.785494 90.133109 
L 164.649294 90.728579 
L 165.654096 90.832853 
L 166.173148 90.850084 
L 166.658898 91.146537 
z
" clip-path="url(#p111af8a1c5)" style="fill: none; stroke: #2ca02c; stroke-width: 1.5"/>
   </g>
   <g id="line2d_15">
    <path d="M 159.695476 85.785576 
" clip-path="url(#p111af8a1c5)" style="fill: none; stroke: #000000; stroke-width: 1.5; stroke-linecap: square"/>
    <g clip-path="url(#p111af8a1c5)">
     <use xlink:href="#mf5f5f128fd" x="159.695476" y="85.785576" style="stroke: #000000; stroke-width: 2"/>
    </g>
   </g>
  </g>
  <g id="axes_7"/>
  <g id="axes_8"/>
  <g id="axes_9">
   <g id="patch_9">
    <path d="M 128.476425 138.744 
L 177.711719 138.744 
L 177.711719 103.612235 
L 128.476425 103.612235 
z
" style="fill: #ffffff"/>
   </g>
   <g id="matplotlib.axis_11">
    <g id="xtick_11">
     <g id="line2d_16">
      <g>
       <use xlink:href="#m9be547e0aa" x="128.476425" y="143.744" style="stroke: #000000; stroke-width: 0.5"/>
      </g>
     </g>
     <g id="text_7">
      <text style="font: 7px 'Arial'; text-anchor: middle" x="128.476425" y="154.254469" transform="rotate(-0, 128.476425, 154.254469)">-5</text>
     </g>
    </g>
    <g id="xtick_12">
     <g id="line2d_17">
      <g>
       <use xlink:href="#m9be547e0aa" x="177.711719" y="143.744" style="stroke: #000000; stroke-width: 0.5"/>
      </g>
     </g>
     <g id="text_8">
      <text style="font: 7px 'Arial'; text-anchor: middle" x="177.711719" y="154.254469" transform="rotate(-0, 177.711719, 154.254469)">5</text>
     </g>
    </g>
    <g id="text_9">
     <!-- $\theta_{2}$ -->
     <g transform="translate(149.014072 165.485719)">
      <text>
       <tspan style="font: 8px 'Arial'" x="0" y="-0.171875">θ</tspan>
       <tspan style="font: 5.6px 'Arial'" x="4.588606" y="2.217625">2</tspan>
      </text>
     </g>
    </g>
   </g>
   <g id="matplotlib.axis_12">
    <g id="ytick_11"/>
    <g id="ytick_12"/>
   </g>
   <g id="line2d_18">
    <path d="M 128.476425 135.695376 
L 129.481227 135.695376 
L 130.486028 135.695376 
L 131.49083 135.695376 
L 132.495632 135.695376 
L 133.500434 135.695376 
L 134.505236 135.695376 
L 135.510038 135.695376 
L 136.51484 135.695376 
L 137.519642 135.695376 
L 138.524444 135.695376 
L 139.529246 135.695376 
L 140.534048 135.695376 
L 141.53885 135.695376 
L 142.543652 135.695376 
L 143.548453 135.695376 
L 144.553255 135.695376 
L 145.558057 135.695376 
L 146.562859 135.695376 
L 147.567661 135.695376 
L 148.572463 135.695368 
L 149.577265 135.690549 
L 150.582067 135.600583 
L 151.586869 135.638291 
L 152.591671 135.628912 
L 153.596473 135.559619 
L 154.601275 135.235828 
L 155.606076 134.105167 
L 156.610878 131.788347 
L 157.61568 128.140819 
L 158.620482 122.033916 
L 159.625284 112.588245 
L 160.630086 107.270385 
L 161.634888 106.66086 
L 162.63969 113.168672 
L 163.644492 120.629654 
L 164.649294 128.615333 
L 165.654096 133.070375 
L 166.658898 134.436845 
L 167.6637 135.460019 
L 168.668501 135.692071 
L 169.673303 135.695374 
L 170.678105 135.695376 
L 171.682907 135.695376 
L 172.687709 135.695376 
L 173.692511 135.695376 
L 174.697313 135.695376 
L 175.702115 135.695376 
L 176.706917 135.695376 
L 177.711719 135.695376 
" clip-path="url(#paa06fc3182)" style="fill: none; stroke: #1f77b4; stroke-width: 1.5; stroke-linecap: square"/>
   </g>
   <g id="line2d_19">
    <path d="M 128.476425 135.695376 
L 129.481227 135.695376 
L 130.486028 135.695376 
L 131.49083 135.695376 
L 132.495632 135.695376 
L 133.500434 135.695376 
L 134.505236 135.695376 
L 135.510038 135.695376 
L 136.51484 135.695376 
L 137.519642 135.695376 
L 138.524444 135.695376 
L 139.529246 135.695376 
L 140.534048 135.695376 
L 141.53885 135.695376 
L 142.543652 135.695376 
L 143.548453 135.695376 
L 144.553255 135.695376 
L 145.558057 135.695376 
L 146.562859 135.695376 
L 147.567661 135.695376 
L 148.572463 135.695376 
L 149.577265 135.695376 
L 150.582067 135.695239 
L 151.586869 135.684066 
L 152.591671 135.544064 
L 153.596473 135.185116 
L 154.601275 134.482484 
L 155.606076 133.01221 
L 156.610878 129.763046 
L 157.61568 125.665373 
L 158.620482 120.29774 
L 159.625284 114.743422 
L 160.630086 112.024445 
L 161.634888 112.249625 
L 162.63969 114.92406 
L 163.644492 119.848546 
L 164.649294 126.573469 
L 165.654096 131.802388 
L 166.658898 133.969076 
L 167.6637 134.553427 
L 168.668501 135.357535 
L 169.673303 135.65948 
L 170.678105 135.69454 
L 171.682907 135.695373 
L 172.687709 135.695376 
L 173.692511 135.695376 
L 174.697313 135.695376 
L 175.702115 135.695376 
L 176.706917 135.695376 
L 177.711719 135.695376 
" clip-path="url(#paa06fc3182)" style="fill: none; stroke: #ff7f0e; stroke-width: 1.5; stroke-linecap: square"/>
   </g>
   <g id="line2d_20">
    <path d="M 128.476425 135.695376 
L 129.481227 135.695376 
L 130.486028 135.695376 
L 131.49083 135.695376 
L 132.495632 135.695376 
L 133.500434 135.695376 
L 134.505236 135.695376 
L 135.510038 135.695376 
L 136.51484 135.695376 
L 137.519642 135.695376 
L 138.524444 135.695376 
L 139.529246 135.695376 
L 140.534048 135.695376 
L 141.53885 135.695376 
L 142.543652 135.695376 
L 143.548453 135.695376 
L 144.553255 135.695376 
L 145.558057 135.695376 
L 146.562859 135.695376 
L 147.567661 135.695376 
L 148.572463 135.695376 
L 149.577265 135.695376 
L 150.582067 135.695233 
L 151.586869 135.681366 
L 152.591671 135.46869 
L 153.596473 134.956392 
L 154.601275 134.487519 
L 155.606076 132.445242 
L 156.610878 128.054081 
L 157.61568 124.033495 
L 158.620482 119.612594 
L 159.625284 112.148237 
L 160.630086 111.948565 
L 161.634888 113.692213 
L 162.63969 116.58874 
L 163.644492 122.495784 
L 164.649294 128.272938 
L 165.654096 131.732093 
L 166.658898 133.510046 
L 167.6637 134.913113 
L 168.668501 135.605608 
L 169.673303 135.693317 
L 170.678105 135.695368 
L 171.682907 135.695376 
L 172.687709 135.695376 
L 173.692511 135.695376 
L 174.697313 135.695376 
L 175.702115 135.695376 
L 176.706917 135.695376 
L 177.711719 135.695376 
" clip-path="url(#paa06fc3182)" style="fill: none; stroke: #2ca02c; stroke-width: 1.5; stroke-linecap: square"/>
   </g>
   <g id="line2d_21">
    <path d="M 159.695476 137.147102 
L 159.695476 105.209134 
" clip-path="url(#paa06fc3182)" style="fill: none; stroke: #000000; stroke-linecap: square"/>
   </g>
   <g id="patch_10">
    <path d="M 128.476425 143.744 
L 177.711719 143.744 
" style="fill: none; stroke: #000000; stroke-width: 0.7; stroke-linejoin: miter; stroke-linecap: square"/>
   </g>
  </g>
  <g id="text_10">
   <!-- $p(\theta \mid x_1, x_2, x_3)$ -->
   <g transform="translate(63.681719 13.77)">
    <text>
     <tspan style="font: 9px 'Arial'" x="0 5.005371 8.002441 18.400638 27.00924 31.009142 39.617744 43.617646 52.226248" y="-0.453125">p(θx,x,x)</tspan>
     <tspan style="font: 9px 'STIXGeneral'" x="14.507227" y="-0.453125">∣</tspan>
     <tspan style="font: 6.3px 'Arial'" x="23.057449 35.665953 48.274457" y="2.2350624999999997">123</tspan>
    </text>
   </g>
  </g>
 </g>
 <defs>
  <clipPath id="p31953fd7e9">
   <rect x="10.311719" y="19.296" width="49.235294" height="35.131765"/>
  </clipPath>
  <clipPath id="p92f2bc99d0">
   <rect x="69.394072" y="19.296" width="49.235294" height="35.131765"/>
  </clipPath>
  <clipPath id="p2b7fc77d37">
   <rect x="128.476425" y="19.296" width="49.235294" height="35.131765"/>
  </clipPath>
  <clipPath id="p06b8f21b03">
   <rect x="69.394072" y="61.454118" width="49.235294" height="35.131765"/>
  </clipPath>
  <clipPath id="p111af8a1c5">
   <rect x="128.476425" y="61.454118" width="49.235294" height="35.131765"/>
  </clipPath>
  <clipPath id="paa06fc3182">
   <rect x="128.476425" y="103.612235" width="49.235294" height="35.131765"/>
  </clipPath>
 </defs>
</svg>
