<?xml version="1.0" encoding="utf-8" standalone="no"?>
<!DOCTYPE svg PUBLIC "-//W3C//DTD SVG 1.1//EN"
  "http://www.w3.org/Graphics/SVG/1.1/DTD/svg11.dtd">
<svg xmlns:xlink="http://www.w3.org/1999/xlink" width="186.858047pt" height="175.085719pt" viewBox="0 0 186.858047 175.085719" xmlns="http://www.w3.org/2000/svg" version="1.1">
 <metadata>
  <rdf:RDF xmlns:dc="http://purl.org/dc/elements/1.1/" xmlns:cc="http://creativecommons.org/ns#" xmlns:rdf="http://www.w3.org/1999/02/22-rdf-syntax-ns#">
   <cc:Work>
    <dc:type rdf:resource="http://purl.org/dc/dcmitype/StillImage"/>
    <dc:date>2022-05-18T17:56:05.011290</dc:date>
    <dc:format>image/svg+xml</dc:format>
    <dc:creator>
     <cc:Agent>
      <dc:title>Matplotlib v3.5.1, https://matplotlib.org/</dc:title>
     </cc:Agent>
    </dc:creator>
   </cc:Work>
  </rdf:RDF>
 </metadata>
 <defs>
  <style type="text/css">*{stroke-linejoin: round; stroke-linecap: butt}</style>
 </defs>
 <g id="figure_1">
  <g id="patch_1">
   <path d="M 0 175.085719 
L 186.858047 175.085719 
L 186.858047 0 
L 0 0 
L 0 175.085719 
z
" style="fill: none"/>
  </g>
  <g id="axes_1">
   <g id="patch_2">
    <path d="M 10.311719 54.427765 
L 59.547013 54.427765 
L 59.547013 19.296 
L 10.311719 19.296 
z
" style="fill: #ffffff"/>
   </g>
   <g id="matplotlib.axis_1">
    <g id="xtick_1">
     <g id="line2d_1">
      <defs>
       <path id="mcab6d3e95b" d="M 0 0 
L 0 2 
" style="stroke: #000000; stroke-width: 0.5"/>
      </defs>
      <g>
       <use xlink:href="#mcab6d3e95b" x="10.311719" y="59.427765" style="stroke: #000000; stroke-width: 0.5"/>
      </g>
     </g>
     <g id="text_1">
      <text style="font: 7px 'Arial'; text-anchor: middle" x="10.311719" y="69.938233" transform="rotate(-0, 10.311719, 69.938233)">-5</text>
     </g>
    </g>
    <g id="xtick_2">
     <g id="line2d_2">
      <g>
       <use xlink:href="#mcab6d3e95b" x="59.547013" y="59.427765" style="stroke: #000000; stroke-width: 0.5"/>
      </g>
     </g>
     <g id="text_2">
      <text style="font: 7px 'Arial'; text-anchor: middle" x="59.547013" y="69.938233" transform="rotate(-0, 59.547013, 69.938233)">5</text>
     </g>
    </g>
    <g id="text_3">
     <!-- $\theta_{0}$ -->
     <g transform="translate(30.849366 81.169483)">
      <text>
       <tspan style="font: 8px 'Arial'" x="0" y="-0.171875">θ</tspan>
       <tspan style="font: 5.6px 'Arial'" x="4.588606" y="2.217625">0</tspan>
      </text>
     </g>
    </g>
   </g>
   <g id="matplotlib.axis_2">
    <g id="ytick_1"/>
    <g id="ytick_2"/>
   </g>
   <g id="line2d_3">
    <path d="M 10.311719 51.37914 
L 11.316521 51.37914 
L 12.321323 51.378997 
L 13.326125 51.284227 
L 14.330926 51.060385 
L 15.335728 49.475811 
L 16.34053 44.065499 
L 17.345332 34.125362 
L 18.350134 23.840484 
L 19.354936 22.344624 
L 20.359738 31.951751 
L 21.36454 44.819888 
L 22.369342 49.700758 
L 23.374144 50.852614 
L 24.378946 51.174817 
L 25.383748 51.376544 
L 26.388549 51.37914 
L 27.393351 51.37914 
L 28.398153 51.37914 
L 29.402955 51.37914 
L 30.407757 51.37914 
L 31.412559 51.37914 
L 32.417361 51.37914 
L 33.422163 51.37914 
L 34.426965 51.37914 
L 35.431767 51.37914 
L 36.436569 51.37914 
L 37.441371 51.37914 
L 38.446173 51.37914 
L 39.450974 51.37914 
L 40.455776 51.37914 
L 41.460578 51.37914 
L 42.46538 51.37914 
L 43.470182 51.37914 
L 44.474984 51.37914 
L 45.479786 51.37914 
L 46.484588 51.37914 
L 47.48939 51.37914 
L 48.494192 51.37914 
L 49.498994 51.37914 
L 50.503796 51.37914 
L 51.508598 51.37914 
L 52.513399 51.37914 
L 53.518201 51.37914 
L 54.523003 51.37914 
L 55.527805 51.37914 
L 56.532607 51.37914 
L 57.537409 51.37914 
L 58.542211 51.37914 
L 59.547013 51.37914 
" clip-path="url(#p2e6bbe9418)" style="fill: none; stroke: #1f77b4; stroke-width: 1.5; stroke-linecap: square"/>
   </g>
   <g id="line2d_4">
    <path d="M 10.311719 51.37914 
L 11.316521 51.37914 
L 12.321323 51.379139 
L 13.326125 51.373328 
L 14.330926 51.05301 
L 15.335728 49.23644 
L 16.34053 42.93619 
L 17.345332 32.514797 
L 18.350134 23.124869 
L 19.354936 26.128849 
L 20.359738 34.587161 
L 21.36454 44.663773 
L 22.369342 47.528666 
L 23.374144 50.766483 
L 24.378946 51.377249 
L 25.383748 51.37914 
L 26.388549 51.37914 
L 27.393351 51.37914 
L 28.398153 51.37914 
L 29.402955 51.37914 
L 30.407757 51.37914 
L 31.412559 51.37914 
L 32.417361 51.37914 
L 33.422163 51.37914 
L 34.426965 51.37914 
L 35.431767 51.37914 
L 36.436569 51.37914 
L 37.441371 51.37914 
L 38.446173 51.37914 
L 39.450974 51.37914 
L 40.455776 51.37914 
L 41.460578 51.37914 
L 42.46538 51.37914 
L 43.470182 51.37914 
L 44.474984 51.37914 
L 45.479786 51.37914 
L 46.484588 51.37914 
L 47.48939 51.37914 
L 48.494192 51.37914 
L 49.498994 51.37914 
L 50.503796 51.37914 
L 51.508598 51.37914 
L 52.513399 51.37914 
L 53.518201 51.37914 
L 54.523003 51.37914 
L 55.527805 51.37914 
L 56.532607 51.37914 
L 57.537409 51.37914 
L 58.542211 51.37914 
L 59.547013 51.37914 
" clip-path="url(#p2e6bbe9418)" style="fill: none; stroke: #ff7f0e; stroke-width: 1.5; stroke-linecap: square"/>
   </g>
   <g id="line2d_5">
    <path d="M 10.311719 51.37914 
L 11.316521 51.37914 
L 12.321323 51.37914 
L 13.326125 51.378059 
L 14.330926 51.087302 
L 15.335728 47.673747 
L 16.34053 42.125418 
L 17.345332 31.840534 
L 18.350134 24.090517 
L 19.354936 23.775371 
L 20.359738 36.839501 
L 21.36454 44.413421 
L 22.369342 49.880373 
L 23.374144 51.090917 
L 24.378946 51.3636 
L 25.383748 51.379136 
L 26.388549 51.37914 
L 27.393351 51.37914 
L 28.398153 51.37914 
L 29.402955 51.37914 
L 30.407757 51.37914 
L 31.412559 51.37914 
L 32.417361 51.37914 
L 33.422163 51.37914 
L 34.426965 51.37914 
L 35.431767 51.37914 
L 36.436569 51.37914 
L 37.441371 51.37914 
L 38.446173 51.37914 
L 39.450974 51.37914 
L 40.455776 51.37914 
L 41.460578 51.37914 
L 42.46538 51.37914 
L 43.470182 51.37914 
L 44.474984 51.37914 
L 45.479786 51.37914 
L 46.484588 51.37914 
L 47.48939 51.37914 
L 48.494192 51.37914 
L 49.498994 51.37914 
L 50.503796 51.37914 
L 51.508598 51.37914 
L 52.513399 51.37914 
L 53.518201 51.37914 
L 54.523003 51.37914 
L 55.527805 51.37914 
L 56.532607 51.37914 
L 57.537409 51.37914 
L 58.542211 51.37914 
L 59.547013 51.37914 
" clip-path="url(#p2e6bbe9418)" style="fill: none; stroke: #2ca02c; stroke-width: 1.5; stroke-linecap: square"/>
   </g>
   <g id="line2d_6">
    <path d="M 16.812279 52.830866 
L 16.812279 20.892898 
" clip-path="url(#p2e6bbe9418)" style="fill: none; stroke: #000000; stroke-linecap: square"/>
   </g>
   <g id="patch_3">
    <path d="M 10.311719 59.427765 
L 59.547013 59.427765 
" style="fill: none; stroke: #000000; stroke-width: 0.7; stroke-linejoin: miter; stroke-linecap: square"/>
   </g>
  </g>
  <g id="axes_2">
   <g id="patch_4">
    <path d="M 69.394072 54.427765 
L 118.629366 54.427765 
L 118.629366 19.296 
L 69.394072 19.296 
z
" style="fill: #ffffff"/>
   </g>
   <g id="matplotlib.axis_3">
    <g id="xtick_3"/>
    <g id="xtick_4"/>
   </g>
   <g id="matplotlib.axis_4">
    <g id="ytick_3"/>
    <g id="ytick_4"/>
   </g>
   <g id="PathCollection_1">
    <path d="M 69.394072 51.529282 
L 70.398874 51.541375 
L 71.403676 51.550379 
L 72.408477 51.557574 
L 72.743303 51.559866 
L 73.413279 51.695725 
L 74.418081 51.844979 
L 75.422883 51.943864 
L 76.427685 52.011155 
L 77.432487 52.058703 
L 78.437289 52.09443 
L 79.442091 52.124028 
L 80.446893 52.151701 
L 81.451695 52.180148 
L 82.456497 52.210115 
L 83.461299 52.240305 
L 84.466101 52.268287 
L 84.796369 52.27684 
L 85.470902 52.392596 
L 86.475704 52.512246 
L 87.480506 52.587875 
L 88.485308 52.635235 
L 89.49011 52.664563 
L 90.494912 52.683932 
L 91.499714 52.701324 
L 92.504516 52.724593 
L 93.509318 52.758177 
L 94.51412 52.799416 
L 95.518922 52.840656 
L 96.523724 52.875538 
L 97.528525 52.901896 
L 98.533327 52.92044 
L 99.538129 52.932782 
L 100.542931 52.940406 
L 101.547733 52.94437 
L 102.552535 52.945307 
L 103.557337 52.943497 
L 104.562139 52.938919 
L 105.566941 52.93126 
L 106.571743 52.919866 
L 107.576545 52.903618 
L 108.581347 52.880674 
L 109.586149 52.847998 
L 110.59095 52.800515 
L 111.595752 52.72957 
L 112.600554 52.620037 
L 113.605356 52.444733 
L 114.28329 52.27684 
L 114.610158 52.252166 
L 115.61496 52.180713 
L 116.619762 52.103264 
L 117.624564 52.015545 
L 118.629366 51.908332 
" clip-path="url(#p88f7683d37)" style="fill: none; stroke: #1f77b4; stroke-width: 1.5"/>
    <path d="M 118.629366 44.617877 
L 117.624564 44.495212 
L 116.619762 44.425699 
L 115.774588 44.390118 
L 115.61496 44.358917 
L 114.610158 44.199628 
L 113.605356 44.100306 
L 112.600554 44.039187 
L 111.595752 44.004077 
L 110.59095 43.988239 
L 109.586149 43.988186 
L 108.581347 44.002382 
L 107.576545 44.030255 
L 106.571743 44.071126 
L 105.566941 44.122881 
L 104.562139 44.180767 
L 103.557337 44.237357 
L 102.552535 44.284284 
L 101.547733 44.314224 
L 100.542931 44.320845 
L 99.538129 44.297708 
L 98.533327 44.240611 
L 97.528525 44.154334 
L 96.523724 44.055161 
L 95.518922 43.962201 
L 94.51412 43.886871 
L 93.509318 43.831222 
L 92.504516 43.792228 
L 91.499714 43.765712 
L 90.494912 43.748099 
L 89.49011 43.736796 
L 88.485308 43.730044 
L 87.480506 43.726649 
L 86.475704 43.725684 
L 85.470902 43.726171 
L 84.466101 43.726711 
L 83.461299 43.725299 
L 82.456497 43.719852 
L 81.451695 43.709729 
L 80.446893 43.696766 
L 79.442091 43.68404 
L 78.437289 43.673807 
L 78.347594 43.673143 
L 77.432487 43.603163 
L 76.427685 43.564499 
L 75.422883 43.559853 
L 74.418081 43.58919 
L 73.413279 43.657989 
L 73.268994 43.673143 
L 72.408477 43.682741 
L 71.403676 43.700439 
L 70.398874 43.728513 
L 69.394072 43.773517 
" clip-path="url(#p88f7683d37)" style="fill: none; stroke: #1f77b4; stroke-width: 1.5"/>
   </g>
   <g id="PathCollection_2">
    <path d="M 69.394072 51.562447 
L 70.398874 51.781563 
L 71.403676 51.919167 
L 72.408477 52.007894 
L 73.413279 52.066405 
L 74.418081 52.105652 
L 75.422883 52.132227 
L 76.427685 52.150195 
L 77.432487 52.162135 
L 78.437289 52.169738 
L 79.442091 52.174177 
L 80.446893 52.176349 
L 81.451695 52.177035 
L 82.456497 52.177018 
L 83.461299 52.177142 
L 84.466101 52.178281 
L 85.470902 52.181185 
L 86.475704 52.186233 
L 87.480506 52.193246 
L 88.485308 52.201522 
L 89.49011 52.210121 
L 90.494912 52.218196 
L 91.499714 52.225183 
L 92.504516 52.230805 
L 93.509318 52.234983 
L 94.51412 52.237735 
L 95.518922 52.239091 
L 96.523724 52.23905 
L 97.528525 52.237559 
L 98.533327 52.234528 
L 99.538129 52.22989 
L 100.542931 52.223782 
L 101.547733 52.216929 
L 102.552535 52.211232 
L 103.557337 52.210016 
L 104.562139 52.2166 
L 105.566941 52.231147 
L 106.571743 52.249715 
L 107.576545 52.267553 
L 108.185201 52.27684 
L 108.581347 52.331765 
L 109.586149 52.437509 
L 110.59095 52.505401 
L 111.595752 52.545328 
L 112.600554 52.562869 
L 113.605356 52.560385 
L 114.610158 52.537477 
L 115.61496 52.490851 
L 116.619762 52.413512 
L 117.624564 52.29298 
L 117.732767 52.27684 
L 118.629366 52.25814 
" clip-path="url(#p88f7683d37)" style="fill: none; stroke: #ff7f0e; stroke-width: 1.5"/>
    <path d="M 118.629366 44.462812 
L 117.624564 44.441148 
L 116.619762 44.426335 
L 115.61496 44.415902 
L 114.610158 44.408356 
L 113.605356 44.402772 
L 112.600554 44.398579 
L 111.595752 44.395419 
L 110.59095 44.393071 
L 109.586149 44.391399 
L 108.581347 44.390321 
L 108.207551 44.390118 
L 107.576545 44.376286 
L 106.571743 44.375371 
L 105.857055 44.390118 
L 105.566941 44.39026 
L 104.562139 44.391273 
L 103.557337 44.392839 
L 102.552535 44.395017 
L 101.547733 44.397882 
L 100.542931 44.401516 
L 99.538129 44.405971 
L 98.533327 44.411203 
L 97.528525 44.416985 
L 96.523724 44.422837 
L 95.518922 44.428075 
L 94.51412 44.432043 
L 93.509318 44.43443 
L 92.504516 44.43541 
L 91.499714 44.435505 
L 90.494912 44.43532 
L 89.49011 44.435361 
L 88.485308 44.435959 
L 87.480506 44.437279 
L 86.475704 44.439334 
L 85.470902 44.441976 
L 84.466101 44.444884 
L 83.461299 44.447566 
L 82.456497 44.449455 
L 81.451695 44.450097 
L 80.446893 44.449367 
L 79.442091 44.447547 
L 78.437289 44.445207 
L 77.432487 44.442982 
L 76.427685 44.441414 
L 75.422883 44.440911 
L 74.418081 44.441797 
L 73.413279 44.444387 
L 72.408477 44.449083 
L 71.403676 44.456477 
L 70.398874 44.467478 
L 69.394072 44.483524 
" clip-path="url(#p88f7683d37)" style="fill: none; stroke: #ff7f0e; stroke-width: 1.5"/>
   </g>
   <g id="PathCollection_3">
    <path d="M 69.394072 52.164108 
L 70.398874 52.181212 
L 71.403676 52.193421 
L 72.408477 52.20204 
L 73.413279 52.207901 
L 74.418081 52.21153 
L 75.422883 52.213241 
L 76.427685 52.213208 
L 77.432487 52.211506 
L 78.437289 52.208157 
L 79.442091 52.203167 
L 80.446893 52.196575 
L 81.451695 52.188497 
L 82.456497 52.179135 
L 83.461299 52.168761 
L 84.466101 52.157638 
L 85.470902 52.145961 
L 86.475704 52.133866 
L 87.480506 52.121559 
L 88.485308 52.109598 
L 89.49011 52.09922 
L 90.494912 52.092547 
L 91.499714 52.092274 
L 92.504516 52.100522 
L 93.509318 52.117303 
L 94.51412 52.139999 
L 95.518922 52.16465 
L 96.523724 52.187857 
L 97.528525 52.207753 
L 98.533327 52.223845 
L 99.538129 52.236423 
L 100.542931 52.246067 
L 101.547733 52.253375 
L 102.552535 52.258847 
L 103.557337 52.26286 
L 104.562139 52.265673 
L 105.566941 52.267443 
L 106.571743 52.268232 
L 107.576545 52.268019 
L 108.581347 52.266691 
L 109.586149 52.264036 
L 110.59095 52.259728 
L 111.595752 52.253314 
L 112.600554 52.24421 
L 113.605356 52.231719 
L 114.610158 52.215085 
L 115.61496 52.193533 
L 116.619762 52.166238 
L 117.624564 52.132092 
L 118.629366 52.089204 
" clip-path="url(#p88f7683d37)" style="fill: none; stroke: #2ca02c; stroke-width: 1.5"/>
    <path d="M 118.629366 45.051781 
L 117.624564 44.877166 
L 116.619762 44.761989 
L 115.61496 44.683418 
L 114.610158 44.627655 
L 113.605356 44.586005 
L 112.600554 44.552783 
L 111.595752 44.524268 
L 110.59095 44.498244 
L 109.586149 44.473739 
L 108.581347 44.450687 
L 107.576545 44.429437 
L 106.571743 44.410302 
L 105.566941 44.393353 
L 105.375612 44.390118 
L 104.562139 44.231276 
L 103.557337 44.095405 
L 102.552535 44.006261 
L 101.547733 43.947417 
L 100.542931 43.909009 
L 99.538129 43.885133 
L 98.533327 43.872372 
L 97.528525 43.869002 
L 96.523724 43.874606 
L 95.518922 43.889985 
L 94.51412 43.917358 
L 93.509318 43.960899 
L 92.504516 44.027805 
L 91.499714 44.130285 
L 90.494912 44.289232 
L 90.008106 44.390118 
L 89.49011 44.414109 
L 88.485308 44.469531 
L 87.480506 44.538403 
L 86.475704 44.617384 
L 85.470902 44.70266 
L 84.466101 44.792997 
L 83.461299 44.891333 
L 82.456497 45.00416 
L 81.660515 45.107092 
L 81.451695 45.107936 
L 80.446893 45.111604 
L 79.442091 45.115051 
L 78.437289 45.118165 
L 77.432487 45.120823 
L 76.427685 45.122973 
L 75.422883 45.124676 
L 74.418081 45.126102 
L 73.413279 45.127488 
L 72.408477 45.129103 
L 71.403676 45.131232 
L 70.398874 45.134198 
L 69.394072 45.1384 
" clip-path="url(#p88f7683d37)" style="fill: none; stroke: #2ca02c; stroke-width: 1.5"/>
   </g>
   <g id="line2d_7">
    <path d="M 84.530125 49.789301 
" clip-path="url(#p88f7683d37)" style="fill: none; stroke: #000000; stroke-width: 1.5; stroke-linecap: square"/>
    <defs>
     <path id="m02c855da40" d="M -2.5 2.5 
L 2.5 -2.5 
M -2.5 -2.5 
L 2.5 2.5 
" style="stroke: #000000; stroke-width: 2"/>
    </defs>
    <g clip-path="url(#p88f7683d37)">
     <use xlink:href="#m02c855da40" x="84.530125" y="49.789301" style="stroke: #000000; stroke-width: 2"/>
    </g>
   </g>
  </g>
  <g id="axes_3">
   <g id="patch_5">
    <path d="M 128.476425 54.427765 
L 177.711719 54.427765 
L 177.711719 19.296 
L 128.476425 19.296 
z
" style="fill: #ffffff"/>
   </g>
   <g id="matplotlib.axis_5">
    <g id="xtick_5"/>
    <g id="xtick_6"/>
   </g>
   <g id="matplotlib.axis_6">
    <g id="ytick_5"/>
    <g id="ytick_6"/>
   </g>
   <g id="PathCollection_4">
    <path d="M 128.476425 52.170331 
L 129.481227 52.236553 
L 130.117334 52.27684 
L 130.486028 52.366908 
L 131.49083 52.562792 
L 132.495632 52.685378 
L 133.500434 52.765149 
L 134.505236 52.819062 
L 135.510038 52.856802 
L 136.51484 52.884008 
L 137.519642 52.904001 
L 138.524444 52.918751 
L 139.529246 52.929444 
L 140.534048 52.936797 
L 141.53885 52.941234 
L 142.543652 52.942951 
L 143.548453 52.941932 
L 144.553255 52.93793 
L 145.558057 52.930449 
L 146.562859 52.918751 
L 147.567661 52.901974 
L 148.572463 52.87944 
L 149.577265 52.851168 
L 150.582067 52.818237 
L 151.586869 52.78228 
L 152.591671 52.743907 
L 153.596473 52.701097 
L 154.601275 52.648546 
L 155.606076 52.577446 
L 156.610878 52.474269 
L 157.61568 52.317402 
L 157.827908 52.27684 
L 158.620482 52.250382 
L 159.625284 52.210819 
L 160.630086 52.168051 
L 161.634888 52.129905 
L 162.63969 52.103023 
L 163.644492 52.087759 
L 164.649294 52.079111 
L 165.654096 52.070893 
L 166.658898 52.05794 
L 167.6637 52.035859 
L 168.668501 51.999785 
L 169.673303 51.942806 
L 170.678105 51.853853 
L 171.682907 51.714346 
L 172.447934 51.559866 
L 172.687709 51.557595 
L 173.692511 51.547717 
L 174.697313 51.535714 
L 175.702115 51.520487 
L 176.706917 51.499996 
L 177.711719 51.470604 
" clip-path="url(#pefaf18633b)" style="fill: none; stroke: #1f77b4; stroke-width: 1.5"/>
    <path d="M 177.711719 44.471555 
L 176.706917 44.413937 
L 176.281243 44.390118 
L 175.702115 44.211482 
L 174.697313 43.988631 
L 173.692511 43.859413 
L 172.687709 43.782124 
L 171.682907 43.73459 
L 170.678105 43.704722 
L 169.673303 43.685779 
L 168.668501 43.673944 
L 168.562439 43.673143 
L 167.6637 43.606113 
L 166.658898 43.571289 
L 165.654096 43.570842 
L 164.649294 43.603575 
L 163.644492 43.672745 
L 163.640396 43.673143 
L 162.63969 43.681525 
L 161.634888 43.691353 
L 160.630086 43.700939 
L 159.625284 43.708732 
L 158.620482 43.714181 
L 157.61568 43.717907 
L 156.610878 43.721138 
L 155.606076 43.725186 
L 154.601275 43.731295 
L 153.596473 43.740794 
L 152.591671 43.755384 
L 151.586869 43.777531 
L 150.582067 43.81093 
L 149.577265 43.860931 
L 148.572463 43.93423 
L 147.567661 44.03569 
L 146.562859 44.158556 
L 145.558057 44.270995 
L 144.553255 44.325443 
L 143.548453 44.304103 
L 142.543652 44.235147 
L 141.53885 44.155581 
L 140.534048 44.0858 
L 139.529246 44.031888 
L 138.524444 43.993713 
L 137.519642 43.969614 
L 136.51484 43.958258 
L 135.510038 43.959301 
L 134.505236 43.973754 
L 133.500434 44.004457 
L 132.495632 44.056971 
L 131.49083 44.141248 
L 130.486028 44.274825 
L 129.870582 44.390118 
L 129.481227 44.400947 
L 128.476425 44.438455 
" clip-path="url(#pefaf18633b)" style="fill: none; stroke: #1f77b4; stroke-width: 1.5"/>
   </g>
   <g id="PathCollection_5">
    <path d="M 128.476425 52.380679 
L 129.481227 52.46896 
L 130.486028 52.523981 
L 131.49083 52.554 
L 132.495632 52.563303 
L 133.500434 52.553262 
L 134.505236 52.522697 
L 135.510038 52.467746 
L 136.51484 52.381278 
L 137.354345 52.27684 
L 137.519642 52.274824 
L 138.524444 52.261863 
L 139.529246 52.249191 
L 140.534048 52.239176 
L 141.53885 52.233271 
L 142.543652 52.231234 
L 143.548453 52.231693 
L 144.553255 52.23316 
L 145.558057 52.234572 
L 146.562859 52.235317 
L 147.567661 52.235088 
L 148.572463 52.233741 
L 149.577265 52.231223 
L 150.582067 52.22755 
L 151.586869 52.222836 
L 152.591671 52.217335 
L 153.596473 52.211486 
L 154.601275 52.205895 
L 155.606076 52.201214 
L 156.610878 52.197943 
L 157.61568 52.19624 
L 158.620482 52.195875 
L 159.625284 52.196323 
L 160.630086 52.196939 
L 161.634888 52.197085 
L 162.63969 52.19618 
L 163.644492 52.193672 
L 164.649294 52.18897 
L 165.654096 52.181334 
L 166.658898 52.169738 
L 167.6637 52.152656 
L 168.668501 52.127739 
L 169.673303 52.091277 
L 170.678105 52.037281 
L 171.682907 51.955874 
L 172.687709 51.830397 
L 173.692511 51.63213 
L 173.996154 51.559866 
L 174.697313 51.542619 
L 175.702115 51.51581 
L 176.706917 51.484813 
L 177.711719 51.448248 
" clip-path="url(#pefaf18633b)" style="fill: none; stroke: #ff7f0e; stroke-width: 1.5"/>
    <path d="M 177.711719 44.512701 
L 176.706917 44.487675 
L 175.702115 44.470546 
L 174.697313 44.458842 
L 173.692511 44.451022 
L 172.687709 44.446123 
L 171.682907 44.443548 
L 170.678105 44.44293 
L 169.673303 44.444026 
L 168.668501 44.44663 
L 167.6637 44.450456 
L 166.658898 44.45502 
L 165.654096 44.459563 
L 164.649294 44.46311 
L 163.644492 44.464773 
L 162.63969 44.464136 
L 161.634888 44.461459 
L 160.630086 44.457488 
L 159.625284 44.453087 
L 158.620482 44.448951 
L 157.61568 44.445519 
L 156.610878 44.443001 
L 155.606076 44.44143 
L 154.601275 44.440697 
L 153.596473 44.440547 
L 152.591671 44.440551 
L 151.586869 44.440116 
L 150.582067 44.438582 
L 149.577265 44.435456 
L 148.572463 44.430674 
L 147.567661 44.424676 
L 146.562859 44.41819 
L 145.558057 44.411908 
L 144.553255 44.406289 
L 143.548453 44.401534 
L 142.543652 44.39767 
L 141.53885 44.394633 
L 140.534048 44.392332 
L 139.529246 44.390678 
L 139.017279 44.390118 
L 138.524444 44.367147 
L 137.519642 44.343695 
L 136.51484 44.342774 
L 135.510038 44.3641 
L 134.919945 44.390118 
L 134.505236 44.390565 
L 133.500434 44.392244 
L 132.495632 44.394683 
L 131.49083 44.398088 
L 130.486028 44.402785 
L 129.481227 44.409291 
L 128.476425 44.418429 
" clip-path="url(#pefaf18633b)" style="fill: none; stroke: #ff7f0e; stroke-width: 1.5"/>
   </g>
   <g id="PathCollection_6">
    <path d="M 128.476425 52.202596 
L 129.481227 52.223056 
L 130.486028 52.237943 
L 131.49083 52.24871 
L 132.495632 52.256382 
L 133.500434 52.261695 
L 134.505236 52.265177 
L 135.510038 52.267206 
L 136.51484 52.268042 
L 137.519642 52.26785 
L 138.524444 52.266723 
L 139.529246 52.264679 
L 140.534048 52.26167 
L 141.53885 52.25757 
L 142.543652 52.252165 
L 143.548453 52.245135 
L 144.553255 52.23604 
L 145.558057 52.224318 
L 146.562859 52.209344 
L 147.567661 52.190591 
L 148.572463 52.16802 
L 149.577265 52.142721 
L 150.582067 52.117558 
L 151.586869 52.097052 
L 152.591671 52.085689 
L 153.596473 52.08542 
L 154.601275 52.094681 
L 155.606076 52.109833 
L 156.610878 52.127257 
L 157.61568 52.144436 
L 158.620482 52.160011 
L 159.625284 52.173405 
L 160.630086 52.184481 
L 161.634888 52.193306 
L 162.63969 52.200033 
L 163.644492 52.204842 
L 164.649294 52.207901 
L 165.654096 52.209364 
L 166.658898 52.209357 
L 167.6637 52.207978 
L 168.668501 52.205296 
L 169.673303 52.20133 
L 170.678105 52.19602 
L 171.682907 52.18918 
L 172.687709 52.180428 
L 173.692511 52.1691 
L 174.697313 52.154137 
L 175.702115 52.133904 
L 176.706917 52.105898 
L 177.711719 52.066221 
" clip-path="url(#pefaf18633b)" style="fill: none; stroke: #2ca02c; stroke-width: 1.5"/>
    <path d="M 177.711719 45.158098 
L 176.706917 45.149135 
L 175.702115 45.142939 
L 174.697313 45.138631 
L 173.692511 45.13561 
L 172.687709 45.133438 
L 171.682907 45.131764 
L 170.678105 45.130291 
L 169.673303 45.128769 
L 168.668501 45.127001 
L 167.6637 45.124863 
L 166.658898 45.122295 
L 165.654096 45.119281 
L 164.649294 45.115804 
L 163.644492 45.1118 
L 162.63969 45.107103 
L 162.637932 45.107092 
L 161.634888 44.927975 
L 160.630086 44.780095 
L 159.625284 44.658986 
L 158.620482 44.560818 
L 157.61568 44.482791 
L 156.610878 44.422519 
L 155.943867 44.390118 
L 155.606076 44.31871 
L 154.601275 44.148481 
L 153.596473 44.039231 
L 152.591671 43.96811 
L 151.586869 43.92183 
L 150.582067 43.892578 
L 149.577265 43.875811 
L 148.572463 43.869068 
L 147.567661 43.871363 
L 146.562859 43.882939 
L 145.558057 43.9053 
L 144.553255 43.941509 
L 143.548453 43.996843 
L 142.543652 44.079944 
L 141.53885 44.204761 
L 140.548224 44.390118 
L 140.534048 44.390318 
L 139.529246 44.402962 
L 138.524444 44.415246 
L 137.519642 44.427515 
L 136.51484 44.440346 
L 135.510038 44.45455 
L 134.505236 44.471216 
L 133.500434 44.491822 
L 132.495632 44.518463 
L 131.49083 44.554239 
L 130.486028 44.603928 
L 129.481227 44.675155 
L 128.476425 44.780455 
" clip-path="url(#pefaf18633b)" style="fill: none; stroke: #2ca02c; stroke-width: 1.5"/>
   </g>
   <g id="line2d_8">
    <path d="M 159.695476 49.789301 
" clip-path="url(#pefaf18633b)" style="fill: none; stroke: #000000; stroke-width: 1.5; stroke-linecap: square"/>
    <g clip-path="url(#pefaf18633b)">
     <use xlink:href="#m02c855da40" x="159.695476" y="49.789301" style="stroke: #000000; stroke-width: 2"/>
    </g>
   </g>
  </g>
  <g id="axes_4"/>
  <g id="axes_5">
   <g id="patch_6">
    <path d="M 69.394072 96.585882 
L 118.629366 96.585882 
L 118.629366 61.454118 
L 69.394072 61.454118 
z
" style="fill: #ffffff"/>
   </g>
   <g id="matplotlib.axis_7">
    <g id="xtick_7">
     <g id="line2d_9">
      <g>
       <use xlink:href="#mcab6d3e95b" x="69.394072" y="101.585882" style="stroke: #000000; stroke-width: 0.5"/>
      </g>
     </g>
     <g id="text_4">
      <text style="font: 7px 'Arial'; text-anchor: middle" x="69.394072" y="112.096351" transform="rotate(-0, 69.394072, 112.096351)">-5</text>
     </g>
    </g>
    <g id="xtick_8">
     <g id="line2d_10">
      <g>
       <use xlink:href="#mcab6d3e95b" x="118.629366" y="101.585882" style="stroke: #000000; stroke-width: 0.5"/>
      </g>
     </g>
     <g id="text_5">
      <text style="font: 7px 'Arial'; text-anchor: middle" x="118.629366" y="112.096351" transform="rotate(-0, 118.629366, 112.096351)">5</text>
     </g>
    </g>
    <g id="text_6">
     <!-- $\theta_{1}$ -->
     <g transform="translate(89.931719 123.327601)">
      <text>
       <tspan style="font: 8px 'Arial'" x="0" y="-0.171875">θ</tspan>
       <tspan style="font: 5.6px 'Arial'" x="4.588606" y="2.217625">1</tspan>
      </text>
     </g>
    </g>
   </g>
   <g id="matplotlib.axis_8">
    <g id="ytick_7"/>
    <g id="ytick_8"/>
    <g id="ytick_9"/>
   </g>
   <g id="line2d_11">
    <path d="M 69.394072 86.022968 
L 70.398874 82.836773 
L 71.403676 79.790628 
L 72.408477 77.121264 
L 73.413279 74.983103 
L 74.418081 73.428168 
L 75.422883 72.420206 
L 76.427685 71.870994 
L 77.432487 71.679253 
L 78.437289 71.755516 
L 79.442091 72.026985 
L 80.446893 72.428407 
L 81.451695 72.891624 
L 82.456497 73.344305 
L 83.461299 73.719721 
L 84.466101 73.970768 
L 85.470902 74.079102 
L 86.475704 74.055066 
L 87.480506 73.930992 
L 88.485308 73.753036 
L 89.49011 73.573668 
L 90.494912 73.442891 
L 91.499714 73.396687 
L 92.504516 73.445902 
L 93.509318 73.572348 
L 94.51412 73.736337 
L 95.518922 73.892625 
L 96.523724 74.006242 
L 97.528525 74.060603 
L 98.533327 74.056072 
L 99.538129 74.00251 
L 100.542931 73.910647 
L 101.547733 73.785498 
L 102.552535 73.623816 
L 103.557337 73.417633 
L 104.562139 73.165483 
L 105.566941 72.88948 
L 106.571743 72.651179 
L 107.576545 72.556163 
L 108.581347 72.740301 
L 109.586149 73.339248 
L 110.59095 74.451796 
L 111.595752 76.111152 
L 112.600554 78.273842 
L 113.605356 80.827229 
L 114.610158 83.60977 
L 115.61496 86.436807 
L 116.619762 89.12727 
L 117.624564 91.528669 
L 118.629366 93.537258 
" clip-path="url(#paa8b08e46f)" style="fill: none; stroke: #1f77b4; stroke-width: 1.5; stroke-linecap: square"/>
   </g>
   <g id="line2d_12">
    <path d="M 69.394072 90.598946 
L 70.398874 89.040699 
L 71.403676 87.567409 
L 72.408477 86.241627 
L 73.413279 85.087113 
L 74.418081 84.090771 
L 75.422883 83.215875 
L 76.427685 82.419887 
L 77.432487 81.66926 
L 78.437289 80.946715 
L 79.442091 80.251209 
L 80.446893 79.594115 
L 81.451695 78.995133 
L 82.456497 78.479007 
L 83.461299 78.071702 
L 84.466101 77.794127 
L 85.470902 77.653248 
L 86.475704 77.633019 
L 87.480506 77.689244 
L 88.485308 77.752104 
L 89.49011 77.737602 
L 90.494912 77.565659 
L 91.499714 77.1796 
L 92.504516 76.560875 
L 93.509318 75.734308 
L 94.51412 74.762408 
L 95.518922 73.730579 
L 96.523724 72.727368 
L 97.528525 71.824699 
L 98.533327 71.062602 
L 99.538129 70.441783 
L 100.542931 69.925565 
L 101.547733 69.450763 
L 102.552535 68.945178 
L 103.557337 68.348156 
L 104.562139 67.630127 
L 105.566941 66.807271 
L 106.571743 65.948298 
L 107.576545 65.17159 
L 108.581347 64.632573 
L 109.586149 64.502742 
L 110.59095 64.943033 
L 111.595752 66.07514 
L 112.600554 67.955154 
L 113.605356 70.554744 
L 114.610158 73.755317 
L 115.61496 77.359263 
L 116.619762 81.118497 
L 117.624564 84.775121 
L 118.629366 88.104165 
" clip-path="url(#paa8b08e46f)" style="fill: none; stroke: #ff7f0e; stroke-width: 1.5; stroke-linecap: square"/>
   </g>
   <g id="line2d_13">
    <path d="M 69.394072 87.446592 
L 70.398874 85.380641 
L 71.403676 83.482731 
L 72.408477 81.846706 
L 73.413279 80.519546 
L 74.418081 79.501836 
L 75.422883 78.757596 
L 76.427685 78.228062 
L 77.432487 77.845425 
L 78.437289 77.544994 
L 79.442091 77.275466 
L 80.446893 77.006378 
L 81.451695 76.730915 
L 82.456497 76.462726 
L 83.461299 76.227541 
L 84.466101 76.052593 
L 85.470902 75.957355 
L 86.475704 75.947497 
L 87.480506 76.01165 
L 88.485308 76.119582 
L 89.49011 76.221576 
L 90.494912 76.251054 
L 91.499714 76.133381 
L 92.504516 75.801774 
L 93.509318 75.217 
L 94.51412 74.383647 
L 95.518922 73.355272 
L 96.523724 72.224537 
L 97.528525 71.100901 
L 98.533327 70.083938 
L 99.538129 69.242015 
L 100.542931 68.603157 
L 101.547733 68.159468 
L 102.552535 67.881411 
L 103.557337 67.735848 
L 104.562139 67.702177 
L 105.566941 67.783032 
L 106.571743 68.00823 
L 107.576545 68.432024 
L 108.581347 69.124423 
L 109.586149 70.157779 
L 110.59095 71.59048 
L 111.595752 73.450441 
L 112.600554 75.721839 
L 113.605356 78.338629 
L 114.610158 81.187481 
L 115.61496 84.120799 
L 116.619762 86.977828 
L 117.624564 89.60932 
L 118.629366 91.899863 
" clip-path="url(#paa8b08e46f)" style="fill: none; stroke: #2ca02c; stroke-width: 1.5; stroke-linecap: square"/>
   </g>
   <g id="line2d_14">
    <path d="M 84.530125 94.988984 
L 84.530125 63.051016 
" clip-path="url(#paa8b08e46f)" style="fill: none; stroke: #000000; stroke-linecap: square"/>
   </g>
   <g id="patch_7">
    <path d="M 69.394072 101.585882 
L 118.629366 101.585882 
" style="fill: none; stroke: #000000; stroke-width: 0.7; stroke-linejoin: miter; stroke-linecap: square"/>
   </g>
  </g>
  <g id="axes_6">
   <g id="patch_8">
    <path d="M 128.476425 96.585882 
L 177.711719 96.585882 
L 177.711719 61.454118 
L 128.476425 61.454118 
z
" style="fill: #ffffff"/>
   </g>
   <g id="matplotlib.axis_9">
    <g id="xtick_9"/>
    <g id="xtick_10"/>
   </g>
   <g id="matplotlib.axis_10">
    <g id="ytick_10"/>
    <g id="ytick_11"/>
   </g>
   <g id="PathCollection_7">
    <path d="M 177.711719 95.152044 
L 177.71159 95.151933 
L 176.998722 94.434958 
L 176.706917 94.226253 
L 176.186707 93.717983 
L 175.702115 93.371411 
L 175.309811 93.001008 
L 174.697313 92.56298 
L 174.391313 92.284034 
L 173.692511 91.784292 
L 173.445884 91.567059 
L 172.687709 91.024828 
L 172.482896 90.850084 
L 171.682907 90.277854 
L 171.508483 90.133109 
L 170.678105 89.538932 
L 170.526838 89.416134 
L 169.673303 88.804999 
L 169.540984 88.69916 
L 168.668501 88.073809 
L 168.553203 87.982185 
L 167.6637 87.343649 
L 167.565177 87.26521 
L 166.658898 86.613274 
L 166.577923 86.548235 
L 165.654096 85.882021 
L 165.59168 85.831261 
L 164.649294 85.149923 
L 164.605964 85.114286 
L 163.644492 84.417653 
L 163.619886 84.397311 
L 162.63969 83.686199 
L 162.632566 83.680336 
L 161.766754 82.963361 
L 161.634888 82.869116 
L 160.930604 82.246387 
L 160.630086 82.031669 
L 160.03296 81.529412 
L 159.625284 81.238226 
L 159.091855 80.812437 
L 158.620482 80.475871 
L 158.117496 80.095462 
L 157.61568 79.737287 
L 157.11447 79.378487 
L 156.610878 79.019178 
L 156.082699 78.661513 
L 155.606076 78.321575 
L 155.01725 77.944538 
L 154.601275 77.64797 
L 153.906844 77.227563 
L 153.596473 77.006373 
L 152.730465 76.510588 
L 152.591671 76.411715 
L 151.586869 75.803295 
L 151.568184 75.793613 
L 150.582067 75.116043 
L 150.5056 75.076639 
L 149.577265 74.440442 
L 149.42725 74.359664 
L 148.572463 73.772017 
L 148.356445 73.642689 
L 147.567661 73.094573 
L 147.323928 72.925714 
L 146.562859 72.388406 
L 146.336288 72.208739 
L 145.558057 71.650558 
L 145.37544 71.491765 
L 144.553255 70.894499 
L 144.422641 70.77479 
L 143.548453 70.133782 
L 143.467833 70.057815 
L 142.543652 69.375845 
L 142.506942 69.34084 
L 141.53885 68.623993 
L 141.538716 68.623866 
L 140.843226 67.906891 
L 140.534048 67.68567 
L 140.028185 67.189916 
L 139.529246 66.833065 
L 139.141247 66.472941 
L 138.524444 66.031981 
L 138.210086 65.755966 
L 137.519642 65.262575 
L 137.250291 65.038992 
L 136.51484 64.513672 
L 136.270529 64.322017 
L 135.510038 63.779057 
L 135.275265 63.605042 
L 134.505236 63.055523 
L 134.266094 62.888067 
L 133.500434 62.341918 
L 133.242186 62.171092 
L 132.495632 61.63882 
L 132.200033 61.454118 
" clip-path="url(#pc5209fc30c)" style="fill: none; stroke: #1f77b4; stroke-width: 1.5"/>
    <path d="M 128.476425 68.434372 
L 128.711427 68.623866 
L 129.481227 69.173497 
L 129.696351 69.34084 
L 130.486028 69.904538 
L 130.688903 70.057815 
L 131.49083 70.630156 
L 131.686222 70.77479 
L 132.495632 71.352404 
L 132.685845 71.491765 
L 133.500434 72.073052 
L 133.685642 72.208739 
L 134.505236 72.793616 
L 134.684119 72.925714 
L 135.510038 73.51515 
L 135.680775 73.642689 
L 136.51484 74.237989 
L 136.676135 74.359664 
L 137.519642 74.961737 
L 137.671307 75.076639 
L 138.524444 75.685587 
L 138.667414 75.793613 
L 139.529246 76.408739 
L 139.665228 76.510588 
L 140.534048 77.130653 
L 140.665089 77.227563 
L 141.53885 77.851105 
L 141.666964 77.944538 
L 142.543652 78.570145 
L 142.670492 78.661513 
L 143.548453 79.288056 
L 143.674972 79.378487 
L 144.553255 80.005375 
L 144.679288 80.095462 
L 145.558057 80.722926 
L 145.681921 80.812437 
L 146.562859 81.441806 
L 146.681291 81.529412 
L 147.567661 82.16312 
L 147.676522 82.246387 
L 148.572463 82.887417 
L 148.668192 82.963361 
L 149.577265 83.614167 
L 149.658216 83.680336 
L 150.582067 84.341903 
L 150.648797 84.397311 
L 151.586869 85.069007 
L 151.641452 85.114286 
L 152.591671 85.794418 
L 152.636791 85.831261 
L 153.596473 86.517758 
L 153.634815 86.548235 
L 154.601275 87.239083 
L 154.635282 87.26521 
L 155.606076 87.958615 
L 155.637946 87.982185 
L 156.610878 88.676564 
L 156.64266 88.69916 
L 157.61568 89.393062 
L 157.649418 89.416134 
L 158.620482 90.108138 
L 158.658349 90.133109 
L 159.625284 90.821722 
L 159.6697 90.850084 
L 160.630086 91.533662 
L 160.683787 91.567059 
L 161.634888 92.243754 
L 161.700949 92.284034 
L 162.63969 92.951774 
L 162.721511 93.001008 
L 163.644492 93.657486 
L 163.745877 93.717983 
L 164.649294 94.360579 
L 164.774791 94.434958 
L 165.654096 95.060478 
L 165.809806 95.151933 
L 166.658898 95.756028 
L 166.853908 95.868908 
L 167.6637 96.445066 
L 167.912364 96.585882 
" clip-path="url(#pc5209fc30c)" style="fill: none; stroke: #1f77b4; stroke-width: 1.5"/>
   </g>
   <g id="PathCollection_8">
    <path d="M 177.711719 95.172366 
L 177.687321 95.151933 
L 176.706917 94.44735 
L 176.691795 94.434958 
L 175.702115 93.722688 
L 175.696272 93.717983 
L 174.818266 93.001008 
L 174.697313 92.909082 
L 174.070392 92.284034 
L 173.692511 91.989489 
L 173.280912 91.567059 
L 172.687709 91.0909 
L 172.459188 90.850084 
L 171.682907 90.206576 
L 171.614756 90.133109 
L 170.952527 89.416134 
L 170.678105 89.2019 
L 170.27452 88.69916 
L 169.673303 88.235518 
L 169.458116 87.982185 
L 168.668501 87.380197 
L 168.565216 87.26521 
L 167.6637 86.585217 
L 167.628595 86.548235 
L 166.711106 85.831261 
L 166.658898 85.793968 
L 165.901746 85.114286 
L 165.654096 84.937433 
L 165.024157 84.397311 
L 164.649294 84.129676 
L 164.100636 83.680336 
L 163.644492 83.354743 
L 163.144182 82.963361 
L 162.63969 82.603331 
L 162.162003 82.246387 
L 161.634888 81.870284 
L 161.157326 81.529412 
L 160.630086 81.153287 
L 160.13018 80.812437 
L 159.625284 80.452312 
L 159.0774 80.095462 
L 158.620482 79.769608 
L 157.991871 79.378487 
L 157.61568 79.110243 
L 156.860739 78.661513 
L 156.610878 78.483372 
L 155.661967 77.944538 
L 155.606076 77.904695 
L 154.601275 77.241172 
L 154.576689 77.227563 
L 153.596473 76.546963 
L 153.528148 76.510588 
L 152.591671 75.861415 
L 152.459914 75.793613 
L 151.586869 75.188935 
L 151.362817 75.076639 
L 150.582067 74.535847 
L 150.225182 74.359664 
L 149.577265 73.910332 
L 149.035164 73.642689 
L 148.572463 73.320986 
L 147.785967 72.925714 
L 147.567661 72.773348 
L 146.562859 72.211348 
L 146.558911 72.208739 
L 145.558057 71.502964 
L 145.541036 71.491765 
L 144.553255 70.793002 
L 144.525208 70.77479 
L 143.548453 70.082624 
L 143.509469 70.057815 
L 142.543652 69.372871 
L 142.492071 69.34084 
L 141.53885 68.664701 
L 141.471374 68.623866 
L 140.534048 67.959065 
L 140.44577 67.906891 
L 139.529246 67.256953 
L 139.413777 67.189916 
L 138.524444 66.559301 
L 138.374474 66.472941 
L 137.519642 65.866689 
L 137.328275 65.755966 
L 136.51484 65.178796 
L 136.277585 65.038992 
L 135.510038 64.493949 
L 135.226319 64.322017 
L 134.505236 63.809462 
L 134.177768 63.605042 
L 133.500434 63.123098 
L 133.132259 62.888067 
L 132.495632 62.434696 
L 132.086542 62.171092 
L 131.49083 61.746588 
L 131.034758 61.454118 
" clip-path="url(#pc5209fc30c)" style="fill: none; stroke: #ff7f0e; stroke-width: 1.5"/>
    <path d="M 128.476425 66.644005 
L 129.112607 67.189916 
L 129.481227 67.453581 
L 130.005334 67.906891 
L 130.486028 68.250981 
L 130.9106 68.623866 
L 131.49083 69.039535 
L 131.827712 69.34084 
L 132.495632 69.819672 
L 132.757773 70.057815 
L 133.500434 70.590513 
L 133.701561 70.77479 
L 134.505236 71.351428 
L 134.658514 71.491765 
L 135.510038 72.102778 
L 135.626906 72.208739 
L 136.51484 72.845793 
L 136.604521 72.925714 
L 137.519642 73.58208 
L 137.58922 73.642689 
L 138.524444 74.313199 
L 138.579212 74.359664 
L 139.529246 75.040459 
L 139.573118 75.076639 
L 140.534048 75.764876 
L 140.569921 75.793613 
L 141.53885 76.487207 
L 141.568874 76.510588 
L 142.543652 77.208015 
L 142.569425 77.227563 
L 143.548453 77.927726 
L 143.571137 77.944538 
L 144.553255 78.64668 
L 144.573644 78.661513 
L 145.558057 79.365158 
L 145.576617 79.378487 
L 146.562859 80.083394 
L 146.579777 80.095462 
L 147.567661 80.80156 
L 147.582931 80.812437 
L 148.572463 81.519728 
L 148.58603 81.529412 
L 149.577265 82.237853 
L 149.589197 82.246387 
L 150.582067 82.95577 
L 150.592692 82.963361 
L 151.586869 83.673253 
L 151.596847 83.680336 
L 152.591671 84.390071 
L 152.602003 84.397311 
L 153.596473 85.106024 
L 153.608488 85.114286 
L 154.601275 85.820944 
L 154.616634 85.831261 
L 155.606076 86.534666 
L 155.62682 86.548235 
L 156.610878 87.246985 
L 156.639524 87.26521 
L 157.61568 87.957618 
L 157.655373 87.982185 
L 158.620482 88.666167 
L 158.675203 88.69916 
L 159.625284 89.372076 
L 159.700143 89.416134 
L 160.630086 90.074563 
L 160.731747 90.133109 
L 161.634888 90.772527 
L 161.772228 90.850084 
L 162.63969 91.464375 
L 162.824874 91.567059 
L 163.644492 92.147727 
L 163.894772 92.284034 
L 164.649294 92.818905 
L 164.99005 93.001008 
L 165.654096 93.472063 
L 166.123995 93.717983 
L 166.658898 94.09769 
L 167.318754 94.434958 
L 167.6637 94.679981 
L 168.612003 95.151933 
L 168.668501 95.192088 
L 169.673303 95.85083 
L 169.707673 95.868908 
L 170.678105 96.541195 
L 170.765715 96.585882 
" clip-path="url(#pc5209fc30c)" style="fill: none; stroke: #ff7f0e; stroke-width: 1.5"/>
   </g>
   <g id="PathCollection_9">
    <path d="M 177.711719 94.40615 
L 177.144756 93.717983 
L 176.706917 93.395068 
L 176.366365 93.001008 
L 175.702115 92.512536 
L 175.494943 92.284034 
L 174.697313 91.699213 
L 174.571599 91.567059 
L 173.692511 90.924451 
L 173.61828 90.850084 
L 172.687709 90.171914 
L 172.647062 90.133109 
L 171.682907 89.432631 
L 171.664773 89.416134 
L 170.678105 88.701535 
L 170.675365 88.69916 
L 169.790706 87.982185 
L 169.673303 87.898357 
L 168.886391 87.26521 
L 168.668501 87.109659 
L 167.938688 86.548235 
L 167.6637 86.351953 
L 166.956421 85.831261 
L 166.658898 85.618917 
L 165.944112 85.114286 
L 165.654096 84.9073 
L 164.904167 84.397311 
L 164.649294 84.215358 
L 163.840212 83.680336 
L 163.644492 83.540491 
L 162.763817 82.963361 
L 162.63969 82.874483 
L 161.704994 82.246387 
L 161.634888 82.195971 
L 160.71353 81.529412 
L 160.630086 81.468967 
L 159.822858 80.812437 
L 159.625284 80.667989 
L 159.002521 80.095462 
L 158.620482 79.813709 
L 158.18613 79.378487 
L 157.61568 78.955164 
L 157.333532 78.661513 
L 156.610878 78.12336 
L 156.439376 77.944538 
L 155.606076 77.323115 
L 155.512666 77.227563 
L 154.601275 76.547991 
L 154.563594 76.510588 
L 153.627169 75.793613 
L 153.596473 75.771642 
L 152.882949 75.076639 
L 152.591671 74.868231 
L 152.04554 74.359664 
L 151.586869 74.031612 
L 151.149929 73.642689 
L 150.582067 73.236701 
L 150.216495 72.925714 
L 149.577265 72.468887 
L 149.257245 72.208739 
L 148.572463 71.719561 
L 148.279189 71.491765 
L 147.567661 70.983697 
L 147.286155 70.77479 
L 146.562859 70.258544 
L 146.279731 70.057815 
L 145.558057 69.542956 
L 145.259629 69.34084 
L 144.553255 68.837127 
L 144.223614 68.623866 
L 143.548453 68.142635 
L 143.166965 67.906891 
L 142.543652 67.462826 
L 142.081282 67.189916 
L 141.53885 66.803662 
L 140.952206 66.472941 
L 140.534048 66.175328 
L 139.755184 65.755966 
L 139.529246 65.595243 
L 138.524444 65.048971 
L 138.502601 65.038992 
L 137.519642 64.394835 
L 137.350928 64.322017 
L 136.51484 63.780888 
L 136.083301 63.605042 
L 135.510038 63.238765 
L 134.89537 63.605042 
L 134.505236 63.734164 
L 134.228001 63.605042 
L 134.505236 62.983358 
L 134.597915 62.888067 
L 134.505236 62.829635 
L 134.409383 62.888067 
L 133.500434 63.143622 
L 132.949298 62.888067 
L 132.495632 62.59456 
L 131.577856 62.171092 
L 131.49083 62.113761 
L 130.486028 61.462491 
L 130.470381 61.454118 
" clip-path="url(#pc5209fc30c)" style="fill: none; stroke: #2ca02c; stroke-width: 1.5"/>
    <path d="M 128.476425 67.122245 
L 128.544836 67.189916 
L 129.481227 67.87986 
L 129.509136 67.906891 
L 130.374129 68.623866 
L 130.486028 68.711495 
L 131.001569 69.34084 
L 131.49083 69.724811 
L 131.771279 70.057815 
L 132.495632 70.626236 
L 132.624786 70.77479 
L 133.500434 71.460373 
L 133.528723 71.491765 
L 134.285261 72.208739 
L 134.505236 72.366585 
L 135.056599 72.925714 
L 135.510038 73.250881 
L 135.914558 73.642689 
L 136.51484 74.072883 
L 136.824822 74.359664 
L 137.519642 74.857285 
L 137.767839 75.076639 
L 138.524444 75.61815 
L 138.732222 75.793613 
L 139.529246 76.363669 
L 139.711247 76.510588 
L 140.534048 77.098678 
L 140.700952 77.227563 
L 141.53885 77.826032 
L 141.699083 77.944538 
L 142.543652 78.547355 
L 142.704493 78.661513 
L 143.548453 79.263486 
L 143.716748 79.378487 
L 144.553255 79.974757 
L 144.735796 80.095462 
L 145.558057 80.681229 
L 145.761548 80.812437 
L 146.562859 81.383 
L 146.79328 81.529412 
L 147.567661 82.080618 
L 147.828982 82.246387 
L 148.572463 82.775539 
L 148.865222 82.963361 
L 149.577265 83.470202 
L 149.898241 83.680336 
L 150.582067 84.167247 
L 150.926049 84.397311 
L 151.586869 84.868032 
L 151.949844 85.114286 
L 152.591671 85.571648 
L 152.973575 85.831261 
L 153.596473 86.27525 
L 154.002572 86.548235 
L 154.601275 86.975031 
L 155.042746 87.26521 
L 155.606076 87.666786 
L 156.100909 87.982185 
L 156.610878 88.345681 
L 157.186034 88.69916 
L 157.61568 89.005346 
L 158.311431 89.416134 
L 158.620482 89.636326 
L 159.498304 90.133109 
L 159.625284 90.223554 
L 160.630086 90.837261 
L 160.655301 90.850084 
L 161.634888 91.518584 
L 161.734839 91.567059 
L 162.63969 92.180708 
L 162.862737 92.284034 
L 163.644492 92.811031 
L 164.072678 93.001008 
L 164.649294 93.387592 
L 165.423594 93.717983 
L 165.654096 93.871812 
L 166.658898 94.417764 
L 166.687342 94.434958 
L 167.6637 95.106784 
L 167.739247 95.151933 
L 168.668501 95.798012 
L 168.78911 95.868908 
L 169.673303 96.488293 
L 169.842839 96.585882 
" clip-path="url(#pc5209fc30c)" style="fill: none; stroke: #2ca02c; stroke-width: 1.5"/>
    <path d="M 135.510038 64.349031 
L 135.45229 64.322017 
L 135.510038 64.214612 
L 135.581063 64.322017 
L 135.510038 64.349031 
z
" clip-path="url(#pc5209fc30c)" style="fill: none; stroke: #2ca02c; stroke-width: 1.5"/>
   </g>
   <g id="line2d_15">
    <path d="M 159.695476 85.785576 
" clip-path="url(#pc5209fc30c)" style="fill: none; stroke: #000000; stroke-width: 1.5; stroke-linecap: square"/>
    <g clip-path="url(#pc5209fc30c)">
     <use xlink:href="#m02c855da40" x="159.695476" y="85.785576" style="stroke: #000000; stroke-width: 2"/>
    </g>
   </g>
  </g>
  <g id="axes_7"/>
  <g id="axes_8"/>
  <g id="axes_9">
   <g id="patch_9">
    <path d="M 128.476425 138.744 
L 177.711719 138.744 
L 177.711719 103.612235 
L 128.476425 103.612235 
z
" style="fill: #ffffff"/>
   </g>
   <g id="matplotlib.axis_11">
    <g id="xtick_11">
     <g id="line2d_16">
      <g>
       <use xlink:href="#mcab6d3e95b" x="128.476425" y="143.744" style="stroke: #000000; stroke-width: 0.5"/>
      </g>
     </g>
     <g id="text_7">
      <text style="font: 7px 'Arial'; text-anchor: middle" x="128.476425" y="154.254469" transform="rotate(-0, 128.476425, 154.254469)">-5</text>
     </g>
    </g>
    <g id="xtick_12">
     <g id="line2d_17">
      <g>
       <use xlink:href="#mcab6d3e95b" x="177.711719" y="143.744" style="stroke: #000000; stroke-width: 0.5"/>
      </g>
     </g>
     <g id="text_8">
      <text style="font: 7px 'Arial'; text-anchor: middle" x="177.711719" y="154.254469" transform="rotate(-0, 177.711719, 154.254469)">5</text>
     </g>
    </g>
    <g id="text_9">
     <!-- $\theta_{2}$ -->
     <g transform="translate(149.014072 165.485719)">
      <text>
       <tspan style="font: 8px 'Arial'" x="0" y="-0.171875">θ</tspan>
       <tspan style="font: 5.6px 'Arial'" x="4.588606" y="2.217625">2</tspan>
      </text>
     </g>
    </g>
   </g>
   <g id="matplotlib.axis_12">
    <g id="ytick_12"/>
    <g id="ytick_13"/>
    <g id="ytick_14"/>
   </g>
   <g id="line2d_18">
    <path d="M 128.476425 126.854363 
L 129.481227 123.853718 
L 130.486028 121.08027 
L 131.49083 118.751981 
L 132.495632 117.003748 
L 133.500434 115.865709 
L 134.505236 115.2665 
L 135.510038 115.059778 
L 136.51484 115.068094 
L 137.519642 115.132838 
L 138.524444 115.154601 
L 139.529246 115.109514 
L 140.534048 115.03604 
L 141.53885 114.999726 
L 142.543652 115.053252 
L 143.548453 115.209993 
L 144.553255 115.440924 
L 145.558057 115.692143 
L 146.562859 115.910731 
L 147.567661 116.064882 
L 148.572463 116.150115 
L 149.577265 116.182283 
L 150.582067 116.184346 
L 151.586869 116.174718 
L 152.591671 116.161847 
L 153.596473 116.145694 
L 154.601275 116.123778 
L 155.606076 116.09767 
L 156.610878 116.075334 
L 157.61568 116.066743 
L 158.620482 116.074719 
L 159.625284 116.087275 
L 160.630086 116.078113 
L 161.634888 116.017161 
L 162.63969 115.886545 
L 163.644492 115.694273 
L 164.649294 115.48028 
L 165.654096 115.314858 
L 166.658898 115.29297 
L 167.6637 115.526571 
L 168.668501 116.132795 
L 169.673303 117.213787 
L 170.678105 118.82793 
L 171.682907 120.960613 
L 172.687709 123.508813 
L 173.692511 126.2914 
L 174.697313 129.085784 
L 175.702115 131.678287 
L 176.706917 133.908942 
L 177.711719 135.695376 
" clip-path="url(#pe23e3f5527)" style="fill: none; stroke: #1f77b4; stroke-width: 1.5; stroke-linecap: square"/>
   </g>
   <g id="line2d_19">
    <path d="M 128.476425 121.278322 
L 129.481227 117.435052 
L 130.486028 113.886903 
L 131.49083 110.903319 
L 132.495632 108.672695 
L 133.500434 107.271667 
L 134.505236 106.66086 
L 135.510038 106.705975 
L 136.51484 107.216232 
L 137.519642 107.988591 
L 138.524444 108.84672 
L 139.529246 109.667207 
L 140.534048 110.390179 
L 141.53885 111.015476 
L 142.543652 111.587727 
L 143.548453 112.174556 
L 144.553255 112.842433 
L 145.558057 113.635015 
L 146.562859 114.558791 
L 147.567661 115.579635 
L 148.572463 116.631152 
L 149.577265 117.632139 
L 150.582067 118.507394 
L 151.586869 119.205075 
L 152.591671 119.705346 
L 153.596473 120.018774 
L 154.601275 120.177197 
L 155.606076 120.222427 
L 156.610878 120.197918 
L 157.61568 120.145541 
L 158.620482 120.105994 
L 159.625284 120.119364 
L 160.630086 120.223113 
L 161.634888 120.44732 
L 162.63969 120.809276 
L 163.644492 121.310123 
L 164.649294 121.935137 
L 165.654096 122.657694 
L 166.658898 123.445875 
L 167.6637 124.270301 
L 168.668501 125.111612 
L 169.673303 125.965753 
L 170.678105 126.845147 
L 171.682907 127.774494 
L 172.687709 128.7815 
L 173.692511 129.884855 
L 174.697313 131.083342 
L 175.702115 132.350161 
L 176.706917 133.635007 
L 177.711719 134.873673 
" clip-path="url(#pe23e3f5527)" style="fill: none; stroke: #ff7f0e; stroke-width: 1.5; stroke-linecap: square"/>
   </g>
   <g id="line2d_20">
    <path d="M 128.476425 127.044164 
L 129.481227 124.100349 
L 130.486028 121.187245 
L 131.49083 118.47671 
L 132.495632 116.110108 
L 133.500434 114.179738 
L 134.505236 112.719961 
L 135.510038 111.707944 
L 136.51484 111.073417 
L 137.519642 110.716656 
L 138.524444 110.532515 
L 139.529246 110.435681 
L 140.534048 110.380139 
L 141.53885 110.366408 
L 142.543652 110.433981 
L 143.548453 110.641867 
L 144.553255 111.044167 
L 145.558057 111.668391 
L 146.562859 112.50214 
L 147.567661 113.490713 
L 148.572463 114.545866 
L 149.577265 115.564237 
L 150.582067 116.451818 
L 151.586869 117.148097 
L 152.591671 117.64152 
L 153.596473 117.969238 
L 154.601275 118.199693 
L 155.606076 118.404337 
L 156.610878 118.630509 
L 157.61568 118.887317 
L 158.620482 119.149957 
L 159.625284 119.378642 
L 160.630086 119.54157 
L 161.634888 119.630823 
L 162.63969 119.665425 
L 163.644492 119.683391 
L 164.649294 119.729672 
L 165.654096 119.846997 
L 166.658898 120.072827 
L 167.6637 120.440958 
L 168.668501 120.983861 
L 169.673303 121.732335 
L 170.678105 122.711249 
L 171.682907 123.932404 
L 172.687709 125.38683 
L 173.692511 127.039194 
L 174.697313 128.826742 
L 175.702115 130.664325 
L 176.706917 132.455489 
L 177.711719 134.107506 
" clip-path="url(#pe23e3f5527)" style="fill: none; stroke: #2ca02c; stroke-width: 1.5; stroke-linecap: square"/>
   </g>
   <g id="line2d_21">
    <path d="M 159.695476 137.147102 
L 159.695476 105.209134 
" clip-path="url(#pe23e3f5527)" style="fill: none; stroke: #000000; stroke-linecap: square"/>
   </g>
   <g id="patch_10">
    <path d="M 128.476425 143.744 
L 177.711719 143.744 
" style="fill: none; stroke: #000000; stroke-width: 0.7; stroke-linejoin: miter; stroke-linecap: square"/>
   </g>
  </g>
  <g id="text_10">
   <!-- $p(\theta \mid x_0, x_2, x_3)$ -->
   <g transform="translate(63.681719 13.77)">
    <text>
     <tspan style="font: 9px 'Arial'" x="0 5.005371 8.002441 18.400638 27.00924 31.009142 39.617744 43.617646 52.226248" y="-0.453125">p(θx,x,x)</tspan>
     <tspan style="font: 9px 'STIXGeneral'" x="14.507227" y="-0.453125">∣</tspan>
     <tspan style="font: 6.3px 'Arial'" x="23.057449 35.665953 48.274457" y="2.2350624999999997">023</tspan>
    </text>
   </g>
  </g>
 </g>
 <defs>
  <clipPath id="p2e6bbe9418">
   <rect x="10.311719" y="19.296" width="49.235294" height="35.131765"/>
  </clipPath>
  <clipPath id="p88f7683d37">
   <rect x="69.394072" y="19.296" width="49.235294" height="35.131765"/>
  </clipPath>
  <clipPath id="pefaf18633b">
   <rect x="128.476425" y="19.296" width="49.235294" height="35.131765"/>
  </clipPath>
  <clipPath id="paa8b08e46f">
   <rect x="69.394072" y="61.454118" width="49.235294" height="35.131765"/>
  </clipPath>
  <clipPath id="pc5209fc30c">
   <rect x="128.476425" y="61.454118" width="49.235294" height="35.131765"/>
  </clipPath>
  <clipPath id="pe23e3f5527">
   <rect x="128.476425" y="103.612235" width="49.235294" height="35.131765"/>
  </clipPath>
 </defs>
</svg>
