<?xml version="1.0" encoding="utf-8" standalone="no"?>
<!DOCTYPE svg PUBLIC "-//W3C//DTD SVG 1.1//EN"
  "http://www.w3.org/Graphics/SVG/1.1/DTD/svg11.dtd">
<svg xmlns:xlink="http://www.w3.org/1999/xlink" width="186.858047pt" height="175.085719pt" viewBox="0 0 186.858047 175.085719" xmlns="http://www.w3.org/2000/svg" version="1.1">
 <metadata>
  <rdf:RDF xmlns:dc="http://purl.org/dc/elements/1.1/" xmlns:cc="http://creativecommons.org/ns#" xmlns:rdf="http://www.w3.org/1999/02/22-rdf-syntax-ns#">
   <cc:Work>
    <dc:type rdf:resource="http://purl.org/dc/dcmitype/StillImage"/>
    <dc:date>2022-05-18T17:56:07.802985</dc:date>
    <dc:format>image/svg+xml</dc:format>
    <dc:creator>
     <cc:Agent>
      <dc:title>Matplotlib v3.5.1, https://matplotlib.org/</dc:title>
     </cc:Agent>
    </dc:creator>
   </cc:Work>
  </rdf:RDF>
 </metadata>
 <defs>
  <style type="text/css">*{stroke-linejoin: round; stroke-linecap: butt}</style>
 </defs>
 <g id="figure_1">
  <g id="patch_1">
   <path d="M 0 175.085719 
L 186.858047 175.085719 
L 186.858047 0 
L 0 0 
L 0 175.085719 
z
" style="fill: none"/>
  </g>
  <g id="axes_1">
   <g id="patch_2">
    <path d="M 10.311719 54.427765 
L 59.547013 54.427765 
L 59.547013 19.296 
L 10.311719 19.296 
z
" style="fill: #ffffff"/>
   </g>
   <g id="matplotlib.axis_1">
    <g id="xtick_1">
     <g id="line2d_1">
      <defs>
       <path id="m3e81d50229" d="M 0 0 
L 0 2 
" style="stroke: #000000; stroke-width: 0.5"/>
      </defs>
      <g>
       <use xlink:href="#m3e81d50229" x="10.311719" y="59.427765" style="stroke: #000000; stroke-width: 0.5"/>
      </g>
     </g>
     <g id="text_1">
      <text style="font: 7px 'Arial'; text-anchor: middle" x="10.311719" y="69.938233" transform="rotate(-0, 10.311719, 69.938233)">-5</text>
     </g>
    </g>
    <g id="xtick_2">
     <g id="line2d_2">
      <g>
       <use xlink:href="#m3e81d50229" x="59.547013" y="59.427765" style="stroke: #000000; stroke-width: 0.5"/>
      </g>
     </g>
     <g id="text_2">
      <text style="font: 7px 'Arial'; text-anchor: middle" x="59.547013" y="69.938233" transform="rotate(-0, 59.547013, 69.938233)">5</text>
     </g>
    </g>
    <g id="text_3">
     <!-- $\theta_{0}$ -->
     <g transform="translate(30.849366 81.169483)">
      <text>
       <tspan style="font: 8px 'Arial'" x="0" y="-0.171875">θ</tspan>
       <tspan style="font: 5.6px 'Arial'" x="4.588606" y="2.217625">0</tspan>
      </text>
     </g>
    </g>
   </g>
   <g id="matplotlib.axis_2">
    <g id="ytick_1"/>
    <g id="ytick_2"/>
   </g>
   <g id="line2d_3">
    <path d="M 10.311719 51.37914 
L 11.316521 51.37914 
L 12.321323 51.378883 
L 13.326125 51.216732 
L 14.330926 50.750315 
L 15.335728 49.18294 
L 16.34053 42.460612 
L 17.345332 34.151341 
L 18.350134 25.875332 
L 19.354936 22.344624 
L 20.359738 34.201177 
L 21.36454 43.976261 
L 22.369342 48.266011 
L 23.374144 50.874929 
L 24.378946 51.250451 
L 25.383748 51.377673 
L 26.388549 51.37914 
L 27.393351 51.37914 
L 28.398153 51.37914 
L 29.402955 51.37914 
L 30.407757 51.37914 
L 31.412559 51.37914 
L 32.417361 51.37914 
L 33.422163 51.37914 
L 34.426965 51.37914 
L 35.431767 51.37914 
L 36.436569 51.37914 
L 37.441371 51.37914 
L 38.446173 51.37914 
L 39.450974 51.37914 
L 40.455776 51.37914 
L 41.460578 51.37914 
L 42.46538 51.37914 
L 43.470182 51.37914 
L 44.474984 51.37914 
L 45.479786 51.37914 
L 46.484588 51.37914 
L 47.48939 51.37914 
L 48.494192 51.37914 
L 49.498994 51.37914 
L 50.503796 51.37914 
L 51.508598 51.37914 
L 52.513399 51.37914 
L 53.518201 51.37914 
L 54.523003 51.37914 
L 55.527805 51.37914 
L 56.532607 51.37914 
L 57.537409 51.37914 
L 58.542211 51.37914 
L 59.547013 51.37914 
" clip-path="url(#p96e7e8fe13)" style="fill: none; stroke: #1f77b4; stroke-width: 1.5; stroke-linecap: square"/>
   </g>
   <g id="line2d_4">
    <path d="M 10.311719 51.37914 
L 11.316521 51.379084 
L 12.321323 51.346955 
L 13.326125 51.106612 
L 14.330926 50.788665 
L 15.335728 48.752809 
L 16.34053 42.900122 
L 17.345332 34.446808 
L 18.350134 28.130428 
L 19.354936 24.767463 
L 20.359738 32.372318 
L 21.36454 41.152247 
L 22.369342 47.857253 
L 23.374144 51.081775 
L 24.378946 51.188137 
L 25.383748 51.364062 
L 26.388549 51.379128 
L 27.393351 51.37914 
L 28.398153 51.37914 
L 29.402955 51.37914 
L 30.407757 51.37914 
L 31.412559 51.37914 
L 32.417361 51.37914 
L 33.422163 51.37914 
L 34.426965 51.37914 
L 35.431767 51.37914 
L 36.436569 51.37914 
L 37.441371 51.37914 
L 38.446173 51.37914 
L 39.450974 51.37914 
L 40.455776 51.37914 
L 41.460578 51.37914 
L 42.46538 51.37914 
L 43.470182 51.37914 
L 44.474984 51.37914 
L 45.479786 51.37914 
L 46.484588 51.37914 
L 47.48939 51.37914 
L 48.494192 51.37914 
L 49.498994 51.37914 
L 50.503796 51.37914 
L 51.508598 51.37914 
L 52.513399 51.37914 
L 53.518201 51.37914 
L 54.523003 51.37914 
L 55.527805 51.37914 
L 56.532607 51.37914 
L 57.537409 51.37914 
L 58.542211 51.37914 
L 59.547013 51.37914 
" clip-path="url(#p96e7e8fe13)" style="fill: none; stroke: #ff7f0e; stroke-width: 1.5; stroke-linecap: square"/>
   </g>
   <g id="line2d_5">
    <path d="M 10.311719 51.37914 
L 11.316521 51.37914 
L 12.321323 51.379124 
L 13.326125 51.348658 
L 14.330926 50.369016 
L 15.335728 47.708476 
L 16.34053 42.026789 
L 17.345332 27.805181 
L 18.350134 23.678701 
L 19.354936 27.381522 
L 20.359738 37.3622 
L 21.36454 44.685688 
L 22.369342 49.703214 
L 23.374144 51.133452 
L 24.378946 51.377528 
L 25.383748 51.37914 
L 26.388549 51.37914 
L 27.393351 51.37914 
L 28.398153 51.37914 
L 29.402955 51.37914 
L 30.407757 51.37914 
L 31.412559 51.37914 
L 32.417361 51.37914 
L 33.422163 51.37914 
L 34.426965 51.37914 
L 35.431767 51.37914 
L 36.436569 51.37914 
L 37.441371 51.37914 
L 38.446173 51.37914 
L 39.450974 51.37914 
L 40.455776 51.37914 
L 41.460578 51.37914 
L 42.46538 51.37914 
L 43.470182 51.37914 
L 44.474984 51.37914 
L 45.479786 51.37914 
L 46.484588 51.37914 
L 47.48939 51.37914 
L 48.494192 51.37914 
L 49.498994 51.37914 
L 50.503796 51.37914 
L 51.508598 51.37914 
L 52.513399 51.37914 
L 53.518201 51.37914 
L 54.523003 51.37914 
L 55.527805 51.37914 
L 56.532607 51.37914 
L 57.537409 51.37914 
L 58.542211 51.37914 
L 59.547013 51.37914 
" clip-path="url(#p96e7e8fe13)" style="fill: none; stroke: #2ca02c; stroke-width: 1.5; stroke-linecap: square"/>
   </g>
   <g id="line2d_6">
    <path d="M 16.812279 52.830866 
L 16.812279 20.892898 
" clip-path="url(#p96e7e8fe13)" style="fill: none; stroke: #000000; stroke-linecap: square"/>
   </g>
   <g id="patch_3">
    <path d="M 10.311719 59.427765 
L 59.547013 59.427765 
" style="fill: none; stroke: #000000; stroke-width: 0.7; stroke-linejoin: miter; stroke-linecap: square"/>
   </g>
  </g>
  <g id="axes_2">
   <g id="patch_4">
    <path d="M 69.394072 54.427765 
L 118.629366 54.427765 
L 118.629366 19.296 
L 69.394072 19.296 
z
" style="fill: #ffffff"/>
   </g>
   <g id="matplotlib.axis_3">
    <g id="xtick_3"/>
    <g id="xtick_4"/>
   </g>
   <g id="matplotlib.axis_4">
    <g id="ytick_3"/>
    <g id="ytick_4"/>
   </g>
   <g id="PathCollection_1">
    <path d="M 81.451695 52.876607 
L 82.456497 52.899134 
L 83.461299 52.829404 
L 84.466101 52.905925 
L 85.470902 52.636458 
L 86.475704 52.772083 
L 87.19804 52.27684 
L 87.41325 51.559866 
L 87.419817 50.842891 
L 87.440142 50.125916 
L 87.480506 50.075669 
L 88.485308 49.847374 
L 89.099558 49.408941 
L 89.28355 48.691966 
L 89.197966 47.974992 
L 88.600053 47.258017 
L 89.474728 46.541042 
L 89.49011 46.520437 
L 90.100424 45.824067 
L 89.49011 45.370886 
L 88.485308 45.165523 
L 87.524036 45.824067 
L 87.480506 45.861441 
L 87.42626 45.824067 
L 86.475704 45.175986 
L 86.414208 45.107092 
L 86.188225 44.390118 
L 85.470902 43.892018 
L 84.466101 44.015714 
L 83.56598 44.390118 
L 83.461299 44.394308 
L 83.446215 44.390118 
L 82.456497 43.703457 
L 81.451695 43.851615 
L 80.729929 44.390118 
L 80.446893 44.504352 
L 79.599999 45.107092 
L 79.455011 45.824067 
L 79.442091 45.855296 
L 78.437289 46.090658 
L 77.7883 46.541042 
L 77.493201 47.258017 
L 77.432487 47.428532 
L 76.768282 47.974992 
L 76.671062 48.691966 
L 77.432487 49.322685 
L 77.467267 49.408941 
L 77.810264 50.125916 
L 78.437289 50.653855 
L 78.60665 50.842891 
L 79.442091 51.491363 
L 79.48558 51.559866 
L 80.446893 52.247847 
L 80.504055 52.27684 
L 81.451695 52.876607 
z
" clip-path="url(#pc97934805f)" style="fill: none; stroke: #1f77b4; stroke-width: 1.5"/>
   </g>
   <g id="PathCollection_2">
    <path d="M 85.470902 53.520247 
L 86.475704 53.552599 
L 87.29543 52.993815 
L 87.467349 52.27684 
L 87.245936 51.559866 
L 87.439032 50.842891 
L 87.480506 50.774886 
L 88.373926 50.125916 
L 88.485308 50.059788 
L 89.367184 49.408941 
L 89.49011 49.132864 
L 90.127973 48.691966 
L 90.494912 48.321125 
L 90.926929 47.974992 
L 90.494912 47.434655 
L 90.456205 47.258017 
L 89.49011 46.628839 
L 88.485308 46.611003 
L 88.39187 46.541042 
L 88.286557 45.824067 
L 87.480506 45.221605 
L 87.143342 45.107092 
L 86.475704 44.44697 
L 86.466607 44.390118 
L 86.13463 43.673143 
L 85.470902 43.223587 
L 84.466101 43.277957 
L 83.893567 43.673143 
L 83.486763 44.390118 
L 83.461299 44.401744 
L 82.456497 44.45971 
L 81.451695 44.482922 
L 80.446893 44.520996 
L 79.442091 44.732764 
L 78.9031 45.107092 
L 78.437383 45.824067 
L 78.437289 45.824184 
L 77.491286 46.541042 
L 77.482058 47.258017 
L 77.546173 47.974992 
L 77.558633 48.691966 
L 77.643703 49.408941 
L 77.618666 50.125916 
L 77.587121 50.842891 
L 78.437289 51.481165 
L 79.20792 51.559866 
L 79.442091 51.670831 
L 80.446893 51.630584 
L 81.451695 52.194641 
L 81.58913 52.27684 
L 82.456497 52.850816 
L 83.461299 52.954491 
L 84.466101 52.800908 
L 84.694744 52.993815 
L 85.470902 53.520247 
z
" clip-path="url(#pc97934805f)" style="fill: none; stroke: #ff7f0e; stroke-width: 1.5"/>
   </g>
   <g id="PathCollection_3">
    <path d="M 82.456497 52.446776 
L 83.461299 52.87038 
L 84.466101 52.76551 
L 85.414425 52.27684 
L 85.470902 52.273411 
L 86.475704 51.846339 
L 86.86865 51.559866 
L 87.368863 50.842891 
L 87.480506 50.786035 
L 88.318759 50.842891 
L 88.485308 50.903153 
L 88.575822 50.842891 
L 89.49011 50.434163 
L 89.904364 50.125916 
L 89.659097 49.408941 
L 89.49011 49.107364 
L 89.455917 48.691966 
L 89.49011 48.552336 
L 90.028684 47.974992 
L 89.49011 47.551705 
L 88.561037 47.258017 
L 88.485308 47.202219 
L 88.423012 46.541042 
L 88.395381 45.824067 
L 87.480506 45.159951 
L 87.005901 45.107092 
L 86.475704 44.809049 
L 85.470902 44.657017 
L 84.466101 44.430448 
L 83.461299 44.394777 
L 82.456497 44.577662 
L 81.550077 45.107092 
L 81.451695 45.113833 
L 80.446893 45.116921 
L 79.442091 45.490345 
L 78.98314 45.824067 
L 78.577318 46.541042 
L 78.437289 46.764054 
L 77.764858 47.258017 
L 77.484558 47.974992 
L 77.500145 48.691966 
L 77.660989 49.408941 
L 78.188622 50.125916 
L 78.231668 50.842891 
L 78.437289 51.02057 
L 78.802746 51.559866 
L 79.442091 51.976028 
L 80.446893 52.193102 
L 81.451695 52.222673 
L 82.185043 52.27684 
L 82.456497 52.446776 
z
" clip-path="url(#pc97934805f)" style="fill: none; stroke: #2ca02c; stroke-width: 1.5"/>
   </g>
   <g id="line2d_7">
    <path d="M 84.530125 49.789301 
" clip-path="url(#pc97934805f)" style="fill: none; stroke: #000000; stroke-width: 1.5; stroke-linecap: square"/>
    <defs>
     <path id="mf4dbb4ae44" d="M -2.5 2.5 
L 2.5 -2.5 
M -2.5 -2.5 
L 2.5 2.5 
" style="stroke: #000000; stroke-width: 2"/>
    </defs>
    <g clip-path="url(#pc97934805f)">
     <use xlink:href="#mf4dbb4ae44" x="84.530125" y="49.789301" style="stroke: #000000; stroke-width: 2"/>
    </g>
   </g>
  </g>
  <g id="axes_3">
   <g id="patch_5">
    <path d="M 128.476425 54.427765 
L 177.711719 54.427765 
L 177.711719 19.296 
L 128.476425 19.296 
z
" style="fill: #ffffff"/>
   </g>
   <g id="matplotlib.axis_5">
    <g id="xtick_5"/>
    <g id="xtick_6"/>
   </g>
   <g id="matplotlib.axis_6">
    <g id="ytick_5"/>
    <g id="ytick_6"/>
   </g>
   <g id="PathCollection_4">
    <path d="M 156.610878 52.752698 
L 157.61568 52.650212 
L 158.620482 52.390173 
L 159.625284 52.908511 
L 160.630086 52.941608 
L 161.634888 52.892998 
L 162.63969 52.657729 
L 163.644492 52.699567 
L 164.458475 52.27684 
L 164.649294 52.192463 
L 165.654096 51.85285 
L 166.210296 51.559866 
L 166.658898 51.43894 
L 167.6637 51.14454 
L 168.525469 50.842891 
L 168.668501 50.822408 
L 169.529404 50.125916 
L 169.627709 49.408941 
L 169.56255 48.691966 
L 169.604068 47.974992 
L 169.673303 47.919503 
L 170.325344 47.258017 
L 169.673303 46.786184 
L 168.668501 46.568823 
L 168.583597 46.541042 
L 167.6637 45.871249 
L 167.612025 45.824067 
L 166.658898 45.209474 
L 165.654096 45.110662 
L 165.630877 45.107092 
L 165.058502 44.390118 
L 164.649294 44.087747 
L 163.644492 43.713561 
L 162.63969 43.735329 
L 161.634888 43.842398 
L 160.630086 44.335735 
L 160.512209 44.390118 
L 159.625284 44.410805 
L 158.620482 44.4052 
L 157.61568 44.479155 
L 156.626759 45.107092 
L 156.610878 45.11183 
L 155.606076 45.350173 
L 154.945093 45.824067 
L 154.601275 46.237598 
L 154.183448 46.541042 
L 153.596473 46.921118 
L 153.131566 47.258017 
L 152.797405 47.974992 
L 153.158528 48.691966 
L 153.596473 49.038744 
L 153.741964 49.408941 
L 154.601275 50.07646 
L 154.682747 50.125916 
L 155.606076 50.7716 
L 155.655637 50.842891 
L 155.606076 51.152024 
L 155.227577 51.559866 
L 155.606076 51.960804 
L 155.797903 52.27684 
L 156.610878 52.752698 
z
" clip-path="url(#pd8034f39b4)" style="fill: none; stroke: #1f77b4; stroke-width: 1.5"/>
   </g>
   <g id="PathCollection_5">
    <path d="M 157.61568 53.224129 
L 158.620482 53.565065 
L 159.625284 53.52832 
L 160.630086 53.016539 
L 160.672818 52.993815 
L 161.634888 52.932645 
L 162.63969 52.771142 
L 163.513835 52.27684 
L 163.644492 52.260577 
L 164.649294 52.145766 
L 165.654096 51.824 
L 166.448945 51.559866 
L 166.658898 51.552808 
L 167.6637 51.36816 
L 168.403458 50.842891 
L 168.649412 50.125916 
L 168.668501 50.084835 
L 169.494611 49.408941 
L 169.673303 49.295785 
L 170.475374 48.691966 
L 170.191172 47.974992 
L 169.673303 47.598195 
L 169.396345 47.258017 
L 169.249551 46.541042 
L 168.668501 45.95331 
L 168.634226 45.824067 
L 167.723544 45.107092 
L 167.6637 45.066876 
L 166.658898 44.555749 
L 165.654096 44.543496 
L 164.649294 44.617016 
L 163.890986 44.390118 
L 163.644492 44.181278 
L 163.158364 43.673143 
L 162.63969 43.354602 
L 161.634888 43.188462 
L 160.630086 43.511275 
L 160.378248 43.673143 
L 159.625284 44.388047 
L 159.620862 44.390118 
L 158.620482 44.422482 
L 157.61568 44.407202 
L 156.610878 44.456819 
L 155.606076 44.887916 
L 155.281715 45.107092 
L 154.601275 45.511672 
L 154.175167 45.824067 
L 153.651086 46.541042 
L 153.596473 46.562409 
L 152.591671 46.857138 
L 152.009412 47.258017 
L 151.677981 47.974992 
L 151.732293 48.691966 
L 152.222557 49.408941 
L 152.591671 49.667608 
L 153.596473 50.097676 
L 153.678434 50.125916 
L 153.63225 50.842891 
L 154.036754 51.559866 
L 154.601275 51.928295 
L 155.606076 52.172822 
L 156.610878 52.219027 
L 156.77152 52.27684 
L 157.27111 52.993815 
L 157.61568 53.224129 
z
" clip-path="url(#pd8034f39b4)" style="fill: none; stroke: #ff7f0e; stroke-width: 1.5"/>
   </g>
   <g id="PathCollection_6">
    <path d="M 157.61568 52.812652 
L 158.620482 52.809313 
L 159.625284 52.641851 
L 160.630086 52.648952 
L 161.634888 52.611251 
L 162.585431 52.27684 
L 162.63969 52.275421 
L 163.644492 52.243758 
L 164.649294 52.195569 
L 165.654096 52.008133 
L 166.355676 51.559866 
L 166.658898 51.452833 
L 167.6637 50.953644 
L 167.834911 50.842891 
L 168.668501 50.44668 
L 169.104212 50.125916 
L 169.22728 49.408941 
L 168.668501 48.911419 
L 168.620535 48.691966 
L 168.529045 47.974992 
L 167.6637 47.320146 
L 167.595389 47.258017 
L 167.619111 46.541042 
L 166.772793 45.824067 
L 166.658898 45.748374 
L 165.654096 45.267204 
L 164.649294 45.109289 
L 164.644521 45.107092 
L 163.644492 44.47026 
L 162.63969 44.413962 
L 161.634888 44.415433 
L 160.630086 44.418212 
L 159.625284 44.490667 
L 158.620482 44.869298 
L 157.61568 45.071785 
L 156.610878 44.715273 
L 155.606076 44.801634 
L 155.071357 45.107092 
L 154.601275 45.197394 
L 153.711586 45.824067 
L 153.596473 45.977954 
L 152.856096 46.541042 
L 152.591671 46.703896 
L 151.791484 47.258017 
L 151.709452 47.974992 
L 151.673451 48.691966 
L 151.62127 49.408941 
L 151.595452 50.125916 
L 152.591671 50.793762 
L 153.321633 50.842891 
L 153.596473 50.96472 
L 154.269428 50.842891 
L 154.601275 50.83922 
L 155.606076 50.842812 
L 155.606479 50.842891 
L 155.713087 51.559866 
L 156.610878 52.276625 
L 156.611381 52.27684 
L 157.61568 52.812652 
z
" clip-path="url(#pd8034f39b4)" style="fill: none; stroke: #2ca02c; stroke-width: 1.5"/>
   </g>
   <g id="line2d_8">
    <path d="M 159.695476 49.789301 
" clip-path="url(#pd8034f39b4)" style="fill: none; stroke: #000000; stroke-width: 1.5; stroke-linecap: square"/>
    <g clip-path="url(#pd8034f39b4)">
     <use xlink:href="#mf4dbb4ae44" x="159.695476" y="49.789301" style="stroke: #000000; stroke-width: 2"/>
    </g>
   </g>
  </g>
  <g id="axes_4"/>
  <g id="axes_5">
   <g id="patch_6">
    <path d="M 69.394072 96.585882 
L 118.629366 96.585882 
L 118.629366 61.454118 
L 69.394072 61.454118 
z
" style="fill: #ffffff"/>
   </g>
   <g id="matplotlib.axis_7">
    <g id="xtick_7">
     <g id="line2d_9">
      <g>
       <use xlink:href="#m3e81d50229" x="69.394072" y="101.585882" style="stroke: #000000; stroke-width: 0.5"/>
      </g>
     </g>
     <g id="text_4">
      <text style="font: 7px 'Arial'; text-anchor: middle" x="69.394072" y="112.096351" transform="rotate(-0, 69.394072, 112.096351)">-5</text>
     </g>
    </g>
    <g id="xtick_8">
     <g id="line2d_10">
      <g>
       <use xlink:href="#m3e81d50229" x="118.629366" y="101.585882" style="stroke: #000000; stroke-width: 0.5"/>
      </g>
     </g>
     <g id="text_5">
      <text style="font: 7px 'Arial'; text-anchor: middle" x="118.629366" y="112.096351" transform="rotate(-0, 118.629366, 112.096351)">5</text>
     </g>
    </g>
    <g id="text_6">
     <!-- $\theta_{1}$ -->
     <g transform="translate(89.931719 123.327601)">
      <text>
       <tspan style="font: 8px 'Arial'" x="0" y="-0.171875">θ</tspan>
       <tspan style="font: 5.6px 'Arial'" x="4.588606" y="2.217625">1</tspan>
      </text>
     </g>
    </g>
   </g>
   <g id="matplotlib.axis_8">
    <g id="ytick_7"/>
    <g id="ytick_8"/>
   </g>
   <g id="line2d_11">
    <path d="M 69.394072 93.537258 
L 70.398874 93.537258 
L 71.403676 93.537258 
L 72.408477 93.537258 
L 73.413279 93.537258 
L 74.418081 93.537258 
L 75.422883 93.537258 
L 76.427685 93.537253 
L 77.432487 93.512512 
L 78.437289 92.900308 
L 79.442091 91.750993 
L 80.446893 86.604791 
L 81.451695 79.544973 
L 82.456497 68.015054 
L 83.461299 64.724678 
L 84.466101 71.673646 
L 85.470902 80.78486 
L 86.475704 89.285317 
L 87.480506 92.775168 
L 88.485308 93.381133 
L 89.49011 93.522649 
L 90.494912 93.537255 
L 91.499714 93.537258 
L 92.504516 93.537258 
L 93.509318 93.537258 
L 94.51412 93.537258 
L 95.518922 93.537258 
L 96.523724 93.537258 
L 97.528525 93.537258 
L 98.533327 93.537258 
L 99.538129 93.537258 
L 100.542931 93.537258 
L 101.547733 93.537258 
L 102.552535 93.537258 
L 103.557337 93.537258 
L 104.562139 93.537258 
L 105.566941 93.537258 
L 106.571743 93.537258 
L 107.576545 93.537258 
L 108.581347 93.537258 
L 109.586149 93.537258 
L 110.59095 93.537258 
L 111.595752 93.537258 
L 112.600554 93.537258 
L 113.605356 93.537258 
L 114.610158 93.537258 
L 115.61496 93.537258 
L 116.619762 93.537258 
L 117.624564 93.537258 
L 118.629366 93.537258 
" clip-path="url(#p4b4afc3f8b)" style="fill: none; stroke: #1f77b4; stroke-width: 1.5; stroke-linecap: square"/>
   </g>
   <g id="line2d_12">
    <path d="M 69.394072 93.537258 
L 70.398874 93.537258 
L 71.403676 93.537258 
L 72.408477 93.537258 
L 73.413279 93.537258 
L 74.418081 93.537258 
L 75.422883 93.537258 
L 76.427685 93.537258 
L 77.432487 93.536049 
L 78.437289 93.317606 
L 79.442091 91.238212 
L 80.446893 85.458841 
L 81.451695 77.355669 
L 82.456497 68.029339 
L 83.461299 66.692656 
L 84.466101 72.071277 
L 85.470902 82.34961 
L 86.475704 89.131637 
L 87.480506 92.328604 
L 88.485308 93.251948 
L 89.49011 93.359893 
L 90.494912 93.531145 
L 91.499714 93.537256 
L 92.504516 93.537258 
L 93.509318 93.537258 
L 94.51412 93.537258 
L 95.518922 93.537258 
L 96.523724 93.537258 
L 97.528525 93.537258 
L 98.533327 93.537258 
L 99.538129 93.537258 
L 100.542931 93.537258 
L 101.547733 93.537258 
L 102.552535 93.537258 
L 103.557337 93.537258 
L 104.562139 93.537258 
L 105.566941 93.537258 
L 106.571743 93.537258 
L 107.576545 93.537258 
L 108.581347 93.537258 
L 109.586149 93.537258 
L 110.59095 93.537258 
L 111.595752 93.537258 
L 112.600554 93.537258 
L 113.605356 93.537258 
L 114.610158 93.537258 
L 115.61496 93.537258 
L 116.619762 93.537258 
L 117.624564 93.537258 
L 118.629366 93.537258 
" clip-path="url(#p4b4afc3f8b)" style="fill: none; stroke: #ff7f0e; stroke-width: 1.5; stroke-linecap: square"/>
   </g>
   <g id="line2d_13">
    <path d="M 69.394072 93.537258 
L 70.398874 93.537258 
L 71.403676 93.537258 
L 72.408477 93.537258 
L 73.413279 93.537258 
L 74.418081 93.537258 
L 75.422883 93.537258 
L 76.427685 93.537258 
L 77.432487 93.536737 
L 78.437289 93.384257 
L 79.442091 91.616973 
L 80.446893 87.104108 
L 81.451695 79.068018 
L 82.456497 67.607102 
L 83.461299 64.502742 
L 84.466101 71.961317 
L 85.470902 79.838728 
L 86.475704 89.694615 
L 87.480506 93.144346 
L 88.485308 93.128588 
L 89.49011 93.521122 
L 90.494912 93.537254 
L 91.499714 93.537258 
L 92.504516 93.537258 
L 93.509318 93.537258 
L 94.51412 93.537258 
L 95.518922 93.537258 
L 96.523724 93.537258 
L 97.528525 93.537258 
L 98.533327 93.537258 
L 99.538129 93.537258 
L 100.542931 93.537258 
L 101.547733 93.537258 
L 102.552535 93.537258 
L 103.557337 93.537258 
L 104.562139 93.537258 
L 105.566941 93.537258 
L 106.571743 93.537258 
L 107.576545 93.537258 
L 108.581347 93.537258 
L 109.586149 93.537258 
L 110.59095 93.537258 
L 111.595752 93.537258 
L 112.600554 93.537258 
L 113.605356 93.537258 
L 114.610158 93.537258 
L 115.61496 93.537258 
L 116.619762 93.537258 
L 117.624564 93.537258 
L 118.629366 93.537258 
" clip-path="url(#p4b4afc3f8b)" style="fill: none; stroke: #2ca02c; stroke-width: 1.5; stroke-linecap: square"/>
   </g>
   <g id="line2d_14">
    <path d="M 84.530125 94.988984 
L 84.530125 63.051016 
" clip-path="url(#p4b4afc3f8b)" style="fill: none; stroke: #000000; stroke-linecap: square"/>
   </g>
   <g id="patch_7">
    <path d="M 69.394072 101.585882 
L 118.629366 101.585882 
" style="fill: none; stroke: #000000; stroke-width: 0.7; stroke-linejoin: miter; stroke-linecap: square"/>
   </g>
  </g>
  <g id="axes_6">
   <g id="patch_8">
    <path d="M 128.476425 96.585882 
L 177.711719 96.585882 
L 177.711719 61.454118 
L 128.476425 61.454118 
z
" style="fill: #ffffff"/>
   </g>
   <g id="matplotlib.axis_9">
    <g id="xtick_9"/>
    <g id="xtick_10"/>
   </g>
   <g id="matplotlib.axis_10">
    <g id="ytick_9"/>
    <g id="ytick_10"/>
   </g>
   <g id="PathCollection_7">
    <path d="M 165.654096 91.368152 
L 166.658898 91.306693 
L 167.330573 90.850084 
L 167.6637 90.73369 
L 168.668501 90.784061 
L 169.649965 90.133109 
L 169.513435 89.416134 
L 169.673303 89.147627 
L 170.310871 88.69916 
L 169.673303 88.203695 
L 169.575187 87.982185 
L 168.668501 87.359137 
L 167.6637 87.265291 
L 167.663617 87.26521 
L 166.658898 86.553452 
L 166.651616 86.548235 
L 165.654096 85.840719 
L 165.643078 85.831261 
L 164.649294 85.13238 
L 164.604407 85.114286 
L 163.644492 84.437385 
L 163.553949 84.397311 
L 162.63969 83.759507 
L 161.971275 83.680336 
L 161.634888 83.442275 
L 160.630086 83.027147 
L 159.625284 82.985868 
L 159.322606 82.963361 
L 158.620482 82.654857 
L 157.61568 82.393125 
L 156.760541 82.246387 
L 156.610878 82.141326 
L 155.606076 81.862565 
L 155.041658 82.246387 
L 154.601275 82.41361 
L 153.818026 82.963361 
L 153.596473 83.347852 
L 153.146756 83.680336 
L 152.855367 84.397311 
L 153.596473 84.979524 
L 153.63589 85.114286 
L 154.601275 85.809868 
L 154.632923 85.831261 
L 155.025581 86.548235 
L 155.606076 86.963462 
L 155.850678 87.26521 
L 156.610878 87.862452 
L 157.321208 87.982185 
L 156.826618 88.69916 
L 157.61568 89.257239 
L 158.620482 89.409849 
L 158.740955 89.416134 
L 159.625284 89.635806 
L 160.049509 89.416134 
L 160.630086 89.394787 
L 160.683688 89.416134 
L 161.634888 90.07214 
L 162.63969 90.128193 
L 162.670664 90.133109 
L 163.644492 90.76963 
L 164.649294 90.844115 
L 164.733402 90.850084 
L 165.654096 91.368152 
z
" clip-path="url(#p1ce44882a5)" style="fill: none; stroke: #1f77b4; stroke-width: 1.5"/>
   </g>
   <g id="PathCollection_8">
    <path d="M 162.63969 90.443044 
L 163.644492 90.81153 
L 164.649294 90.822352 
L 165.654096 90.714596 
L 166.658898 90.739357 
L 167.6637 90.704533 
L 168.557136 90.133109 
L 168.668501 90.117173 
L 169.368549 90.133109 
L 169.673303 90.249361 
L 169.895565 90.133109 
L 170.367158 89.416134 
L 169.673303 88.922707 
L 169.371749 88.69916 
L 168.668501 88.197035 
L 168.466702 87.982185 
L 167.6637 87.40959 
L 167.338225 87.26521 
L 166.658898 86.721938 
L 166.568385 86.548235 
L 165.654096 85.832108 
L 165.653693 85.831261 
L 164.649294 85.144147 
L 164.462776 85.114286 
L 163.644492 84.548458 
L 162.63969 84.429947 
L 161.791291 84.397311 
L 161.634888 84.292077 
L 160.630086 83.712673 
L 159.625284 83.683619 
L 159.554143 83.680336 
L 158.620482 83.079998 
L 157.61568 83.033188 
L 156.610878 82.964235 
L 156.607569 82.963361 
L 155.606076 82.271782 
L 155.546311 82.246387 
L 154.601275 81.595574 
L 153.596473 81.535002 
L 153.435817 81.529412 
L 152.591671 81.304754 
L 152.25509 81.529412 
L 152.591671 82.217948 
L 152.593381 82.246387 
L 152.591671 82.249543 
L 151.74774 82.963361 
L 151.833327 83.680336 
L 152.591671 84.236233 
L 152.66939 84.397311 
L 153.596473 85.067837 
L 153.632257 85.114286 
L 154.601275 85.82546 
L 154.605362 85.831261 
L 155.606076 86.534325 
L 155.648244 86.548235 
L 156.610878 87.226417 
L 156.715526 87.26521 
L 157.61568 87.909026 
L 157.742094 87.982185 
L 158.620482 88.605349 
L 158.889333 88.69916 
L 159.625284 89.220472 
L 160.630086 89.400198 
L 160.687777 89.416134 
L 161.634888 90.07785 
L 162.20156 90.133109 
L 162.63969 90.443044 
z
" clip-path="url(#p1ce44882a5)" style="fill: none; stroke: #ff7f0e; stroke-width: 1.5"/>
   </g>
   <g id="PathCollection_9">
    <path d="M 163.644492 90.180552 
L 164.649294 90.727088 
L 165.654096 90.798393 
L 166.658898 90.808044 
L 167.6637 90.682689 
L 168.488809 90.133109 
L 168.645771 89.416134 
L 168.668501 89.27906 
L 169.236776 88.69916 
L 168.668501 88.289966 
L 168.369242 87.982185 
L 167.735544 87.26521 
L 167.6637 87.212868 
L 167.441945 86.548235 
L 166.658898 85.99243 
L 165.953392 85.831261 
L 165.654096 85.618495 
L 164.649294 85.131616 
L 164.572412 85.114286 
L 163.644492 84.477189 
L 163.069829 84.397311 
L 162.63969 84.092552 
L 161.634888 83.682198 
L 161.629739 83.680336 
L 160.630086 83.036846 
L 159.625284 83.027241 
L 158.620482 83.016244 
L 157.61568 82.989702 
L 157.159594 82.963361 
L 156.610878 82.633194 
L 155.606076 82.292309 
L 154.980092 82.246387 
L 154.601275 81.99388 
L 153.596473 81.955856 
L 152.591671 81.890024 
L 151.588477 82.246387 
L 151.694453 82.963361 
L 151.729109 83.680336 
L 151.822044 84.397311 
L 151.727584 85.114286 
L 152.591671 85.723106 
L 152.808852 85.831261 
L 153.596473 86.379532 
L 154.601275 86.514687 
L 154.649682 86.548235 
L 155.606076 87.218947 
L 155.766511 87.26521 
L 156.610878 87.873302 
L 156.717213 87.982185 
L 157.61568 88.620366 
L 157.782671 88.69916 
L 158.620482 89.288794 
L 159.625284 89.401937 
L 159.951532 89.416134 
L 160.630086 89.809751 
L 161.634888 89.975144 
L 162.63969 90.101351 
L 163.575232 90.133109 
L 163.644492 90.180552 
z
" clip-path="url(#p1ce44882a5)" style="fill: none; stroke: #2ca02c; stroke-width: 1.5"/>
   </g>
   <g id="line2d_15">
    <path d="M 159.695476 85.785576 
" clip-path="url(#p1ce44882a5)" style="fill: none; stroke: #000000; stroke-width: 1.5; stroke-linecap: square"/>
    <g clip-path="url(#p1ce44882a5)">
     <use xlink:href="#mf4dbb4ae44" x="159.695476" y="85.785576" style="stroke: #000000; stroke-width: 2"/>
    </g>
   </g>
  </g>
  <g id="axes_7"/>
  <g id="axes_8"/>
  <g id="axes_9">
   <g id="patch_9">
    <path d="M 128.476425 138.744 
L 177.711719 138.744 
L 177.711719 103.612235 
L 128.476425 103.612235 
z
" style="fill: #ffffff"/>
   </g>
   <g id="matplotlib.axis_11">
    <g id="xtick_11">
     <g id="line2d_16">
      <g>
       <use xlink:href="#m3e81d50229" x="128.476425" y="143.744" style="stroke: #000000; stroke-width: 0.5"/>
      </g>
     </g>
     <g id="text_7">
      <text style="font: 7px 'Arial'; text-anchor: middle" x="128.476425" y="154.254469" transform="rotate(-0, 128.476425, 154.254469)">-5</text>
     </g>
    </g>
    <g id="xtick_12">
     <g id="line2d_17">
      <g>
       <use xlink:href="#m3e81d50229" x="177.711719" y="143.744" style="stroke: #000000; stroke-width: 0.5"/>
      </g>
     </g>
     <g id="text_8">
      <text style="font: 7px 'Arial'; text-anchor: middle" x="177.711719" y="154.254469" transform="rotate(-0, 177.711719, 154.254469)">5</text>
     </g>
    </g>
    <g id="text_9">
     <!-- $\theta_{2}$ -->
     <g transform="translate(149.014072 165.485719)">
      <text>
       <tspan style="font: 8px 'Arial'" x="0" y="-0.171875">θ</tspan>
       <tspan style="font: 5.6px 'Arial'" x="4.588606" y="2.217625">2</tspan>
      </text>
     </g>
    </g>
   </g>
   <g id="matplotlib.axis_12">
    <g id="ytick_11"/>
    <g id="ytick_12"/>
   </g>
   <g id="line2d_18">
    <path d="M 128.476425 135.695376 
L 129.481227 135.695376 
L 130.486028 135.695376 
L 131.49083 135.695376 
L 132.495632 135.695376 
L 133.500434 135.695376 
L 134.505236 135.695376 
L 135.510038 135.695376 
L 136.51484 135.695376 
L 137.519642 135.695376 
L 138.524444 135.695376 
L 139.529246 135.695376 
L 140.534048 135.695376 
L 141.53885 135.695376 
L 142.543652 135.695376 
L 143.548453 135.695376 
L 144.553255 135.695376 
L 145.558057 135.695376 
L 146.562859 135.695376 
L 147.567661 135.695376 
L 148.572463 135.695376 
L 149.577265 135.695376 
L 150.582067 135.695376 
L 151.586869 135.695376 
L 152.591671 135.695296 
L 153.596473 135.669863 
L 154.601275 135.195064 
L 155.606076 134.064136 
L 156.610878 131.911823 
L 157.61568 128.220448 
L 158.620482 121.614671 
L 159.625284 113.180427 
L 160.630086 106.66086 
L 161.634888 107.929895 
L 162.63969 112.617058 
L 163.644492 120.67405 
L 164.649294 126.394198 
L 165.654096 131.190018 
L 166.658898 133.91207 
L 167.6637 135.058077 
L 168.668501 135.451138 
L 169.673303 135.675937 
L 170.678105 135.695269 
L 171.682907 135.695376 
L 172.687709 135.695376 
L 173.692511 135.695376 
L 174.697313 135.695376 
L 175.702115 135.695376 
L 176.706917 135.695376 
L 177.711719 135.695376 
" clip-path="url(#pe627f46db2)" style="fill: none; stroke: #1f77b4; stroke-width: 1.5; stroke-linecap: square"/>
   </g>
   <g id="line2d_19">
    <path d="M 128.476425 135.695376 
L 129.481227 135.695376 
L 130.486028 135.695376 
L 131.49083 135.695376 
L 132.495632 135.695376 
L 133.500434 135.695376 
L 134.505236 135.695376 
L 135.510038 135.695376 
L 136.51484 135.695376 
L 137.519642 135.695376 
L 138.524444 135.695376 
L 139.529246 135.695376 
L 140.534048 135.695376 
L 141.53885 135.695376 
L 142.543652 135.695376 
L 143.548453 135.695376 
L 144.553255 135.695376 
L 145.558057 135.695376 
L 146.562859 135.695376 
L 147.567661 135.695376 
L 148.572463 135.695376 
L 149.577265 135.695376 
L 150.582067 135.695375 
L 151.586869 135.694708 
L 152.591671 135.646561 
L 153.596473 135.154481 
L 154.601275 134.344877 
L 155.606076 132.588445 
L 156.610878 129.880322 
L 157.61568 127.212122 
L 158.620482 123.563522 
L 159.625284 117.10446 
L 160.630086 109.761001 
L 161.634888 108.804478 
L 162.63969 111.570879 
L 163.644492 117.556854 
L 164.649294 126.584839 
L 165.654096 131.533766 
L 166.658898 133.546296 
L 167.6637 135.111303 
L 168.668501 135.513488 
L 169.673303 135.670799 
L 170.678105 135.694911 
L 171.682907 135.695375 
L 172.687709 135.695376 
L 173.692511 135.695376 
L 174.697313 135.695376 
L 175.702115 135.695376 
L 176.706917 135.695376 
L 177.711719 135.695376 
" clip-path="url(#pe627f46db2)" style="fill: none; stroke: #ff7f0e; stroke-width: 1.5; stroke-linecap: square"/>
   </g>
   <g id="line2d_20">
    <path d="M 128.476425 135.695376 
L 129.481227 135.695376 
L 130.486028 135.695376 
L 131.49083 135.695376 
L 132.495632 135.695376 
L 133.500434 135.695376 
L 134.505236 135.695376 
L 135.510038 135.695376 
L 136.51484 135.695376 
L 137.519642 135.695376 
L 138.524444 135.695376 
L 139.529246 135.695376 
L 140.534048 135.695376 
L 141.53885 135.695376 
L 142.543652 135.695376 
L 143.548453 135.695376 
L 144.553255 135.695376 
L 145.558057 135.695376 
L 146.562859 135.695376 
L 147.567661 135.695376 
L 148.572463 135.695376 
L 149.577265 135.695376 
L 150.582067 135.695356 
L 151.586869 135.690462 
L 152.591671 135.545596 
L 153.596473 135.051167 
L 154.601275 134.719061 
L 155.606076 133.316352 
L 156.610878 129.809363 
L 157.61568 126.601866 
L 158.620482 120.507709 
L 159.625284 113.333167 
L 160.630086 109.446071 
L 161.634888 110.778212 
L 162.63969 113.764436 
L 163.644492 119.674074 
L 164.649294 126.64047 
L 165.654096 130.808532 
L 166.658898 134.282237 
L 167.6637 135.493771 
L 168.668501 135.684901 
L 169.673303 135.69529 
L 170.678105 135.695376 
L 171.682907 135.695376 
L 172.687709 135.695376 
L 173.692511 135.695376 
L 174.697313 135.695376 
L 175.702115 135.695376 
L 176.706917 135.695376 
L 177.711719 135.695376 
" clip-path="url(#pe627f46db2)" style="fill: none; stroke: #2ca02c; stroke-width: 1.5; stroke-linecap: square"/>
   </g>
   <g id="line2d_21">
    <path d="M 159.695476 137.147102 
L 159.695476 105.209134 
" clip-path="url(#pe627f46db2)" style="fill: none; stroke: #000000; stroke-linecap: square"/>
   </g>
   <g id="patch_10">
    <path d="M 128.476425 143.744 
L 177.711719 143.744 
" style="fill: none; stroke: #000000; stroke-width: 0.7; stroke-linejoin: miter; stroke-linecap: square"/>
   </g>
  </g>
  <g id="text_10">
   <!-- $p(\theta \mid x_0, x_1, x_2)$ -->
   <g transform="translate(63.681719 13.77)">
    <text>
     <tspan style="font: 9px 'Arial'" x="0 5.005371 8.002441 18.400638 27.00924 31.009142 39.617744 43.617646 52.226248" y="-0.453125">p(θx,x,x)</tspan>
     <tspan style="font: 9px 'STIXGeneral'" x="14.507227" y="-0.453125">∣</tspan>
     <tspan style="font: 6.3px 'Arial'" x="23.057449 35.665953 48.274457" y="2.2350624999999997">012</tspan>
    </text>
   </g>
  </g>
 </g>
 <defs>
  <clipPath id="p96e7e8fe13">
   <rect x="10.311719" y="19.296" width="49.235294" height="35.131765"/>
  </clipPath>
  <clipPath id="pc97934805f">
   <rect x="69.394072" y="19.296" width="49.235294" height="35.131765"/>
  </clipPath>
  <clipPath id="pd8034f39b4">
   <rect x="128.476425" y="19.296" width="49.235294" height="35.131765"/>
  </clipPath>
  <clipPath id="p4b4afc3f8b">
   <rect x="69.394072" y="61.454118" width="49.235294" height="35.131765"/>
  </clipPath>
  <clipPath id="p1ce44882a5">
   <rect x="128.476425" y="61.454118" width="49.235294" height="35.131765"/>
  </clipPath>
  <clipPath id="pe627f46db2">
   <rect x="128.476425" y="103.612235" width="49.235294" height="35.131765"/>
  </clipPath>
 </defs>
</svg>
