<?xml version="1.0" encoding="utf-8" standalone="no"?>
<!DOCTYPE svg PUBLIC "-//W3C//DTD SVG 1.1//EN"
  "http://www.w3.org/Graphics/SVG/1.1/DTD/svg11.dtd">
<svg xmlns:xlink="http://www.w3.org/1999/xlink" width="186.858047pt" height="175.085719pt" viewBox="0 0 186.858047 175.085719" xmlns="http://www.w3.org/2000/svg" version="1.1">
 <metadata>
  <rdf:RDF xmlns:dc="http://purl.org/dc/elements/1.1/" xmlns:cc="http://creativecommons.org/ns#" xmlns:rdf="http://www.w3.org/1999/02/22-rdf-syntax-ns#">
   <cc:Work>
    <dc:type rdf:resource="http://purl.org/dc/dcmitype/StillImage"/>
    <dc:date>2022-05-18T17:56:07.243346</dc:date>
    <dc:format>image/svg+xml</dc:format>
    <dc:creator>
     <cc:Agent>
      <dc:title>Matplotlib v3.5.1, https://matplotlib.org/</dc:title>
     </cc:Agent>
    </dc:creator>
   </cc:Work>
  </rdf:RDF>
 </metadata>
 <defs>
  <style type="text/css">*{stroke-linejoin: round; stroke-linecap: butt}</style>
 </defs>
 <g id="figure_1">
  <g id="patch_1">
   <path d="M 0 175.085719 
L 186.858047 175.085719 
L 186.858047 0 
L 0 0 
L 0 175.085719 
z
" style="fill: none"/>
  </g>
  <g id="axes_1">
   <g id="patch_2">
    <path d="M 10.311719 54.427765 
L 59.547013 54.427765 
L 59.547013 19.296 
L 10.311719 19.296 
z
" style="fill: #ffffff"/>
   </g>
   <g id="matplotlib.axis_1">
    <g id="xtick_1">
     <g id="line2d_1">
      <defs>
       <path id="m8de7cf59ff" d="M 0 0 
L 0 2 
" style="stroke: #000000; stroke-width: 0.5"/>
      </defs>
      <g>
       <use xlink:href="#m8de7cf59ff" x="10.311719" y="59.427765" style="stroke: #000000; stroke-width: 0.5"/>
      </g>
     </g>
     <g id="text_1">
      <text style="font: 7px 'Arial'; text-anchor: middle" x="10.311719" y="69.938233" transform="rotate(-0, 10.311719, 69.938233)">-5</text>
     </g>
    </g>
    <g id="xtick_2">
     <g id="line2d_2">
      <g>
       <use xlink:href="#m8de7cf59ff" x="59.547013" y="59.427765" style="stroke: #000000; stroke-width: 0.5"/>
      </g>
     </g>
     <g id="text_2">
      <text style="font: 7px 'Arial'; text-anchor: middle" x="59.547013" y="69.938233" transform="rotate(-0, 59.547013, 69.938233)">5</text>
     </g>
    </g>
    <g id="text_3">
     <!-- $\theta_{0}$ -->
     <g transform="translate(30.849366 81.169483)">
      <text>
       <tspan style="font: 8px 'Arial'" x="0" y="-0.171875">θ</tspan>
       <tspan style="font: 5.6px 'Arial'" x="4.588606" y="2.217625">0</tspan>
      </text>
     </g>
    </g>
   </g>
   <g id="matplotlib.axis_2">
    <g id="ytick_1"/>
    <g id="ytick_2"/>
   </g>
   <g id="line2d_3">
    <path d="M 10.311719 51.37914 
L 11.316521 51.37914 
L 12.321323 51.377529 
L 13.326125 51.126968 
L 14.330926 50.355785 
L 15.335728 48.400313 
L 16.34053 42.827286 
L 17.345332 34.104548 
L 18.350134 26.49604 
L 19.354936 24.080562 
L 20.359738 35.574051 
L 21.36454 44.239939 
L 22.369342 49.36122 
L 23.374144 50.849189 
L 24.378946 51.311363 
L 25.383748 51.379063 
L 26.388549 51.37914 
L 27.393351 51.37914 
L 28.398153 51.37914 
L 29.402955 51.37914 
L 30.407757 51.37914 
L 31.412559 51.37914 
L 32.417361 51.37914 
L 33.422163 51.37914 
L 34.426965 51.37914 
L 35.431767 51.37914 
L 36.436569 51.37914 
L 37.441371 51.37914 
L 38.446173 51.37914 
L 39.450974 51.37914 
L 40.455776 51.37914 
L 41.460578 51.37914 
L 42.46538 51.37914 
L 43.470182 51.37914 
L 44.474984 51.37914 
L 45.479786 51.37914 
L 46.484588 51.37914 
L 47.48939 51.37914 
L 48.494192 51.37914 
L 49.498994 51.37914 
L 50.503796 51.37914 
L 51.508598 51.37914 
L 52.513399 51.37914 
L 53.518201 51.37914 
L 54.523003 51.37914 
L 55.527805 51.37914 
L 56.532607 51.37914 
L 57.537409 51.37914 
L 58.542211 51.37914 
L 59.547013 51.37914 
" clip-path="url(#p085df47acd)" style="fill: none; stroke: #1f77b4; stroke-width: 1.5; stroke-linecap: square"/>
   </g>
   <g id="line2d_4">
    <path d="M 10.311719 51.37914 
L 11.316521 51.37914 
L 12.321323 51.37914 
L 13.326125 51.377125 
L 14.330926 51.019817 
L 15.335728 49.078324 
L 16.34053 43.411821 
L 17.345332 35.788061 
L 18.350134 27.121013 
L 19.354936 22.344624 
L 20.359738 33.035536 
L 21.36454 44.219148 
L 22.369342 49.199188 
L 23.374144 50.842022 
L 24.378946 51.312545 
L 25.383748 51.379021 
L 26.388549 51.37914 
L 27.393351 51.37914 
L 28.398153 51.37914 
L 29.402955 51.37914 
L 30.407757 51.37914 
L 31.412559 51.37914 
L 32.417361 51.37914 
L 33.422163 51.37914 
L 34.426965 51.37914 
L 35.431767 51.37914 
L 36.436569 51.37914 
L 37.441371 51.37914 
L 38.446173 51.37914 
L 39.450974 51.37914 
L 40.455776 51.37914 
L 41.460578 51.37914 
L 42.46538 51.37914 
L 43.470182 51.37914 
L 44.474984 51.37914 
L 45.479786 51.37914 
L 46.484588 51.37914 
L 47.48939 51.37914 
L 48.494192 51.37914 
L 49.498994 51.37914 
L 50.503796 51.37914 
L 51.508598 51.37914 
L 52.513399 51.37914 
L 53.518201 51.37914 
L 54.523003 51.37914 
L 55.527805 51.37914 
L 56.532607 51.37914 
L 57.537409 51.37914 
L 58.542211 51.37914 
L 59.547013 51.37914 
" clip-path="url(#p085df47acd)" style="fill: none; stroke: #ff7f0e; stroke-width: 1.5; stroke-linecap: square"/>
   </g>
   <g id="line2d_5">
    <path d="M 10.311719 51.37914 
L 11.316521 51.379007 
L 12.321323 51.334052 
L 13.326125 51.161665 
L 14.330926 50.399036 
L 15.335728 46.812119 
L 16.34053 39.773243 
L 17.345332 32.801779 
L 18.350134 27.12695 
L 19.354936 26.840458 
L 20.359738 36.690685 
L 21.36454 45.681431 
L 22.369342 49.616483 
L 23.374144 50.654283 
L 24.378946 51.298622 
L 25.383748 51.379005 
L 26.388549 51.37914 
L 27.393351 51.37914 
L 28.398153 51.37914 
L 29.402955 51.37914 
L 30.407757 51.37914 
L 31.412559 51.37914 
L 32.417361 51.37914 
L 33.422163 51.37914 
L 34.426965 51.37914 
L 35.431767 51.37914 
L 36.436569 51.37914 
L 37.441371 51.37914 
L 38.446173 51.37914 
L 39.450974 51.37914 
L 40.455776 51.37914 
L 41.460578 51.37914 
L 42.46538 51.37914 
L 43.470182 51.37914 
L 44.474984 51.37914 
L 45.479786 51.37914 
L 46.484588 51.37914 
L 47.48939 51.37914 
L 48.494192 51.37914 
L 49.498994 51.37914 
L 50.503796 51.37914 
L 51.508598 51.37914 
L 52.513399 51.37914 
L 53.518201 51.37914 
L 54.523003 51.37914 
L 55.527805 51.37914 
L 56.532607 51.37914 
L 57.537409 51.37914 
L 58.542211 51.37914 
L 59.547013 51.37914 
" clip-path="url(#p085df47acd)" style="fill: none; stroke: #2ca02c; stroke-width: 1.5; stroke-linecap: square"/>
   </g>
   <g id="line2d_6">
    <path d="M 16.812279 52.830866 
L 16.812279 20.892898 
" clip-path="url(#p085df47acd)" style="fill: none; stroke: #000000; stroke-linecap: square"/>
   </g>
   <g id="patch_3">
    <path d="M 10.311719 59.427765 
L 59.547013 59.427765 
" style="fill: none; stroke: #000000; stroke-width: 0.7; stroke-linejoin: miter; stroke-linecap: square"/>
   </g>
  </g>
  <g id="axes_2">
   <g id="patch_4">
    <path d="M 69.394072 54.427765 
L 118.629366 54.427765 
L 118.629366 19.296 
L 69.394072 19.296 
z
" style="fill: #ffffff"/>
   </g>
   <g id="matplotlib.axis_3">
    <g id="xtick_3"/>
    <g id="xtick_4"/>
   </g>
   <g id="matplotlib.axis_4">
    <g id="ytick_3"/>
    <g id="ytick_4"/>
   </g>
   <g id="PathCollection_1">
    <path d="M 80.446893 52.821336 
L 81.451695 52.846296 
L 82.450368 52.27684 
L 82.456497 52.276289 
L 82.464234 52.27684 
L 83.461299 52.84151 
L 84.466101 52.985142 
L 85.470902 52.944746 
L 86.475704 52.409609 
L 86.662488 52.27684 
L 87.480506 51.740454 
L 87.730404 51.559866 
L 88.415846 50.842891 
L 88.485308 50.828242 
L 89.49011 50.414566 
L 89.883708 50.125916 
L 90.222282 49.408941 
L 89.540788 48.691966 
L 89.49011 48.651095 
L 89.389033 47.974992 
L 88.932702 47.258017 
L 88.485308 46.901032 
L 88.428972 46.541042 
L 87.875372 45.824067 
L 87.480506 45.541277 
L 87.244922 45.107092 
L 86.475704 44.456011 
L 86.393204 44.390118 
L 85.470902 43.825851 
L 84.466101 44.121778 
L 83.461299 43.901091 
L 82.456497 43.788949 
L 81.594073 44.390118 
L 81.451695 44.487552 
L 80.527257 45.107092 
L 80.446893 45.133637 
L 79.497778 45.824067 
L 79.442091 45.861227 
L 78.441206 46.541042 
L 78.437289 46.553622 
L 77.706814 47.258017 
L 77.708502 47.974992 
L 77.691656 48.691966 
L 77.523629 49.408941 
L 77.737034 50.125916 
L 78.437289 50.631652 
L 78.612245 50.842891 
L 78.594449 51.559866 
L 79.442091 52.199344 
L 79.60942 52.27684 
L 80.446893 52.821336 
z
" clip-path="url(#p31f8dfbe59)" style="fill: none; stroke: #1f77b4; stroke-width: 1.5"/>
   </g>
   <g id="PathCollection_2">
    <path d="M 79.442091 52.166016 
L 80.446893 52.226649 
L 81.451695 52.214667 
L 82.456497 52.179443 
L 83.461299 52.123107 
L 84.466101 52.265026 
L 85.470902 52.210677 
L 86.380496 51.559866 
L 86.475704 51.484155 
L 87.480506 50.980106 
L 87.927483 50.842891 
L 88.485308 50.828978 
L 89.49011 50.543066 
L 90.070882 50.125916 
L 90.470175 49.408941 
L 90.322141 48.691966 
L 89.532306 47.974992 
L 89.49011 47.931983 
L 89.358196 47.258017 
L 88.485308 46.65746 
L 88.362095 46.541042 
L 87.753918 45.824067 
L 87.480506 45.543451 
L 87.384007 45.107092 
L 86.475704 44.491498 
L 85.470902 44.484899 
L 84.466101 44.461162 
L 84.164432 44.390118 
L 83.461299 43.918717 
L 82.456497 43.752341 
L 81.451695 44.014872 
L 80.92008 44.390118 
L 80.446893 44.571667 
L 79.442091 44.703716 
L 78.85807 45.107092 
L 78.449851 45.824067 
L 78.437289 46.069363 
L 78.146737 46.541042 
L 77.666561 47.258017 
L 77.432487 47.413692 
L 76.611483 47.974992 
L 76.45795 48.691966 
L 77.432487 49.399489 
L 77.451974 49.408941 
L 77.546687 50.125916 
L 77.738087 50.842891 
L 78.437289 51.378032 
L 78.571163 51.559866 
L 79.442091 52.166016 
z
" clip-path="url(#p31f8dfbe59)" style="fill: none; stroke: #ff7f0e; stroke-width: 1.5"/>
   </g>
   <g id="PathCollection_3">
    <path d="M 81.451695 53.265667 
L 82.456497 53.624315 
L 83.461299 53.35321 
L 83.980346 52.993815 
L 84.466101 52.853358 
L 85.30645 52.27684 
L 85.470902 52.204939 
L 86.475704 51.825497 
L 87.295754 51.559866 
L 87.480506 51.555222 
L 88.485308 51.287898 
L 89.101737 50.842891 
L 89.424423 50.125916 
L 89.441536 49.408941 
L 89.49011 49.332624 
L 90.326403 48.691966 
L 90.340525 47.974992 
L 89.499608 47.258017 
L 89.49011 47.251167 
L 88.485308 46.559791 
L 88.476246 46.541042 
L 88.413258 45.824067 
L 87.480506 45.135947 
L 87.443012 45.107092 
L 87.024529 44.390118 
L 86.475704 44.010144 
L 85.470902 43.903279 
L 84.466101 43.962885 
L 83.461299 43.728696 
L 82.456497 43.866069 
L 81.451695 44.150237 
L 81.03223 44.390118 
L 80.446893 44.517088 
L 79.640397 45.107092 
L 79.442091 45.211336 
L 78.437289 45.187093 
L 77.475318 45.824067 
L 77.432487 45.916393 
L 76.735971 46.541042 
L 76.427685 46.980377 
L 76.072939 47.258017 
L 76.427685 47.842351 
L 76.446217 47.974992 
L 77.432487 48.665641 
L 77.451433 48.691966 
L 77.554446 49.408941 
L 77.83746 50.125916 
L 78.437289 50.611469 
L 78.607247 50.842891 
L 79.442091 51.416958 
L 79.583841 51.559866 
L 80.446893 52.175157 
L 80.647116 52.27684 
L 81.074935 52.993815 
L 81.451695 53.265667 
z
" clip-path="url(#p31f8dfbe59)" style="fill: none; stroke: #2ca02c; stroke-width: 1.5"/>
   </g>
   <g id="line2d_7">
    <path d="M 84.530125 49.789301 
" clip-path="url(#p31f8dfbe59)" style="fill: none; stroke: #000000; stroke-width: 1.5; stroke-linecap: square"/>
    <defs>
     <path id="m3be395de6c" d="M -2.5 2.5 
L 2.5 -2.5 
M -2.5 -2.5 
L 2.5 2.5 
" style="stroke: #000000; stroke-width: 2"/>
    </defs>
    <g clip-path="url(#p31f8dfbe59)">
     <use xlink:href="#m3be395de6c" x="84.530125" y="49.789301" style="stroke: #000000; stroke-width: 2"/>
    </g>
   </g>
  </g>
  <g id="axes_3">
   <g id="patch_5">
    <path d="M 128.476425 54.427765 
L 177.711719 54.427765 
L 177.711719 19.296 
L 128.476425 19.296 
z
" style="fill: #ffffff"/>
   </g>
   <g id="matplotlib.axis_5">
    <g id="xtick_5"/>
    <g id="xtick_6"/>
   </g>
   <g id="matplotlib.axis_6">
    <g id="ytick_5"/>
    <g id="ytick_6"/>
   </g>
   <g id="PathCollection_4">
    <path d="M 128.476425 52.973521 
L 129.481227 52.977359 
L 130.486028 52.978116 
L 131.49083 52.97587 
L 132.495632 52.970294 
L 133.500434 52.960643 
L 134.505236 52.945722 
L 135.510038 52.92392 
L 136.51484 52.893531 
L 137.519642 52.853676 
L 138.524444 52.805965 
L 139.529246 52.756097 
L 140.534048 52.71339 
L 141.53885 52.687409 
L 142.543652 52.684186 
L 143.548453 52.704397 
L 144.553255 52.742983 
L 145.558057 52.790519 
L 146.562859 52.837211 
L 147.567661 52.876819 
L 148.572463 52.90741 
L 149.577265 52.929736 
L 150.582067 52.945476 
L 151.586869 52.956274 
L 152.591671 52.963413 
L 153.596473 52.967794 
L 154.601275 52.969998 
L 155.606076 52.970362 
L 156.610878 52.969031 
L 157.61568 52.965986 
L 158.620482 52.961051 
L 159.625284 52.953887 
L 160.630086 52.944006 
L 161.634888 52.930832 
L 162.63969 52.913943 
L 163.644492 52.893654 
L 164.649294 52.872005 
L 165.654096 52.853446 
L 166.658898 52.843467 
L 167.6637 52.844793 
L 168.668501 52.855134 
L 169.673303 52.869482 
L 170.678105 52.883574 
L 171.682907 52.895111 
L 172.687709 52.903248 
L 173.692511 52.907793 
L 174.697313 52.908676 
L 175.702115 52.905644 
L 176.706917 52.898058 
L 177.711719 52.884669 
" clip-path="url(#pc7e84be6e6)" style="fill: none; stroke: #1f77b4; stroke-width: 1.5"/>
    <path d="M 177.711719 44.245896 
L 176.706917 44.202131 
L 175.702115 44.177733 
L 174.697313 44.167404 
L 173.692511 44.166617 
L 172.687709 44.170597 
L 171.682907 44.173651 
L 170.678105 44.169272 
L 169.673303 44.151611 
L 168.668501 44.118163 
L 167.6637 44.071741 
L 166.658898 44.01936 
L 165.654096 43.968606 
L 164.649294 43.924625 
L 163.644492 43.889485 
L 162.63969 43.863101 
L 161.634888 43.844352 
L 160.630086 43.831778 
L 159.625284 43.823823 
L 158.620482 43.818807 
L 157.61568 43.814844 
L 156.610878 43.809981 
L 155.606076 43.802754 
L 154.601275 43.792895 
L 153.596473 43.781478 
L 152.591671 43.770229 
L 151.586869 43.760637 
L 150.582067 43.753582 
L 149.577265 43.749442 
L 148.572463 43.748367 
L 147.567661 43.75052 
L 146.562859 43.756222 
L 145.558057 43.766059 
L 144.553255 43.78098 
L 143.548453 43.80241 
L 142.543652 43.832426 
L 141.53885 43.874031 
L 140.534048 43.931602 
L 139.529246 44.011655 
L 138.524444 44.124062 
L 137.519642 44.283931 
L 136.97689 44.390118 
L 136.51484 44.397997 
L 135.510038 44.412711 
L 134.505236 44.425368 
L 133.500434 44.435751 
L 132.495632 44.444162 
L 131.49083 44.45144 
L 130.486028 44.458765 
L 129.481227 44.467495 
L 128.476425 44.479183 
" clip-path="url(#pc7e84be6e6)" style="fill: none; stroke: #1f77b4; stroke-width: 1.5"/>
   </g>
   <g id="PathCollection_5">
    <path d="M 128.476425 52.134767 
L 129.481227 52.181773 
L 130.486028 52.212753 
L 131.49083 52.233621 
L 132.495632 52.247906 
L 133.500434 52.257754 
L 134.505236 52.264487 
L 135.510038 52.268922 
L 136.51484 52.271562 
L 137.519642 52.272704 
L 138.524444 52.272511 
L 139.529246 52.271064 
L 140.534048 52.268393 
L 141.53885 52.264521 
L 142.543652 52.259499 
L 143.548453 52.253434 
L 144.553255 52.246506 
L 145.558057 52.238949 
L 146.562859 52.230991 
L 147.567661 52.222782 
L 148.572463 52.214335 
L 149.577265 52.205539 
L 150.582067 52.196258 
L 151.586869 52.186531 
L 152.591671 52.176881 
L 153.596473 52.168636 
L 154.601275 52.163947 
L 155.606076 52.16499 
L 156.610878 52.172459 
L 157.61568 52.18476 
L 158.620482 52.198994 
L 159.625284 52.212636 
L 160.630086 52.224322 
L 161.634888 52.23367 
L 162.63969 52.240819 
L 163.644492 52.246083 
L 164.649294 52.249785 
L 165.654096 52.252187 
L 166.658898 52.253485 
L 167.6637 52.253816 
L 168.668501 52.253269 
L 169.673303 52.251905 
L 170.678105 52.249768 
L 171.682907 52.246891 
L 172.687709 52.24329 
L 173.692511 52.238952 
L 174.697313 52.233796 
L 175.702115 52.227635 
L 176.706917 52.220118 
L 177.711719 52.210675 
" clip-path="url(#pc7e84be6e6)" style="fill: none; stroke: #ff7f0e; stroke-width: 1.5"/>
    <path d="M 177.711719 44.628984 
L 176.706917 44.587641 
L 175.702115 44.558643 
L 174.697313 44.53813 
L 173.692511 44.523545 
L 172.687709 44.513126 
L 171.682907 44.505615 
L 170.678105 44.500085 
L 169.673303 44.495858 
L 168.668501 44.492483 
L 167.6637 44.489727 
L 166.658898 44.487556 
L 165.654096 44.486094 
L 164.649294 44.485545 
L 163.644492 44.486127 
L 162.63969 44.48799 
L 161.634888 44.491131 
L 160.630086 44.495248 
L 159.625284 44.499549 
L 158.620482 44.502568 
L 157.61568 44.502297 
L 156.610878 44.496944 
L 155.606076 44.48613 
L 154.601275 44.471362 
L 153.596473 44.455086 
L 152.591671 44.4393 
L 151.586869 44.424938 
L 150.582067 44.412053 
L 149.577265 44.400235 
L 148.694075 44.390118 
L 148.572463 44.365574 
L 147.567661 44.174608 
L 146.562859 44.040581 
L 145.558057 43.946331 
L 144.553255 43.879841 
L 143.548453 43.832736 
L 142.543652 43.799217 
L 141.53885 43.775299 
L 140.534048 43.758263 
L 139.529246 43.74627 
L 138.524444 43.738103 
L 137.519642 43.732981 
L 136.51484 43.730458 
L 135.510038 43.730358 
L 134.505236 43.732755 
L 133.500434 43.737999 
L 132.495632 43.746788 
L 131.49083 43.760313 
L 130.486028 43.78052 
L 129.481227 43.810565 
L 128.476425 43.855614 
" clip-path="url(#pc7e84be6e6)" style="fill: none; stroke: #ff7f0e; stroke-width: 1.5"/>
   </g>
   <g id="PathCollection_6">
    <path d="M 128.476425 52.290577 
L 129.481227 52.492854 
L 130.486028 52.628536 
L 131.49083 52.72155 
L 132.495632 52.786859 
L 133.500434 52.834029 
L 134.505236 52.869356 
L 135.510038 52.897146 
L 136.51484 52.920506 
L 137.519642 52.941821 
L 138.524444 52.963046 
L 139.529246 52.98583 
L 139.82472 52.993815 
L 140.534048 53.147866 
L 141.53885 53.309923 
L 142.543652 53.417986 
L 143.548453 53.490865 
L 144.553255 53.540543 
L 145.558057 53.574655 
L 146.562859 53.598075 
L 147.567661 53.613916 
L 148.572463 53.624146 
L 149.577265 53.629965 
L 150.582067 53.632026 
L 151.586869 53.630549 
L 152.591671 53.625358 
L 153.596473 53.615841 
L 154.601275 53.600832 
L 155.606076 53.578361 
L 156.610878 53.545225 
L 157.61568 53.496223 
L 158.620482 53.422815 
L 159.625284 53.310716 
L 160.630086 53.135509 
L 161.233071 52.993815 
L 161.634888 52.927043 
L 162.63969 52.753753 
L 163.644492 52.574074 
L 164.649294 52.424339 
L 165.654096 52.331447 
L 166.658898 52.296605 
L 167.6637 52.302227 
L 168.668501 52.327955 
L 169.673303 52.359178 
L 170.678105 52.387618 
L 171.682907 52.409164 
L 172.687709 52.421824 
L 173.692511 52.424412 
L 174.697313 52.415777 
L 175.702115 52.39433 
L 176.706917 52.357652 
L 177.711719 52.30206 
" clip-path="url(#pc7e84be6e6)" style="fill: none; stroke: #2ca02c; stroke-width: 1.5"/>
    <path d="M 177.711719 43.914928 
L 176.706917 43.881258 
L 175.702115 43.854388 
L 174.697313 43.832929 
L 173.692511 43.815911 
L 172.687709 43.8026 
L 171.682907 43.792392 
L 170.678105 43.784737 
L 169.673303 43.779104 
L 168.668501 43.774946 
L 167.6637 43.7717 
L 166.658898 43.768817 
L 165.654096 43.765839 
L 164.649294 43.762501 
L 163.644492 43.758795 
L 162.63969 43.754954 
L 161.634888 43.751343 
L 160.630086 43.748341 
L 159.625284 43.746255 
L 158.620482 43.745288 
L 157.61568 43.745552 
L 156.610878 43.747104 
L 155.606076 43.74997 
L 154.601275 43.754189 
L 153.596473 43.759848 
L 152.591671 43.767136 
L 151.586869 43.776395 
L 150.582067 43.7882 
L 149.577265 43.803447 
L 148.572463 43.823485 
L 147.567661 43.850323 
L 146.562859 43.886963 
L 145.558057 43.937962 
L 144.553255 44.010357 
L 143.548453 44.115251 
L 142.543652 44.270501 
L 141.95056 44.390118 
L 141.53885 44.401705 
L 140.534048 44.430158 
L 139.529246 44.461458 
L 138.524444 44.495602 
L 137.519642 44.5325 
L 136.51484 44.571983 
L 135.510038 44.61391 
L 134.505236 44.658381 
L 133.500434 44.706073 
L 132.495632 44.758604 
L 131.49083 44.818868 
L 130.486028 44.891373 
L 129.481227 44.98273 
L 128.476425 45.102518 
" clip-path="url(#pc7e84be6e6)" style="fill: none; stroke: #2ca02c; stroke-width: 1.5"/>
   </g>
   <g id="line2d_8">
    <path d="M 159.695476 49.789301 
" clip-path="url(#pc7e84be6e6)" style="fill: none; stroke: #000000; stroke-width: 1.5; stroke-linecap: square"/>
    <g clip-path="url(#pc7e84be6e6)">
     <use xlink:href="#m3be395de6c" x="159.695476" y="49.789301" style="stroke: #000000; stroke-width: 2"/>
    </g>
   </g>
  </g>
  <g id="axes_4"/>
  <g id="axes_5">
   <g id="patch_6">
    <path d="M 69.394072 96.585882 
L 118.629366 96.585882 
L 118.629366 61.454118 
L 69.394072 61.454118 
z
" style="fill: #ffffff"/>
   </g>
   <g id="matplotlib.axis_7">
    <g id="xtick_7">
     <g id="line2d_9">
      <g>
       <use xlink:href="#m8de7cf59ff" x="69.394072" y="101.585882" style="stroke: #000000; stroke-width: 0.5"/>
      </g>
     </g>
     <g id="text_4">
      <text style="font: 7px 'Arial'; text-anchor: middle" x="69.394072" y="112.096351" transform="rotate(-0, 69.394072, 112.096351)">-5</text>
     </g>
    </g>
    <g id="xtick_8">
     <g id="line2d_10">
      <g>
       <use xlink:href="#m8de7cf59ff" x="118.629366" y="101.585882" style="stroke: #000000; stroke-width: 0.5"/>
      </g>
     </g>
     <g id="text_5">
      <text style="font: 7px 'Arial'; text-anchor: middle" x="118.629366" y="112.096351" transform="rotate(-0, 118.629366, 112.096351)">5</text>
     </g>
    </g>
    <g id="text_6">
     <!-- $\theta_{1}$ -->
     <g transform="translate(89.931719 123.327601)">
      <text>
       <tspan style="font: 8px 'Arial'" x="0" y="-0.171875">θ</tspan>
       <tspan style="font: 5.6px 'Arial'" x="4.588606" y="2.217625">1</tspan>
      </text>
     </g>
    </g>
   </g>
   <g id="matplotlib.axis_8">
    <g id="ytick_7"/>
    <g id="ytick_8"/>
   </g>
   <g id="line2d_11">
    <path d="M 69.394072 93.537258 
L 70.398874 93.537258 
L 71.403676 93.537258 
L 72.408477 93.537258 
L 73.413279 93.537258 
L 74.418081 93.537258 
L 75.422883 93.537258 
L 76.427685 93.537258 
L 77.432487 93.537178 
L 78.437289 93.434834 
L 79.442091 91.985544 
L 80.446893 88.197588 
L 81.451695 80.345684 
L 82.456497 69.131367 
L 83.461299 65.077096 
L 84.466101 69.60149 
L 85.470902 79.75593 
L 86.475704 87.883704 
L 87.480506 92.557463 
L 88.485308 93.023656 
L 89.49011 93.519491 
L 90.494912 93.537256 
L 91.499714 93.537258 
L 92.504516 93.537258 
L 93.509318 93.537258 
L 94.51412 93.537258 
L 95.518922 93.537258 
L 96.523724 93.537258 
L 97.528525 93.537258 
L 98.533327 93.537258 
L 99.538129 93.537258 
L 100.542931 93.537258 
L 101.547733 93.537258 
L 102.552535 93.537258 
L 103.557337 93.537258 
L 104.562139 93.537258 
L 105.566941 93.537258 
L 106.571743 93.537258 
L 107.576545 93.537258 
L 108.581347 93.537258 
L 109.586149 93.537258 
L 110.59095 93.537258 
L 111.595752 93.537258 
L 112.600554 93.537258 
L 113.605356 93.537258 
L 114.610158 93.537258 
L 115.61496 93.537258 
L 116.619762 93.537258 
L 117.624564 93.537258 
L 118.629366 93.537258 
" clip-path="url(#pc7bac5d5f9)" style="fill: none; stroke: #1f77b4; stroke-width: 1.5; stroke-linecap: square"/>
   </g>
   <g id="line2d_12">
    <path d="M 69.394072 93.537258 
L 70.398874 93.537258 
L 71.403676 93.537258 
L 72.408477 93.537258 
L 73.413279 93.537258 
L 74.418081 93.537258 
L 75.422883 93.537258 
L 76.427685 93.535323 
L 77.432487 93.414531 
L 78.437289 93.28086 
L 79.442091 90.943733 
L 80.446893 89.207552 
L 81.451695 83.515875 
L 82.456497 71.771102 
L 83.461299 64.502742 
L 84.466101 69.827806 
L 85.470902 78.303815 
L 86.475704 85.504086 
L 87.480506 91.475616 
L 88.485308 93.034495 
L 89.49011 93.401933 
L 90.494912 93.535174 
L 91.499714 93.537258 
L 92.504516 93.537258 
L 93.509318 93.537258 
L 94.51412 93.537258 
L 95.518922 93.537258 
L 96.523724 93.537258 
L 97.528525 93.537258 
L 98.533327 93.537258 
L 99.538129 93.537258 
L 100.542931 93.537258 
L 101.547733 93.537258 
L 102.552535 93.537258 
L 103.557337 93.537258 
L 104.562139 93.537258 
L 105.566941 93.537258 
L 106.571743 93.537258 
L 107.576545 93.537258 
L 108.581347 93.537258 
L 109.586149 93.537258 
L 110.59095 93.537258 
L 111.595752 93.537258 
L 112.600554 93.537258 
L 113.605356 93.537258 
L 114.610158 93.537258 
L 115.61496 93.537258 
L 116.619762 93.537258 
L 117.624564 93.537258 
L 118.629366 93.537258 
" clip-path="url(#pc7bac5d5f9)" style="fill: none; stroke: #ff7f0e; stroke-width: 1.5; stroke-linecap: square"/>
   </g>
   <g id="line2d_13">
    <path d="M 69.394072 93.537258 
L 70.398874 93.537258 
L 71.403676 93.537258 
L 72.408477 93.537258 
L 73.413279 93.537258 
L 74.418081 93.537258 
L 75.422883 93.537255 
L 76.427685 93.531395 
L 77.432487 93.365216 
L 78.437289 93.168423 
L 79.442091 92.48972 
L 80.446893 88.221566 
L 81.451695 79.956215 
L 82.456497 74.073136 
L 83.461299 65.461036 
L 84.466101 68.74104 
L 85.470902 78.862513 
L 86.475704 86.405859 
L 87.480506 90.913519 
L 88.485308 93.02258 
L 89.49011 93.487071 
L 90.494912 93.53712 
L 91.499714 93.537258 
L 92.504516 93.537258 
L 93.509318 93.537258 
L 94.51412 93.537258 
L 95.518922 93.537258 
L 96.523724 93.537258 
L 97.528525 93.537258 
L 98.533327 93.537258 
L 99.538129 93.537258 
L 100.542931 93.537258 
L 101.547733 93.537258 
L 102.552535 93.537258 
L 103.557337 93.537258 
L 104.562139 93.537258 
L 105.566941 93.537258 
L 106.571743 93.537258 
L 107.576545 93.537258 
L 108.581347 93.537258 
L 109.586149 93.537258 
L 110.59095 93.537258 
L 111.595752 93.537258 
L 112.600554 93.537258 
L 113.605356 93.537258 
L 114.610158 93.537258 
L 115.61496 93.537258 
L 116.619762 93.537258 
L 117.624564 93.537258 
L 118.629366 93.537258 
" clip-path="url(#pc7bac5d5f9)" style="fill: none; stroke: #2ca02c; stroke-width: 1.5; stroke-linecap: square"/>
   </g>
   <g id="line2d_14">
    <path d="M 84.530125 94.988984 
L 84.530125 63.051016 
" clip-path="url(#pc7bac5d5f9)" style="fill: none; stroke: #000000; stroke-linecap: square"/>
   </g>
   <g id="patch_7">
    <path d="M 69.394072 101.585882 
L 118.629366 101.585882 
" style="fill: none; stroke: #000000; stroke-width: 0.7; stroke-linejoin: miter; stroke-linecap: square"/>
   </g>
  </g>
  <g id="axes_6">
   <g id="patch_8">
    <path d="M 128.476425 96.585882 
L 177.711719 96.585882 
L 177.711719 61.454118 
L 128.476425 61.454118 
z
" style="fill: #ffffff"/>
   </g>
   <g id="matplotlib.axis_9">
    <g id="xtick_9"/>
    <g id="xtick_10"/>
   </g>
   <g id="matplotlib.axis_10">
    <g id="ytick_9"/>
    <g id="ytick_10"/>
   </g>
   <g id="PathCollection_7">
    <path d="M 128.476425 90.735956 
L 129.481227 90.747861 
L 130.486028 90.754177 
L 131.49083 90.755963 
L 132.495632 90.753744 
L 133.500434 90.747723 
L 134.505236 90.738002 
L 135.510038 90.724854 
L 136.51484 90.70907 
L 137.519642 90.69219 
L 138.524444 90.676298 
L 139.529246 90.663232 
L 140.534048 90.653752 
L 141.53885 90.647457 
L 142.543652 90.643537 
L 143.548453 90.641641 
L 144.553255 90.642252 
L 145.558057 90.646368 
L 146.562859 90.654646 
L 147.567661 90.666587 
L 148.572463 90.680486 
L 149.577265 90.694179 
L 150.582067 90.705866 
L 151.586869 90.714432 
L 152.591671 90.719329 
L 153.596473 90.720307 
L 154.601275 90.71724 
L 155.606076 90.710111 
L 156.610878 90.699272 
L 157.61568 90.686074 
L 158.620482 90.673704 
L 159.625284 90.667245 
L 160.630086 90.671249 
L 161.634888 90.68581 
L 162.63969 90.706121 
L 163.644492 90.726454 
L 164.649294 90.743316 
L 165.654096 90.75554 
L 166.658898 90.76315 
L 167.6637 90.766455 
L 168.668501 90.765592 
L 169.673303 90.760315 
L 170.678105 90.749836 
L 171.682907 90.732605 
L 172.687709 90.70593 
L 173.692511 90.665329 
L 174.697313 90.603398 
L 175.702115 90.50789 
L 176.706917 90.35847 
L 177.677208 90.133109 
L 177.711719 90.132415 
" clip-path="url(#pac1a18e6b5)" style="fill: none; stroke: #1f77b4; stroke-width: 1.5"/>
    <path d="M 177.711719 82.255571 
L 176.706917 82.247536 
L 176.531351 82.246387 
L 175.702115 82.175071 
L 174.697313 82.10844 
L 173.692511 82.056773 
L 172.687709 82.015713 
L 171.682907 81.98272 
L 170.678105 81.956553 
L 169.673303 81.936859 
L 168.668501 81.923864 
L 167.6637 81.918192 
L 166.658898 81.920833 
L 165.654096 81.933245 
L 164.649294 81.95759 
L 163.644492 81.997106 
L 162.63969 82.056682 
L 161.634888 82.143723 
L 160.788156 82.246387 
L 160.630086 82.247814 
L 159.625284 82.257573 
L 158.620482 82.268313 
L 157.61568 82.27958 
L 156.610878 82.290915 
L 155.606076 82.301911 
L 154.601275 82.312198 
L 153.596473 82.321365 
L 152.591671 82.328901 
L 151.586869 82.334267 
L 150.582067 82.337118 
L 149.577265 82.337525 
L 148.572463 82.335998 
L 147.567661 82.333215 
L 146.562859 82.329655 
L 145.558057 82.32528 
L 144.553255 82.319341 
L 143.548453 82.31027 
L 142.543652 82.29581 
L 141.53885 82.273711 
L 140.636889 82.246387 
L 140.534048 82.225585 
L 139.529246 82.047209 
L 138.524444 81.930878 
L 137.519642 81.854841 
L 136.51484 81.80571 
L 135.510038 81.775402 
L 134.505236 81.759232 
L 133.500434 81.754824 
L 132.495632 81.761563 
L 131.49083 81.78047 
L 130.486028 81.814479 
L 129.481227 81.869204 
L 128.476425 81.954517 
" clip-path="url(#pac1a18e6b5)" style="fill: none; stroke: #1f77b4; stroke-width: 1.5"/>
   </g>
   <g id="PathCollection_8">
    <path d="M 128.476425 89.925038 
L 129.481227 89.981307 
L 130.486028 90.018577 
L 131.49083 90.043885 
L 132.495632 90.061522 
L 133.500434 90.074228 
L 134.505236 90.083888 
L 135.510038 90.091986 
L 136.51484 90.099936 
L 137.519642 90.109354 
L 138.524444 90.122268 
L 139.099355 90.133109 
L 139.529246 90.308676 
L 140.534048 90.691065 
L 141.002697 90.850084 
L 141.53885 90.997484 
L 142.543652 91.204268 
L 143.548453 91.329692 
L 144.553255 91.408306 
L 145.558057 91.459178 
L 146.562859 91.493123 
L 147.567661 91.516427 
L 148.572463 91.532829 
L 149.577265 91.54459 
L 150.582067 91.553082 
L 151.586869 91.559122 
L 152.591671 91.56315 
L 153.596473 91.565328 
L 154.601275 91.565565 
L 155.606076 91.563499 
L 156.610878 91.558421 
L 157.61568 91.549114 
L 158.620482 91.533575 
L 159.625284 91.508525 
L 160.630086 91.468565 
L 161.634888 91.404765 
L 162.63969 91.302406 
L 163.644492 91.137877 
L 164.649294 90.876378 
L 164.745988 90.850084 
L 165.654096 90.832053 
L 166.658898 90.821149 
L 167.6637 90.816421 
L 168.668501 90.815383 
L 169.673303 90.816227 
L 170.678105 90.817786 
L 171.682907 90.819365 
L 172.687709 90.820572 
L 173.692511 90.821175 
L 174.697313 90.821004 
L 175.702115 90.819896 
L 176.706917 90.817637 
L 177.711719 90.813924 
" clip-path="url(#pac1a18e6b5)" style="fill: none; stroke: #ff7f0e; stroke-width: 1.5"/>
    <path d="M 177.711719 82.525888 
L 176.706917 82.460611 
L 175.702115 82.41384 
L 174.697313 82.379223 
L 173.692511 82.352584 
L 172.687709 82.331126 
L 171.682907 82.312974 
L 170.678105 82.296912 
L 169.673303 82.28222 
L 168.668501 82.268546 
L 167.6637 82.255784 
L 166.883299 82.246387 
L 166.658898 82.209741 
L 165.654096 82.071956 
L 164.649294 81.977225 
L 163.644492 81.912107 
L 162.63969 81.86779 
L 161.634888 81.838288 
L 160.630086 81.819154 
L 159.625284 81.806451 
L 158.620482 81.79591 
L 157.61568 81.782614 
L 156.610878 81.761981 
L 155.606076 81.732214 
L 154.601275 81.696051 
L 153.596473 81.65908 
L 152.591671 81.626095 
L 151.586869 81.599222 
L 150.582067 81.578429 
L 149.577265 81.562729 
L 148.572463 81.55099 
L 147.567661 81.542276 
L 146.562859 81.535927 
L 145.558057 81.531545 
L 144.72413 81.529412 
L 144.553255 81.523146 
L 143.548453 81.514182 
L 142.759599 81.529412 
L 142.543652 81.529755 
L 141.53885 81.534069 
L 140.534048 81.542289 
L 139.529246 81.556136 
L 138.524444 81.578248 
L 137.519642 81.612429 
L 136.51484 81.663495 
L 135.510038 81.735664 
L 134.505236 81.827928 
L 133.500434 81.927456 
L 132.495632 82.010325 
L 131.49083 82.057762 
L 130.486028 82.071001 
L 129.481227 82.065362 
L 128.476425 82.056512 
" clip-path="url(#pac1a18e6b5)" style="fill: none; stroke: #ff7f0e; stroke-width: 1.5"/>
   </g>
   <g id="PathCollection_9">
    <path d="M 128.476425 89.948772 
L 129.481227 90.016929 
L 130.486028 90.07149 
L 131.49083 90.118529 
L 131.783719 90.133109 
L 132.495632 90.314148 
L 133.500434 90.494534 
L 134.505236 90.607935 
L 135.510038 90.681172 
L 136.51484 90.729705 
L 137.519642 90.762645 
L 138.524444 90.785476 
L 139.529246 90.801556 
L 140.534048 90.812978 
L 141.53885 90.821051 
L 142.543652 90.826598 
L 143.548453 90.830127 
L 144.553255 90.831941 
L 145.558057 90.832221 
L 146.562859 90.831086 
L 147.567661 90.828649 
L 148.572463 90.82508 
L 149.577265 90.820669 
L 150.582067 90.815906 
L 151.586869 90.811624 
L 152.591671 90.809249 
L 153.596473 90.81128 
L 154.601275 90.822127 
L 155.606076 90.84953 
L 155.617266 90.850084 
L 156.610878 91.084652 
L 157.61568 91.252945 
L 158.620482 91.365901 
L 159.625284 91.440889 
L 160.630086 91.491189 
L 161.634888 91.525656 
L 162.63969 91.54991 
L 163.616588 91.567059 
L 163.644492 91.571432 
L 164.649294 91.706166 
L 165.654096 91.797196 
L 166.658898 91.857893 
L 167.6637 91.896434 
L 168.668501 91.917664 
L 169.673303 91.924117 
L 170.678105 91.91654 
L 171.682907 91.894041 
L 172.687709 91.853919 
L 173.692511 91.791126 
L 174.697313 91.69722 
L 175.651223 91.567059 
L 175.702115 91.565918 
L 176.706917 91.539145 
L 177.711719 91.501376 
" clip-path="url(#pac1a18e6b5)" style="fill: none; stroke: #2ca02c; stroke-width: 1.5"/>
    <path d="M 177.711719 82.560206 
L 176.706917 82.482526 
L 175.702115 82.43035 
L 174.697313 82.394735 
L 173.692511 82.370191 
L 172.687709 82.353278 
L 171.682907 82.341802 
L 170.678105 82.334324 
L 169.673303 82.329836 
L 168.668501 82.327526 
L 167.6637 82.326538 
L 166.658898 82.325744 
L 165.654096 82.323592 
L 164.649294 82.318298 
L 163.644492 82.308616 
L 162.63969 82.294811 
L 161.634888 82.278708 
L 160.630086 82.262539 
L 159.625284 82.247771 
L 159.533355 82.246387 
L 158.620482 82.081611 
L 157.61568 81.952032 
L 156.610878 81.860486 
L 155.606076 81.794421 
L 154.601275 81.74569 
L 153.596473 81.708977 
L 152.591671 81.680808 
L 151.586869 81.658902 
L 150.582067 81.641766 
L 149.577265 81.628425 
L 148.572463 81.61824 
L 147.567661 81.610807 
L 146.562859 81.605891 
L 145.558057 81.603408 
L 144.553255 81.603426 
L 143.548453 81.606198 
L 142.543652 81.612216 
L 141.53885 81.62231 
L 140.534048 81.637798 
L 139.529246 81.660739 
L 138.524444 81.694322 
L 137.519642 81.743493 
L 136.51484 81.81594 
L 135.510038 81.923612 
L 134.505236 82.084983 
L 133.764732 82.246387 
L 133.500434 82.252442 
L 132.495632 82.27258 
L 131.49083 82.293014 
L 130.486028 82.315657 
L 129.481227 82.343108 
L 128.476425 82.379049 
" clip-path="url(#pac1a18e6b5)" style="fill: none; stroke: #2ca02c; stroke-width: 1.5"/>
   </g>
   <g id="line2d_15">
    <path d="M 159.695476 85.785576 
" clip-path="url(#pac1a18e6b5)" style="fill: none; stroke: #000000; stroke-width: 1.5; stroke-linecap: square"/>
    <g clip-path="url(#pac1a18e6b5)">
     <use xlink:href="#m3be395de6c" x="159.695476" y="85.785576" style="stroke: #000000; stroke-width: 2"/>
    </g>
   </g>
  </g>
  <g id="axes_7"/>
  <g id="axes_8"/>
  <g id="axes_9">
   <g id="patch_9">
    <path d="M 128.476425 138.744 
L 177.711719 138.744 
L 177.711719 103.612235 
L 128.476425 103.612235 
z
" style="fill: #ffffff"/>
   </g>
   <g id="matplotlib.axis_11">
    <g id="xtick_11">
     <g id="line2d_16">
      <g>
       <use xlink:href="#m8de7cf59ff" x="128.476425" y="143.744" style="stroke: #000000; stroke-width: 0.5"/>
      </g>
     </g>
     <g id="text_7">
      <text style="font: 7px 'Arial'; text-anchor: middle" x="128.476425" y="154.254469" transform="rotate(-0, 128.476425, 154.254469)">-5</text>
     </g>
    </g>
    <g id="xtick_12">
     <g id="line2d_17">
      <g>
       <use xlink:href="#m8de7cf59ff" x="177.711719" y="143.744" style="stroke: #000000; stroke-width: 0.5"/>
      </g>
     </g>
     <g id="text_8">
      <text style="font: 7px 'Arial'; text-anchor: middle" x="177.711719" y="154.254469" transform="rotate(-0, 177.711719, 154.254469)">5</text>
     </g>
    </g>
    <g id="text_9">
     <!-- $\theta_{2}$ -->
     <g transform="translate(149.014072 165.485719)">
      <text>
       <tspan style="font: 8px 'Arial'" x="0" y="-0.171875">θ</tspan>
       <tspan style="font: 5.6px 'Arial'" x="4.588606" y="2.217625">2</tspan>
      </text>
     </g>
    </g>
   </g>
   <g id="matplotlib.axis_12">
    <g id="ytick_11"/>
    <g id="ytick_12"/>
   </g>
   <g id="line2d_18">
    <path d="M 128.476425 132.909948 
L 129.481227 127.989765 
L 130.486028 123.410212 
L 131.49083 119.428821 
L 132.495632 116.188783 
L 133.500434 113.721786 
L 134.505236 111.979175 
L 135.510038 110.869944 
L 136.51484 110.287179 
L 137.519642 110.117362 
L 138.524444 110.240079 
L 139.529246 110.530885 
L 140.534048 110.875186 
L 141.53885 111.190264 
L 142.543652 111.443574 
L 143.548453 111.654402 
L 144.553255 111.874114 
L 145.558057 112.152843 
L 146.562859 112.509619 
L 147.567661 112.922261 
L 148.572463 113.342421 
L 149.577265 113.726497 
L 150.582067 114.063854 
L 151.586869 114.385625 
L 152.591671 114.748819 
L 153.596473 115.204438 
L 154.601275 115.766757 
L 155.606076 116.399865 
L 156.610878 117.028225 
L 157.61568 117.565854 
L 158.620482 117.949747 
L 159.625284 118.161691 
L 160.630086 118.228933 
L 161.634888 118.20471 
L 162.63969 118.139044 
L 163.644492 118.054009 
L 164.649294 117.934669 
L 165.654096 117.739484 
L 166.658898 117.425984 
L 167.6637 116.982442 
L 168.668501 116.455239 
L 169.673303 115.963666 
L 170.678105 115.697099 
L 171.682907 115.892528 
L 172.687709 116.793475 
L 173.692511 118.59556 
L 174.697313 121.389782 
L 175.702115 125.120023 
L 176.706917 129.572136 
L 177.711719 134.40472 
" clip-path="url(#p6ec76a9585)" style="fill: none; stroke: #1f77b4; stroke-width: 1.5; stroke-linecap: square"/>
   </g>
   <g id="line2d_19">
    <path d="M 128.476425 133.588791 
L 129.481227 129.946658 
L 130.486028 126.660973 
L 131.49083 123.852656 
L 132.495632 121.563242 
L 133.500434 119.763007 
L 134.505236 118.374653 
L 135.510038 117.303521 
L 136.51484 116.46502 
L 137.519642 115.80252 
L 138.524444 115.292689 
L 139.529246 114.938906 
L 140.534048 114.756209 
L 141.53885 114.753189 
L 142.543652 114.916807 
L 143.548453 115.205069 
L 144.553255 115.549779 
L 145.558057 115.868131 
L 146.562859 116.07904 
L 147.567661 116.11909 
L 148.572463 115.953967 
L 149.577265 115.583314 
L 150.582067 115.038951 
L 151.586869 114.377536 
L 152.591671 113.669248 
L 153.596473 112.984521 
L 154.601275 112.381561 
L 155.606076 111.897872 
L 156.610878 111.548532 
L 157.61568 111.331916 
L 158.620482 111.240568 
L 159.625284 111.272257 
L 160.630086 111.435562 
L 161.634888 111.746367 
L 162.63969 112.215911 
L 163.644492 112.835586 
L 164.649294 113.566338 
L 165.654096 114.339697 
L 166.658898 115.073322 
L 167.6637 115.698068 
L 168.668501 116.18849 
L 169.673303 116.586377 
L 170.678105 117.008113 
L 171.682907 117.630957 
L 172.687709 118.659237 
L 173.692511 120.2775 
L 174.697313 122.602213 
L 175.702115 125.645311 
L 176.706917 129.300706 
L 177.711719 133.35887 
" clip-path="url(#p6ec76a9585)" style="fill: none; stroke: #ff7f0e; stroke-width: 1.5; stroke-linecap: square"/>
   </g>
   <g id="line2d_20">
    <path d="M 128.476425 135.695376 
L 129.481227 131.643532 
L 130.486028 127.706486 
L 131.49083 124.070731 
L 132.495632 120.880271 
L 133.500434 118.224953 
L 134.505236 116.139905 
L 135.510038 114.612983 
L 136.51484 113.596409 
L 137.519642 113.019844 
L 138.524444 112.803467 
L 139.529246 112.869863 
L 140.534048 113.152852 
L 141.53885 113.600897 
L 142.543652 114.173732 
L 143.548453 114.833561 
L 144.553255 115.535272 
L 145.558057 116.221578 
L 146.562859 116.827481 
L 147.567661 117.294247 
L 148.572463 117.588024 
L 149.577265 117.71508 
L 150.582067 117.725925 
L 151.586869 117.704575 
L 152.591671 117.744876 
L 153.596473 117.920911 
L 154.601275 118.260796 
L 155.606076 118.732088 
L 156.610878 119.243258 
L 157.61568 119.660839 
L 158.620482 119.837677 
L 159.625284 119.645139 
L 160.630086 119.001645 
L 161.634888 117.891199 
L 162.63969 116.368271 
L 163.644492 114.548894 
L 164.649294 112.591451 
L 165.654096 110.673279 
L 166.658898 108.969939 
L 167.6637 107.642133 
L 168.668501 106.831338 
L 169.673303 106.66086 
L 170.678105 107.236245 
L 171.682907 108.639461 
L 172.687709 110.914823 
L 173.692511 114.049876 
L 174.697313 117.958632 
L 175.702115 122.475634 
L 176.706917 127.366593 
L 177.711719 132.355794 
" clip-path="url(#p6ec76a9585)" style="fill: none; stroke: #2ca02c; stroke-width: 1.5; stroke-linecap: square"/>
   </g>
   <g id="line2d_21">
    <path d="M 159.695476 137.147102 
L 159.695476 105.209134 
" clip-path="url(#p6ec76a9585)" style="fill: none; stroke: #000000; stroke-linecap: square"/>
   </g>
   <g id="patch_10">
    <path d="M 128.476425 143.744 
L 177.711719 143.744 
" style="fill: none; stroke: #000000; stroke-width: 0.7; stroke-linejoin: miter; stroke-linecap: square"/>
   </g>
  </g>
  <g id="text_10">
   <!-- $p(\theta \mid x_0, x_1, x_3)$ -->
   <g transform="translate(63.681719 13.77)">
    <text>
     <tspan style="font: 9px 'Arial'" x="0 5.005371 8.002441 18.400638 27.00924 31.009142 39.617744 43.617646 52.226248" y="-0.453125">p(θx,x,x)</tspan>
     <tspan style="font: 9px 'STIXGeneral'" x="14.507227" y="-0.453125">∣</tspan>
     <tspan style="font: 6.3px 'Arial'" x="23.057449 35.665953 48.274457" y="2.2350624999999997">013</tspan>
    </text>
   </g>
  </g>
 </g>
 <defs>
  <clipPath id="p085df47acd">
   <rect x="10.311719" y="19.296" width="49.235294" height="35.131765"/>
  </clipPath>
  <clipPath id="p31f8dfbe59">
   <rect x="69.394072" y="19.296" width="49.235294" height="35.131765"/>
  </clipPath>
  <clipPath id="pc7e84be6e6">
   <rect x="128.476425" y="19.296" width="49.235294" height="35.131765"/>
  </clipPath>
  <clipPath id="pc7bac5d5f9">
   <rect x="69.394072" y="61.454118" width="49.235294" height="35.131765"/>
  </clipPath>
  <clipPath id="pac1a18e6b5">
   <rect x="128.476425" y="61.454118" width="49.235294" height="35.131765"/>
  </clipPath>
  <clipPath id="p6ec76a9585">
   <rect x="128.476425" y="103.612235" width="49.235294" height="35.131765"/>
  </clipPath>
 </defs>
</svg>
