<?xml version="1.0" encoding="utf-8" standalone="no"?>
<!DOCTYPE svg PUBLIC "-//W3C//DTD SVG 1.1//EN"
  "http://www.w3.org/Graphics/SVG/1.1/DTD/svg11.dtd">
<svg xmlns:xlink="http://www.w3.org/1999/xlink" width="193.466328pt" height="175.085719pt" viewBox="0 0 193.466328 175.085719" xmlns="http://www.w3.org/2000/svg" version="1.1">
 <metadata>
  <rdf:RDF xmlns:dc="http://purl.org/dc/elements/1.1/" xmlns:cc="http://creativecommons.org/ns#" xmlns:rdf="http://www.w3.org/1999/02/22-rdf-syntax-ns#">
   <cc:Work>
    <dc:type rdf:resource="http://purl.org/dc/dcmitype/StillImage"/>
    <dc:date>2022-05-18T17:56:01.045361</dc:date>
    <dc:format>image/svg+xml</dc:format>
    <dc:creator>
     <cc:Agent>
      <dc:title>Matplotlib v3.5.1, https://matplotlib.org/</dc:title>
     </cc:Agent>
    </dc:creator>
   </cc:Work>
  </rdf:RDF>
 </metadata>
 <defs>
  <style type="text/css">*{stroke-linejoin: round; stroke-linecap: butt}</style>
 </defs>
 <g id="figure_1">
  <g id="patch_1">
   <path d="M 0 175.085719 
L 193.466328 175.085719 
L 193.466328 0 
L 0 0 
L 0 175.085719 
z
" style="fill: none"/>
  </g>
  <g id="axes_1">
   <g id="patch_2">
    <path d="M 16.92 54.427765 
L 66.155294 54.427765 
L 66.155294 19.296 
L 16.92 19.296 
z
" style="fill: #ffffff"/>
   </g>
   <g id="matplotlib.axis_1">
    <g id="xtick_1">
     <g id="line2d_1">
      <defs>
       <path id="mbad7a300e4" d="M 0 0 
L 0 2 
" style="stroke: #000000; stroke-width: 0.5"/>
      </defs>
      <g>
       <use xlink:href="#mbad7a300e4" x="16.92" y="59.427765" style="stroke: #000000; stroke-width: 0.5"/>
      </g>
     </g>
     <g id="text_1">
      <text style="font: 7px 'Arial'; text-anchor: middle" x="16.92" y="69.938233" transform="rotate(-0, 16.92, 69.938233)">-5</text>
     </g>
    </g>
    <g id="xtick_2">
     <g id="line2d_2">
      <g>
       <use xlink:href="#mbad7a300e4" x="66.155294" y="59.427765" style="stroke: #000000; stroke-width: 0.5"/>
      </g>
     </g>
     <g id="text_2">
      <text style="font: 7px 'Arial'; text-anchor: middle" x="66.155294" y="69.938233" transform="rotate(-0, 66.155294, 69.938233)">5</text>
     </g>
    </g>
    <g id="text_3">
     <!-- $\theta_{0}$ -->
     <g transform="translate(37.457647 81.169483)">
      <text>
       <tspan style="font: 8px 'Arial'" x="0" y="-0.171875">θ</tspan>
       <tspan style="font: 5.6px 'Arial'" x="4.588606" y="2.217625">0</tspan>
      </text>
     </g>
    </g>
   </g>
   <g id="matplotlib.axis_2">
    <g id="ytick_1"/>
    <g id="ytick_2"/>
   </g>
   <g id="line2d_3">
    <path d="M 16.92 51.37914 
L 17.924802 51.37914 
L 18.929604 51.378376 
L 19.934406 51.215773 
L 20.939208 50.588516 
L 21.94401 47.732194 
L 22.948812 39.434464 
L 23.953613 30.589782 
L 24.958415 23.0852 
L 25.963217 24.637435 
L 26.968019 32.377635 
L 27.972821 42.334132 
L 28.977623 48.734657 
L 29.982425 50.758529 
L 30.987227 51.042845 
L 31.992029 51.354547 
L 32.996831 51.379132 
L 34.001633 51.37914 
L 35.006435 51.37914 
L 36.011236 51.37914 
L 37.016038 51.37914 
L 38.02084 51.37914 
L 39.025642 51.37914 
L 40.030444 51.37914 
L 41.035246 51.37914 
L 42.040048 51.37914 
L 43.04485 51.37914 
L 44.049652 51.37914 
L 45.054454 51.37914 
L 46.059256 51.37914 
L 47.064058 51.37914 
L 48.06886 51.37914 
L 49.073661 51.37914 
L 50.078463 51.37914 
L 51.083265 51.37914 
L 52.088067 51.37914 
L 53.092869 51.37914 
L 54.097671 51.37914 
L 55.102473 51.37914 
L 56.107275 51.37914 
L 57.112077 51.37914 
L 58.116879 51.37914 
L 59.121681 51.37914 
L 60.126483 51.37914 
L 61.131285 51.37914 
L 62.136086 51.37914 
L 63.140888 51.37914 
L 64.14569 51.37914 
L 65.150492 51.37914 
L 66.155294 51.37914 
" clip-path="url(#pbed301b00c)" style="fill: none; stroke: #1f77b4; stroke-width: 1.5; stroke-linecap: square"/>
   </g>
   <g id="line2d_4">
    <path d="M 16.92 51.375347 
L 17.924802 51.2206 
L 18.929604 51.275862 
L 19.934406 50.928136 
L 20.939208 50.319132 
L 21.94401 47.798482 
L 22.948812 38.870438 
L 23.953613 26.408678 
L 24.958415 22.344624 
L 25.963217 28.271554 
L 26.968019 33.808505 
L 27.972821 42.840222 
L 28.977623 48.86445 
L 29.982425 50.855182 
L 30.987227 51.307459 
L 31.992029 51.378822 
L 32.996831 51.37914 
L 34.001633 51.37914 
L 35.006435 51.37914 
L 36.011236 51.37914 
L 37.016038 51.37914 
L 38.02084 51.37914 
L 39.025642 51.37914 
L 40.030444 51.37914 
L 41.035246 51.37914 
L 42.040048 51.37914 
L 43.04485 51.37914 
L 44.049652 51.37914 
L 45.054454 51.37914 
L 46.059256 51.37914 
L 47.064058 51.37914 
L 48.06886 51.37914 
L 49.073661 51.37914 
L 50.078463 51.37914 
L 51.083265 51.37914 
L 52.088067 51.37914 
L 53.092869 51.37914 
L 54.097671 51.37914 
L 55.102473 51.37914 
L 56.107275 51.37914 
L 57.112077 51.37914 
L 58.116879 51.37914 
L 59.121681 51.37914 
L 60.126483 51.37914 
L 61.131285 51.37914 
L 62.136086 51.37914 
L 63.140888 51.37914 
L 64.14569 51.37914 
L 65.150492 51.37914 
L 66.155294 51.37914 
" clip-path="url(#pbed301b00c)" style="fill: none; stroke: #ff7f0e; stroke-width: 1.5; stroke-linecap: square"/>
   </g>
   <g id="line2d_5">
    <path d="M 23.42056 52.830866 
L 23.42056 20.892898 
" clip-path="url(#pbed301b00c)" style="fill: none; stroke: #000000; stroke-linecap: square"/>
   </g>
   <g id="patch_3">
    <path d="M 16.92 59.427765 
L 66.155294 59.427765 
" style="fill: none; stroke: #000000; stroke-width: 0.7; stroke-linejoin: miter; stroke-linecap: square"/>
   </g>
  </g>
  <g id="axes_2">
   <g id="patch_4">
    <path d="M 76.002353 54.427765 
L 125.237647 54.427765 
L 125.237647 19.296 
L 76.002353 19.296 
z
" style="fill: #ffffff"/>
   </g>
   <g id="matplotlib.axis_3">
    <g id="xtick_3"/>
    <g id="xtick_4"/>
   </g>
   <g id="matplotlib.axis_4">
    <g id="ytick_3"/>
    <g id="ytick_4"/>
   </g>
   <g id="PathCollection_1">
    <path d="M 88.059976 52.758867 
L 89.064778 52.904159 
L 90.06958 52.951183 
L 91.074382 52.909124 
L 92.023553 52.27684 
L 92.079184 52.254323 
L 93.083986 52.020942 
L 93.923607 51.559866 
L 94.088788 51.546333 
L 95.093589 51.49124 
L 96.001126 50.842891 
L 96.024636 50.125916 
L 95.093589 49.423326 
L 95.080643 49.408941 
L 95.093589 49.331859 
L 95.756757 48.691966 
L 96.083494 47.974992 
L 96.00237 47.258017 
L 95.957988 46.541042 
L 95.093589 45.875893 
L 94.845675 45.824067 
L 94.088788 45.403196 
L 93.518789 45.107092 
L 93.21572 44.390118 
L 93.083986 44.290647 
L 92.354344 43.673143 
L 92.079184 43.485725 
L 91.074382 43.46567 
L 90.77649 43.673143 
L 90.06958 44.029093 
L 89.064778 44.000445 
L 88.059976 43.695303 
L 88.02716 43.673143 
L 87.055174 43.182466 
L 86.337615 43.673143 
L 86.107647 44.390118 
L 86.293732 45.107092 
L 86.050372 45.149797 
L 85.164566 45.824067 
L 85.167344 46.541042 
L 85.077531 47.258017 
L 85.04557 47.429649 
L 84.417223 47.974992 
L 84.22485 48.691966 
L 84.224326 49.408941 
L 84.214886 50.125916 
L 84.678687 50.842891 
L 85.04557 51.108875 
L 86.050372 51.466421 
L 87.055174 51.47673 
L 87.106163 51.559866 
L 87.386106 52.27684 
L 88.059976 52.758867 
z
" clip-path="url(#pfd6070b70a)" style="fill: none; stroke: #1f77b4; stroke-width: 1.5"/>
   </g>
   <g id="PathCollection_2">
    <path d="M 92.358323 54.427765 
L 93.083986 54.361702 
L 93.935783 53.71079 
L 93.935281 52.993815 
L 94.026333 52.27684 
L 93.946799 51.559866 
L 94.088788 51.505417 
L 95.004034 50.842891 
L 95.093589 50.739394 
L 95.933024 50.125916 
L 96.082545 49.408941 
L 96.098391 49.071311 
L 96.355895 48.691966 
L 96.531199 47.974992 
L 96.098391 47.48609 
L 96.04831 47.258017 
L 96.098391 46.796347 
L 96.261737 46.541042 
L 96.098391 46.407101 
L 95.674244 45.824067 
L 95.093589 45.417317 
L 94.902671 45.107092 
L 94.088788 44.509958 
L 93.892519 44.390118 
L 93.083986 43.833965 
L 92.079184 43.736996 
L 91.074382 44.060615 
L 90.598867 44.390118 
L 90.06958 44.518455 
L 89.064778 44.630241 
L 88.059976 44.570208 
L 87.055174 44.796794 
L 86.608106 45.107092 
L 86.050372 45.55375 
L 85.681422 45.824067 
L 85.066549 46.541042 
L 85.04557 46.569513 
L 84.040768 46.685546 
L 83.217753 47.258017 
L 83.082141 47.974992 
L 83.258383 48.691966 
L 83.240048 49.408941 
L 84.040768 50.032082 
L 84.276492 50.125916 
L 85.04557 50.613558 
L 85.226608 50.842891 
L 86.050372 51.432505 
L 86.23318 51.559866 
L 86.342639 52.27684 
L 87.055174 52.821728 
L 87.847519 52.993815 
L 88.059976 53.113042 
L 88.286524 52.993815 
L 89.064778 52.893276 
L 90.06958 52.940775 
L 90.614452 52.993815 
L 90.629505 53.71079 
L 91.074382 54.054136 
L 91.896552 54.427765 
" clip-path="url(#pfd6070b70a)" style="fill: none; stroke: #ff7f0e; stroke-width: 1.5"/>
   </g>
   <g id="line2d_6">
    <path d="M 91.138406 49.789301 
" clip-path="url(#pfd6070b70a)" style="fill: none; stroke: #000000; stroke-width: 1.5; stroke-linecap: square"/>
    <defs>
     <path id="me11b4113a9" d="M -2.5 2.5 
L 2.5 -2.5 
M -2.5 -2.5 
L 2.5 2.5 
" style="stroke: #000000; stroke-width: 2"/>
    </defs>
    <g clip-path="url(#pfd6070b70a)">
     <use xlink:href="#me11b4113a9" x="91.138406" y="49.789301" style="stroke: #000000; stroke-width: 2"/>
    </g>
   </g>
  </g>
  <g id="axes_3">
   <g id="patch_5">
    <path d="M 135.084706 54.427765 
L 184.32 54.427765 
L 184.32 19.296 
L 135.084706 19.296 
z
" style="fill: #ffffff"/>
   </g>
   <g id="matplotlib.axis_5">
    <g id="xtick_5"/>
    <g id="xtick_6"/>
   </g>
   <g id="matplotlib.axis_6">
    <g id="ytick_5"/>
    <g id="ytick_6"/>
   </g>
   <g id="PathCollection_3">
    <path d="M 166.233565 52.859926 
L 167.238367 52.969569 
L 168.243169 52.955484 
L 169.247971 52.64991 
L 169.832314 52.27684 
L 170.252773 52.207041 
L 171.257575 52.211403 
L 172.262377 52.03914 
L 172.989604 51.559866 
L 173.267179 51.46302 
L 174.139834 50.842891 
L 174.271981 50.455065 
L 174.680729 50.125916 
L 175.276783 49.822294 
L 175.839519 49.408941 
L 176.05917 48.691966 
L 176.126508 47.974992 
L 176.281585 47.928966 
L 177.102386 47.258017 
L 176.281585 46.60933 
L 175.972476 46.541042 
L 175.276783 46.203316 
L 174.878129 45.824067 
L 174.271981 45.371766 
L 173.515479 45.107092 
L 174.111701 44.390118 
L 173.666069 43.673143 
L 173.267179 43.404346 
L 172.262377 43.190624 
L 171.395115 43.673143 
L 171.257575 43.807903 
L 170.521028 44.390118 
L 170.252773 44.453896 
L 169.990707 44.390118 
L 169.247971 43.966517 
L 168.243169 43.762918 
L 167.698869 43.673143 
L 167.238367 43.400392 
L 166.233565 43.404397 
L 165.79702 43.673143 
L 165.228764 44.044221 
L 164.783544 44.390118 
L 164.223962 44.556365 
L 163.21916 44.477923 
L 162.214358 44.557782 
L 161.209556 44.824253 
L 160.776941 45.107092 
L 160.245429 45.824067 
L 160.769991 46.541042 
L 160.204754 46.709254 
L 159.199952 46.607951 
L 158.19515 46.841118 
L 157.61033 47.258017 
L 157.786754 47.974992 
L 158.19515 48.26065 
L 159.199952 48.572472 
L 159.543068 48.691966 
L 159.910718 49.408941 
L 159.199952 49.749093 
L 158.7037 50.125916 
L 159.199952 50.622443 
L 159.371879 50.842891 
L 160.204754 51.325597 
L 161.209556 51.460306 
L 162.214358 51.5371 
L 163.21916 51.557817 
L 163.237725 51.559866 
L 164.223962 52.158765 
L 165.228764 52.274832 
L 165.239038 52.27684 
L 166.233565 52.859926 
z
" clip-path="url(#p8df7033208)" style="fill: none; stroke: #1f77b4; stroke-width: 1.5"/>
   </g>
   <g id="PathCollection_4">
    <path d="M 162.359349 54.427765 
L 163.21916 54.32597 
L 164.089393 53.71079 
L 164.039639 52.993815 
L 164.067971 52.27684 
L 164.223962 52.171699 
L 164.449753 52.27684 
L 165.228764 52.749563 
L 166.233565 52.936544 
L 167.238367 52.931019 
L 168.243169 52.89338 
L 169.247971 52.986073 
L 170.252773 52.990897 
L 171.257575 52.829157 
L 172.029498 52.27684 
L 172.210649 51.559866 
L 172.262377 51.482005 
L 173.067533 50.842891 
L 173.267179 50.782266 
L 174.271981 50.521066 
L 174.86812 50.125916 
L 175.276783 49.669558 
L 175.60554 49.408941 
L 175.276783 48.777529 
L 175.267105 48.691966 
L 175.263713 47.974992 
L 175.245392 47.258017 
L 174.9566 46.541042 
L 174.271981 46.058004 
L 173.267179 45.839424 
L 173.187757 45.824067 
L 172.262377 45.255036 
L 171.57969 45.107092 
L 171.257575 44.908249 
L 170.252773 44.554456 
L 169.247971 44.486973 
L 168.243169 44.44124 
L 167.612175 44.390118 
L 167.238367 44.191835 
L 166.233565 43.859443 
L 165.228764 43.748361 
L 164.223962 43.789235 
L 163.21916 44.246738 
L 162.982741 44.390118 
L 162.214358 44.478598 
L 161.209556 44.611904 
L 160.27878 45.107092 
L 160.204754 45.132628 
L 159.199952 45.384266 
L 158.19515 45.609948 
L 157.838295 45.824067 
L 157.190348 46.164945 
L 156.710054 46.541042 
L 157.190348 47.118044 
L 157.24831 47.258017 
L 157.488792 47.974992 
L 157.190348 48.038642 
L 156.306584 48.691966 
L 156.534471 49.408941 
L 157.190348 49.851994 
L 158.024737 50.125916 
L 158.19515 50.424156 
L 158.248378 50.842891 
L 159.199952 51.464832 
L 159.872533 51.559866 
L 159.48026 52.27684 
L 159.835077 52.993815 
L 159.847941 53.71079 
L 160.204754 53.979478 
L 161.209556 54.409452 
L 161.880379 54.427765 
" clip-path="url(#p8df7033208)" style="fill: none; stroke: #ff7f0e; stroke-width: 1.5"/>
   </g>
   <g id="line2d_7">
    <path d="M 166.303757 49.789301 
" clip-path="url(#p8df7033208)" style="fill: none; stroke: #000000; stroke-width: 1.5; stroke-linecap: square"/>
    <g clip-path="url(#p8df7033208)">
     <use xlink:href="#me11b4113a9" x="166.303757" y="49.789301" style="stroke: #000000; stroke-width: 2"/>
    </g>
   </g>
  </g>
  <g id="axes_4"/>
  <g id="axes_5">
   <g id="patch_6">
    <path d="M 76.002353 96.585882 
L 125.237647 96.585882 
L 125.237647 61.454118 
L 76.002353 61.454118 
z
" style="fill: #ffffff"/>
   </g>
   <g id="matplotlib.axis_7">
    <g id="xtick_7">
     <g id="line2d_8">
      <g>
       <use xlink:href="#mbad7a300e4" x="76.002353" y="101.585882" style="stroke: #000000; stroke-width: 0.5"/>
      </g>
     </g>
     <g id="text_4">
      <text style="font: 7px 'Arial'; text-anchor: middle" x="76.002353" y="112.096351" transform="rotate(-0, 76.002353, 112.096351)">-5</text>
     </g>
    </g>
    <g id="xtick_8">
     <g id="line2d_9">
      <g>
       <use xlink:href="#mbad7a300e4" x="125.237647" y="101.585882" style="stroke: #000000; stroke-width: 0.5"/>
      </g>
     </g>
     <g id="text_5">
      <text style="font: 7px 'Arial'; text-anchor: middle" x="125.237647" y="112.096351" transform="rotate(-0, 125.237647, 112.096351)">5</text>
     </g>
    </g>
    <g id="text_6">
     <!-- $\theta_{1}$ -->
     <g transform="translate(96.54 123.327601)">
      <text>
       <tspan style="font: 8px 'Arial'" x="0" y="-0.171875">θ</tspan>
       <tspan style="font: 5.6px 'Arial'" x="4.588606" y="2.217625">1</tspan>
      </text>
     </g>
    </g>
   </g>
   <g id="matplotlib.axis_8">
    <g id="ytick_7"/>
    <g id="ytick_8"/>
   </g>
   <g id="line2d_10">
    <path d="M 76.002353 93.537258 
L 77.007155 93.537258 
L 78.011957 93.537258 
L 79.016759 93.537258 
L 80.021561 93.537258 
L 81.026363 93.537258 
L 82.031164 93.537258 
L 83.035966 93.537258 
L 84.040768 93.537215 
L 85.04557 93.458582 
L 86.050372 92.276946 
L 87.055174 88.082868 
L 88.059976 81.237828 
L 89.064778 69.104316 
L 90.06958 64.502742 
L 91.074382 68.179412 
L 92.079184 78.669417 
L 93.083986 89.075296 
L 94.088788 92.107085 
L 95.093589 93.221735 
L 96.098391 93.535243 
L 97.103193 93.537258 
L 98.107995 93.537258 
L 99.112797 93.537258 
L 100.117599 93.537258 
L 101.122401 93.537258 
L 102.127203 93.537258 
L 103.132005 93.537258 
L 104.136807 93.537258 
L 105.141609 93.537258 
L 106.146411 93.537258 
L 107.151212 93.537258 
L 108.156014 93.537258 
L 109.160816 93.537258 
L 110.165618 93.537258 
L 111.17042 93.537258 
L 112.175222 93.537258 
L 113.180024 93.537258 
L 114.184826 93.537258 
L 115.189628 93.537258 
L 116.19443 93.537258 
L 117.199232 93.537258 
L 118.204034 93.537258 
L 119.208836 93.537258 
L 120.213637 93.537258 
L 121.218439 93.537258 
L 122.223241 93.537258 
L 123.228043 93.537258 
L 124.232845 93.537258 
L 125.237647 93.537258 
" clip-path="url(#p6e333d4c75)" style="fill: none; stroke: #1f77b4; stroke-width: 1.5; stroke-linecap: square"/>
   </g>
   <g id="line2d_11">
    <path d="M 76.002353 93.537258 
L 77.007155 93.537258 
L 78.011957 93.537258 
L 79.016759 93.537258 
L 80.021561 93.537258 
L 81.026363 93.537258 
L 82.031164 93.537258 
L 83.035966 93.536195 
L 84.040768 93.402559 
L 85.04557 93.119715 
L 86.050372 91.978864 
L 87.055174 87.413258 
L 88.059976 78.941991 
L 89.064778 69.482094 
L 90.06958 66.187318 
L 91.074382 70.212457 
L 92.079184 79.987841 
L 93.083986 87.641874 
L 94.088788 92.057444 
L 95.093589 93.001771 
L 96.098391 93.525194 
L 97.103193 93.537254 
L 98.107995 93.537258 
L 99.112797 93.537258 
L 100.117599 93.537258 
L 101.122401 93.537258 
L 102.127203 93.537258 
L 103.132005 93.537258 
L 104.136807 93.537258 
L 105.141609 93.537258 
L 106.146411 93.537258 
L 107.151212 93.537258 
L 108.156014 93.537258 
L 109.160816 93.537258 
L 110.165618 93.537258 
L 111.17042 93.537258 
L 112.175222 93.537258 
L 113.180024 93.537258 
L 114.184826 93.537258 
L 115.189628 93.537258 
L 116.19443 93.537258 
L 117.199232 93.537258 
L 118.204034 93.537258 
L 119.208836 93.537258 
L 120.213637 93.537258 
L 121.218439 93.537258 
L 122.223241 93.537258 
L 123.228043 93.537258 
L 124.232845 93.537258 
L 125.237647 93.537258 
" clip-path="url(#p6e333d4c75)" style="fill: none; stroke: #ff7f0e; stroke-width: 1.5; stroke-linecap: square"/>
   </g>
   <g id="line2d_12">
    <path d="M 91.138406 94.988984 
L 91.138406 63.051016 
" clip-path="url(#p6e333d4c75)" style="fill: none; stroke: #000000; stroke-linecap: square"/>
   </g>
   <g id="patch_7">
    <path d="M 76.002353 101.585882 
L 125.237647 101.585882 
" style="fill: none; stroke: #000000; stroke-width: 0.7; stroke-linejoin: miter; stroke-linecap: square"/>
   </g>
  </g>
  <g id="axes_6">
   <g id="patch_8">
    <path d="M 135.084706 96.585882 
L 184.32 96.585882 
L 184.32 61.454118 
L 135.084706 61.454118 
z
" style="fill: #ffffff"/>
   </g>
   <g id="matplotlib.axis_9">
    <g id="xtick_9"/>
    <g id="xtick_10"/>
   </g>
   <g id="matplotlib.axis_10">
    <g id="ytick_9"/>
    <g id="ytick_10"/>
   </g>
   <g id="PathCollection_5">
    <path d="M 169.247971 90.56702 
L 170.252773 90.696202 
L 171.094236 90.133109 
L 171.257575 90.118975 
L 171.83155 90.133109 
L 172.262377 90.377706 
L 173.267179 90.707901 
L 174.271981 90.601045 
L 175.276783 90.494106 
L 175.898841 90.133109 
L 176.281585 90.012577 
L 177.045206 89.416134 
L 176.281585 88.873867 
L 175.71556 88.69916 
L 175.276783 88.383208 
L 174.271981 87.994713 
L 174.252797 87.982185 
L 174.271981 87.791673 
L 174.828658 87.26521 
L 174.271981 86.787095 
L 174.212859 86.548235 
L 173.267179 85.898163 
L 172.483008 85.831261 
L 172.262377 85.67897 
L 171.257575 85.135617 
L 171.196142 85.114286 
L 170.252773 84.456263 
L 169.247971 84.400844 
L 169.227438 84.397311 
L 168.243169 83.744335 
L 167.238367 83.688079 
L 167.201784 83.680336 
L 166.233565 83.007051 
L 165.500895 82.963361 
L 165.228764 82.771539 
L 164.223962 82.465541 
L 163.21916 82.317705 
L 162.214358 82.279662 
L 161.209556 82.272084 
L 160.204754 82.359796 
L 159.199952 82.45118 
L 158.19515 82.506688 
L 157.541509 82.963361 
L 158.19515 83.46319 
L 158.288552 83.680336 
L 159.199952 84.312503 
L 159.517742 84.397311 
L 160.204754 84.979078 
L 160.233444 85.114286 
L 161.209556 85.805729 
L 161.254269 85.831261 
L 161.375524 86.548235 
L 162.214358 87.160269 
L 162.313471 87.26521 
L 163.21916 87.885244 
L 164.223962 87.978436 
L 164.247418 87.982185 
L 164.349902 88.69916 
L 165.228764 89.317318 
L 166.221437 89.416134 
L 166.233565 89.424644 
L 167.238367 89.625437 
L 168.243169 90.004112 
L 168.634229 90.133109 
L 169.247971 90.56702 
z
" clip-path="url(#p679e26f1f1)" style="fill: none; stroke: #1f77b4; stroke-width: 1.5"/>
   </g>
   <g id="PathCollection_6">
    <path d="M 172.262377 91.398262 
L 173.267179 91.517205 
L 174.271981 91.466399 
L 175.099743 90.850084 
L 175.276783 90.478417 
L 175.662014 90.133109 
L 175.276783 89.749626 
L 175.231139 89.416134 
L 175.139082 88.69916 
L 174.271981 88.038516 
L 174.240825 87.982185 
L 173.750797 87.26521 
L 173.267179 86.884402 
L 173.123765 86.548235 
L 173.139175 85.831261 
L 172.975745 85.114286 
L 172.262377 84.605941 
L 171.961517 84.397311 
L 171.257575 83.901158 
L 170.252773 83.7249 
L 169.247971 83.714046 
L 168.243169 83.724173 
L 167.238367 83.681695 
L 167.185222 83.680336 
L 166.233565 83.310938 
L 165.228764 83.030008 
L 164.599676 82.963361 
L 164.223962 82.698948 
L 163.21916 82.302562 
L 162.214358 82.26279 
L 161.745935 82.246387 
L 161.209556 81.982959 
L 160.204754 82.062231 
L 159.930398 82.246387 
L 159.199952 82.326786 
L 158.19515 82.271271 
L 157.190348 82.24802 
L 156.316771 82.963361 
L 156.965287 83.680336 
L 157.190348 83.840323 
L 158.19515 84.36718 
L 158.262105 84.397311 
L 159.199952 85.049323 
L 159.439633 85.114286 
L 160.204754 85.777748 
L 160.241319 85.831261 
L 160.553582 86.548235 
L 161.209556 87.018704 
L 161.472264 87.26521 
L 162.214358 87.789433 
L 163.21916 87.965876 
L 163.265949 87.982185 
L 164.223962 88.630581 
L 164.518466 88.69916 
L 165.228764 89.198264 
L 166.233565 89.384295 
L 166.52041 89.416134 
L 167.238367 89.902292 
L 168.243169 90.055086 
L 169.247971 90.117946 
L 169.563557 90.133109 
L 170.252773 90.571419 
L 171.257575 90.810667 
L 171.466556 90.850084 
L 172.262377 91.398262 
z
" clip-path="url(#p679e26f1f1)" style="fill: none; stroke: #ff7f0e; stroke-width: 1.5"/>
   </g>
   <g id="line2d_13">
    <path d="M 166.303757 85.785576 
" clip-path="url(#p679e26f1f1)" style="fill: none; stroke: #000000; stroke-width: 1.5; stroke-linecap: square"/>
    <g clip-path="url(#p679e26f1f1)">
     <use xlink:href="#me11b4113a9" x="166.303757" y="85.785576" style="stroke: #000000; stroke-width: 2"/>
    </g>
   </g>
  </g>
  <g id="axes_7"/>
  <g id="axes_8"/>
  <g id="axes_9">
   <g id="patch_9">
    <path d="M 135.084706 138.744 
L 184.32 138.744 
L 184.32 103.612235 
L 135.084706 103.612235 
z
" style="fill: #ffffff"/>
   </g>
   <g id="matplotlib.axis_11">
    <g id="xtick_11">
     <g id="line2d_14">
      <g>
       <use xlink:href="#mbad7a300e4" x="135.084706" y="143.744" style="stroke: #000000; stroke-width: 0.5"/>
      </g>
     </g>
     <g id="text_7">
      <text style="font: 7px 'Arial'; text-anchor: middle" x="135.084706" y="154.254469" transform="rotate(-0, 135.084706, 154.254469)">-5</text>
     </g>
    </g>
    <g id="xtick_12">
     <g id="line2d_15">
      <g>
       <use xlink:href="#mbad7a300e4" x="184.32" y="143.744" style="stroke: #000000; stroke-width: 0.5"/>
      </g>
     </g>
     <g id="text_8">
      <text style="font: 7px 'Arial'; text-anchor: middle" x="184.32" y="154.254469" transform="rotate(-0, 184.32, 154.254469)">5</text>
     </g>
    </g>
    <g id="text_9">
     <!-- $\theta_{2}$ -->
     <g transform="translate(155.622353 165.485719)">
      <text>
       <tspan style="font: 8px 'Arial'" x="0" y="-0.171875">θ</tspan>
       <tspan style="font: 5.6px 'Arial'" x="4.588606" y="2.217625">2</tspan>
      </text>
     </g>
    </g>
   </g>
   <g id="matplotlib.axis_12">
    <g id="ytick_11"/>
    <g id="ytick_12"/>
   </g>
   <g id="line2d_16">
    <path d="M 135.084706 135.695376 
L 136.089508 135.695376 
L 137.09431 135.695376 
L 138.099112 135.695376 
L 139.103914 135.695376 
L 140.108715 135.695376 
L 141.113517 135.695376 
L 142.118319 135.695376 
L 143.123121 135.695376 
L 144.127923 135.695376 
L 145.132725 135.695376 
L 146.137527 135.695376 
L 147.142329 135.695376 
L 148.147131 135.695376 
L 149.151933 135.695376 
L 150.156735 135.695376 
L 151.161537 135.695376 
L 152.166339 135.695376 
L 153.17114 135.695376 
L 154.175942 135.695376 
L 155.180744 135.695376 
L 156.185546 135.695376 
L 157.190348 135.695294 
L 158.19515 135.67906 
L 159.199952 135.574535 
L 160.204754 135.554668 
L 161.209556 135.208256 
L 162.214358 133.701758 
L 163.21916 131.318567 
L 164.223962 128.53709 
L 165.228764 122.183252 
L 166.233565 113.128076 
L 167.238367 107.011733 
L 168.243169 106.66086 
L 169.247971 114.035833 
L 170.252773 122.842911 
L 171.257575 128.346578 
L 172.262377 132.235128 
L 173.267179 134.459137 
L 174.271981 135.302103 
L 175.276783 135.563509 
L 176.281585 135.66679 
L 177.286387 135.695124 
L 178.291188 135.695376 
L 179.29599 135.695376 
L 180.300792 135.695376 
L 181.305594 135.695376 
L 182.310396 135.695376 
L 183.315198 135.695376 
L 184.32 135.695376 
" clip-path="url(#p022e690b63)" style="fill: none; stroke: #1f77b4; stroke-width: 1.5; stroke-linecap: square"/>
   </g>
   <g id="line2d_17">
    <path d="M 135.084706 135.695376 
L 136.089508 135.695376 
L 137.09431 135.695376 
L 138.099112 135.695376 
L 139.103914 135.695376 
L 140.108715 135.695376 
L 141.113517 135.695376 
L 142.118319 135.695376 
L 143.123121 135.695376 
L 144.127923 135.695376 
L 145.132725 135.695376 
L 146.137527 135.695376 
L 147.142329 135.695376 
L 148.147131 135.695376 
L 149.151933 135.695376 
L 150.156735 135.695376 
L 151.161537 135.695376 
L 152.166339 135.695376 
L 153.17114 135.695376 
L 154.175942 135.695376 
L 155.180744 135.695373 
L 156.185546 135.69443 
L 157.190348 135.652675 
L 158.19515 135.418905 
L 159.199952 135.2818 
L 160.204754 134.986172 
L 161.209556 134.060143 
L 162.214358 132.279563 
L 163.21916 129.416183 
L 164.223962 125.165754 
L 165.228764 119.545262 
L 166.233565 113.70247 
L 167.238367 109.647457 
L 168.243169 110.658693 
L 169.247971 116.211917 
L 170.252773 122.763253 
L 171.257575 129.292643 
L 172.262377 133.253241 
L 173.267179 134.501339 
L 174.271981 135.49788 
L 175.276783 135.688852 
L 176.281585 135.69534 
L 177.286387 135.695376 
L 178.291188 135.695376 
L 179.29599 135.695376 
L 180.300792 135.695376 
L 181.305594 135.695376 
L 182.310396 135.695376 
L 183.315198 135.695376 
L 184.32 135.695376 
" clip-path="url(#p022e690b63)" style="fill: none; stroke: #ff7f0e; stroke-width: 1.5; stroke-linecap: square"/>
   </g>
   <g id="line2d_18">
    <path d="M 166.303757 137.147102 
L 166.303757 105.209134 
" clip-path="url(#p022e690b63)" style="fill: none; stroke: #000000; stroke-linecap: square"/>
   </g>
   <g id="patch_10">
    <path d="M 135.084706 143.744 
L 184.32 143.744 
" style="fill: none; stroke: #000000; stroke-width: 0.7; stroke-linejoin: miter; stroke-linecap: square"/>
   </g>
  </g>
  <g id="text_10">
   <!-- $p(\theta \mid x_0, x_1, x_2, x_3)$ -->
   <g transform="translate(63.99 13.77)">
    <text>
     <tspan style="font: 9px 'Arial'" x="0 5.005371 8.002441 18.400638 27.00924 31.009142 39.617744 43.617646 52.226248 56.226151 64.834753" y="-0.453125">p(θx,x,x,x)</tspan>
     <tspan style="font: 9px 'STIXGeneral'" x="14.507227" y="-0.453125">∣</tspan>
     <tspan style="font: 6.3px 'Arial'" x="23.057449 35.665953 48.274457 60.882962" y="2.2350624999999997">0123</tspan>
    </text>
   </g>
  </g>
  <g id="legend_1">
   <g id="line2d_19">
    <path d="M 18.277306 123.854174 
L 25.277306 123.854174 
L 32.277306 123.854174 
" style="fill: none; stroke: #1f77b4; stroke-width: 1.5; stroke-linecap: square"/>
   </g>
   <g id="text_11">
    <text style="font: 7px 'Arial'; text-anchor: start" x="37.877306" y="126.304174" transform="rotate(-0, 37.877306, 126.304174)">Ground truth</text>
   </g>
   <g id="line2d_20">
    <path d="M 18.277306 133.755893 
L 25.277306 133.755893 
L 32.277306 133.755893 
" style="fill: none; stroke: #ff7f0e; stroke-width: 1.5; stroke-linecap: square"/>
   </g>
   <g id="text_12">
    <text style="font: 7px 'Arial'; text-anchor: start" x="37.877306" y="136.205893" transform="rotate(-0, 37.877306, 136.205893)">NLE</text>
   </g>
   <g id="line2d_21">
    <path d="M 18.277306 143.657611 
L 25.277306 143.657611 
L 32.277306 143.657611 
" style="fill: none; stroke: #2ca02c; stroke-linecap: square"/>
   </g>
   <g id="text_13">
    <text style="font: 7px 'Arial'; text-anchor: start" x="37.877306" y="146.107611" transform="rotate(-0, 37.877306, 146.107611)">FSLM</text>
   </g>
   <g id="line2d_22">
    <path d="M 18.277306 153.658861 
L 25.277306 153.658861 
L 32.277306 153.658861 
" style="fill: none; stroke: #000000; stroke-width: 1.5; stroke-linecap: square"/>
    <g>
     <use xlink:href="#me11b4113a9" x="25.277306" y="153.658861" style="stroke: #000000; stroke-width: 2"/>
    </g>
   </g>
   <g id="text_14">
    <!-- $\theta_o$ -->
    <g transform="translate(37.877306 156.108861)">
     <text>
      <tspan style="font: 7px 'Arial'" x="0" y="-0.90625">θ</tspan>
      <tspan style="font: 4.9px 'Arial'" x="4.01503" y="1.1845625000000002">o</tspan>
     </text>
    </g>
   </g>
  </g>
 </g>
 <defs>
  <clipPath id="pbed301b00c">
   <rect x="16.92" y="19.296" width="49.235294" height="35.131765"/>
  </clipPath>
  <clipPath id="pfd6070b70a">
   <rect x="76.002353" y="19.296" width="49.235294" height="35.131765"/>
  </clipPath>
  <clipPath id="p8df7033208">
   <rect x="135.084706" y="19.296" width="49.235294" height="35.131765"/>
  </clipPath>
  <clipPath id="p6e333d4c75">
   <rect x="76.002353" y="61.454118" width="49.235294" height="35.131765"/>
  </clipPath>
  <clipPath id="p679e26f1f1">
   <rect x="135.084706" y="61.454118" width="49.235294" height="35.131765"/>
  </clipPath>
  <clipPath id="p022e690b63">
   <rect x="135.084706" y="103.612235" width="49.235294" height="35.131765"/>
  </clipPath>
 </defs>
</svg>
